<?xml version="1.0" standalone="no"?>
<!DOCTYPE svg PUBLIC "-//W3C//DTD SVG 20010904//EN"
 "http://www.w3.org/TR/2001/REC-SVG-20010904/DTD/svg10.dtd">
<svg version="1.0" xmlns="http://www.w3.org/2000/svg"
 width="3375.000000pt" height="4219.000000pt" viewBox="0 0 3375.000000 4219.000000"
 preserveAspectRatio="xMidYMid meet">
<metadata>
Created by potrace 1.16, written by Peter Selinger 2001-2019
</metadata>
<g transform="translate(0.000000,4219.000000) scale(0.100000,-0.100000)"
fill="#000000" stroke="none">
<path d="M0 21095 l0 -21095 16875 0 16875 0 0 21095 0 21095 -16875 0 -16875
0 0 -21095z m17780 18486 c118 -1 191 -16 215 -46 l21 -25 229 -5 c127 -3 250
-6 275 -5 34 0 41 -3 30 -10 -11 -8 -8 -9 13 -4 31 7 73 -9 97 -38 13 -16 36
-18 188 -19 196 -1 223 -6 267 -49 l31 -30 137 -1 c75 0 137 -4 137 -9 0 -4 8
-6 19 -3 11 3 32 -7 54 -27 33 -29 42 -31 124 -35 174 -7 184 -9 215 -44 28
-32 75 -42 197 -41 32 0 74 -28 67 -45 -7 -20 15 -25 117 -26 105 -1 159 -18
175 -55 10 -20 19 -24 59 -24 132 -2 181 -15 169 -47 -3 -8 -2 -12 3 -8 5 3
11 0 13 -6 3 -10 74 -19 155 -19 38 0 73 -18 84 -43 9 -21 20 -25 75 -30 64
-6 106 -25 134 -59 11 -13 30 -19 58 -20 23 0 42 -4 42 -9 0 -5 6 -6 14 -3 24
9 59 -15 53 -37 -7 -26 2 -29 72 -30 34 -1 61 -5 61 -9 0 -4 8 -7 18 -6 10 0
16 -6 16 -16 -1 -10 3 -15 8 -12 5 3 17 -1 26 -9 9 -8 40 -18 67 -22 68 -9
112 -29 120 -53 5 -16 18 -22 60 -27 34 -5 52 -11 48 -18 -3 -6 -1 -7 6 -3 16
10 43 -13 37 -31 -3 -8 -2 -12 3 -8 5 3 11 1 13 -4 1 -5 29 -12 62 -15 63 -6
86 -18 86 -47 0 -24 12 -30 60 -31 22 0 40 -4 40 -9 0 -5 6 -6 14 -3 15 6 46
-21 46 -41 0 -12 24 -18 103 -28 30 -3 50 -24 43 -44 -6 -14 7 -19 68 -28 28
-5 43 -11 39 -18 -3 -6 -1 -7 6 -3 16 10 43 -13 37 -31 -3 -8 -1 -11 4 -8 6 3
10 1 10 -4 0 -6 17 -11 38 -11 43 0 97 -30 107 -59 6 -21 15 -25 48 -22 9 1
17 -3 17 -8 0 -6 6 -10 13 -8 6 1 11 -4 9 -11 -1 -8 2 -11 7 -7 6 3 18 -6 27
-20 11 -17 25 -25 45 -25 15 0 30 -4 34 -10 3 -5 13 -6 22 -3 13 5 15 2 10
-11 -5 -11 -3 -15 5 -10 7 5 9 0 6 -14 -5 -18 0 -21 43 -27 27 -4 47 -11 43
-16 -3 -5 2 -6 11 -3 18 7 55 -22 55 -43 0 -7 14 -16 30 -19 17 -4 30 -11 30
-16 0 -5 5 -6 11 -2 7 4 10 1 7 -7 -11 -29 11 -49 55 -49 53 0 92 -20 92 -45
0 -21 25 -46 37 -38 13 7 49 -8 43 -18 -4 -5 -1 -9 5 -9 6 0 8 -5 5 -10 -11
-18 15 -40 40 -34 13 3 26 1 29 -4 3 -6 16 -8 28 -4 13 3 19 1 15 -5 -4 -6 1
-10 11 -9 10 0 16 -6 16 -16 -1 -10 2 -16 6 -13 4 3 10 -4 13 -15 3 -13 14
-20 30 -20 29 0 49 -21 45 -47 -2 -14 6 -19 50 -24 57 -7 79 -21 92 -55 6 -14
21 -24 44 -28 20 -4 37 -12 38 -19 0 -7 2 -18 2 -26 1 -8 15 -19 31 -24 37
-12 56 -26 54 -41 -4 -36 2 -48 22 -43 35 9 108 -22 115 -49 3 -13 12 -24 20
-24 8 0 14 -4 14 -10 0 -5 6 -7 14 -4 18 7 46 -22 46 -47 0 -12 7 -19 20 -19
11 0 20 -5 20 -11 0 -5 5 -7 11 -4 5 4 15 -7 22 -24 7 -21 21 -34 37 -38 36
-8 51 -23 48 -46 -2 -16 5 -23 32 -30 19 -5 48 -24 65 -42 16 -18 47 -38 69
-45 28 -9 42 -21 50 -42 7 -20 20 -31 38 -35 33 -6 45 -19 50 -53 2 -20 8 -24
27 -22 13 2 21 -1 17 -6 -3 -5 2 -9 12 -8 11 1 18 -8 20 -24 5 -33 20 -50 38
-43 20 8 44 -15 44 -43 0 -18 6 -24 21 -24 37 0 59 -19 59 -50 0 -25 4 -30 24
-30 31 0 59 -27 53 -51 -5 -18 24 -36 50 -31 6 2 15 -3 19 -9 5 -8 3 -10 -7
-4 -11 6 -12 5 -1 -6 6 -7 12 -21 12 -30 0 -17 28 -32 60 -33 8 -1 15 -11 16
-22 2 -30 12 -44 35 -44 10 0 19 -5 19 -10 0 -6 5 -9 12 -8 7 2 15 -12 18 -31
4 -29 9 -34 33 -36 31 -1 49 -21 43 -47 -4 -17 13 -28 44 -28 21 0 40 -28 40
-59 0 -20 9 -25 36 -22 13 1 35 -23 33 -35 -4 -24 4 -32 35 -38 34 -7 46 -21
46 -56 0 -11 12 -22 30 -29 20 -7 34 -21 41 -41 6 -16 15 -30 21 -30 5 0 7 -4
4 -9 -4 -5 3 -7 14 -4 16 4 23 -2 34 -28 8 -19 33 -53 55 -77 32 -33 41 -51
41 -77 0 -31 3 -34 33 -37 28 -3 33 -8 41 -39 7 -28 15 -38 40 -45 25 -7 32
-15 36 -44 4 -29 9 -34 27 -32 22 3 53 -30 53 -56 0 -7 12 -25 27 -40 15 -15
21 -19 14 -9 -10 12 -10 17 -2 17 11 0 29 -36 34 -69 1 -9 22 -36 45 -59 27
-27 42 -51 42 -67 0 -20 5 -25 25 -25 25 0 45 -25 45 -57 0 -13 11 -22 33 -28
24 -8 32 -15 31 -32 0 -13 3 -23 8 -23 4 0 8 -18 8 -40 0 -40 7 -48 44 -54 22
-3 27 -11 35 -48 6 -26 11 -32 27 -30 24 3 49 -22 41 -42 -3 -7 12 -32 34 -55
22 -23 37 -46 34 -51 -3 -6 -1 -10 4 -10 6 0 10 -3 10 -7 -6 -37 3 -63 21 -63
25 0 60 -34 60 -59 0 -10 15 -34 34 -53 22 -22 37 -49 42 -73 8 -42 23 -64 40
-58 19 6 32 -20 39 -76 7 -61 12 -74 28 -68 17 5 47 -31 47 -58 0 -18 7 -26
26 -31 30 -8 54 -55 54 -109 0 -28 4 -35 19 -35 25 0 54 -28 47 -46 -3 -7 -2
-16 3 -18 4 -3 8 -21 9 -41 2 -46 7 -54 31 -48 16 4 32 -8 37 -27 1 -3 5 -20
9 -38 4 -18 16 -37 26 -43 11 -5 19 -16 19 -23 0 -8 7 -19 15 -26 8 -7 15 -18
14 -24 -5 -44 2 -64 27 -70 23 -6 57 -59 53 -83 -6 -35 4 -61 25 -71 24 -11
56 -83 56 -129 0 -13 6 -23 13 -23 25 0 48 -37 60 -98 7 -34 20 -67 28 -74 28
-24 46 -63 47 -106 2 -37 8 -50 42 -82 38 -36 40 -41 40 -98 0 -74 6 -91 30
-85 24 6 36 -18 45 -91 6 -48 13 -64 35 -83 31 -26 50 -87 50 -162 0 -43 3
-51 19 -51 33 0 44 -28 50 -123 5 -81 8 -92 26 -95 28 -6 47 -23 41 -39 -3 -7
-1 -13 5 -13 6 0 9 -8 8 -17 -7 -72 2 -172 15 -167 21 8 55 -13 55 -34 0 -9 2
-37 5 -62 3 -25 5 -64 5 -87 1 -32 5 -43 17 -43 9 0 12 -5 8 -12 -4 -7 -3 -8
5 -4 18 11 41 -13 42 -43 3 -158 10 -193 45 -229 l34 -35 0 -117 0 -118 26 -6
c39 -10 52 -55 53 -189 l2 -118 34 -34 c18 -19 34 -42 34 -52 0 -10 3 -82 7
-160 l6 -143 33 -34 c39 -41 44 -71 45 -271 1 -126 3 -142 21 -161 43 -46 48
-92 49 -465 l1 -353 37 -75 37 -76 3 -8722 c1 -5636 -1 -8723 -8 -8723 -5 0
-7 -7 -4 -15 11 -28 -7 -84 -36 -114 l-30 -29 0 -391 c-1 -216 -4 -390 -9
-387 -4 3 -5 -8 -3 -24 3 -24 -2 -36 -26 -58 l-31 -29 -4 -169 c-5 -225 -12
-255 -66 -276 -5 -2 -11 -76 -14 -166 -5 -171 -13 -203 -56 -217 -17 -5 -19
-18 -23 -144 -3 -145 -13 -177 -49 -168 -25 7 -29 -11 -29 -139 0 -73 -4 -113
-10 -109 -6 3 -7 -1 -4 -10 7 -17 -22 -55 -41 -55 -8 0 -14 -34 -17 -110 -6
-111 -17 -146 -45 -136 -9 4 -11 1 -7 -6 4 -6 0 -16 -8 -22 -10 -8 -17 -38
-21 -103 -6 -96 -22 -137 -58 -148 -17 -6 -19 -16 -19 -86 0 -83 -1 -85 -62
-131 -13 -10 -18 -30 -19 -78 -2 -86 -8 -112 -25 -106 -8 3 -14 1 -14 -4 0 -6
-7 -10 -15 -10 -12 0 -15 -13 -15 -57 -1 -102 -23 -159 -70 -175 -6 -2 -12
-26 -15 -53 -2 -28 -5 -57 -6 -65 -3 -25 -21 -41 -43 -38 -19 3 -21 -2 -24
-67 -3 -82 -21 -127 -57 -143 -20 -9 -25 -19 -25 -46 0 -64 -12 -98 -40 -114
-24 -14 -28 -24 -34 -75 -7 -67 -15 -82 -51 -91 -21 -5 -25 -12 -25 -46 0 -21
-4 -41 -10 -45 -5 -3 -7 -12 -3 -20 8 -21 -16 -46 -41 -43 -19 3 -21 -3 -26
-62 -6 -77 -11 -86 -50 -95 -28 -6 -30 -10 -30 -51 0 -24 -4 -44 -10 -44 -5 0
-7 -7 -4 -15 8 -19 -13 -45 -36 -45 -13 0 -19 -11 -23 -43 -9 -66 -24 -96 -52
-107 -14 -5 -25 -17 -25 -28 0 -10 -3 -22 -7 -26 -5 -4 -8 -12 -8 -18 0 -6 -8
-12 -18 -14 -42 -6 -47 -13 -47 -64 0 -67 -13 -90 -50 -90 -29 0 -30 -2 -30
-42 0 -47 -31 -108 -54 -108 -9 0 -17 -15 -21 -40 -4 -22 -12 -41 -18 -42 -7
0 -16 -2 -22 -3 -5 -2 -16 -3 -22 -4 -8 -1 -13 -15 -13 -35 0 -19 -4 -37 -9
-40 -5 -3 -7 -16 -3 -28 3 -14 1 -19 -6 -14 -8 5 -10 1 -5 -10 5 -14 3 -16
-11 -11 -10 4 -15 3 -11 -3 3 -6 -3 -10 -14 -10 -17 0 -21 -6 -21 -30 0 -16
-5 -30 -11 -30 -5 0 -8 -4 -4 -9 3 -5 -9 -11 -27 -13 -32 -3 -33 -4 -39 -60
-7 -62 -23 -91 -48 -86 -11 2 -19 -8 -26 -36 -8 -31 -16 -42 -40 -49 -38 -12
-36 -9 -40 -48 -5 -56 -22 -88 -50 -95 -19 -5 -25 -13 -25 -34 0 -31 -13 -44
-52 -54 -19 -4 -28 -13 -28 -26 0 -31 -1 -34 -12 -48 -6 -7 -17 -11 -23 -8
-21 8 -33 -8 -40 -54 -8 -56 -29 -90 -55 -90 -15 0 -22 -9 -26 -30 -7 -33 -19
-46 -49 -52 -14 -2 -21 -13 -25 -38 -4 -31 -10 -36 -42 -44 -26 -7 -38 -15
-39 -28 -1 -10 -2 -22 -3 -26 0 -5 -14 -20 -30 -34 -16 -13 -37 -44 -46 -69
-10 -24 -26 -49 -38 -54 -35 -19 -51 -36 -45 -51 8 -20 -16 -45 -41 -42 -17 2
-22 -3 -24 -27 -4 -34 -26 -55 -59 -55 -19 0 -23 -5 -23 -28 0 -34 -16 -52
-46 -52 -17 0 -23 -8 -28 -35 -7 -34 -10 -37 -61 -39 -13 -1 -20 -9 -21 -21
-1 -11 -2 -24 -4 -30 -1 -5 -2 -14 -1 -18 1 -5 -3 -6 -8 -3 -5 4 -13 2 -16 -4
-4 -6 -15 -8 -26 -5 -16 5 -19 1 -19 -29 0 -31 -4 -36 -27 -42 -50 -10 -53
-13 -53 -40 0 -19 -12 -37 -40 -61 -22 -19 -40 -41 -40 -49 0 -8 -6 -14 -14
-14 -8 0 -26 -15 -41 -32 -15 -18 -45 -48 -67 -65 -23 -18 -37 -33 -32 -33 10
0 -14 -25 -27 -26 -5 -1 -18 -2 -28 -3 -15 -1 -21 -10 -23 -33 -3 -29 -7 -34
-38 -38 -31 -4 -36 -9 -40 -39 -4 -27 -10 -35 -30 -38 -40 -5 -50 -11 -44 -27
3 -8 0 -17 -5 -21 -6 -3 -9 -11 -5 -16 3 -5 2 -9 -3 -8 -4 1 -12 0 -18 -1 -5
-2 -19 -3 -30 -4 -11 -1 -20 -8 -21 -16 0 -8 -2 -25 -2 -38 -1 -13 -6 -21 -11
-17 -5 3 -12 1 -16 -5 -3 -5 -15 -10 -26 -10 -13 0 -19 -7 -19 -23 0 -31 -18
-47 -52 -47 -23 0 -28 -4 -28 -24 0 -31 -25 -56 -55 -56 -17 0 -25 -6 -27 -22
-2 -13 -9 -22 -16 -20 -6 1 -11 -3 -10 -9 2 -7 -11 -16 -29 -21 -22 -6 -33
-15 -35 -31 -2 -15 -13 -25 -35 -32 -18 -5 -33 -13 -33 -17 0 -4 -15 -8 -34
-8 -32 0 -35 -3 -38 -32 -2 -18 -9 -34 -15 -34 -7 -1 -22 -2 -33 -3 -14 -1
-21 -11 -26 -36 -5 -27 -12 -36 -33 -41 -46 -10 -51 -13 -51 -32 0 -23 -16
-37 -52 -46 -16 -3 -28 -12 -28 -20 0 -20 -37 -49 -55 -42 -9 3 -14 2 -11 -3
7 -11 -17 -21 -50 -21 -18 0 -24 -5 -24 -23 0 -31 -18 -47 -52 -47 -27 0 -55
-30 -40 -45 10 -10 -28 -35 -54 -35 -14 0 -25 -8 -29 -21 -7 -21 -81 -59 -116
-59 -12 0 -21 -10 -27 -32 -7 -26 -15 -34 -43 -41 -21 -5 -39 -17 -44 -30 -13
-29 -51 -47 -102 -47 -41 0 -43 -2 -43 -29 0 -36 -16 -49 -61 -52 -28 -2 -35
-7 -35 -23 1 -24 -38 -46 -95 -53 -30 -4 -39 -10 -39 -24 0 -11 -5 -19 -10
-19 -6 0 -9 -5 -8 -12 2 -6 -14 -15 -35 -20 -22 -4 -52 -22 -73 -43 -28 -28
-42 -35 -74 -35 -33 0 -40 -3 -40 -19 0 -25 -28 -54 -46 -47 -8 3 -14 1 -14
-4 0 -6 -20 -10 -45 -10 -37 0 -45 -3 -45 -18 0 -42 -35 -58 -127 -61 -16 -1
-23 -7 -23 -21 0 -11 -5 -20 -10 -20 -6 0 -9 -5 -8 -12 4 -15 -35 -26 -94 -27
-46 -1 -48 -2 -48 -30 0 -32 -14 -41 -65 -41 -25 0 -35 -5 -40 -20 -8 -25 -62
-56 -103 -59 -23 -1 -44 -12 -66 -35 -32 -31 -70 -46 -121 -46 -12 0 -30 -9
-40 -20 -10 -11 -21 -17 -25 -15 -4 3 -7 -3 -6 -12 1 -20 -31 -31 -101 -32
-48 -1 -53 -3 -53 -24 0 -37 -19 -47 -91 -47 -66 0 -68 -1 -71 -27 -4 -35 -38
-53 -104 -53 -45 0 -52 -3 -62 -26 -16 -34 -68 -54 -144 -54 -61 0 -63 -1 -78
-33 -10 -22 -23 -33 -40 -35 -114 -13 -120 -15 -154 -47 -36 -34 -74 -45 -158
-45 -36 0 -48 -4 -52 -18 -10 -31 -70 -52 -151 -52 -66 0 -74 -2 -80 -21 -13
-40 -62 -59 -155 -59 -83 0 -85 0 -121 -36 l-37 -36 -109 -5 c-99 -5 -110 -8
-119 -27 -18 -41 -78 -55 -245 -56 -49 0 -57 -3 -67 -24 -10 -24 -71 -50 -105
-45 -71 9 -257 -3 -257 -17 0 -8 -4 -13 -9 -9 -5 3 -13 0 -17 -6 -4 -8 -3 -9
4 -5 17 10 15 -9 -3 -24 -18 -15 -69 -19 -242 -20 -125 0 -132 -1 -138 -21 -8
-25 -63 -50 -108 -49 -18 0 -68 -2 -112 -5 -44 -2 -148 -5 -232 -5 -143 0
-152 -1 -158 -20 -4 -11 -11 -18 -16 -15 -5 3 -6 -1 -3 -9 11 -29 -75 -31
-1171 -31 -1296 0 -1287 0 -1326 42 l-27 31 -214 6 c-117 3 -228 5 -246 5 -21
0 -31 4 -27 11 3 6 0 7 -10 4 -8 -4 -22 -1 -30 6 -18 15 -20 34 -3 24 7 -4 8
-3 4 5 -4 6 -12 9 -17 6 -5 -4 -9 -1 -9 4 0 7 -58 11 -172 11 -168 1 -247 13
-256 38 -12 38 -26 42 -154 43 -71 0 -128 5 -128 10 0 4 -7 6 -15 3 -20 -8
-45 13 -45 37 0 17 -8 19 -67 20 -88 0 -168 7 -227 17 -4 1 -5 9 -2 18 3 9 2
12 -5 9 -6 -4 -9 1 -7 11 3 17 -8 20 -117 25 -138 8 -172 18 -181 54 -6 24 -8
25 -94 25 -100 0 -145 12 -136 36 4 9 2 12 -5 8 -8 -4 -9 1 -4 15 6 20 4 21
-89 21 -109 0 -143 10 -151 43 -6 23 -12 25 -93 30 -107 7 -118 11 -131 48 -9
26 -14 29 -56 29 -73 0 -132 19 -160 51 -21 25 -31 29 -79 30 -31 1 -56 5 -56
9 0 4 -8 7 -17 6 -11 0 -17 6 -17 17 1 9 -3 17 -8 17 -6 0 -8 7 -4 15 4 12 -5
15 -47 16 -98 1 -106 4 -141 42 -31 34 -38 37 -90 37 -57 0 -95 21 -108 60 -2
7 -18 14 -36 15 -72 4 -81 6 -97 21 -9 9 -14 23 -11 30 7 17 -41 31 -124 36
-24 1 -40 19 -40 44 0 22 -4 24 -49 24 -70 0 -98 13 -106 49 -6 29 -9 31 -53
31 -58 0 -96 18 -100 48 -2 12 -6 22 -10 23 -103 7 -129 17 -138 54 -4 16 -13
25 -26 25 -46 0 -102 25 -117 52 -12 22 -23 28 -49 28 -26 0 -42 9 -72 40 -29
30 -46 40 -69 40 -31 0 -71 29 -71 53 0 7 -27 19 -62 27 -52 12 -65 20 -76 43
-9 18 -24 30 -43 34 -29 5 -51 24 -48 39 4 26 -4 34 -35 34 -70 0 -95 10 -108
46 -11 32 -23 39 -57 34 -7 -1 -30 14 -50 33 -20 19 -47 38 -61 42 -41 12 -70
34 -70 55 0 19 -33 36 -59 31 -7 -1 -10 2 -6 8 3 6 1 11 -6 11 -7 0 -9 3 -6 6
14 15 -15 44 -44 44 -47 0 -97 25 -104 53 -5 19 -16 27 -42 32 -26 5 -37 13
-45 35 -8 26 -33 43 -63 45 -5 0 -13 17 -18 38 -7 28 -13 37 -24 33 -21 -8
-76 20 -107 55 -14 16 -34 29 -43 29 -22 0 -53 29 -53 50 0 11 -13 20 -37 26
-33 8 -39 14 -44 44 -4 19 -7 32 -8 29 -4 -22 -66 9 -71 36 -4 25 -12 32 -42
39 -32 8 -37 14 -40 40 -3 26 -8 31 -33 34 -44 4 -89 30 -108 63 -9 16 -23 29
-31 29 -8 0 -27 15 -41 34 -14 19 -37 37 -51 40 -16 4 -30 19 -40 41 -8 19
-21 35 -30 35 -8 0 -12 4 -9 10 3 6 -1 7 -10 4 -11 -4 -18 3 -26 24 -7 20 -20
32 -42 38 -23 7 -34 18 -40 39 -6 19 -20 35 -40 45 -20 9 -32 22 -32 35 0 24
-24 45 -42 38 -19 -8 -45 18 -40 38 6 21 -8 34 -45 43 -18 4 -28 14 -33 34 -4
21 -14 31 -38 38 -23 6 -34 17 -41 39 -5 19 -20 36 -40 45 -22 11 -31 22 -31
40 0 19 -7 26 -34 31 -36 7 -51 23 -51 52 0 11 -9 21 -20 24 -11 3 -18 9 -15
13 3 4 -3 7 -11 6 -11 0 -21 12 -29 34 -9 26 -17 34 -32 32 -24 -3 -47 22 -39
43 3 8 1 15 -4 15 -6 0 -10 7 -10 16 0 8 -4 12 -10 9 -18 -11 -52 15 -47 36 3
10 1 17 -4 13 -5 -3 -9 -1 -9 5 0 5 -12 16 -27 23 -24 11 -67 76 -58 86 2 2
-15 21 -37 42 -22 21 -38 42 -35 46 11 19 -12 56 -32 49 -23 -7 -51 19 -51 48
0 15 -11 27 -33 37 -20 9 -33 24 -35 38 -2 14 -15 27 -37 37 -23 9 -37 23 -41
42 -4 15 -23 42 -42 60 -18 18 -31 37 -27 43 3 5 2 10 -2 10 -5 0 -10 12 -11
26 -3 36 -10 44 -37 44 -27 0 -45 26 -45 64 0 19 -4 24 -15 19 -21 -8 -51 22
-59 58 -3 16 -12 29 -19 29 -30 0 -54 46 -62 120 -1 14 -8 24 -15 22 -7 -1
-19 5 -27 15 -9 11 -12 12 -8 3 4 -8 -1 -6 -9 4 -9 11 -16 27 -16 35 0 9 -15
23 -32 31 -34 16 -46 42 -50 111 -1 31 -5 35 -24 33 -24 -2 -50 19 -40 34 7
11 -26 57 -41 58 -7 1 -17 2 -23 3 -9 1 -32 71 -29 88 5 30 -2 52 -16 47 -18
-7 -47 14 -39 27 3 5 0 9 -5 9 -6 0 -11 11 -11 25 0 18 -5 25 -18 25 -31 0
-52 34 -60 96 -6 49 -10 59 -27 59 -11 0 -22 5 -23 10 -2 6 -8 12 -12 15 -5 3
-10 19 -12 36 -2 16 -18 48 -37 70 -18 21 -30 33 -26 25 6 -10 4 -12 -4 -7 -6
4 -11 13 -10 19 5 31 -14 64 -43 75 -24 9 -29 16 -25 32 3 11 1 23 -4 26 -5 3
-9 11 -8 17 6 51 -2 75 -23 69 -14 -3 -19 -1 -14 6 5 8 2 10 -8 6 -15 -6 -38
33 -35 60 6 54 -2 75 -32 81 -17 4 -32 12 -34 18 -5 13 -13 80 -14 114 -1 16
-6 21 -16 17 -8 -4 -15 -1 -15 5 0 6 -7 8 -17 4 -13 -5 -15 -2 -10 11 4 10 3
15 -3 11 -6 -4 -11 8 -12 27 0 18 -2 38 -3 43 -2 6 -3 25 -4 43 -1 28 -4 32
-20 27 -28 -9 -51 30 -51 87 0 40 -3 48 -18 48 -45 0 -59 29 -61 132 -1 20 -8
29 -31 37 -34 12 -36 15 -45 93 -5 49 -9 57 -30 62 -32 8 -43 31 -49 101 -3
48 -8 60 -24 66 -36 13 -52 61 -52 149 0 52 -4 79 -10 75 -37 -23 -70 33 -70
119 0 45 -4 55 -35 85 -20 19 -33 41 -31 48 3 7 1 13 -4 13 -6 0 -10 29 -10
65 0 51 -3 65 -15 65 -28 0 -53 59 -60 142 -7 72 -10 83 -37 107 -30 27 -47
97 -48 194 0 24 -7 44 -20 57 -12 12 -18 26 -14 32 4 7 3 8 -4 4 -20 -12 -31
37 -33 142 -1 87 -3 99 -18 95 -23 -6 -55 31 -48 57 3 11 1 20 -3 20 -5 0 -9
50 -9 111 -1 119 -4 131 -26 123 -24 -10 -43 38 -50 127 -6 85 -7 87 -35 92
-40 8 -42 19 -47 266 l-4 223 -30 42 c-21 28 -29 49 -26 69 2 15 0 27 -4 27
-4 0 -8 91 -9 202 0 201 0 203 -24 225 -31 28 -49 83 -44 134 2 21 0 39 -4 39
-4 0 -7 185 -8 412 0 447 -3 503 -28 563 -28 67 -19 16630 9 16694 18 40 19
74 19 512 0 258 4 469 9 469 4 0 6 13 3 29 -5 39 15 99 43 125 22 21 23 27 27
256 4 242 7 258 49 305 15 17 18 45 23 178 5 167 15 205 54 222 21 9 28 33 23
75 -14 120 25 272 65 256 11 -4 14 11 15 82 0 166 3 183 29 204 13 10 29 17
37 14 12 -5 19 87 13 192 -1 17 3 32 8 32 6 0 8 9 5 19 -5 19 22 54 46 62 11
4 20 84 20 172 1 19 4 26 12 21 8 -4 9 -3 5 5 -11 18 14 42 35 36 14 -5 19 -1
20 12 0 10 2 45 4 78 3 33 4 72 5 86 0 30 33 64 53 56 12 -4 15 13 19 93 4
104 22 147 58 137 14 -4 17 6 19 52 2 74 10 111 24 113 7 0 17 2 22 2 29 4 35
20 35 89 0 96 7 117 43 132 26 11 30 18 33 56 5 85 8 93 39 109 17 8 31 15 32
15 1 1 4 23 7 50 9 77 13 90 26 87 6 -1 9 1 6 6 -3 5 6 20 19 32 18 17 25 34
25 61 0 51 26 108 55 121 17 7 25 20 26 37 2 40 3 44 21 77 10 17 24 34 33 37
9 4 15 19 16 39 1 57 23 112 49 125 27 14 38 35 39 76 1 16 5 26 11 22 5 -3 8
0 5 7 -6 17 4 32 33 47 16 9 22 21 22 46 0 34 11 49 64 88 12 9 19 25 18 45 0
18 3 34 8 37 5 3 7 12 4 19 -4 9 5 16 24 21 27 5 30 11 36 56 4 27 11 47 16
44 5 -3 7 0 4 8 -6 18 21 41 40 34 11 -5 17 5 21 38 5 33 15 50 41 72 24 19
34 36 34 55 0 16 4 28 9 28 5 0 8 8 7 18 0 10 6 16 17 16 9 -1 17 2 17 7 0 5
7 9 15 9 11 0 15 11 15 38 1 50 20 90 50 105 17 9 27 23 30 47 4 29 11 37 38
45 20 6 32 16 32 26 0 33 38 107 59 114 14 4 21 15 21 31 0 29 33 64 60 64 15
0 20 7 20 28 0 39 28 93 51 99 11 3 22 17 25 32 8 38 19 56 35 56 20 0 37 19
44 48 7 27 27 49 41 46 25 -4 34 4 34 31 0 49 25 96 53 104 18 4 27 15 32 37
5 20 18 37 37 48 18 10 31 27 35 44 6 29 8 31 55 41 17 4 25 11 22 19 -7 19
14 69 26 62 5 -3 7 0 4 8 -3 8 5 23 19 34 13 10 32 33 41 51 9 18 27 38 40 44
13 5 28 24 32 41 8 27 17 35 64 57 8 4 14 16 12 27 -3 24 20 45 44 41 17 -3
24 10 40 70 2 6 17 12 34 12 26 0 30 3 30 29 0 33 14 48 50 53 20 2 26 10 30
38 4 31 9 35 38 38 17 2 32 6 33 10 0 4 2 17 3 30 3 21 60 81 79 82 5 0 5 5 2
10 -3 6 -1 10 6 10 7 0 10 3 7 6 -7 7 377 394 391 394 5 0 25 18 44 40 24 28
42 40 60 40 22 0 27 5 27 24 0 28 14 42 53 51 19 5 29 16 35 38 6 24 16 33 40
39 22 6 32 15 32 28 0 25 26 50 54 50 17 0 25 8 32 32 7 24 18 35 40 41 20 6
34 19 41 38 8 20 20 31 41 35 20 4 34 16 43 36 9 21 27 36 54 46 22 9 53 29
69 46 26 27 40 33 86 35 10 1 15 12 16 32 1 34 17 49 52 49 15 0 22 6 22 19 0
23 25 45 41 35 8 -4 9 -3 5 4 -5 8 0 12 12 12 13 0 22 9 26 25 8 30 78 65 120
61 19 -3 26 1 27 15 3 42 15 61 37 58 33 -3 42 1 42 20 0 25 28 54 46 47 8 -3
14 -1 14 4 0 6 6 10 14 10 7 0 21 11 30 25 9 14 26 25 37 25 11 0 18 4 15 9
-4 5 11 12 31 16 30 5 41 13 53 38 11 22 25 34 50 40 19 5 40 17 48 28 17 24
58 48 47 27 -3 -7 -1 -6 7 3 14 17 18 19 47 19 13 0 21 9 26 31 7 32 35 49 80
49 14 0 29 9 35 21 7 11 17 18 25 16 7 -3 12 1 11 11 -1 16 8 19 67 25 9 1 17
9 17 20 0 11 4 15 12 11 7 -4 8 -3 4 5 -14 22 15 40 75 47 53 6 59 9 59 30 0
12 5 26 12 30 7 5 8 3 3 -7 -5 -8 0 -7 12 4 11 9 31 17 46 17 17 0 28 7 32 20
8 26 66 60 103 60 24 0 31 5 36 26 8 30 57 54 111 54 25 0 35 4 35 16 0 8 4
13 9 10 5 -3 8 2 7 12 0 10 6 16 16 16 10 -1 15 3 11 9 -4 6 2 8 15 5 12 -4
25 -2 28 4 3 5 16 7 28 4 22 -5 61 25 49 38 -10 10 19 36 41 36 11 0 36 2 54
4 17 2 39 4 48 5 10 1 13 7 9 20 -9 29 30 51 92 51 40 0 53 4 53 15 0 8 4 15
10 15 5 0 7 7 4 15 -8 20 34 35 96 35 43 0 49 3 52 23 2 12 9 21 16 19 8 -1
11 2 8 7 -10 15 7 21 70 25 45 3 59 9 65 23 14 37 29 44 139 60 19 3 43 12 52
20 9 8 21 12 27 8 7 -3 8 0 5 9 -6 16 27 38 54 35 72 -7 100 1 111 31 12 36
37 47 116 49 55 1 63 4 93 36 30 33 38 36 107 42 64 5 75 9 75 24 0 38 67 56
213 59 10 0 17 8 17 19 0 33 27 44 118 48 118 5 131 9 125 32 -6 22 29 46 53
37 8 -3 14 -1 14 4 0 6 38 10 90 10 63 0 91 4 97 13 30 49 95 66 261 67 12 0
22 6 22 13 0 43 46 55 219 63 72 3 97 7 103 19 12 21 67 48 84 41 8 -3 14 -1
14 5 0 6 15 10 33 9 145 -8 256 0 262 20 8 24 61 54 81 46 8 -3 14 -1 14 5 0
6 19 10 43 9 210 -9 365 0 370 21 4 13 10 18 18 13 8 -4 10 -3 5 4 -9 15 34
32 78 33 256 2 482 11 484 18 2 6 20 20 40 33 34 21 49 23 231 25 107 2 197 6
200 9 3 3 292 3 641 0 349 -3 669 -5 710 -5z"/>
<path d="M16510 38650 c-18 -12 8 -12 55 0 l30 8 -35 1 c-19 0 -42 -4 -50 -9z"/>
<path d="M16661 38642 c-39 -27 -495 -60 -860 -61 -193 -1 -193 -1 -213 -26
-28 -36 -74 -44 -266 -45 l-173 -1 -27 -30 c-20 -22 -37 -31 -64 -32 -21 -1
-38 -5 -38 -9 0 -3 -59 -7 -132 -7 -84 -1 -134 -5 -139 -12 -4 -8 -9 -7 -13 2
-3 8 -3 4 -1 -7 8 -31 -17 -51 -73 -59 -26 -3 -52 -5 -58 -4 -5 1 -48 1 -96 0
-77 -1 -87 -3 -93 -21 -12 -38 -58 -51 -216 -60 -10 0 -6 -30 4 -30 5 0 7 -6
4 -13 -8 -21 7 -37 37 -39 17 -2 47 -21 78 -50 28 -26 59 -50 69 -53 10 -3 21
-19 24 -35 4 -20 13 -30 25 -30 11 0 34 -18 51 -40 18 -22 38 -40 45 -40 19 0
47 -46 38 -61 -4 -8 -3 -9 4 -5 7 4 12 3 12 -2 0 -6 10 -12 23 -16 13 -3 28
-16 34 -28 11 -24 70 -94 137 -161 27 -27 39 -48 39 -67 0 -24 5 -29 34 -35
18 -3 33 -9 34 -13 5 -52 16 -71 36 -66 27 6 47 -11 48 -43 1 -22 8 -29 33
-35 18 -5 33 -14 34 -21 0 -7 1 -19 2 -27 1 -8 18 -23 38 -32 35 -17 44 -32
51 -80 2 -8 19 -31 39 -50 25 -23 37 -44 40 -68 3 -29 7 -34 31 -35 31 -1 47
-18 47 -52 0 -16 6 -23 21 -23 11 0 18 -4 15 -9 -3 -5 2 -8 11 -7 12 1 19 -10
23 -36 4 -24 17 -45 33 -59 15 -11 27 -27 27 -35 0 -8 4 -13 9 -10 5 4 12 -12
16 -33 5 -34 11 -41 36 -46 16 -4 30 -12 31 -18 0 -7 2 -16 3 -22 2 -5 3 -17
4 -26 0 -9 12 -21 26 -27 31 -14 51 -55 54 -109 1 -13 7 -23 16 -23 8 0 15 -4
15 -9 0 -5 8 -8 18 -7 10 0 16 -6 16 -16 -1 -10 2 -18 7 -18 5 0 9 -15 9 -32
0 -26 7 -38 34 -56 26 -18 36 -33 41 -62 4 -26 13 -41 26 -45 35 -12 52 -50
58 -137 1 -5 7 -8 14 -8 7 0 22 -6 32 -14 18 -13 22 -30 24 -103 1 -28 5 -33
25 -33 34 0 56 -25 56 -65 0 -24 6 -38 20 -45 11 -6 23 -22 26 -35 3 -14 10
-23 14 -20 5 3 11 -13 15 -35 4 -26 18 -51 40 -73 26 -26 35 -45 41 -85 5 -36
12 -53 24 -57 10 -3 24 -20 31 -38 16 -36 16 -39 18 -84 1 -22 7 -34 21 -38
29 -9 60 -67 60 -112 0 -32 7 -47 35 -76 33 -34 42 -64 44 -154 1 -14 8 -23
24 -25 12 -2 21 -9 20 -16 -2 -6 3 -11 10 -9 8 1 15 -21 21 -70 7 -53 14 -74
26 -78 29 -9 50 -70 50 -145 0 -62 2 -70 19 -70 25 0 54 -28 47 -46 -3 -8 -2
-14 3 -14 4 0 9 -26 10 -57 1 -51 6 -62 36 -93 19 -19 34 -44 34 -55 2 -102
14 -149 48 -181 36 -34 42 -59 43 -190 0 -49 1 -52 31 -58 22 -4 30 -10 25
-21 -3 -8 -1 -15 4 -15 6 0 10 -40 10 -95 0 -79 3 -95 16 -95 8 0 12 -4 9 -10
-3 -5 0 -7 8 -4 18 6 41 -21 33 -41 -3 -8 -1 -15 5 -15 6 0 7 -4 4 -10 -3 -5
-1 -10 4 -10 10 0 16 82 11 153 -1 15 3 27 8 27 6 0 8 8 5 18 -5 22 21 46 42
38 12 -4 15 4 15 43 0 77 12 171 21 165 5 -3 6 1 3 9 -3 8 8 25 25 40 28 24
31 32 36 103 5 78 29 136 60 148 11 4 15 22 15 66 0 33 4 60 9 60 5 0 7 8 4
18 -6 26 22 48 41 33 17 -14 25 15 27 94 2 77 17 124 44 137 20 9 25 20 31 75
7 65 30 98 65 91 13 -3 15 3 18 45 0 13 17 40 36 60 34 35 35 39 35 112 0 76
0 77 41 116 34 32 40 45 41 79 0 32 7 48 33 74 28 29 41 61 47 115 1 8 15 27
32 42 23 20 34 41 41 81 9 48 13 53 40 58 29 5 30 7 35 68 5 66 23 92 62 92
14 0 18 8 18 39 0 57 18 100 45 107 18 4 25 15 30 43 8 46 40 101 59 101 14 0
32 36 28 54 -4 13 20 37 33 32 21 -8 34 9 37 47 1 20 6 37 10 37 4 0 5 6 2 14
-6 17 29 56 51 56 14 0 19 11 16 37 -3 21 20 55 33 50 21 -8 35 7 40 43 7 57
23 88 53 102 19 9 29 22 31 41 4 30 32 50 56 41 12 -5 16 1 17 22 2 44 3 47
22 76 11 15 27 30 38 33 11 4 21 20 25 42 5 26 16 41 40 55 33 19 38 28 35 55
-2 15 29 32 54 30 14 -1 19 3 17 16 -2 9 1 17 7 17 5 0 8 8 7 18 -2 9 11 31
29 47 18 17 38 48 45 69 9 28 21 42 42 50 19 7 31 20 36 40 8 29 19 39 55 50
10 3 17 15 17 30 0 27 33 56 62 56 12 0 18 8 18 23 0 29 18 47 47 47 19 0 23
5 23 29 0 32 12 45 53 55 20 5 27 12 27 30 0 28 16 43 50 48 20 2 26 10 30 38
4 31 9 35 38 38 26 3 32 8 32 27 0 30 25 55 56 55 18 0 24 5 24 23 0 32 11 44
48 52 30 6 36 14 33 42 -2 14 36 36 48 28 12 -7 43 24 36 36 -12 19 16 49 45
49 27 0 30 3 30 30 0 31 22 50 57 50 13 0 22 11 28 33 8 25 17 33 40 38 l30 5
-30 6 c-16 4 -47 9 -68 13 -29 5 -43 14 -55 36 -17 28 -19 29 -97 29 -160 2
-205 14 -220 60 -6 19 -14 20 -151 20 -79 0 -144 4 -144 8 0 5 -12 7 -27 5
-18 -3 -52 9 -96 31 l-69 36 -149 1 c-165 1 -200 7 -238 43 -26 24 -28 24
-281 29 -328 7 -500 15 -575 27 -33 6 -80 10 -105 10 -27 0 -58 8 -78 20 -46
28 -641 30 -681 2z"/>
<path d="M17460 38645 c72 -18 96 -18 45 0 -22 8 -53 14 -70 14 -22 -1 -16 -4
25 -14z"/>
<path d="M20806 37901 c-4 -5 -24 -12 -46 -16 -25 -4 -40 -12 -40 -21 0 -23
-38 -54 -65 -54 -17 0 -29 -8 -37 -25 -13 -30 -59 -55 -100 -55 -21 0 -28 -5
-28 -19 0 -36 -12 -50 -46 -57 -27 -5 -34 -11 -34 -29 0 -26 -14 -40 -50 -48
-16 -4 -30 -17 -37 -37 -8 -21 -20 -32 -40 -36 -19 -4 -33 -16 -43 -37 -9 -19
-25 -34 -40 -37 -14 -3 -31 -18 -38 -33 -7 -14 -28 -34 -47 -43 -19 -9 -35
-22 -35 -30 0 -7 -12 -21 -27 -31 -36 -22 -114 -100 -136 -135 -10 -16 -22
-28 -28 -28 -15 0 -35 -22 -43 -48 -4 -12 -18 -25 -31 -28 -16 -4 -28 -18 -36
-41 -8 -24 -20 -38 -39 -45 -20 -6 -31 -19 -35 -38 -5 -22 -16 -33 -41 -42
-19 -6 -35 -17 -35 -23 -1 -5 -2 -14 -4 -20 -1 -5 -3 -16 -3 -24 -1 -7 -8 -11
-17 -7 -8 3 -15 1 -15 -4 0 -6 -7 -10 -15 -10 -8 0 -18 -14 -23 -32 -6 -25
-15 -34 -40 -40 -20 -5 -32 -15 -33 -26 -2 -32 -4 -37 -14 -40 -5 -2 -16 -8
-22 -14 -7 -6 -20 -8 -28 -4 -11 4 -15 -2 -15 -27 0 -24 -8 -38 -34 -59 -21
-17 -36 -39 -40 -60 -8 -44 -33 -78 -56 -78 -13 0 -22 -9 -26 -27 -10 -49 -13
-53 -39 -53 -25 0 -31 -7 -37 -44 -2 -11 -20 -35 -40 -54 -23 -21 -38 -43 -38
-58 0 -40 -18 -71 -43 -78 -18 -4 -27 -15 -32 -37 -7 -30 -46 -56 -66 -43 -5
3 -9 -5 -10 -18 -3 -94 -14 -122 -54 -132 -20 -5 -25 -13 -25 -40 0 -28 -7
-38 -40 -61 -35 -24 -40 -33 -40 -66 0 -22 -5 -39 -10 -39 -6 0 -9 -5 -8 -12
2 -7 -10 -14 -27 -17 -28 -6 -30 -10 -33 -51 -4 -72 -10 -87 -39 -98 -23 -8
-30 -19 -40 -62 -13 -54 -36 -90 -58 -90 -7 0 -16 -20 -20 -45 -4 -33 -16 -55
-41 -80 -25 -26 -34 -43 -34 -68 0 -28 -8 -41 -40 -68 -35 -30 -40 -39 -40
-76 0 -43 -30 -107 -54 -116 -7 -3 -16 -27 -19 -54 -8 -69 -23 -102 -52 -113
-14 -5 -25 -15 -26 -22 -4 -92 -16 -141 -34 -134 -8 3 -15 1 -15 -4 0 -6 -7
-10 -15 -10 -12 0 -15 -14 -15 -66 0 -73 -24 -128 -60 -139 -17 -5 -20 -16
-20 -71 0 -77 -12 -106 -43 -102 -21 3 -22 -2 -28 -88 -9 -116 -13 -130 -49
-143 -25 -8 -30 -16 -30 -43 -2 -146 -14 -196 -48 -200 -27 -3 -27 -3 -32
-108 -5 -113 -23 -163 -60 -175 -18 -6 -20 -15 -20 -107 0 -114 -13 -171 -46
-197 -20 -16 -23 -29 -27 -117 -8 -167 -22 -214 -64 -214 -9 0 -13 -14 -13
-42 -1 -24 -3 -68 -6 -98 -2 -30 -4 -68 -4 -83 0 -16 -3 -26 -7 -24 -5 3 -8
-12 -8 -33 -1 -21 -13 -61 -28 -89 -26 -52 -27 -53 -27 -277 -1 -123 -5 -224
-10 -224 -4 0 -6 -9 -3 -19 8 -31 -17 -91 -43 -103 l-23 -11 -3 -386 c-3 -361
4 -668 11 -516 2 33 3 63 2 67 0 4 14 22 32 40 22 22 23 24 4 8 l-29 -25 12
26 c7 15 23 32 36 38 24 10 28 20 25 54 -1 9 3 17 8 17 6 0 10 6 9 13 -2 6 4
10 12 9 8 -2 12 0 7 4 -4 4 2 17 13 29 11 11 23 39 28 60 5 22 14 39 20 37 7
-1 11 3 10 10 -2 6 6 14 17 16 29 6 38 17 39 49 1 16 6 27 13 26 7 -2 10 4 7
12 -3 8 5 25 19 38 14 12 29 35 32 50 8 32 30 51 46 41 8 -4 9 -3 5 4 -4 7 -1
12 8 12 9 0 16 3 17 8 0 4 2 20 3 35 2 32 23 49 49 41 16 -5 23 10 18 39 -3
16 41 88 57 94 9 4 21 13 25 20 5 7 12 11 18 8 5 -3 6 1 3 10 -8 20 15 48 36
42 9 -2 16 2 17 12 3 37 23 73 39 67 8 -3 12 -2 9 4 -3 6 2 10 12 10 13 0 22
11 28 33 8 24 18 34 43 42 26 7 32 14 32 37 0 29 23 48 59 48 15 0 21 6 21 23
0 29 18 47 47 47 16 0 23 6 23 20 0 11 4 20 10 20 5 0 7 7 4 15 -4 9 0 16 7
17 8 0 19 2 24 3 6 2 16 3 23 4 6 0 12 8 12 16 0 8 4 15 9 15 5 0 8 8 7 17 -1
11 10 20 30 26 24 7 33 17 38 37 5 26 62 59 88 52 4 -1 5 5 2 13 -9 22 16 47
39 41 10 -2 17 -2 14 0 -8 9 63 74 80 74 9 0 13 3 9 7 -4 5 12 13 36 18 36 9
43 15 43 36 0 15 6 24 15 24 8 0 18 3 21 7 3 5 17 9 31 10 17 1 24 7 21 18 -6
24 29 49 78 56 47 6 71 26 62 52 -4 10 -2 13 5 8 7 -4 12 -2 12 4 0 7 6 10 14
7 17 -7 56 19 56 37 0 19 23 36 56 41 92 16 93 16 96 44 2 16 9 26 20 26 9 0
20 4 24 8 4 4 27 7 50 7 43 0 57 10 59 43 2 23 23 38 50 36 75 -4 106 1 101
19 -12 37 7 49 97 56 26 2 49 5 50 7 1 2 9 18 17 34 14 27 23 31 84 40 57 8
70 14 77 33 12 31 47 42 140 42 71 0 79 2 79 19 0 25 28 54 46 47 8 -3 14 -1
14 4 0 5 37 10 83 12 76 3 82 5 85 25 6 40 29 48 150 52 96 3 117 6 133 22 11
11 24 17 29 14 5 -3 12 0 16 6 5 8 3 9 -7 4 -12 -8 -12 -6 0 8 7 9 25 17 40
17 14 0 69 2 121 5 52 2 110 4 128 5 20 0 32 5 32 13 0 51 47 58 393 63 237 3
238 3 268 28 33 28 85 41 129 32 17 -3 30 -2 30 3 0 5 212 8 470 8 259 0 470
-4 470 -9 0 -5 11 -6 25 -2 43 11 115 -6 142 -32 24 -24 181 -34 538 -33 41 0
103 -30 110 -52 4 -13 16 -19 38 -20 18 0 75 -2 127 -5 52 -2 107 -4 122 -4
17 0 42 -13 66 -35 39 -34 41 -35 131 -36 109 -1 147 -10 145 -32 -1 -10 3
-17 8 -17 6 0 8 -7 4 -15 -4 -13 9 -15 84 -15 50 0 90 -4 90 -9 0 -5 8 -7 18
-4 25 6 48 -22 33 -41 -15 -18 13 -26 104 -26 77 0 115 -14 130 -47 9 -21 50
-33 113 -33 13 0 21 -4 18 -9 -3 -5 2 -8 11 -7 12 1 18 -7 19 -22 2 -33 9 -36
76 -39 67 -3 88 -14 85 -46 -2 -20 4 -23 63 -28 78 -6 87 -11 95 -48 6 -26 10
-29 68 -35 63 -6 87 -22 87 -56 0 -15 12 -18 63 -21 9 0 17 -4 17 -9 0 -5 9
-12 21 -15 11 -4 25 -17 31 -31 6 -13 14 -21 19 -19 4 3 10 1 14 -4 3 -6 12
-8 20 -4 21 8 45 -15 45 -43 0 -21 5 -24 37 -24 29 0 43 -8 74 -40 21 -22 45
-40 54 -40 8 0 15 -4 15 -10 0 -5 6 -7 13 -5 17 6 30 -5 44 -37 7 -16 21 -28
31 -28 24 0 42 -19 42 -46 0 -16 8 -23 32 -28 41 -8 58 -23 58 -52 0 -20 5
-24 28 -24 20 0 43 -13 74 -42 26 -24 60 -51 77 -60 19 -10 31 -25 31 -38 0
-14 7 -20 21 -20 11 0 17 -4 14 -10 -3 -5 0 -7 8 -4 18 6 41 -21 31 -37 -4 -7
-3 -10 2 -7 11 6 45 -28 36 -37 -4 -3 1 -3 9 0 18 7 43 -19 36 -37 -6 -17 13
-33 38 -33 11 0 19 -6 17 -13 -1 -6 4 -11 10 -10 7 2 13 -6 13 -17 0 -12 13
-27 33 -38 18 -10 37 -29 42 -42 5 -13 23 -36 39 -51 35 -31 65 -89 57 -110
-5 -13 12 -19 38 -15 17 3 36 -22 36 -48 0 -22 6 -29 33 -36 24 -8 34 -18 42
-42 6 -24 15 -33 30 -33 29 0 45 -19 46 -54 0 -24 2 -27 8 -12 11 28 1 76 -16
76 -8 0 -11 5 -8 10 4 6 3 10 -2 9 -25 -4 -35 3 -30 21 3 11 1 20 -3 20 -5 0
-9 27 -9 60 0 55 -3 63 -36 97 -20 20 -33 43 -31 50 3 7 1 13 -5 13 -6 0 -10
12 -9 28 5 71 0 92 -24 103 -32 15 -52 83 -55 192 -1 9 -8 17 -17 17 -8 0 -12
4 -9 10 3 5 0 7 -9 4 -16 -6 -35 21 -36 52 -1 52 -13 104 -25 104 -26 0 -46
39 -51 96 -3 33 -10 61 -16 63 -24 8 -60 52 -54 66 3 8 1 15 -4 15 -6 0 -10
17 -10 39 0 30 -5 42 -25 55 -14 9 -25 21 -25 27 0 8 6 7 18 -2 15 -11 15 -11
4 1 -7 8 -18 15 -25 15 -6 0 -15 21 -19 46 -6 32 -18 57 -42 82 -23 25 -35 48
-39 78 -3 25 -14 49 -25 58 -28 22 -52 75 -50 107 2 17 -3 29 -12 32 -25 9
-62 53 -56 67 3 8 1 15 -5 15 -6 0 -9 8 -8 18 3 38 -2 48 -32 59 -25 10 -30
17 -26 33 3 11 1 20 -3 20 -5 0 -12 20 -15 44 -6 36 -12 46 -29 48 -11 2 -20
9 -18 16 1 8 -2 11 -8 7 -11 -7 -20 10 -24 47 -1 14 -18 40 -36 58 -24 24 -34
42 -34 66 -1 19 -5 34 -9 34 -5 0 -6 4 -3 9 4 5 -2 7 -12 4 -35 -9 -59 40 -61
125 -1 14 -7 22 -19 22 -10 0 -24 6 -31 13 -11 10 -12 9 -6 -2 5 -9 4 -12 -3
-7 -7 4 -12 21 -12 37 0 22 -6 32 -23 38 -31 12 -51 37 -43 56 3 9 2 13 -3 10
-6 -3 -13 15 -16 40 -6 38 -11 45 -29 45 -29 0 -46 18 -46 48 0 26 -19 51 -36
45 -18 -6 -33 20 -39 72 -6 48 -28 80 -47 69 -16 -10 -38 17 -38 47 0 21 -5
28 -22 31 -13 2 -22 9 -21 16 2 6 -2 11 -8 9 -7 -1 -16 12 -20 29 -6 21 -17
34 -33 38 -25 6 -44 44 -52 100 -4 32 -20 47 -40 39 -15 -5 -25 10 -34 51 -5
24 -11 30 -27 28 -23 -3 -53 31 -53 60 0 10 -5 18 -11 18 -5 0 -7 4 -4 10 3 5
0 7 -8 4 -18 -6 -41 21 -31 37 4 8 3 9 -4 5 -7 -4 -12 -3 -12 3 0 6 -12 17
-28 25 -16 8 -35 32 -46 57 -11 24 -35 57 -54 75 -22 20 -33 38 -29 47 8 22
-16 49 -44 51 -18 1 -26 9 -34 34 -5 17 -15 32 -22 32 -7 0 -13 4 -13 10 0 5
-7 7 -15 4 -9 -4 -16 0 -17 7 0 8 -2 19 -3 24 -2 6 -3 16 -4 23 0 6 -9 12 -19
12 -27 0 -62 29 -62 51 0 11 -8 22 -17 25 -36 11 -48 22 -57 52 -6 22 -16 31
-36 36 -19 3 -31 14 -38 36 -7 17 -22 34 -37 40 -14 5 -32 24 -39 41 -8 19
-26 37 -45 45 -17 7 -31 20 -31 28 0 9 -18 27 -40 41 -26 16 -40 33 -40 46 0
12 -8 23 -20 26 -11 3 -18 9 -15 13 3 4 -3 7 -12 6 -9 0 -22 8 -27 20 -15 29
-38 49 -56 49 -8 0 -14 8 -14 17 1 10 -3 15 -9 11 -6 -4 -8 2 -5 15 5 17 2 22
-13 22 -10 0 -19 4 -19 9 0 5 -7 8 -16 7 -9 0 -20 7 -25 17 -5 9 -13 25 -18
34 -4 10 -14 18 -22 19 -8 0 -19 2 -26 2 -7 1 -15 17 -19 36 -5 30 -10 35 -38
38 -25 2 -33 9 -41 36 -7 24 -15 32 -31 32 -20 0 -37 13 -39 30 -4 26 -19 50
-33 51 -9 1 -23 2 -29 3 -7 0 -28 17 -45 37 -18 20 -50 42 -71 48 -24 8 -43
23 -52 42 -9 16 -24 29 -34 29 -23 0 -45 25 -35 41 4 7 3 9 -3 6 -6 -4 -13 2
-16 12 -3 14 -15 21 -38 23 -30 3 -34 7 -37 36 -3 30 -17 39 -54 33 -5 0 -8 4
-8 11 0 6 -3 9 -6 5 -3 -3 -18 8 -32 24 -27 33 -66 53 -94 50 -11 -1 -22 10
-32 33 -11 27 -21 36 -38 36 -30 0 -48 18 -48 47 0 17 -6 23 -23 23 -13 0 -27
3 -31 7 -3 4 -13 8 -20 9 -35 5 -54 16 -64 38 -7 15 -22 26 -45 30 -35 7 -47
21 -47 57 0 17 -22 25 -54 20 -14 -3 -36 21 -29 32 3 5 1 7 -4 4 -6 -4 -18 2
-28 13 -10 11 -36 23 -56 26 -37 6 -68 28 -56 40 8 9 -19 34 -36 34 -40 0
-107 33 -113 56 -4 17 -13 24 -31 24 -43 0 -63 17 -59 50 3 30 3 30 -45 30
-27 0 -49 4 -49 10 0 5 -7 7 -15 4 -19 -8 -48 15 -41 32 5 13 2 15 -74 34 -48
13 -80 35 -80 56 0 7 -19 15 -42 19 -42 8 -53 14 -93 53 -12 12 -35 22 -51 22
-41 0 -58 14 -59 47 -2 27 -4 28 -66 33 -68 5 -90 14 -88 33 4 29 -5 34 -68
40 -59 6 -71 11 -104 43 -26 26 -47 37 -78 40 -46 5 -106 37 -115 59 -3 10
-20 15 -46 15 -58 0 -108 23 -116 54 -6 24 -11 26 -55 26 -27 0 -49 4 -49 10
0 5 -7 7 -15 4 -19 -8 -48 15 -41 33 7 18 -29 27 -132 31 -19 1 -31 6 -27 12
3 6 4 10 1 10 -3 0 -7 -4 -10 -9z"/>
<path d="M13048 37882 c-15 -2 -30 -11 -33 -21 -3 -10 -18 -24 -32 -30 -26
-12 -27 -12 -13 6 10 12 8 11 -5 -2 -14 -14 -35 -22 -65 -23 -37 -3 -49 -9
-76 -40 -30 -35 -36 -37 -105 -42 -67 -5 -73 -7 -74 -28 -2 -31 -18 -40 -89
-48 -52 -6 -59 -10 -68 -35 -12 -35 -25 -40 -139 -48 -4 -1 -10 -12 -13 -25
-7 -29 -50 -46 -112 -46 -42 0 -44 -1 -44 -30 0 -37 -27 -50 -101 -50 -41 0
-49 -3 -49 -18 0 -39 -23 -54 -88 -55 -58 -2 -63 -4 -68 -27 -3 -14 -7 -30 -9
-37 -2 -6 -22 -14 -44 -18 -25 -4 -45 -14 -51 -26 -6 -10 -17 -19 -24 -19 -8
0 -19 -7 -26 -15 -7 -8 -28 -15 -46 -15 -22 0 -34 -5 -34 -14 0 -32 -35 -56
-90 -62 -53 -6 -74 -19 -63 -36 9 -16 -18 -36 -55 -43 -25 -4 -41 -13 -47 -27
-6 -12 -21 -28 -35 -37 -20 -14 -23 -14 -15 -1 6 10 2 9 -12 -3 -12 -10 -27
-17 -35 -16 -29 4 -38 -2 -38 -24 0 -31 -18 -47 -52 -47 -20 0 -32 -7 -39 -23
-13 -28 -62 -57 -99 -57 -27 0 -43 -19 -45 -55 0 -5 -16 -13 -35 -18 -24 -5
-41 -18 -53 -38 -11 -21 -22 -29 -33 -25 -8 3 -13 2 -10 -3 7 -10 -27 -21 -66
-21 -24 0 -28 -4 -28 -30 0 -24 -5 -31 -27 -36 -49 -10 -53 -13 -53 -38 0 -28
-23 -44 -68 -48 -20 -1 -28 -6 -25 -15 8 -19 -23 -50 -57 -56 -30 -6 -80 -47
-80 -65 0 -6 -15 -14 -34 -17 -31 -6 -44 -21 -50 -59 0 -5 -14 -11 -31 -13
-37 -5 -47 -15 -49 -45 -1 -17 -10 -26 -33 -32 -23 -7 -34 -18 -40 -40 -7 -25
-16 -33 -46 -40 -25 -7 -37 -15 -37 -27 0 -21 -36 -49 -62 -49 -11 0 -18 -7
-18 -18 0 -20 -29 -52 -47 -52 -6 0 -32 -20 -57 -45 -26 -25 -51 -45 -56 -45
-4 0 -24 -18 -43 -40 -24 -28 -42 -40 -60 -40 -23 0 -27 -4 -27 -29 0 -32 -14
-47 -49 -49 -29 -1 -32 -4 -33 -33 -2 -34 -17 -49 -49 -49 -24 0 -28 -4 -31
-32 -3 -29 -7 -34 -38 -38 -31 -4 -36 -9 -40 -40 -4 -31 -9 -35 -37 -38 -31
-3 -39 -15 -34 -46 3 -16 -20 -33 -45 -33 -30 0 -35 -4 -37 -34 -1 -20 -27
-62 -27 -45 0 3 -11 -6 -25 -20 -14 -14 -25 -29 -25 -34 0 -19 -36 -70 -57
-79 -12 -6 -29 -26 -37 -44 -9 -23 -23 -37 -40 -41 -18 -4 -26 -13 -26 -29 0
-32 -13 -47 -46 -56 -22 -5 -30 -14 -32 -34 -3 -28 -33 -52 -55 -44 -7 2 -16
-13 -22 -37 -10 -36 -15 -41 -43 -44 -27 -3 -32 -7 -32 -31 0 -34 -17 -51 -51
-51 -24 0 -27 -4 -32 -52 -6 -52 -16 -66 -62 -93 -10 -6 -19 -22 -20 -35 -1
-14 -3 -29 -4 -34 0 -4 -8 -6 -16 -2 -8 3 -15 1 -15 -4 0 -6 -7 -10 -15 -10
-8 0 -15 -9 -15 -20 0 -26 -40 -62 -62 -56 -15 3 -18 -3 -18 -35 0 -21 -5 -39
-11 -39 -5 0 -7 -4 -4 -10 11 -18 -15 -52 -36 -47 -10 3 -17 1 -13 -4 3 -5 0
-9 -5 -9 -6 0 -11 -13 -11 -29 0 -35 -23 -61 -54 -61 -19 0 -22 -4 -18 -25 3
-19 -4 -32 -33 -57 -35 -31 -61 -73 -56 -92 5 -22 -13 -45 -39 -51 -25 -5 -30
-12 -30 -36 0 -16 -5 -29 -11 -29 -5 0 -8 -4 -4 -9 3 -5 -9 -11 -27 -13 -32
-3 -33 -4 -38 -59 -5 -61 -22 -89 -51 -89 -13 0 -19 -7 -19 -24 0 -14 -5 -28
-10 -31 -6 -4 -8 -11 -5 -16 4 -5 1 -9 -6 -9 -29 0 -67 -64 -71 -120 -1 -24
-19 -40 -44 -40 -22 0 -24 -4 -24 -44 0 -59 -16 -100 -36 -92 -8 3 -12 2 -9
-4 3 -6 -3 -10 -14 -10 -16 0 -21 -7 -22 -27 -2 -41 -3 -45 -18 -80 -7 -18
-21 -35 -31 -38 -10 -3 -21 -22 -26 -48 -7 -31 -14 -42 -27 -40 -10 0 -16 -2
-13 -5 3 -3 -2 -14 -11 -25 -10 -10 -22 -42 -28 -70 -9 -47 -13 -52 -40 -57
-28 -5 -30 -8 -33 -55 -3 -67 -11 -97 -22 -90 -6 3 -10 1 -10 -4 0 -6 -10 -10
-22 -8 -22 2 -23 -3 -28 -68 -4 -64 -8 -74 -37 -103 -18 -17 -33 -40 -33 -50
0 -48 -15 -86 -48 -120 -24 -26 -34 -46 -34 -66 0 -17 -2 -34 -5 -40 -4 -6 -8
-22 -9 -35 -3 -29 -32 -54 -51 -47 -12 5 -19 -51 -14 -106 1 -10 -2 -18 -8
-18 -6 0 -8 -7 -5 -15 4 -9 0 -15 -7 -16 -8 -1 -18 -2 -24 -4 -5 -1 -16 -3
-22 -3 -9 -2 -13 -24 -13 -76 0 -101 -26 -162 -59 -141 -4 2 -8 -1 -8 -8 -5
-125 -22 -181 -64 -217 -16 -14 -23 -43 -32 -150 -1 -16 -7 -24 -17 -22 -8 2
-12 0 -7 -4 4 -4 -4 -19 -17 -33 -22 -23 -25 -36 -27 -106 -2 -110 -13 -144
-55 -161 -23 -10 -32 -19 -28 -29 4 -8 2 -15 -3 -15 -5 0 -9 -10 -9 -22 1 -14
-4 -22 -12 -20 -8 1 -11 -1 -8 -6 2 -4 -4 -27 -15 -51 -14 -32 -19 -64 -18
-120 1 -51 4 -66 8 -46 4 20 12 30 24 29 9 -1 14 2 11 7 -3 5 4 9 15 9 15 0
21 6 21 23 0 32 20 55 50 59 19 2 26 10 28 32 2 17 20 44 45 70 23 22 43 48
45 56 4 21 61 72 72 65 6 -4 10 -1 10 5 0 6 8 10 18 9 41 -4 49 1 46 28 -1 16
4 32 14 41 9 7 11 11 5 7 -7 -3 -13 -1 -13 5 0 16 47 60 65 60 8 0 15 8 15 18
0 27 22 51 49 55 16 3 25 11 28 27 5 31 19 47 48 54 14 4 31 19 40 35 8 16 24
32 35 36 11 4 27 20 35 36 9 16 29 36 46 44 16 9 49 34 71 56 24 23 47 38 55
34 23 -8 52 12 46 33 -4 18 11 38 32 43 6 1 17 4 26 6 8 2 20 17 26 33 8 20
21 31 44 38 22 5 35 15 38 28 5 30 19 41 56 48 19 4 35 11 35 16 0 12 29 40
42 40 6 0 3 -10 -8 -22 l-19 -23 22 19 c12 10 21 23 20 29 -1 5 13 14 32 19
38 10 59 28 54 44 -6 17 20 33 55 36 20 1 34 9 38 20 5 17 65 60 81 57 39 -7
61 2 55 23 -3 13 -1 19 5 15 6 -4 10 1 9 11 0 10 6 16 17 16 9 -1 17 3 17 8 0
6 7 8 15 4 9 -3 29 7 49 24 18 16 36 26 40 22 4 -4 6 -1 4 7 -2 10 10 17 37
22 25 4 54 20 77 42 24 22 50 36 77 41 28 4 42 12 46 27 9 29 59 46 142 48 12
1 24 9 28 21 9 28 67 60 111 60 29 0 46 7 71 32 32 31 53 38 138 43 32 2 43 7
53 29 17 35 49 46 142 52 41 2 77 9 78 14 2 6 8 8 13 5 5 -4 6 0 3 8 -5 15 12
33 36 36 64 7 92 10 138 10 46 1 54 4 64 26 11 26 80 58 114 55 11 -1 58 -2
105 -1 83 1 87 2 103 29 l17 27 -20 -24 c-12 -13 -21 -18 -21 -12 0 44 57 55
335 61 28 1 52 5 53 11 2 5 7 7 12 4 4 -3 14 3 21 13 13 15 12 16 -3 3 -22
-16 -24 1 -3 19 8 7 24 10 35 7 11 -3 17 -1 14 4 -3 6 13 10 38 10 403 1 561
9 589 34 43 36 90 39 484 40 391 0 440 -4 483 -40 29 -24 33 -24 278 -29 367
-6 372 -7 406 -45 l28 -32 128 -5 c70 -2 140 -4 156 -4 20 0 38 -10 61 -35 33
-34 34 -35 122 -35 115 -1 150 -12 158 -51 6 -28 9 -29 63 -29 128 -1 152 -6
185 -38 27 -26 43 -31 104 -37 40 -4 71 -11 68 -15 -3 -4 3 -7 13 -6 9 0 17
-6 17 -14 0 -29 27 -45 80 -46 69 -2 98 -12 91 -30 -4 -10 -2 -12 5 -8 7 4 19
-3 28 -15 13 -17 28 -22 59 -23 23 0 42 -5 42 -10 0 -5 4 -7 9 -3 17 10 59
-17 65 -41 6 -23 20 -28 59 -25 9 1 17 -2 17 -6 0 -5 10 -9 23 -10 12 -1 32
-14 45 -28 13 -16 37 -29 60 -32 24 -4 48 -18 69 -40 18 -19 46 -36 65 -40 40
-7 68 -30 68 -55 0 -14 8 -18 34 -18 26 0 43 -9 75 -40 22 -22 48 -40 56 -40
8 0 15 -5 15 -11 0 -5 5 -7 10 -4 16 10 40 -14 40 -40 0 -12 6 -22 13 -23 6
-1 23 -3 37 -4 14 -2 25 -10 26 -18 1 -34 16 -61 30 -56 24 9 90 -23 119 -59
16 -18 34 -31 42 -28 19 8 44 -17 41 -40 -2 -15 5 -22 25 -28 36 -10 59 -29
53 -44 -6 -17 14 -35 40 -35 26 0 41 -16 46 -50 2 -19 10 -26 33 -30 23 -4 32
-12 40 -37 7 -25 15 -33 31 -33 29 0 54 -25 54 -54 0 -16 8 -24 33 -31 26 -8
33 -16 35 -42 3 -31 11 -38 40 -34 21 3 43 -20 40 -43 -2 -13 5 -24 19 -31 13
-7 20 -14 17 -17 -3 -3 3 -5 12 -4 12 1 21 -10 27 -31 6 -18 14 -33 19 -33 13
0 58 -47 58 -60 0 -6 -6 -8 -12 -5 -7 4 -5 0 5 -8 10 -8 17 -19 16 -23 -5 -28
4 -42 34 -50 26 -8 34 -17 41 -46 7 -29 15 -38 34 -40 27 -3 37 -17 46 -60 4
-15 15 -29 26 -33 17 -6 37 -40 32 -57 -1 -5 2 -8 8 -8 6 0 9 -3 9 -7 -7 -44
2 -63 31 -63 31 0 50 -22 50 -58 0 -11 15 -35 34 -54 25 -25 36 -47 41 -81 6
-36 11 -47 26 -47 21 0 48 -35 50 -65 1 -11 5 0 10 25 12 66 0 161 -22 186
-40 44 -54 187 -54 567 0 161 -2 177 -17 177 -25 0 -49 42 -49 86 1 160 -12
430 -19 432 -34 12 -54 42 -54 81 -1 22 -4 41 -8 41 -3 0 -7 64 -7 142 -1 102
-4 144 -13 147 -30 10 -59 52 -57 83 0 18 -2 78 -5 133 -3 55 -6 114 -6 132 0
22 -4 31 -13 27 -7 -2 -21 2 -32 10 -20 14 -23 35 -30 201 -2 44 -4 86 -4 93
-1 6 -8 12 -17 12 -8 0 -13 4 -9 9 3 5 0 13 -6 17 -8 4 -9 3 -5 -4 4 -7 2 -12
-4 -12 -20 0 -30 50 -30 147 l0 96 -37 33 -37 33 -4 103 -4 103 -32 15 c-24
12 -31 21 -31 43 1 15 -3 27 -7 27 -4 0 -8 36 -8 80 0 72 -2 80 -19 80 -23 0
-45 25 -35 41 4 8 3 9 -5 5 -8 -5 -11 2 -11 21 1 87 -15 168 -34 165 -10 -2
-15 1 -11 7 4 7 0 8 -11 4 -14 -5 -16 -3 -11 11 4 9 3 15 -2 12 -5 -3 -12 25
-16 64 -6 56 -11 72 -29 83 -26 17 -43 72 -45 142 -1 53 -6 61 -36 67 -28 5
-45 44 -45 105 0 46 -3 53 -27 65 -28 14 -38 35 -48 111 -4 28 -11 47 -19 47
-25 0 -47 38 -58 101 -8 49 -18 73 -45 102 -24 27 -33 45 -31 68 2 23 -5 36
-28 54 -34 27 -59 76 -51 99 3 8 -11 31 -34 54 -22 24 -39 50 -39 64 0 38 -11
68 -25 68 -24 0 -53 49 -60 100 -4 32 -12 50 -20 50 -20 0 -47 31 -41 46 3 8
1 14 -4 14 -6 0 -10 18 -10 40 0 40 -20 63 -47 53 -15 -5 -32 26 -35 65 -1 20
-6 28 -15 25 -24 -9 -42 18 -54 77 -10 50 -15 59 -38 65 -30 8 -41 21 -41 52
0 12 -9 27 -21 33 -31 17 -59 70 -59 113 0 34 -2 37 -29 37 -33 0 -41 9 -50
53 -5 23 -13 31 -30 32 -31 2 -49 35 -42 78 0 4 -8 7 -19 7 -18 0 -48 34 -55
62 -18 81 -20 84 -50 78 -14 -2 -35 31 -35 57 0 16 -6 23 -19 23 -36 0 -50 12
-57 46 -4 23 -12 34 -24 34 -23 0 -44 26 -36 45 3 9 2 13 -4 10 -6 -3 -10 -2
-10 4 0 6 -14 18 -30 26 -27 14 -53 52 -54 80 -1 6 -15 22 -33 36 -18 14 -47
44 -65 66 -18 21 -37 39 -43 38 -5 0 -12 16 -15 35 -4 29 -10 36 -33 38 -27 3
-53 34 -43 51 7 10 -18 33 -27 25 -9 -9 -48 6 -42 17 4 5 1 9 -5 9 -7 0 -9 8
-5 19 6 21 -20 42 -42 34 -7 -3 -13 0 -13 7 0 6 -4 8 -10 5 -5 -3 -10 -1 -10
5 0 12 -50 59 -63 60 -10 0 -77 67 -77 78 0 4 -10 8 -22 9 -13 1 -36 18 -53
37 -16 20 -36 36 -43 36 -7 0 -11 4 -8 9 3 5 -2 8 -12 7 -9 0 -17 6 -18 14 -2
30 -17 50 -38 50 -30 0 -43 11 -51 43 -6 21 -13 27 -36 27 -30 0 -52 27 -47
57 2 14 -7 19 -48 24 -62 8 -94 24 -94 48 0 20 -38 29 -92 23z"/>
<path d="M22195 32681 c-64 -4 -103 -13 -135 -29 -66 -33 -146 -41 -435 -42
-290 -1 -290 -1 -308 -20 -10 -12 -9 -12 6 -1 11 9 17 10 17 2 0 -17 -48 -44
-70 -38 -11 3 -18 1 -14 -4 3 -5 -5 -9 -18 -9 -13 0 -54 -2 -93 -5 -38 -2
-100 -5 -137 -5 -60 0 -66 -2 -61 -19 6 -23 -31 -51 -68 -51 -71 0 -175 -13
-184 -24 -18 -21 -65 -47 -75 -41 -6 3 -10 1 -10 -5 0 -6 -8 -10 -17 -9 -72 7
-132 -2 -138 -21 -11 -36 -66 -60 -139 -60 -59 0 -66 -2 -66 -19 0 -33 -27
-49 -94 -56 -57 -6 -65 -10 -70 -31 -6 -24 -49 -49 -66 -39 -5 3 -11 1 -15 -5
-3 -5 -19 -10 -34 -10 -21 0 -30 -6 -34 -21 -3 -12 -10 -18 -17 -14 -6 3 -9 1
-8 -6 4 -15 -33 -27 -84 -28 -31 -1 -38 -5 -38 -21 0 -31 -36 -60 -74 -60 -27
0 -40 -7 -62 -35 -20 -26 -39 -37 -66 -41 -30 -5 -38 -11 -38 -28 0 -28 -18
-46 -47 -46 -12 0 -36 -13 -53 -30 -17 -16 -37 -30 -45 -30 -8 0 -15 -4 -15
-10 0 -5 -16 -10 -35 -10 -26 0 -33 -4 -29 -15 3 -8 2 -20 -2 -27 -5 -7 -9
-17 -9 -23 0 -5 -16 -12 -35 -15 -29 -4 -36 -10 -40 -35 -4 -22 -11 -30 -26
-31 -31 -2 -41 -10 -49 -41 -8 -32 -21 -43 -51 -43 -15 0 -24 -9 -30 -32 -7
-24 -18 -35 -42 -42 -24 -7 -32 -15 -32 -31 0 -27 -15 -41 -53 -50 -17 -5 -27
-14 -27 -25 0 -36 -12 -50 -41 -50 -28 0 -33 -7 -30 -41 2 -20 -15 -34 -51
-43 -19 -4 -28 -13 -28 -25 0 -38 -11 -51 -46 -51 -33 0 -43 -21 -35 -72 0 -5
-3 -7 -8 -5 -15 4 -59 -51 -66 -83 -4 -16 -10 -28 -15 -25 -4 3 -7 -3 -6 -13
0 -10 -6 -16 -16 -16 -10 1 -15 -2 -12 -7 3 -5 -1 -9 -9 -9 -9 0 -19 -15 -24
-37 -5 -21 -13 -38 -18 -38 -41 -3 -52 -17 -58 -71 -6 -61 -18 -81 -50 -86
-16 -2 -23 -12 -28 -40 -4 -24 -16 -45 -36 -62 -22 -19 -33 -38 -37 -70 -7
-48 -27 -72 -51 -63 -20 8 -23 1 -29 -68 -3 -33 -10 -61 -16 -63 -5 -2 -7 -9
-3 -15 4 -6 0 -8 -9 -4 -32 12 -48 -15 -49 -81 -2 -60 -4 -66 -40 -99 -35 -32
-39 -41 -39 -85 0 -26 -4 -48 -10 -48 -5 0 -7 -7 -3 -15 6 -18 -23 -55 -44
-55 -7 0 -13 -10 -13 -22 -2 -104 -9 -130 -44 -162 -31 -30 -35 -39 -39 -102
-8 -122 -18 -157 -52 -172 -24 -11 -25 -14 -25 -122 0 -124 -14 -173 -54 -192
l-26 -11 -1 -901 c-1 -496 0 -1039 1 -1208 1 -170 -2 -308 -7 -308 -4 0 -6
-70 -5 -155 7 -287 -15 -703 -38 -742 -20 -34 -20 -54 -20 -1475 l0 -1440 31
6 c17 3 37 6 44 6 6 0 17 11 23 24 12 26 62 46 118 46 23 0 34 6 42 25 12 26
56 50 73 39 5 -3 9 0 9 5 0 7 24 11 58 11 64 0 86 9 77 32 -6 16 12 35 35 36
61 2 120 16 120 28 0 29 38 52 99 59 47 5 62 11 66 26 8 23 41 43 57 33 7 -4
8 -3 4 4 -5 9 9 12 47 12 47 0 55 3 64 23 14 29 70 57 114 57 25 0 43 9 70 36
32 31 45 37 91 40 76 5 98 12 92 28 -9 24 23 43 85 50 52 6 62 11 73 33 14 28
36 38 110 48 33 4 49 11 53 25 7 22 73 50 121 50 26 0 43 8 66 31 38 38 66 49
123 49 53 0 75 8 69 24 -6 17 22 40 37 30 7 -4 9 -3 6 3 -4 7 16 13 53 17 39
5 60 12 60 20 0 24 37 47 94 56 39 6 68 19 96 41 35 29 51 34 113 39 47 3 72
9 73 18 1 6 2 18 3 26 1 15 58 39 83 35 44 -6 68 3 80 28 17 34 31 41 101 48
36 4 57 11 57 19 0 20 38 49 55 42 9 -3 13 -2 10 4 -3 5 4 9 17 9 46 -2 87 10
108 31 11 11 25 18 30 15 5 -3 12 0 16 6 5 8 3 9 -6 4 -9 -6 -11 -4 -6 4 5 7
14 10 22 7 8 -3 14 -1 14 4 0 5 24 10 53 12 45 3 52 6 55 25 5 33 26 45 95 50
56 5 65 8 79 34 17 29 28 33 111 44 32 4 47 11 47 21 0 26 60 52 136 59 55 6
74 11 74 22 0 8 4 12 9 9 5 -3 8 2 7 12 -1 12 6 17 22 16 12 0 22 3 22 6 0 4
20 8 45 8 54 1 65 7 65 31 0 30 26 43 95 49 41 3 65 9 65 17 0 24 38 46 99 56
35 7 65 17 68 25 11 28 70 54 133 57 56 3 64 7 77 31 17 32 49 46 108 46 39 0
44 3 53 29 11 32 56 51 120 51 24 0 35 6 43 24 11 24 49 40 124 51 25 4 52 18
72 37 19 19 36 27 44 23 7 -5 10 -4 6 2 -7 11 101 28 111 18 4 -3 13 9 22 27
10 21 22 33 35 33 11 0 22 3 25 7 3 4 28 8 56 9 42 2 50 5 47 19 -7 28 31 51
92 56 47 4 62 10 85 34 27 29 48 38 107 43 19 2 47 18 71 39 35 31 48 37 111
43 59 6 71 10 71 25 0 28 25 41 90 47 51 5 63 10 70 27 15 41 42 52 137 55 7
1 19 14 28 31 15 30 32 36 117 43 26 3 47 14 73 39 33 32 45 36 106 42 50 5
69 11 69 22 0 33 38 54 100 54 47 0 60 3 60 15 0 24 40 57 61 52 10 -3 19 -1
19 5 0 5 10 9 23 8 42 -4 52 0 68 28 19 34 73 52 158 52 57 0 62 2 56 19 -9
30 19 48 89 56 47 5 66 11 66 21 0 29 37 51 98 58 48 5 64 12 73 27 14 27 68
49 120 49 36 0 47 5 75 37 32 35 37 38 104 41 53 3 70 8 70 19 0 8 4 12 9 9 5
-3 8 2 7 12 0 10 6 16 16 16 10 -1 16 2 13 6 -3 4 22 11 55 15 38 4 60 12 60
19 0 20 38 49 55 42 9 -3 13 -2 10 4 -6 9 5 11 73 14 9 1 25 13 34 29 16 25
30 31 66 30 6 -1 12 3 12 8 0 5 26 9 59 9 55 0 91 16 74 33 -10 10 19 38 34
33 7 -3 13 -1 13 4 0 6 25 10 55 10 43 0 55 3 55 16 0 8 4 13 9 10 5 -3 8 2 7
12 0 10 6 16 16 16 10 -1 16 2 13 6 -3 4 22 11 55 15 38 4 60 12 60 19 0 20
38 49 55 42 9 -3 14 -2 11 3 -3 5 15 12 40 16 31 4 53 15 68 32 12 14 34 26
49 26 15 1 27 5 27 9 0 4 16 7 35 6 29 -1 43 6 75 37 40 39 54 43 153 44 24 1
36 5 32 11 -10 17 23 60 45 60 20 0 20 9 20 716 l0 716 -24 29 c-25 29 -47
109 -46 165 2 166 -14 324 -32 330 -22 7 -48 60 -48 96 0 13 -2 61 -5 108 -2
47 -5 92 -5 100 0 8 -10 20 -22 25 -31 14 -47 65 -47 158 -1 74 -3 80 -32 109
-40 40 -49 66 -49 140 0 55 -3 64 -34 98 -29 33 -35 47 -41 108 -6 58 -11 72
-26 77 -29 10 -46 44 -54 108 -5 42 -12 60 -26 67 -24 13 -49 72 -49 115 0 24
-6 34 -23 42 -28 13 -61 77 -54 105 4 14 -2 24 -24 36 -16 10 -29 23 -29 31 0
11 3 11 18 0 15 -13 16 -12 3 3 -7 10 -17 15 -22 12 -5 -2 -11 7 -14 21 -3 14
-8 37 -12 53 -3 15 -6 30 -5 33 1 4 -7 5 -17 2 -22 -5 -45 21 -37 42 3 9 2 13
-4 10 -5 -3 -12 11 -15 32 -10 58 -12 62 -33 56 -20 -5 -37 20 -26 38 3 5 0 9
-5 9 -6 0 -11 9 -11 19 0 12 -9 21 -26 25 -29 8 -54 57 -54 106 0 27 -9 35
-34 31 -17 -3 -36 22 -36 49 0 24 -6 30 -35 40 -25 8 -37 19 -41 38 -4 15 -21
39 -39 54 -18 15 -36 40 -39 55 -4 14 -25 43 -46 63 -29 28 -38 43 -36 63 3
26 -6 32 -41 28 -7 -1 -13 3 -13 9 0 6 -6 8 -12 4 -7 -4 -10 -4 -6 0 17 19
-14 64 -48 71 -24 4 -34 11 -31 19 8 22 -21 54 -51 58 -21 2 -27 9 -29 28 0
14 -1 30 -2 35 -1 6 -9 11 -18 12 -40 3 -56 11 -59 27 -5 38 -14 46 -49 46
-22 0 -34 4 -30 10 3 6 -3 10 -15 10 -13 0 -28 12 -38 30 -9 16 -23 30 -29 30
-7 0 -13 5 -13 11 0 5 -4 8 -9 5 -15 -10 -42 6 -37 21 3 8 1 11 -4 8 -6 -3
-10 1 -10 9 0 17 -29 35 -47 29 -6 -2 -15 1 -19 8 -5 8 -3 10 7 5 8 -4 6 -1
-4 7 -10 9 -15 21 -11 31 3 9 2 16 -2 17 -5 1 -25 2 -44 4 -53 4 -89 22 -100
50 -5 14 -13 25 -17 26 -5 0 -20 2 -36 3 -18 1 -38 14 -58 39 -22 27 -38 37
-60 37 -16 0 -29 4 -29 10 0 5 -7 7 -15 3 -11 -4 -19 4 -27 25 -11 28 -17 31
-69 37 -66 8 -101 34 -79 60 11 13 8 15 -16 16 -16 1 -38 3 -49 4 -11 1 -35 2
-53 3 -22 1 -42 12 -65 36 -29 29 -40 34 -96 38 -62 4 -98 26 -112 67 -2 6
-35 11 -74 12 -93 1 -140 14 -163 44 -15 19 -29 25 -58 25 -66 0 -144 12 -138
21 3 5 -2 6 -11 3 -10 -4 -28 4 -48 23 -32 30 -33 31 -178 37 -154 6 -228 22
-263 55 -21 20 -34 21 -259 22 -130 0 -237 3 -237 7 0 4 -24 7 -52 7 -37 0
-70 9 -111 29 -65 31 -239 42 -442 27z"/>
<path d="M11440 32228 c-41 -3 -175 -6 -297 -7 l-222 -1 -27 -25 c-43 -40
-142 -54 -371 -55 -49 0 -63 -3 -63 -15 0 -18 -56 -49 -76 -41 -8 3 -14 1 -14
-4 0 -6 -44 -10 -104 -10 -96 0 -105 -2 -111 -20 -8 -25 -50 -54 -65 -45 -5 3
-10 1 -10 -4 0 -7 -29 -11 -75 -11 -69 0 -76 -2 -86 -23 -16 -36 -83 -55 -196
-56 -26 -1 -31 -4 -26 -18 4 -10 2 -14 -4 -10 -6 4 -10 -1 -9 -11 0 -10 -6
-16 -16 -16 -10 1 -16 -2 -13 -6 6 -10 -81 -24 -95 -15 -5 3 -19 -5 -32 -17
-41 -42 -72 -58 -117 -58 -42 0 -91 -32 -91 -59 0 -12 -26 -21 -61 -21 -21 0
-41 -11 -65 -35 -19 -20 -39 -33 -44 -30 -5 3 -11 1 -15 -5 -3 -5 -17 -10 -30
-10 -15 0 -26 -7 -30 -20 -12 -36 -49 -53 -137 -59 -5 -1 -8 -10 -8 -20 0 -28
-27 -51 -59 -51 -20 0 -31 -7 -39 -24 -13 -28 -64 -56 -103 -56 -25 0 -47 -28
-41 -52 1 -4 -14 -12 -32 -18 -24 -8 -38 -20 -44 -40 -8 -22 -20 -31 -50 -40
-22 -5 -42 -17 -45 -25 -9 -21 -54 -48 -95 -55 -29 -4 -37 -10 -35 -25 3 -33
-16 -55 -47 -55 -26 0 -30 -4 -30 -28 0 -35 -16 -52 -51 -52 -24 0 -28 -5 -31
-32 -2 -27 -9 -34 -34 -41 -23 -7 -34 -17 -41 -40 -6 -23 -17 -34 -40 -40 -23
-7 -33 -18 -40 -41 -7 -25 -14 -32 -41 -34 -27 -3 -32 -7 -32 -31 0 -35 -17
-51 -52 -51 -21 0 -28 -5 -29 -20 -3 -46 -14 -60 -45 -60 -20 0 -24 -5 -24
-28 0 -32 -44 -102 -65 -102 -8 0 -19 -17 -25 -41 -9 -31 -18 -43 -41 -51 -21
-7 -29 -17 -29 -33 0 -26 -14 -40 -52 -49 -24 -5 -28 -11 -28 -42 0 -23 -5
-37 -17 -41 -31 -12 -56 -45 -60 -82 -4 -36 -33 -71 -58 -71 -7 0 -16 -16 -19
-35 -4 -19 -22 -51 -41 -71 -20 -21 -35 -47 -35 -60 0 -13 -4 -24 -10 -24 -5
0 -9 -6 -7 -12 1 -7 -4 -12 -10 -11 -7 2 -13 -2 -13 -8 0 -6 -9 -9 -20 -6 -17
4 -20 0 -20 -33 0 -69 -10 -98 -40 -110 -23 -9 -29 -20 -34 -55 -7 -46 -38
-95 -60 -95 -8 0 -16 -19 -20 -50 -4 -28 -11 -48 -15 -45 -5 2 -12 -6 -15 -20
-3 -13 -15 -29 -26 -35 -15 -8 -20 -21 -20 -49 0 -49 -25 -99 -57 -114 -14 -6
-31 -28 -40 -49 -8 -20 -23 -40 -34 -43 -16 -5 -19 -17 -20 -78 -1 -125 -9
-151 -47 -155 -30 -3 -32 -6 -32 -40 -2 -123 -18 -174 -59 -187 -16 -5 -19
-18 -23 -100 -4 -99 -20 -135 -59 -135 -15 0 -18 -13 -21 -109 -3 -116 -5
-123 -41 -126 -21 -2 -22 -5 -28 -146 -10 -214 -10 -10027 -1 -10033 15 -9 92
6 92 18 0 29 28 47 88 57 51 9 65 16 72 34 12 32 20 35 97 41 61 4 70 8 110
44 39 37 47 40 101 40 58 0 59 1 68 33 9 31 11 32 85 40 69 8 76 11 92 39 13
22 23 29 37 25 11 -3 18 -1 15 3 -3 5 20 12 50 15 35 5 55 12 55 20 0 22 68
55 112 55 35 0 46 6 74 37 30 33 38 37 101 42 60 5 68 9 71 28 5 34 26 45 98
51 57 4 67 8 75 29 9 24 42 42 76 42 39 0 79 15 101 38 12 14 29 22 37 19 8
-3 17 0 21 6 5 7 2 8 -6 3 -9 -5 -11 -4 -6 3 4 7 17 12 29 12 34 -1 87 11 87
19 0 4 14 18 31 30 28 21 51 26 141 33 21 2 27 6 23 19 -7 22 23 52 46 46 11
-3 19 -1 19 4 0 5 23 9 50 9 35 0 50 4 50 13 0 24 35 47 88 59 29 7 52 16 52
20 0 10 98 59 113 57 27 -5 74 15 103 43 27 25 42 30 100 35 38 2 71 9 72 14
2 5 7 7 12 4 4 -3 6 4 3 14 -6 25 24 41 90 47 39 3 56 10 72 28 24 29 55 45
81 44 43 -2 79 13 113 46 35 33 71 43 165 46 13 0 16 5 12 16 -9 23 13 46 35
39 11 -4 19 -2 19 5 0 6 6 10 13 9 49 -6 75 2 81 26 8 32 31 43 101 50 48 5
63 11 86 36 18 20 35 29 45 25 8 -3 13 -2 10 3 -7 10 17 21 44 21 9 0 24 7 31
16 19 23 90 52 136 56 24 3 49 14 68 32 39 36 59 44 126 46 78 2 77 1 71 23
-3 14 -1 18 6 13 8 -4 10 -2 6 8 -7 17 49 36 109 36 30 0 40 5 44 19 5 20 45
44 78 48 59 6 73 11 94 32 12 12 26 19 31 16 5 -3 12 0 16 6 4 8 3 9 -4 5 -7
-4 -12 -3 -12 3 0 14 28 21 96 25 46 2 60 7 62 20 2 9 8 14 13 11 5 -3 6 0 3
8 -5 15 49 40 78 36 43 -5 69 3 79 25 12 25 54 50 70 41 5 -4 9 -1 9 4 0 6 18
11 40 11 33 0 48 7 76 34 33 32 90 50 144 44 36 -3 48 2 43 21 -7 27 29 47 97
56 38 5 59 14 69 27 21 31 74 48 147 48 57 0 65 2 60 16 -4 10 1 22 11 31 12
9 13 12 3 8 -8 -4 -6 1 5 10 11 9 29 15 40 14 74 -5 93 0 100 31 7 32 14 36
98 46 49 5 60 10 68 30 10 28 40 42 105 47 32 3 52 11 63 25 28 35 74 51 153
53 65 2 75 4 71 18 -5 21 31 55 52 48 8 -4 15 -2 15 3 0 5 17 10 38 12 29 2
38 8 40 25 5 33 22 42 90 45 57 3 62 5 71 31 12 31 34 42 114 51 37 5 66 15
78 27 11 11 24 17 28 14 5 -2 8 3 7 13 -1 18 4 19 90 21 49 1 52 3 61 34 7 24
15 32 31 31 12 0 22 3 22 7 0 4 24 9 53 11 45 3 52 6 55 25 6 38 36 50 138 52
15 1 24 9 28 25 6 26 36 39 114 51 26 4 46 14 52 26 16 29 58 46 133 54 55 6
67 11 67 25 0 23 26 44 45 36 8 -3 15 -1 15 4 0 6 23 10 50 10 29 0 50 5 50
11 0 5 4 8 9 5 5 -4 7 3 4 13 -6 22 29 46 53 37 8 -3 14 -1 14 4 0 6 18 10 39
10 31 0 41 4 46 20 8 24 41 44 61 36 8 -3 12 -2 9 3 -3 6 7 10 22 10 57 2 74
8 107 40 21 21 39 30 47 26 7 -5 10 -4 6 2 -7 11 44 23 96 23 20 0 27 5 27 19
0 35 36 48 137 50 16 1 25 9 29 27 8 31 55 54 110 54 27 0 43 7 65 31 18 19
35 29 45 25 9 -3 12 -2 8 5 -4 6 1 10 12 8 38 -5 90 14 124 46 30 28 45 34
102 40 58 6 67 9 72 30 7 27 50 45 110 45 37 0 43 3 53 29 11 31 57 51 120 51
21 0 33 6 37 18 8 25 42 43 95 51 l46 6 7 110 c9 150 13 1920 6 2605 -4 305
-9 1233 -13 2062 -6 1460 -7 1508 -26 1544 -10 21 -19 54 -19 74 0 19 -7 86
-15 149 -9 63 -15 129 -15 145 1 102 -10 231 -21 235 -24 8 -51 43 -46 62 3
10 2 17 -3 14 -4 -3 -8 34 -9 82 -1 87 -2 88 -38 125 -37 38 -41 51 -42 153
-1 24 -7 33 -30 42 -34 13 -48 53 -50 147 -2 69 -5 76 -30 69 -33 -8 -42 23
-50 166 -1 11 -4 11 -16 1 -20 -17 -59 15 -52 42 3 10 1 21 -4 24 -6 3 -9 13
-8 22 4 43 -1 61 -16 56 -23 -9 -45 14 -51 57 -4 25 -13 40 -25 44 -23 8 -59
74 -59 110 0 14 -6 25 -13 25 -21 0 -50 37 -43 55 3 9 2 13 -4 10 -5 -3 -13
12 -16 35 -5 31 -11 40 -26 40 -12 0 -16 4 -12 12 5 7 3 8 -6 3 -15 -9 -30 11
-30 42 0 13 -12 28 -34 41 -19 11 -36 31 -40 46 -4 15 -24 45 -46 67 -27 28
-40 50 -40 69 0 23 -5 29 -30 34 -17 3 -32 11 -34 18 -16 60 -23 73 -40 70
-24 -4 -47 17 -44 41 2 15 -6 23 -32 32 -26 9 -37 20 -43 42 -7 22 -18 33 -40
40 -23 6 -34 17 -41 40 -5 21 -16 33 -30 35 -11 2 -20 9 -19 16 2 6 -2 11 -9
9 -6 -1 -14 9 -18 23 -4 17 -14 26 -30 28 -34 5 -50 20 -50 47 0 23 -17 35
-50 35 -19 0 -30 19 -30 51 0 13 -7 19 -22 20 -35 2 -43 4 -44 9 -5 23 -65 68
-97 73 -45 7 -67 22 -67 47 0 13 -11 21 -32 26 -18 3 -47 21 -64 39 -17 18
-46 36 -65 40 -52 11 -69 23 -69 49 0 21 -6 24 -57 29 -58 6 -93 30 -93 63 0
10 -12 14 -39 14 -55 0 -101 19 -111 45 -7 19 -19 24 -70 30 -64 7 -90 24 -90
56 0 16 -7 19 -42 20 -63 0 -123 14 -121 26 1 6 -8 19 -20 29 l-22 19 19 -22
c17 -21 17 -23 2 -23 -9 0 -22 11 -28 25 -11 25 -45 32 -125 25 -31 -2 -92 29
-110 56 -14 22 -22 24 -109 24 -54 0 -94 4 -94 10 0 5 -7 7 -15 4 -19 -8 -112
24 -118 40 -4 9 -44 15 -141 20 -140 7 -205 22 -241 55 -18 18 -45 20 -310 25
-551 10 -770 11 -845 4z"/>
<path d="M16132 28670 c0 -14 4 -38 8 -55 l8 -30 0 35 c0 19 -3 44 -8 55 -8
18 -9 18 -8 -5z"/>
<path d="M5665 26515 c0 -682 1 -960 2 -617 2 343 2 901 0 1240 -1 339 -2 59
-2 -623z"/>
<path d="M27264 26090 c-23 -4 -30 -12 -34 -35 -6 -33 -27 -42 -107 -44 -37
-1 -43 -4 -49 -27 -8 -31 -39 -44 -109 -44 -48 0 -53 -2 -59 -26 -9 -33 -53
-51 -136 -53 -72 -2 -77 -5 -82 -41 -4 -28 -28 -38 -105 -39 -49 -1 -53 -3
-53 -25 0 -34 -22 -47 -90 -53 -52 -5 -63 -9 -70 -29 -13 -32 -40 -44 -104
-44 -46 0 -56 -3 -61 -21 -12 -37 -63 -59 -137 -59 l-67 0 -9 -32 c-9 -36 -29
-45 -109 -47 -34 -1 -43 -5 -43 -19 0 -37 -23 -51 -90 -57 -36 -3 -66 -10 -68
-15 -12 -35 -40 -51 -101 -56 -56 -6 -68 -10 -103 -45 -39 -38 -43 -39 -109
-39 -70 0 -81 -6 -83 -44 -1 -23 -29 -33 -101 -35 -35 -1 -42 -6 -55 -34 -10
-22 -22 -32 -37 -32 -12 0 -25 -4 -29 -8 -4 -4 -24 -7 -45 -7 -29 0 -39 -5
-44 -21 -9 -27 -56 -46 -120 -48 -45 -1 -54 -5 -86 -41 -36 -39 -39 -40 -102
-40 -63 0 -66 -1 -81 -30 -8 -17 -10 -27 -4 -24 6 4 8 2 4 -4 -3 -6 -14 -11
-24 -12 -101 -4 -147 -25 -134 -59 4 -10 1 -13 -12 -8 -10 4 -15 3 -11 -3 3
-5 -4 -10 -17 -10 -67 0 -110 -13 -118 -35 -10 -27 -57 -45 -119 -45 -41 0
-50 -4 -79 -39 -31 -36 -36 -38 -93 -40 -70 -1 -79 -5 -79 -30 0 -30 -24 -42
-98 -48 -63 -5 -69 -7 -64 -26 3 -13 1 -18 -6 -13 -8 5 -10 1 -5 -10 5 -14 3
-16 -11 -11 -11 5 -15 3 -10 -5 5 -7 0 -9 -14 -6 -12 4 -25 2 -28 -3 -3 -5
-22 -9 -43 -9 -30 0 -40 -4 -44 -20 -8 -30 -67 -50 -147 -50 -67 0 -70 -1 -70
-24 0 -42 -25 -56 -96 -56 -55 0 -64 -3 -64 -18 0 -38 -23 -52 -92 -59 -49 -4
-68 -10 -68 -20 0 -8 -4 -11 -10 -8 -5 3 -7 0 -4 -9 8 -21 -24 -35 -95 -43
-49 -5 -64 -10 -77 -30 -9 -15 -21 -22 -30 -19 -9 3 -12 1 -9 -4 3 -6 0 -11
-7 -12 -7 0 -17 -2 -23 -3 -5 -2 -36 -3 -67 -4 -53 -1 -58 -3 -58 -23 0 -43
-15 -53 -92 -58 -64 -4 -73 -7 -70 -23 5 -31 -17 -45 -84 -52 -36 -4 -63 -9
-60 -12 2 -2 237 -6 523 -7 548 -3 578 -5 618 -42 25 -23 176 -37 367 -34 75
1 133 -15 156 -44 17 -22 26 -24 158 -29 150 -5 182 -13 219 -53 21 -22 31
-25 89 -25 36 0 66 -3 66 -7 0 -4 17 -7 37 -8 26 0 42 -8 57 -26 18 -23 32
-27 98 -33 43 -4 75 -11 72 -16 -3 -5 2 -6 10 -3 20 8 56 -13 65 -38 7 -20 12
-21 131 -30 21 -2 34 -8 33 -15 -2 -7 4 -10 12 -7 8 3 25 -6 38 -20 20 -21 36
-27 81 -30 36 -3 65 -11 77 -22 20 -18 27 -40 9 -29 -5 3 -7 0 -4 -8 2 -7 10
-14 17 -14 112 -4 162 -22 154 -54 -6 -22 13 -29 78 -31 49 -1 85 -23 85 -52
0 -9 17 -16 50 -21 51 -7 100 -36 100 -60 0 -8 15 -17 38 -20 52 -9 83 -26 95
-52 6 -14 19 -23 34 -23 12 0 23 -4 23 -10 0 -5 6 -7 13 -4 18 6 41 -22 34
-41 -8 -19 0 -23 52 -29 49 -6 91 -29 91 -51 0 -9 13 -18 30 -21 16 -4 27 -10
24 -15 -3 -5 3 -6 12 -2 14 5 16 3 11 -11 -5 -11 -3 -15 5 -10 7 5 9 0 6 -14
-5 -18 0 -22 36 -27 28 -5 50 -17 71 -40 17 -18 47 -38 68 -45 25 -8 42 -21
50 -38 14 -32 28 -47 45 -48 30 -2 34 -5 28 -20 -3 -8 -2 -13 3 -10 5 3 11 -3
14 -14 3 -13 14 -20 29 -20 30 0 48 -17 48 -47 0 -16 7 -24 28 -29 38 -9 52
-23 52 -50 0 -20 5 -24 28 -24 36 0 52 -16 52 -52 0 -22 5 -28 23 -28 31 0 44
-11 52 -42 6 -23 26 -37 60 -42 6 0 11 -5 11 -11 5 -35 20 -56 43 -62 31 -7
41 -20 41 -50 0 -18 6 -23 24 -23 31 0 56 -25 56 -54 0 -18 7 -25 30 -29 23
-5 31 -14 38 -39 5 -22 16 -34 33 -39 13 -3 23 -11 22 -17 -2 -7 2 -11 8 -9 7
1 15 -9 19 -23 4 -14 24 -42 44 -63 29 -31 36 -46 36 -78 0 -36 2 -39 29 -39
34 0 48 -14 54 -55 2 -16 5 967 6 2187 l1 2216 -54 4 c-29 1 -66 1 -82 -2z"/>
<path d="M17707 25956 c-4 -10 -7 -32 -6 -49 1 -31 1 -31 10 7 10 43 7 72 -4
42z"/>
<path d="M16173 24965 c0 -38 2 -53 4 -32 2 20 2 52 0 70 -2 17 -4 1 -4 -38z"/>
<path d="M16207 24290 c6 -98 11 -112 12 -30 0 36 -4 74 -8 85 -5 11 -6 -12
-4 -55z"/>
<path d="M16214 23535 c0 -187 2 -262 3 -167 2 95 2 248 0 340 -1 92 -3 14 -3
-173z"/>
<path d="M22555 22938 c-227 -20 -421 -28 -672 -28 l-153 0 -6 -25 c-10 -40
-37 -47 -215 -53 l-167 -5 -6 -27 c-6 -35 -25 -40 -148 -40 -93 0 -97 -1 -100
-22 -5 -36 -61 -58 -144 -58 -68 0 -72 -1 -78 -25 -9 -35 -36 -46 -137 -52
l-89 -6 0 -28 c0 -36 -6 -39 -90 -46 -65 -5 -70 -8 -70 -29 0 -31 -27 -44 -94
-44 -53 0 -56 -1 -56 -24 0 -42 -25 -56 -95 -56 -52 0 -63 -3 -59 -14 10 -25
-15 -55 -51 -62 -25 -4 -35 -12 -35 -25 0 -26 -37 -48 -91 -55 -40 -5 -48 -10
-54 -33 -8 -31 -21 -41 -57 -41 -23 0 -28 -4 -28 -24 0 -28 -33 -56 -66 -56
-12 0 -29 -11 -38 -25 -9 -14 -21 -25 -27 -25 -6 0 -17 -7 -25 -15 -9 -8 -26
-15 -40 -15 -19 0 -24 -5 -24 -24 0 -31 -25 -56 -56 -56 -19 0 -24 -5 -24 -24
0 -28 -16 -42 -49 -44 -24 -1 -44 -20 -35 -34 7 -10 -35 -50 -46 -43 -11 7
-42 -24 -34 -36 3 -5 -2 -16 -10 -25 -9 -8 -16 -13 -16 -9 0 19 -41 -21 -48
-47 -6 -24 -15 -34 -39 -40 -29 -7 -51 -38 -45 -60 2 -8 0 -9 -36 -13 -29 -3
-31 -6 -34 -38 -1 -15 -6 -27 -11 -27 -4 0 -6 -4 -2 -9 3 -5 -9 -11 -27 -13
-29 -3 -33 -7 -36 -36 -2 -19 -10 -36 -19 -39 -27 -11 -54 -43 -59 -71 -9 -53
-16 -64 -49 -78 -25 -10 -34 -21 -37 -41 -2 -22 -10 -30 -35 -38 -28 -8 -33
-14 -33 -41 0 -25 -8 -37 -39 -58 -33 -23 -39 -33 -44 -73 -5 -48 -18 -63 -54
-63 -20 0 -23 -5 -23 -37 0 -42 -32 -103 -53 -103 -8 0 -18 -17 -23 -42 -8
-35 -14 -43 -40 -50 -30 -8 -32 -10 -38 -77 -7 -71 -19 -87 -57 -79 -10 2 -15
-16 -20 -65 -6 -71 -16 -87 -55 -87 -20 0 -22 -6 -26 -71 -4 -73 -16 -93 -50
-85 -15 3 -18 -4 -19 -47 -1 -64 -12 -103 -27 -100 -7 2 -12 -2 -12 -8 0 -6
-9 -8 -20 -4 -19 6 -20 2 -21 -62 -1 -100 -18 -156 -49 -163 -23 -5 -25 -11
-28 -65 -3 -75 -10 -107 -22 -100 -5 3 -12 0 -16 -6 -5 -8 -3 -9 5 -4 9 5 12
2 9 -11 -2 -10 -15 -24 -29 -31 -25 -12 -27 -18 -31 -104 -4 -88 -6 -93 -36
-120 -29 -26 -32 -34 -36 -106 -8 -150 -9 -154 -50 -157 l-26 -1 0 -105 c-1
-186 -18 -254 -70 -272 -6 -2 -10 -80 -10 -195 -1 -106 -4 -193 -8 -193 -4 0
-7 -126 -7 -280 0 -154 3 -280 7 -280 4 0 8 -1911 8 -4246 0 -2336 3 -4272 6
-4303 3 -31 15 -78 27 -106 21 -48 22 -65 22 -368 0 -174 4 -317 8 -317 4 0 7
-80 6 -177 l-1 -178 44 -8 c96 -18 103 -21 106 -50 3 -26 6 -27 58 -27 30 0
54 -4 54 -10 0 -5 6 -7 14 -4 8 3 17 0 22 -7 5 -8 3 -10 -7 -5 -8 4 -6 1 4 -7
10 -9 15 -21 11 -31 -6 -15 43 -23 108 -17 25 3 60 -18 52 -31 -4 -6 -3 -8 4
-4 6 3 23 -5 38 -19 14 -13 30 -22 34 -20 21 13 111 -18 133 -45 18 -20 37
-30 71 -35 25 -4 44 -11 41 -15 -3 -5 3 -6 13 -3 21 5 52 -20 52 -43 0 -10 13
-14 49 -14 64 0 105 -15 97 -36 -3 -8 -2 -12 4 -9 6 3 10 -3 10 -14 0 -19 6
-21 60 -21 33 0 60 -4 60 -9 0 -5 8 -8 18 -7 9 0 16 -5 14 -12 -1 -8 2 -11 7
-7 6 3 20 -4 31 -15 20 -20 39 -26 118 -34 35 -4 72 -31 72 -51 0 -12 13 -16
93 -29 36 -7 49 -15 41 -28 -5 -7 -2 -8 5 -4 8 5 14 0 18 -13 5 -20 31 -27 84
-22 31 3 71 -18 65 -35 -4 -10 -2 -13 6 -8 7 5 9 0 6 -14 -6 -22 22 -29 100
-22 12 1 22 -3 22 -9 0 -6 6 -8 13 -5 7 2 26 -9 43 -25 23 -22 44 -32 83 -37
42 -5 60 -14 88 -42 28 -28 45 -36 81 -39 62 -5 97 -24 96 -49 0 -18 6 -21 55
-23 31 -1 57 -6 59 -11 2 -5 9 -7 16 -4 17 6 40 -22 33 -40 -8 -19 17 -27 84
-28 55 0 96 -26 85 -54 -4 -10 3 -14 22 -15 98 -2 147 -19 183 -62 10 -13 32
-21 63 -24 65 -5 95 -19 106 -48 8 -22 16 -25 55 -25 25 0 45 -4 45 -10 0 -5
7 -7 15 -4 21 8 47 -16 42 -37 -6 -22 11 -29 74 -29 27 0 49 -4 49 -10 0 -5 6
-7 14 -4 16 6 40 -31 31 -46 -4 -6 6 -10 22 -11 112 -2 187 -24 198 -58 4 -15
18 -21 53 -26 62 -8 96 -26 100 -53 3 -20 9 -22 63 -22 32 0 59 -4 59 -10 0
-5 6 -7 14 -4 8 3 17 0 22 -7 5 -8 3 -10 -7 -5 -8 4 -6 1 4 -7 9 -8 17 -22 17
-31 0 -15 44 -23 103 -16 20 2 97 -45 97 -59 0 -5 26 -12 57 -16 80 -10 103
-21 114 -55 6 -16 15 -28 19 -25 13 8 100 -7 94 -16 -3 -5 1 -6 9 -3 18 6 41
-21 33 -41 -4 -12 5 -15 54 -15 72 0 114 -14 106 -36 -4 -10 -2 -13 6 -8 7 5
9 0 6 -14 -6 -22 32 -30 105 -23 9 1 17 -2 17 -8 0 -6 6 -8 14 -5 8 3 30 -10
50 -30 30 -30 43 -36 83 -37 66 -3 92 -14 104 -46 9 -28 13 -30 94 -33 30 -1
65 -28 65 -49 0 -16 11 -20 68 -26 74 -8 95 -19 87 -46 -8 -24 5 -29 77 -30
60 -1 65 -3 100 -40 33 -34 44 -40 83 -41 25 0 48 -4 50 -8 3 -5 14 -6 25 -3
14 4 24 -3 37 -25 15 -26 26 -32 68 -37 59 -8 99 -30 91 -51 -3 -9 -1 -12 4
-9 6 3 10 2 10 -3 0 -5 28 -13 63 -16 69 -8 93 -18 83 -35 -4 -6 -2 -11 4 -11
7 0 10 -7 6 -15 -5 -15 41 -21 112 -15 14 1 36 -13 62 -40 33 -35 46 -41 80
-42 22 0 40 -5 40 -10 0 -5 4 -7 9 -4 16 10 63 -13 68 -33 3 -14 18 -20 54
-25 71 -10 98 -22 109 -50 7 -20 18 -25 69 -31 34 -4 58 -11 55 -16 -3 -5 2
-6 11 -3 11 4 18 -3 26 -25 10 -30 14 -31 65 -31 30 0 54 -4 54 -10 0 -5 6 -7
14 -4 18 7 38 -28 30 -53 -4 -14 -3 -15 4 -4 6 8 11 9 13 3 2 -6 13 2 23 16
l20 27 -24 -20 c-16 -14 -22 -16 -18 -5 2 8 19 22 36 30 22 10 35 24 39 42 4
20 15 31 39 40 19 7 34 19 34 28 0 25 29 60 50 60 17 0 28 16 31 45 2 19 22
35 45 35 20 0 24 5 24 28 0 28 17 56 56 96 12 12 29 36 38 53 9 18 27 35 40
39 16 4 27 17 35 45 10 31 16 39 36 39 19 0 26 7 30 28 9 42 19 55 45 59 30 4
29 4 33 39 5 38 21 68 50 91 13 10 27 34 33 53 7 25 18 37 39 45 36 12 44 21
38 45 -3 11 10 31 36 56 24 22 44 52 47 69 6 34 21 55 40 55 16 0 43 49 37 67
-2 6 1 15 8 19 8 5 10 3 5 -7 -4 -8 -1 -6 7 4 9 10 21 15 31 11 11 -4 16 0 17
12 3 90 23 134 61 134 13 0 18 7 18 29 0 36 26 64 52 58 22 -6 25 0 33 72 5
54 19 75 42 66 8 -2 17 12 23 38 6 23 13 50 16 59 3 9 18 28 34 42 19 15 33
40 39 66 6 27 20 51 40 67 23 19 31 34 31 58 0 17 7 40 16 51 8 10 13 12 9 4
-4 -8 0 -7 9 4 8 10 22 16 31 13 15 -6 21 30 16 86 -1 9 2 17 8 17 6 0 8 6 5
13 -6 17 20 41 38 35 9 -4 16 16 23 66 9 66 12 72 42 85 31 14 43 44 43 109 0
13 4 21 9 18 5 -3 8 2 7 12 -1 12 8 18 27 20 28 3 33 24 27 99 -2 29 36 66 61
60 19 -5 26 32 19 110 -1 12 13 38 33 60 29 31 36 49 42 100 4 35 11 61 15 58
4 -3 6 4 3 15 -4 16 1 23 25 31 28 10 30 14 36 79 7 63 26 103 43 87 18 -19
33 20 34 87 1 97 9 118 46 136 33 15 41 47 33 138 -1 12 3 22 9 22 6 0 8 7 5
15 -7 18 21 65 40 65 9 0 15 20 19 62 3 35 8 81 11 103 4 38 26 65 53 65 7 0
13 6 13 13 2 166 15 223 55 233 25 6 25 8 25 115 0 64 4 109 10 109 5 0 7 6 4
14 -9 24 15 59 37 53 10 -3 17 -1 13 4 -3 5 0 9 5 9 7 0 11 42 11 120 0 66 4
120 9 120 4 0 6 11 3 25 -3 19 2 28 25 42 l30 17 6 161 c7 173 11 196 49 236
l25 27 8 918 c4 506 7 1092 5 1304 -2 560 16 927 50 975 17 23 20 510 20 2728
0 1285 4 2337 8 2337 4 0 5 107 4 237 -4 267 9 437 38 498 16 33 20 74 26 231
l7 191 -26 7 c-30 7 -51 39 -44 67 3 10 1 19 -5 19 -5 0 -9 10 -8 23 7 85 0
135 -21 140 -12 3 -18 10 -14 16 3 7 0 8 -9 5 -10 -4 -17 -1 -18 7 0 8 -2 25
-4 39 -8 73 -19 106 -46 132 -16 16 -26 33 -22 40 4 7 3 8 -4 4 -8 -5 -12 1
-12 16 0 85 -7 111 -38 124 -31 13 -38 31 -41 102 -1 33 -23 67 -35 55 -9 -10
-37 19 -32 34 3 7 2 13 -3 13 -5 0 -9 21 -10 48 -1 26 -3 52 -3 58 -1 5 -11
10 -22 10 -14 -1 -26 10 -37 34 -9 19 -33 52 -53 73 -32 34 -44 68 -37 110 0
4 -8 7 -19 7 -23 0 -55 44 -44 61 4 8 3 9 -4 5 -7 -4 -12 0 -12 10 0 9 -16 32
-36 49 -22 20 -39 46 -43 66 -4 22 -13 35 -26 38 -24 4 -37 21 -30 39 3 7 1
11 -4 8 -5 -3 -12 5 -15 19 -4 14 -13 25 -21 25 -20 0 -52 54 -60 102 -4 21
-12 39 -18 39 -7 1 -19 2 -27 3 -8 0 -19 15 -24 33 -7 23 -18 34 -40 40 -22 6
-33 17 -40 40 -6 22 -18 35 -38 42 -21 8 -28 15 -24 26 3 9 2 13 -4 10 -6 -3
-10 3 -10 15 0 15 -8 22 -31 27 -23 4 -35 15 -45 38 -8 21 -23 35 -38 39 -18
4 -28 16 -34 37 -6 24 -16 34 -42 43 -25 8 -36 18 -38 34 -3 16 -15 28 -38 38
-25 11 -36 22 -41 44 -3 19 -12 30 -22 30 -28 0 -61 30 -61 56 0 20 -5 24 -30
24 -31 0 -50 22 -47 55 2 15 -4 19 -18 18 -11 -1 -27 0 -35 4 -19 8 -19 8 -51
17 -15 4 -31 18 -37 30 -5 13 -25 27 -43 32 -22 7 -34 16 -33 27 1 9 -3 14 -9
10 -6 -4 -8 2 -5 15 5 19 2 22 -28 22 -19 0 -34 5 -34 12 0 6 -3 9 -6 5 -3 -3
-19 7 -34 23 -16 16 -44 32 -65 36 -41 7 -69 30 -61 50 3 9 -8 17 -37 24 -76
20 -82 22 -99 38 -10 8 -18 21 -18 29 0 8 -11 13 -29 13 -39 0 -62 10 -54 23
3 6 1 7 -6 3 -7 -5 -23 5 -40 23 -20 21 -38 31 -59 31 -38 0 -97 25 -114 48
-7 10 -38 23 -72 30 -60 12 -96 34 -96 59 0 7 -10 13 -22 14 -13 0 -34 2 -48
3 -14 1 -39 3 -56 4 -20 1 -44 14 -67 37 -34 33 -40 35 -102 35 -73 0 -139 26
-150 59 -5 17 -18 20 -118 23 -109 3 -114 4 -152 34 -40 31 -41 32 -187 37
-157 6 -184 13 -194 52 l-6 25 -147 0 c-81 0 -221 2 -311 5 -91 4 -178 6 -195
5 -16 0 -77 4 -135 9 -166 16 -229 18 -325 9z"/>
<path d="M18464 22197 c-6 -7 -9 -18 -6 -25 5 -17 -41 -32 -102 -32 -46 0 -54
-3 -64 -24 -16 -35 -60 -52 -138 -55 -68 -2 -87 -12 -77 -38 3 -7 0 -13 -7
-13 -6 0 -9 -4 -6 -9 6 -9 -34 -18 -99 -20 -40 -2 -57 -14 -49 -36 6 -13 -14
-31 -36 -34 -49 -6 -87 -10 -102 -10 -11 -1 -18 -9 -18 -20 0 -31 -26 -43
-101 -49 -66 -4 -71 -7 -103 -43 -32 -38 -35 -39 -99 -39 -66 0 -66 0 -75 -32
-9 -36 -46 -50 -116 -44 -29 2 -36 -1 -36 -16 0 -10 -4 -18 -10 -18 -5 0 -7
-6 -4 -14 7 -17 -15 -25 -86 -33 -47 -5 -58 -10 -72 -33 -16 -28 -50 -40 -114
-40 -26 0 -37 -6 -45 -24 -16 -35 -70 -56 -144 -56 -62 0 -65 -1 -71 -27 -11
-46 -22 -53 -89 -53 -62 0 -64 -1 -70 -30 -4 -16 -10 -31 -13 -31 -42 -8 -93
-15 -127 -18 -5 -1 -18 -15 -28 -32 -11 -21 -22 -29 -33 -25 -8 3 -13 2 -10
-3 7 -10 -42 -21 -95 -21 -32 0 -42 -6 -65 -35 -26 -34 -28 -35 -95 -35 -65 0
-69 -1 -69 -22 0 -43 -15 -53 -91 -58 -66 -5 -73 -7 -74 -27 -1 -13 -4 -26 -8
-29 -8 -9 -78 -23 -113 -24 -23 0 -34 -6 -42 -24 -12 -26 -85 -56 -137 -56
-24 0 -41 -9 -66 -35 -32 -33 -38 -35 -101 -35 -65 0 -68 -1 -68 -24 0 -42
-25 -56 -95 -56 -58 0 -64 -2 -67 -22 -2 -13 -9 -22 -16 -20 -8 1 -11 -2 -8
-7 11 -17 -13 -22 -122 -28 -95 -5 -110 -8 -133 -29 -14 -13 -29 -21 -33 -17
-4 5 -6 1 -4 -7 2 -9 -9 -18 -29 -24 -18 -6 -33 -16 -33 -23 0 -7 -5 -13 -11
-13 -5 0 -8 -4 -5 -9 11 -17 -20 -30 -79 -33 -55 -3 -60 -5 -63 -28 -5 -38
-29 -50 -99 -50 -55 0 -63 -2 -63 -18 0 -31 -32 -50 -97 -57 -49 -6 -62 -11
-66 -27 -3 -11 -10 -17 -16 -13 -6 3 -9 0 -5 -9 6 -14 -1 -17 -91 -32 -22 -4
-46 -16 -54 -27 -21 -29 -74 -47 -141 -47 -53 0 -60 -2 -60 -20 0 -38 -35 -60
-94 -60 -64 0 -87 -7 -80 -25 9 -24 -25 -43 -90 -50 -54 -5 -70 -12 -100 -39
-35 -33 -74 -46 -147 -46 -32 0 -37 -3 -42 -29 -7 -33 -27 -41 -103 -41 -49 0
-52 -2 -57 -29 -7 -34 -45 -51 -112 -51 -36 0 -44 -3 -49 -23 -8 -32 -45 -47
-137 -54 -73 -6 -79 -8 -79 -28 0 -33 -21 -45 -93 -52 -57 -5 -66 -9 -69 -27
-4 -29 -43 -46 -105 -46 -45 0 -53 -3 -53 -18 0 -32 -35 -53 -97 -59 -52 -5
-61 -9 -76 -34 -9 -16 -24 -30 -34 -30 -10 -1 -27 -3 -38 -6 -11 -2 -46 -7
-77 -9 -52 -5 -58 -8 -58 -29 0 -28 -16 -42 -55 -47 -16 -2 80 -7 215 -11 243
-8 288 -15 298 -46 3 -9 0 -11 -8 -6 -9 5 -11 4 -6 -4 4 -6 12 -9 17 -6 5 4 9
1 9 -4 0 -7 64 -11 193 -11 213 0 246 -6 292 -50 30 -29 33 -30 138 -31 59 0
107 -5 107 -10 0 -4 7 -6 16 -2 9 3 30 -7 52 -24 36 -29 113 -45 204 -43 32 0
72 -35 64 -56 -6 -17 -12 -15 90 -19 93 -3 139 -20 138 -51 0 -19 6 -21 65
-23 36 -1 67 -6 69 -11 2 -5 9 -7 16 -4 7 3 27 -11 44 -30 28 -32 36 -36 97
-40 67 -4 90 -14 100 -46 6 -19 41 -29 126 -38 9 -1 22 -15 29 -32 10 -25 19
-30 59 -35 66 -9 90 -21 97 -50 5 -20 12 -25 40 -25 26 0 41 -9 70 -40 25 -27
46 -40 63 -40 38 0 73 -27 69 -53 -3 -20 2 -22 45 -25 26 -2 45 -7 42 -12 -3
-6 1 -7 10 -4 18 7 55 -22 55 -42 0 -15 34 -36 43 -27 11 11 37 -19 37 -43 0
-20 6 -24 48 -29 66 -9 91 -21 97 -48 5 -17 17 -26 43 -33 29 -7 38 -15 46
-41 6 -21 15 -33 27 -33 34 0 49 -12 49 -40 0 -25 33 -48 61 -42 4 1 29 -20
55 -46 30 -29 56 -46 66 -44 12 2 25 -9 39 -32 11 -20 29 -36 38 -36 21 0 48
-27 52 -54 3 -12 16 -23 36 -28 23 -6 35 -16 39 -34 4 -15 18 -30 39 -38 20
-9 36 -25 43 -43 6 -18 22 -35 40 -42 20 -8 32 -22 35 -41 4 -19 14 -30 32
-34 15 -4 31 -18 37 -34 7 -15 30 -44 51 -64 21 -20 36 -42 32 -47 -3 -6 -1
-11 4 -11 6 0 11 -13 11 -30 0 -23 5 -30 19 -30 36 0 50 -12 57 -46 4 -24 12
-34 24 -34 24 0 50 -26 50 -51 0 -24 20 -47 37 -42 15 5 47 -43 38 -57 -3 -5
4 -14 17 -19 34 -13 47 -32 61 -90 10 -42 16 -51 33 -51 27 0 40 -15 49 -57 4
-23 12 -33 25 -33 31 0 47 -35 49 -112 1 -23 19 -39 51 -43 18 -2 30 -20 30
-43 0 -19 7 -30 22 -37 27 -12 46 -49 56 -107 7 -36 11 -43 28 -40 25 3 49
-22 41 -43 -4 -8 -2 -17 3 -20 6 -4 10 -24 10 -45 0 -35 3 -39 28 -42 15 -2
26 -8 25 -15 -2 -7 2 -13 7 -13 6 0 10 -18 10 -40 0 -34 6 -43 39 -71 27 -21
41 -41 44 -63 3 -17 4 109 3 279 -3 295 -4 312 -24 357 -29 60 -46 506 -40
1058 1 204 0 370 -4 370 -5 0 -8 18 -8 40 0 22 3 40 8 40 4 0 7 31 7 69 0 65
2 72 33 103 l32 34 0 182 c0 100 4 182 8 182 5 0 7 13 4 30 -3 23 3 36 27 60
31 32 41 91 41 253 0 16 3 26 8 23 5 -3 8 5 8 17 -1 14 9 26 27 35 15 7 27 21
27 30 3 186 20 264 60 277 17 5 20 15 21 58 1 132 13 173 54 183 24 6 25 10
26 83 1 87 10 127 28 123 7 -1 9 2 6 8 -4 7 2 14 13 17 16 4 21 17 26 75 7 67
37 121 91 160 6 4 6 8 2 8 -15 0 26 59 45 63 16 5 27 90 19 154 -4 31 29 85
49 80 11 -3 18 -1 14 4 -3 5 0 9 5 9 6 0 11 19 12 43 2 64 12 91 41 105 22 10
28 21 34 69 7 56 30 93 58 93 13 0 17 13 31 95 5 30 28 55 52 55 8 0 13 12 13
31 0 18 8 38 18 46 9 8 11 11 3 8 -9 -5 -8 0 4 18 9 15 25 29 36 32 14 5 19
16 19 41 0 36 28 74 55 74 15 0 19 10 16 43 -1 9 3 17 9 17 6 0 9 4 6 9 -12
18 13 60 39 67 17 4 27 15 31 33 10 48 13 51 44 57 25 5 30 11 30 35 0 44 17
78 50 97 16 9 30 23 30 30 0 6 4 12 10 12 5 0 7 7 4 15 -4 10 5 21 26 32 19
11 33 29 37 46 6 30 36 52 59 43 10 -4 14 2 14 22 0 31 23 69 63 106 15 14 27
34 27 44 0 25 35 56 55 49 11 -5 15 0 15 16 0 31 26 65 53 70 12 2 4 5 -18 5
-22 1 -45 -4 -51 -11z"/>
<path d="M5665 19225 c0 -764 1 -1076 2 -692 2 384 2 1010 0 1390 -1 381 -2
67 -2 -698z"/>
<path d="M27381 19184 c-15 -61 -8 -68 9 -9 7 25 10 48 8 51 -3 2 -11 -16 -17
-42z"/>
<path d="M11328 18413 c-93 -2 -148 -7 -148 -14 0 -5 -21 -19 -46 -31 -48 -21
-72 -23 -431 -35 -142 -5 -163 -8 -168 -23 -10 -32 -56 -44 -185 -48 l-125 -4
-38 -36 -38 -37 -107 -3 c-99 -4 -109 -6 -118 -25 -13 -32 -50 -45 -142 -53
-59 -5 -82 -11 -82 -20 0 -31 -38 -52 -104 -59 -49 -5 -67 -12 -71 -24 -9 -29
-70 -51 -140 -51 -66 0 -73 -5 -65 -45 3 -20 -36 -35 -92 -35 -57 0 -89 -23
-71 -53 4 -8 -5 -12 -49 -21 -16 -4 -32 -17 -40 -34 -11 -22 -24 -30 -74 -42
-51 -12 -63 -19 -72 -41 -7 -21 -19 -29 -45 -34 -23 -5 -38 -15 -45 -30 -12
-26 -61 -52 -107 -57 -25 -2 -31 -8 -35 -33 -4 -24 -11 -31 -33 -33 -22 -3
-32 -12 -43 -37 -11 -27 -23 -37 -53 -45 -24 -6 -41 -17 -44 -29 -2 -10 -22
-27 -43 -37 -41 -19 -77 -51 -87 -77 -3 -9 -21 -17 -39 -19 -28 -2 -34 -7 -36
-31 -4 -31 -33 -51 -62 -42 -17 6 -20 2 -20 -29 0 -37 -24 -60 -58 -54 -12 2
-16 -3 -15 -17 3 -33 -16 -55 -47 -55 -30 0 -37 -13 -31 -58 1 -7 -5 -15 -14
-18 -8 -3 -15 -12 -15 -20 0 -7 -10 -20 -22 -28 -13 -9 -29 -31 -38 -48 -8
-18 -27 -38 -41 -45 -19 -9 -29 -24 -33 -47 -5 -28 -12 -36 -36 -41 -24 -5
-31 -13 -36 -41 -3 -18 -10 -31 -15 -28 -5 3 -9 0 -9 -5 0 -6 -11 -11 -25 -11
-14 0 -25 -6 -26 -12 -4 -60 -24 -106 -54 -122 -26 -14 -34 -26 -28 -42 6 -17
-15 -55 -30 -53 -39 5 -47 -1 -47 -36 0 -48 -25 -106 -49 -112 -12 -3 -22 -19
-28 -46 -6 -31 -13 -42 -26 -40 -10 0 -16 -2 -13 -5 4 -3 -3 -16 -15 -28 -11
-12 -23 -40 -26 -61 -6 -45 -17 -61 -46 -65 -19 -3 -22 -10 -25 -57 -2 -36 -9
-59 -20 -69 -9 -7 -11 -10 -3 -6 10 5 12 3 7 -5 -4 -7 -13 -10 -19 -8 -32 12
-47 -13 -47 -77 0 -60 -2 -66 -35 -99 -24 -24 -35 -44 -35 -63 0 -51 -20 -102
-49 -126 -23 -20 -29 -35 -34 -84 -8 -81 -14 -92 -48 -99 l-29 -7 0 -87 c0
-88 -17 -137 -43 -128 -18 6 -46 -31 -40 -53 3 -11 1 -20 -3 -20 -5 0 -10 -12
-10 -26 -1 -14 -13 -38 -27 -52 -25 -26 -26 -33 -27 -142 -1 -137 -10 -231
-20 -225 -4 3 -7 -3 -6 -13 0 -10 -6 -16 -16 -16 -10 1 -15 -2 -12 -7 3 -5 -2
-9 -10 -9 -13 0 -16 -15 -16 -82 -1 -46 -3 -112 -5 -148 -3 -36 -5 -80 -5 -98
1 -24 -3 -31 -11 -26 -8 4 -9 3 -5 -4 9 -15 -18 -68 -39 -76 -13 -5 -15 -64
-13 -523 l3 -518 61 -6 c72 -7 86 -14 82 -42 -3 -19 4 -22 90 -33 91 -11 132
-30 132 -59 0 -11 72 -31 94 -26 21 5 66 -22 66 -40 0 -24 11 -30 67 -30 59
-1 95 -22 91 -52 -3 -20 2 -22 60 -25 34 -2 62 -7 62 -12 0 -5 6 -7 13 -5 7 3
28 -9 46 -26 32 -29 49 -35 129 -43 35 -4 72 -31 72 -52 0 -8 21 -15 58 -20
70 -8 90 -18 102 -50 9 -24 31 -30 88 -25 12 1 22 -3 22 -8 0 -6 6 -8 14 -5
18 7 38 -28 30 -50 -5 -13 2 -16 32 -17 113 -1 122 -4 129 -39 6 -30 1 -28 80
-35 81 -7 115 -21 131 -54 12 -23 40 -32 97 -32 29 0 67 -17 67 -30 0 -8 -5
-8 -17 2 -10 7 -6 1 9 -14 21 -21 37 -27 72 -27 54 0 98 -15 95 -32 -6 -35 13
-48 67 -48 30 0 54 -4 54 -10 0 -5 6 -7 14 -4 8 3 17 0 22 -7 5 -8 3 -10 -7
-5 -8 4 -6 1 4 -7 10 -8 16 -20 15 -27 -2 -7 20 -12 69 -15 78 -4 130 -25 142
-57 7 -20 38 -29 96 -29 30 0 68 -28 61 -45 -3 -8 -2 -13 3 -9 5 3 11 0 13 -6
2 -6 25 -11 51 -11 26 -1 47 -4 47 -8 0 -4 10 -6 21 -6 21 1 32 -11 43 -46 4
-14 16 -18 56 -18 28 0 50 -5 50 -11 0 -5 5 -7 10 -4 6 4 28 -8 50 -25 28 -22
55 -34 87 -37 72 -7 116 -25 130 -53 9 -18 19 -24 37 -22 13 2 27 -2 31 -8 3
-5 11 -8 16 -5 19 12 51 -8 65 -40 13 -31 15 -32 54 -25 22 4 40 4 40 -1 0 -5
7 -6 15 -3 20 8 47 -15 40 -33 -9 -25 22 -44 75 -45 27 -1 50 -5 50 -9 0 -4 8
-6 18 -5 10 0 16 -6 16 -16 -1 -10 2 -15 7 -12 5 3 9 -2 9 -10 0 -13 12 -16
55 -16 67 0 114 -18 144 -56 12 -15 30 -29 39 -30 9 -1 36 -4 60 -7 45 -5 82
-30 82 -54 0 -9 14 -13 45 -13 25 0 45 -4 45 -10 0 -5 6 -7 14 -4 18 7 46 -22
46 -47 0 -19 24 -25 88 -19 12 1 22 -3 22 -9 0 -6 6 -8 13 -5 18 6 41 -21 34
-40 -7 -19 12 -25 86 -27 61 -2 115 -28 125 -59 4 -11 -1 -10 -17 4 -11 11
-23 17 -26 14 -14 -14 31 -31 92 -34 77 -5 114 -20 128 -52 8 -18 18 -22 59
-22 34 0 53 -5 63 -17 8 -10 11 -12 7 -4 -4 9 -3 12 4 7 6 -4 8 -14 5 -23 -5
-12 -3 -14 6 -8 10 5 11 2 6 -14 -7 -23 -5 -24 73 -23 23 0 42 -4 42 -9 0 -4
6 -6 13 -3 17 6 41 -21 34 -40 -4 -10 11 -15 65 -20 84 -8 148 -38 148 -69 0
-6 -9 -2 -20 8 -11 10 -22 16 -25 13 -3 -3 2 -11 11 -18 15 -13 30 -15 112
-19 19 0 31 -5 27 -11 -3 -6 1 -7 10 -4 19 8 55 -22 55 -45 0 -10 10 -17 28
-18 64 -3 88 -9 100 -23 8 -8 11 -9 7 -2 -3 6 -1 12 5 12 6 0 13 -13 17 -30 5
-29 8 -30 57 -30 66 0 101 -18 101 -50 0 -24 4 -25 70 -30 75 -6 110 -19 137
-54 9 -11 23 -21 30 -22 7 0 30 -2 51 -2 21 -1 36 -6 33 -11 -4 -5 3 -7 13 -4
19 5 54 -22 63 -47 3 -9 20 -13 47 -12 53 2 80 -12 93 -49 9 -27 14 -29 58
-29 66 0 88 -10 144 -64 35 -35 46 -51 41 -66 -6 -18 -1 -20 42 -21 26 0 68
-2 93 -4 25 -2 55 -4 67 -5 12 0 38 -16 58 -34 27 -26 50 -36 97 -45 61 -11
98 -32 98 -58 0 -12 30 -18 73 -14 9 1 17 -2 17 -8 0 -6 7 -8 15 -5 20 8 47
-15 41 -33 -3 -8 -1 -11 4 -8 6 3 10 -1 10 -9 0 -13 12 -16 55 -16 32 0 55 -4
55 -11 0 -5 5 -7 10 -4 15 9 40 -13 34 -30 -8 -21 54 -37 133 -36 13 1 38 -14
57 -33 25 -26 46 -36 82 -42 71 -10 93 -21 104 -49 9 -24 30 -31 83 -26 9 1
17 -2 17 -7 0 -5 10 -8 21 -8 21 1 32 -11 43 -46 4 -14 17 -18 61 -18 30 0 55
-4 55 -10 0 -5 6 -7 14 -4 14 5 30 -22 21 -36 -9 -14 12 -21 81 -26 60 -3 70
-7 98 -38 30 -31 68 -45 129 -47 9 0 15 -4 12 -9 -3 -6 1 -7 10 -4 18 7 55
-22 55 -43 0 -9 14 -13 45 -13 25 0 45 -4 45 -8 0 -5 10 -8 23 -8 12 1 21 -4
19 -12 -1 -6 4 -11 10 -10 8 2 13 -7 12 -19 -1 -23 31 -30 99 -24 9 1 17 -2
17 -8 0 -6 6 -8 13 -5 17 6 41 -21 34 -40 -4 -10 8 -15 46 -19 94 -10 104 -14
135 -45 23 -24 42 -32 86 -37 31 -4 53 -11 50 -16 -3 -5 2 -6 11 -3 18 7 55
-22 55 -43 0 -7 10 -13 23 -14 92 -2 137 -22 137 -61 0 -15 8 -18 53 -18 62 0
101 -18 105 -47 3 -17 12 -22 50 -27 26 -3 56 -7 67 -9 11 -3 24 -5 29 -6 4 0
6 -8 2 -16 -3 -8 -1 -15 5 -15 6 0 9 -7 5 -15 -4 -10 1 -15 17 -16 49 -3 93
-7 119 -11 17 -3 32 0 40 9 17 21 25 803 9 803 -9 0 -12 245 -11 988 1 2059
-11 3874 -27 3898 -7 12 -18 37 -24 55 -8 29 -42 501 -38 526 3 20 -2 33 -14
33 -35 0 -48 25 -53 105 -7 111 -10 124 -32 118 -34 -9 -48 26 -52 127 0 18
-9 29 -33 40 -22 10 -33 23 -35 40 -10 96 -14 109 -33 115 -19 6 -52 63 -47
82 5 23 -17 66 -38 74 -30 11 -44 46 -44 108 0 43 -2 48 -22 47 -13 -1 -22 4
-21 11 2 7 -3 12 -10 10 -7 -1 -12 8 -11 21 0 12 -2 22 -6 22 -4 0 -7 16 -8
35 -2 46 -9 57 -32 50 -22 -7 -50 28 -50 62 0 12 -15 37 -34 55 -20 20 -36 47
-40 69 -5 28 -13 39 -39 50 -23 10 -33 22 -35 41 -2 17 -15 36 -33 49 -22 15
-29 27 -26 41 3 11 0 21 -9 25 -8 3 -14 10 -13 17 5 43 -2 55 -33 58 -28 2
-35 9 -44 38 -8 23 -20 37 -38 43 -17 6 -29 19 -34 40 -6 22 -16 33 -33 37
-22 5 -62 66 -53 81 2 3 -8 11 -21 17 -23 10 -30 23 -26 44 0 5 -2 7 -7 6 -9
-2 -107 95 -129 128 -8 13 -22 24 -29 24 -15 0 -15 1 -19 39 -3 26 -21 42 -41
34 -15 -5 -74 54 -74 74 0 7 -7 10 -15 7 -8 -4 -17 1 -21 10 -3 9 -12 16 -20
16 -7 0 -19 9 -28 21 -8 12 -30 32 -49 45 -20 13 -38 33 -42 43 -3 11 -22 25
-41 31 -20 7 -40 23 -49 39 -9 19 -25 31 -46 35 -22 4 -30 10 -25 21 3 8 1 15
-5 15 -5 0 -9 7 -7 16 2 12 -7 17 -35 20 -21 1 -44 10 -53 19 -8 8 -19 15 -24
15 -5 0 -11 9 -15 19 -3 12 -20 23 -43 28 -32 7 -55 32 -68 71 0 1 -14 4 -31
6 -18 2 -44 16 -62 35 -16 17 -36 31 -44 31 -8 0 -17 3 -21 7 -4 4 -17 8 -29
8 -15 0 -27 11 -37 31 -13 27 -22 33 -70 40 -37 6 -54 13 -52 22 1 8 -2 11 -8
7 -5 -3 -14 5 -20 19 -6 17 -17 26 -32 27 -90 2 -124 16 -113 47 3 8 0 10 -7
6 -8 -5 -9 -2 -5 9 6 17 -34 24 -95 18 -10 -1 -18 3 -18 9 0 6 -5 8 -10 5 -15
-9 -40 14 -40 36 0 17 -29 26 -64 20 -33 -6 -118 23 -139 48 -23 28 -26 29
-152 44 -29 3 -82 34 -88 52 -5 12 -24 15 -89 15 -113 0 -153 12 -167 50 l-10
30 -88 1 c-48 1 -105 0 -125 -1 -21 -1 -38 3 -38 8 0 6 -9 8 -20 5 -28 -7 -78
15 -85 38 -5 14 -16 19 -43 19 -39 0 -228 7 -377 13 -89 4 -160 24 -180 51
-11 15 -468 26 -757 19z"/>
<path d="M16874 17635 c0 -60 1 -84 3 -52 2 32 2 81 0 110 -2 29 -3 3 -3 -58z"/>
<path d="M16893 17190 c0 -41 2 -58 4 -37 2 20 2 54 0 75 -2 20 -4 3 -4 -38z"/>
<path d="M6883 17092 c-34 -3 -43 -7 -43 -22 0 -31 -39 -50 -101 -50 -54 0
-58 -1 -68 -30 -9 -27 -46 -53 -62 -44 -11 6 -14 -55 -14 -270 0 -131 4 -210
10 -213 6 -1 11 18 13 44 3 53 22 88 52 98 15 5 20 15 20 41 0 33 11 49 63 86
10 8 19 29 21 52 3 38 25 66 53 66 7 0 13 6 14 13 1 6 2 19 3 27 2 8 3 23 4
33 1 10 6 15 12 12 6 -3 7 1 4 10 -8 20 23 55 48 55 12 0 18 8 19 25 2 38 3
43 13 52 5 5 6 2 1 -6 -5 -9 -4 -12 3 -7 33 20 2 33 -65 28z"/>
<path d="M16908 16920 c2 -41 8 -82 13 -90 10 -18 0 115 -11 145 -4 11 -5 -14
-2 -55z"/>
<path d="M5664 16745 c0 -121 2 -169 3 -107 2 62 2 161 0 220 -1 59 -3 8 -3
-113z"/>
<path d="M5665 14490 c0 -206 1 -291 2 -187 2 103 2 271 0 375 -1 103 -2 18
-2 -188z"/>
<path d="M5662 11980 c0 -96 2 -183 6 -192 4 -10 6 56 4 145 -4 230 -9 253
-10 47z"/>
<path d="M6595 12110 c-3 -11 -4 -24 -1 -28 3 -5 8 -263 12 -573 6 -519 8
-566 24 -584 45 -52 49 -84 50 -400 l0 -180 33 -15 c23 -11 33 -23 37 -45 l5
-30 80 -3 c251 -8 385 -20 427 -40 34 -16 71 -22 173 -26 72 -2 175 -9 230
-14 60 -6 101 -7 103 -1 4 11 312 12 312 1 0 -4 107 -7 238 -7 553 0 1014 -16
1050 -36 32 -18 67 -19 860 -19 467 0 821 4 813 9 -7 5 -22 6 -32 4 -24 -7
-59 23 -59 49 0 15 -8 18 -60 18 -57 0 -63 2 -105 41 -34 32 -52 41 -80 41
-19 0 -35 4 -35 10 0 5 -4 7 -8 4 -10 -6 -72 30 -72 43 0 5 -26 12 -57 16 -78
10 -99 19 -107 48 -5 22 -13 25 -71 32 -36 3 -63 11 -60 16 4 5 0 6 -8 3 -10
-3 -18 5 -25 25 -11 30 -13 31 -69 31 -71 0 -86 9 -86 49 l0 31 -70 0 c-65 0
-73 3 -111 34 -28 22 -57 35 -89 40 -26 4 -45 11 -42 17 3 5 -1 6 -10 3 -17
-7 -55 22 -55 41 0 8 -24 15 -65 20 -36 3 -63 11 -60 16 4 5 -1 6 -10 3 -11
-4 -18 3 -26 25 -11 30 -13 31 -70 31 -67 0 -105 25 -94 61 6 18 1 19 -64 19
-64 0 -73 3 -113 34 -29 21 -61 36 -91 40 -26 4 -45 11 -42 17 3 5 -1 6 -10 3
-17 -7 -55 22 -55 41 0 8 -24 15 -65 20 -66 7 -101 26 -91 50 7 18 -16 25 -80
25 -61 0 -100 26 -91 61 5 17 -1 19 -64 19 -65 0 -119 28 -119 61 0 4 -19 9
-42 12 -100 12 -133 25 -143 56 -4 14 -19 20 -63 26 -68 8 -96 21 -88 41 4 10
2 12 -6 8 -8 -5 -9 -2 -5 9 5 15 -2 17 -51 17 -83 0 -101 7 -110 44 -8 30 -10
31 -73 36 -70 5 -93 15 -85 36 3 8 0 11 -9 8 -7 -3 -18 4 -25 15 -9 17 -20 21
-61 21 -60 0 -115 21 -123 48 -5 16 -19 22 -67 27 -61 7 -99 30 -99 59 0 10
-20 16 -70 21 -73 7 -99 26 -86 61 4 11 -8 14 -65 14 -69 0 -71 1 -109 40 -32
33 -45 40 -77 40 -61 0 -113 19 -125 45 -9 19 -21 25 -70 30 -60 7 -98 30 -98
59 0 9 -19 16 -61 20 -81 10 -89 14 -89 47 0 33 -16 39 -25 9z"/>
<path d="M8608 10143 c18 -2 45 -2 60 0 15 2 0 4 -33 4 -33 0 -45 -2 -27 -4z"/>
<path d="M8910 10120 c8 -5 67 -9 130 -9 141 2 103 16 -45 18 -68 0 -95 -2
-85 -9z"/>
<path d="M6940 9218 c23 -52 41 -130 29 -122 -5 3 -9 10 -9 16 0 14 -32 80
-36 75 -8 -8 38 -98 53 -104 8 -3 13 -13 10 -24 -5 -19 25 -63 36 -52 10 9 38
-19 33 -33 -3 -7 -1 -14 4 -16 5 -2 10 -46 11 -99 1 -90 3 -95 22 -95 36 1 55
-58 57 -180 0 -25 5 -33 25 -38 35 -9 46 -36 52 -137 6 -85 7 -89 29 -89 32 0
44 -28 44 -103 0 -61 1 -65 26 -71 34 -9 54 -59 54 -140 0 -55 3 -67 20 -76
11 -6 20 -7 20 -3 0 13 24 -16 28 -34 5 -22 10 -69 11 -105 1 -22 5 -25 23
-20 13 3 19 1 15 -5 -4 -6 1 -10 11 -9 14 1 19 -12 26 -71 8 -58 13 -72 29
-77 12 -3 16 -9 11 -17 -4 -7 -3 -10 4 -5 15 9 24 -9 31 -68 l6 -51 543 3
c517 3 545 4 575 23 51 30 2361 30 2422 -1 32 -16 59 -20 145 -20 86 0 113 4
145 20 61 31 1052 31 1103 0 32 -20 52 -20 2163 -21 1198 0 2135 3 2140 8 5 5
11 22 15 38 5 30 5 30 -56 42 -62 12 -100 34 -100 60 0 8 -12 13 -32 14 -93 2
-124 14 -130 52 -3 19 -10 22 -60 25 -32 2 -58 7 -58 12 0 5 -7 7 -15 3 -11
-4 -19 4 -28 26 -7 20 -18 31 -32 32 -93 3 -125 17 -125 55 0 22 -4 24 -52 25
-64 1 -104 12 -101 27 2 6 -3 9 -11 6 -7 -3 -23 6 -34 20 -16 20 -29 26 -61
26 -59 0 -109 23 -117 54 -6 24 -11 26 -58 26 -61 0 -101 18 -101 45 0 19 -46
32 -127 36 -18 0 -40 21 -37 35 5 28 -4 34 -53 35 -66 1 -104 12 -100 28 1 7
-2 10 -8 6 -5 -3 -20 5 -32 18 -18 19 -36 25 -80 29 -62 5 -102 30 -95 59 4
13 -6 16 -55 18 -76 3 -104 14 -112 44 -5 22 -12 25 -73 30 -71 7 -98 25 -88
58 5 14 -5 17 -68 21 -74 5 -85 10 -132 56 -16 16 -34 22 -64 22 -22 0 -41 4
-41 9 0 5 -8 7 -18 4 -21 -5 -57 30 -49 50 4 11 -9 14 -55 16 -76 3 -104 14
-112 44 -5 22 -12 25 -76 31 -72 7 -97 25 -84 59 5 14 -28 21 -138 27 -10 1
-18 5 -18 9 0 4 -11 13 -25 19 -14 6 -25 18 -25 27 0 11 -12 15 -50 15 -27 0
-50 4 -50 10 0 5 -7 7 -15 4 -20 -8 -47 15 -41 33 3 8 1 11 -4 8 -6 -3 -10 0
-10 8 0 11 -18 16 -71 19 -74 4 -89 13 -89 56 0 22 -53 31 -132 23 -10 -1 -19
4 -20 11 0 7 -2 18 -3 23 -2 6 -3 15 -4 22 -1 6 -25 13 -58 16 -75 6 -99 12
-96 25 2 6 -3 9 -11 6 -7 -3 -22 6 -33 19 l-18 24 -1345 6 c-1826 9 -1926 12
-1987 53 -27 18 -68 19 -1500 22 l-1472 3 19 -43z"/>
<path d="M8200 6540 c-56 -6 -59 -20 -15 -58 18 -17 31 -33 28 -36 -4 -3 -2
-6 4 -6 6 0 11 -11 11 -24 0 -26 25 -60 36 -49 9 10 37 -19 32 -34 -3 -7 -1
-13 4 -13 6 0 10 -20 10 -45 0 -29 5 -45 13 -46 6 -1 17 -2 22 -4 6 -1 15 -3
21 -3 7 -1 15 -17 18 -34 5 -24 15 -37 39 -48 22 -11 32 -22 32 -38 0 -13 14
-39 30 -58 17 -19 35 -40 40 -47 6 -6 12 -25 13 -42 2 -32 26 -57 47 -49 16 6
37 -29 33 -53 -2 -12 6 -19 26 -23 23 -4 32 -13 42 -44 8 -21 24 -49 36 -61
38 -38 47 -52 56 -86 6 -27 14 -35 35 -37 26 -3 30 -9 40 -67 2 -11 9 -19 16
-17 24 5 53 -9 47 -24 -3 -8 -2 -14 3 -14 5 0 11 -9 14 -20 3 -11 14 -20 24
-20 25 0 43 -19 43 -45 0 -11 20 -42 45 -69 31 -34 45 -58 45 -78 0 -21 5 -28
19 -28 38 0 51 -11 51 -46 0 -31 3 -34 28 -34 36 0 52 -16 52 -52 0 -23 4 -28
24 -28 31 0 59 -27 53 -52 -5 -18 24 -43 36 -31 9 8 38 -17 36 -31 -4 -36 2
-46 30 -46 29 0 57 -22 48 -38 -9 -13 5 -26 38 -37 21 -7 33 -20 39 -41 7 -22
18 -33 40 -40 23 -7 34 -18 41 -41 6 -24 15 -33 30 -33 27 0 45 -18 45 -45 0
-26 18 -45 36 -38 20 8 44 -16 44 -43 0 -17 6 -24 20 -24 27 0 60 -35 60 -64
0 -19 4 -23 20 -19 11 3 20 0 20 -6 0 -6 6 -10 13 -9 6 2 11 -3 9 -9 -1 -7 2
-13 7 -13 5 0 11 -9 14 -20 3 -11 14 -20 24 -20 26 0 43 -19 43 -47 0 -19 7
-24 38 -28 20 -2 750 -7 1622 -10 872 -3 1691 -10 1820 -15 129 -5 362 -10
518 -10 245 0 288 -2 320 -17 45 -21 9530 -35 9518 -14 -12 19 14 53 35 48 10
-3 17 -1 13 4 -3 5 0 9 6 9 6 0 16 14 22 30 11 32 41 55 58 45 6 -3 10 -2 10
3 0 12 -24 22 -51 22 -10 0 -33 16 -51 35 -26 27 -42 35 -73 37 -56 3 -104 24
-117 53 -9 21 -18 25 -55 25 -23 0 -43 4 -43 10 0 5 -7 7 -15 3 -18 -6 -55 23
-55 44 0 9 -13 13 -39 13 -22 0 -42 4 -45 9 -3 5 -16 7 -28 3 -14 -3 -19 -1
-14 6 5 8 1 10 -10 5 -14 -5 -16 -3 -11 11 4 11 3 15 -4 10 -8 -4 -9 1 -4 15
5 18 2 21 -22 22 -95 2 -148 13 -137 30 4 7 3 9 -3 6 -6 -4 -21 5 -33 18 -17
18 -34 25 -61 25 -52 0 -108 26 -119 55 -7 19 -17 25 -42 26 -18 1 -37 2 -43
4 -5 1 -20 3 -33 3 -14 1 -30 14 -40 32 -14 25 -23 30 -54 30 -20 0 -39 4 -42
9 -3 5 -16 7 -28 3 -14 -3 -19 -1 -14 6 5 8 1 10 -9 6 -11 -5 -16 -2 -14 7 6
40 -14 54 -84 56 -63 2 -70 5 -101 38 -29 30 -40 35 -78 35 -39 0 -51 5 -86
40 -34 32 -49 40 -84 41 -57 3 -105 23 -112 47 -5 15 -19 21 -67 26 -33 4 -57
11 -54 16 3 6 -1 7 -10 4 -11 -4 -18 3 -26 25 -6 17 -18 31 -27 32 -10 0 -30
2 -47 5 -16 2 -40 4 -52 4 -25 0 -46 31 -37 54 5 14 -4 16 -65 16 -43 0 -71 4
-71 11 0 5 -4 8 -9 4 -6 -3 -26 10 -45 30 -29 28 -43 35 -76 35 -22 0 -40 4
-40 9 0 5 -8 7 -19 4 -12 -3 -26 6 -44 28 -17 22 -34 33 -56 34 -74 4 -82 6
-76 15 3 6 -1 7 -10 4 -11 -4 -18 3 -26 24 -10 28 -14 30 -80 36 -72 7 -96 25
-83 60 6 15 -65 24 -123 17 -18 -3 -72 39 -79 61 -4 14 -16 18 -55 18 -27 0
-49 4 -49 9 0 5 -9 7 -19 4 -17 -4 -32 11 -56 55 -1 1 -25 4 -53 6 -71 6 -95
15 -88 32 4 10 2 12 -6 8 -7 -5 -9 0 -6 13 5 19 -1 21 -69 27 -67 5 -77 9
-110 41 -32 31 -66 43 -106 36 -17 -3 -76 40 -82 59 -5 16 -16 20 -51 20 -57
0 -110 22 -119 49 -3 12 -12 21 -18 22 -88 4 -131 14 -122 29 4 6 1 9 -7 8 -7
-2 -14 7 -16 18 -3 19 -12 22 -74 28 -64 6 -74 10 -104 41 -28 30 -39 35 -79
35 -63 0 -113 22 -121 54 -6 25 -37 34 -91 27 -7 -1 -13 2 -13 8 0 5 -8 7 -19
4 -21 -5 -36 12 -36 42 0 17 -8 20 -60 23 -90 3 -103 8 -102 37 0 14 -2 28 -5
30 -6 6 -10923 11 -10978 5z"/>
<path d="M11608 4263 c39 -2 105 -2 145 0 39 1 7 3 -73 3 -80 0 -112 -2 -72
-3z"/>
<path d="M13658 4223 c17 -2 47 -2 65 0 17 2 3 4 -33 4 -36 0 -50 -2 -32 -4z"/>
<path d="M11340 3292 c0 -6 16 -14 36 -18 21 -4 50 -20 70 -40 20 -20 43 -34
58 -34 31 0 56 -25 56 -56 0 -21 4 -24 39 -24 57 0 100 -18 107 -46 5 -18 15
-24 50 -30 24 -3 44 -10 44 -14 0 -5 9 -12 20 -15 11 -4 26 -16 33 -28 11 -20
26 -27 67 -29 24 -1 40 -19 40 -44 0 -22 4 -24 55 -24 60 0 95 -22 95 -60 0
-17 7 -20 48 -20 60 0 97 -19 96 -48 0 -12 2 -22 5 -22 124 -9 157 -18 148
-44 -8 -24 48 -46 119 -46 22 0 46 -21 43 -36 -5 -30 3 -34 66 -34 63 0 67 -2
110 -41 36 -33 51 -40 84 -41 23 0 41 -4 41 -9 0 -5 7 -6 15 -3 18 7 65 -21
65 -40 0 -9 23 -16 72 -22 73 -9 82 -15 101 -68 2 -5 21 -10 42 -10 103 -5
116 -7 110 -16 -3 -5 0 -7 9 -4 14 5 49 -22 57 -44 2 -6 37 -12 77 -15 70 -3
75 -6 106 -40 31 -36 36 -37 99 -38 37 -1 67 -5 67 -10 0 -5 6 -6 13 -3 16 6
39 -18 35 -37 -2 -10 23 -15 104 -21 117 -8 177 -27 185 -58 3 -11 8 -20 12
-20 174 -4 226 -15 241 -56 9 -24 79 -32 203 -24 15 1 27 -3 27 -8 0 -6 8 -8
19 -5 24 6 53 -24 46 -48 -6 -19 91 -26 248 -19 20 1 37 -3 37 -9 0 -6 7 -8
15 -5 22 9 73 -15 80 -37 5 -13 16 -19 38 -19 58 0 241 -8 300 -13 48 -4 64
-10 90 -35 l32 -31 200 -4 c354 -9 407 -16 444 -60 23 -29 1820 -26 1846 3 35
39 215 60 518 59 146 0 149 1 168 25 20 26 68 46 109 46 140 1 326 12 328 20
2 6 7 8 12 5 4 -3 14 3 21 13 13 16 13 16 -5 2 -17 -13 -19 -13 -14 0 8 26 70
39 194 39 l120 1 35 36 c21 22 41 33 51 30 10 -2 18 0 18 4 0 4 44 9 98 9 81
1 100 4 112 19 22 27 66 52 92 52 13 0 52 3 88 5 36 2 74 4 85 5 14 0 25 11
32 31 9 23 17 30 28 25 9 -3 13 -2 10 4 -4 6 8 11 27 11 154 7 149 6 177 39
25 31 31 32 111 37 103 5 110 7 110 31 0 34 27 45 122 50 90 4 113 13 113 42
0 8 8 14 17 14 10 -1 15 2 12 7 -3 5 5 9 18 9 70 1 112 9 120 23 20 36 68 59
134 63 65 4 94 18 86 42 -5 17 40 32 96 32 44 0 49 3 59 30 13 35 46 50 108
50 35 0 45 4 50 20 8 24 41 44 57 34 6 -4 8 -3 4 4 -4 6 1 11 11 11 41 0 77
16 102 44 25 27 44 34 110 41 13 2 30 11 37 21 24 32 68 55 107 55 26 0 37 4
37 15 0 17 35 55 51 55 5 0 7 -6 4 -12 -4 -7 0 -5 7 4 8 9 30 18 49 20 26 2
35 8 37 24 4 26 37 42 106 50 48 6 53 9 48 27 -3 13 -1 18 6 13 8 -5 10 -1 5
10 -5 14 -3 16 11 11 11 -5 15 -3 10 5 -5 7 0 9 14 6 12 -4 22 -2 22 3 0 5 18
9 40 9 36 0 40 3 40 25 0 27 25 45 62 45 17 0 27 8 34 29 8 20 23 32 50 41 21
7 53 28 72 46 20 19 47 35 65 37 18 2 -1264 4 -2848 5 -3928 1 -7784 10 -8107
18 -195 5 -268 4 -268 -4z"/>
</g>
</svg>
