<?xml version="1.0" standalone="no"?>
<!DOCTYPE svg PUBLIC "-//W3C//DTD SVG 20010904//EN"
 "http://www.w3.org/TR/2001/REC-SVG-20010904/DTD/svg10.dtd">
<svg version="1.0" xmlns="http://www.w3.org/2000/svg"
 width="3375.000000pt" height="4219.000000pt" viewBox="0 0 3375.000000 4219.000000"
 preserveAspectRatio="xMidYMid meet">
<metadata>
Created by potrace 1.16, written by Peter Selinger 2001-2019
</metadata>
<g transform="translate(0.000000,4219.000000) scale(0.050000,-0.050000)"
fill="#000000" stroke="none">
<path d="M0 42190 c0 -42190 0 -42190 33750 -42190 33750 0 33750 0 33750
42190 0 42190 0 42190 -33750 42190 -33750 0 -33750 0 -33750 -42190z m35340
36939 c420 -11 556 -27 596 -69 59 -64 124 -75 464 -78 444 -4 810 -49 890
-108 56 -41 88 -45 443 -54 383 -10 383 -10 468 -79 85 -68 85 -68 367 -80
211 -9 298 -21 347 -47 36 -18 90 -46 120 -62 31 -15 154 -33 282 -40 232 -13
273 -25 366 -102 42 -35 91 -47 230 -58 163 -13 182 -20 243 -78 64 -62 73
-64 280 -74 203 -10 304 -37 304 -82 0 -36 137 -78 257 -78 107 0 128 -7 203
-70 65 -54 102 -70 167 -71 168 -3 268 -31 342 -96 58 -51 90 -63 162 -63 105
0 203 -37 256 -96 22 -25 84 -52 147 -65 73 -15 131 -42 172 -81 63 -61 85
-69 228 -85 47 -5 112 -31 152 -61 40 -31 117 -61 186 -74 123 -23 228 -67
228 -96 0 -19 79 -54 170 -74 33 -8 94 -44 135 -81 59 -53 92 -67 156 -67 66
0 95 -13 154 -71 40 -38 93 -74 119 -80 25 -5 68 -13 94 -19 27 -5 77 -33 111
-62 33 -28 106 -64 162 -78 61 -16 116 -46 139 -76 23 -28 77 -59 129 -72 49
-12 121 -49 158 -82 42 -37 105 -67 163 -78 65 -12 116 -39 167 -88 40 -38 92
-75 116 -83 24 -7 77 -39 118 -72 41 -32 110 -68 153 -80 51 -14 85 -38 100
-69 16 -35 53 -58 134 -81 63 -19 146 -63 192 -102 87 -75 84 -72 158 -152 41
-44 68 -55 141 -55 84 0 94 -6 141 -80 28 -44 62 -80 77 -80 14 0 54 -31 88
-70 41 -46 79 -70 114 -70 80 0 186 -52 200 -98 8 -24 39 -55 69 -71 31 -16
71 -51 89 -79 23 -36 57 -53 124 -63 71 -11 103 -29 145 -81 30 -38 65 -68 79
-68 14 0 66 -40 116 -90 50 -49 98 -90 106 -90 9 0 30 -29 47 -65 24 -52 50
-70 124 -90 51 -14 108 -43 127 -66 19 -23 68 -60 108 -83 40 -23 84 -62 98
-89 14 -26 33 -47 42 -47 8 0 61 -40 117 -90 56 -49 110 -90 121 -90 11 0 29
-23 39 -50 11 -28 44 -61 75 -74 30 -14 93 -58 139 -99 46 -42 106 -81 134
-88 28 -7 73 -43 101 -80 28 -36 68 -72 90 -79 21 -6 56 -43 79 -81 22 -38 55
-69 72 -69 17 0 50 -32 73 -70 22 -39 63 -76 90 -82 27 -7 62 -39 78 -70 16
-32 53 -63 81 -70 34 -9 59 -34 73 -73 13 -38 44 -69 88 -87 37 -16 67 -41 67
-57 0 -38 399 -431 439 -431 9 0 22 -22 29 -50 7 -27 40 -63 73 -81 33 -17 71
-52 82 -79 12 -26 49 -58 82 -72 35 -15 67 -48 79 -82 11 -31 46 -70 77 -86
31 -16 62 -48 69 -70 7 -22 39 -54 71 -70 32 -17 68 -51 80 -75 13 -25 49 -67
80 -95 134 -119 399 -451 412 -517 9 -50 26 -72 68 -86 32 -12 65 -44 80 -79
14 -33 49 -73 80 -88 30 -16 64 -55 75 -88 12 -33 48 -73 83 -91 33 -18 61
-45 61 -61 0 -16 26 -58 57 -94 32 -36 77 -103 100 -149 23 -46 63 -100 90
-121 26 -21 62 -66 80 -100 18 -35 51 -69 73 -76 22 -7 54 -44 69 -82 16 -38
51 -77 78 -87 40 -15 54 -41 73 -132 20 -96 34 -118 92 -153 38 -22 74 -62 80
-89 7 -27 38 -61 68 -77 31 -16 65 -57 77 -91 12 -34 44 -89 72 -121 27 -33
61 -96 74 -140 16 -54 43 -90 80 -110 32 -16 71 -62 88 -103 17 -41 48 -93 69
-115 20 -22 55 -81 77 -132 21 -50 62 -109 91 -130 36 -27 57 -67 70 -134 13
-73 35 -113 90 -163 39 -37 72 -78 72 -92 0 -15 31 -54 68 -89 52 -47 72 -85
83 -158 10 -71 25 -100 59 -116 52 -23 90 -95 90 -168 0 -70 34 -127 89 -148
30 -11 56 -46 72 -94 13 -42 46 -106 73 -142 28 -37 59 -100 70 -140 11 -41
49 -101 85 -134 48 -44 69 -84 79 -152 9 -60 31 -109 63 -139 28 -26 64 -97
82 -158 17 -62 57 -138 89 -172 38 -40 64 -96 78 -168 11 -59 44 -138 73 -177
29 -38 61 -111 70 -161 11 -58 39 -114 76 -152 73 -76 101 -148 101 -261 0
-82 29 -136 81 -154 12 -4 35 -64 52 -134 17 -75 52 -156 86 -199 64 -82 101
-194 101 -312 0 -62 12 -89 60 -130 55 -47 61 -65 73 -218 12 -151 19 -172 72
-222 63 -59 93 -160 94 -321 1 -76 10 -98 62 -141 57 -47 63 -63 78 -228 14
-158 22 -184 69 -224 71 -61 90 -119 105 -320 11 -143 22 -181 64 -231 56 -68
80 -180 82 -386 1 -133 4 -143 65 -193 70 -57 92 -170 95 -480 1 -115 9 -143
54 -197 63 -75 80 -155 99 -460 14 -233 25 -278 88 -350 52 -60 63 -131 71
-471 7 -289 12 -320 63 -430 55 -119 55 -119 69 -829 15 -723 23 -800 102
-950 73 -139 73 -249 73 -17586 0 -16687 -2 -17383 -66 -17498 -109 -197 -105
-164 -109 -946 -4 -804 -6 -821 -77 -915 -47 -63 -49 -80 -55 -420 -6 -376
-23 -457 -108 -533 -36 -32 -43 -61 -43 -170 -1 -303 -36 -502 -100 -575 -59
-67 -60 -73 -60 -288 0 -216 -31 -359 -78 -359 -61 0 -82 -65 -82 -260 0 -213
-17 -282 -89 -360 -38 -42 -48 -80 -57 -224 -12 -181 -28 -227 -107 -323 -34
-41 -47 -82 -48 -150 -1 -158 -31 -262 -91 -325 -51 -53 -59 -80 -69 -220 -11
-148 -17 -164 -83 -234 -64 -66 -72 -89 -83 -214 -11 -124 -19 -146 -73 -190
-44 -37 -60 -67 -60 -114 0 -126 -43 -269 -103 -336 -35 -40 -63 -99 -69 -144
-20 -145 -29 -165 -88 -196 -56 -29 -60 -39 -60 -141 0 -128 -34 -220 -106
-286 -31 -29 -57 -80 -65 -130 -16 -94 -52 -174 -96 -210 -16 -14 -36 -72 -44
-129 -11 -80 -28 -116 -79 -164 -49 -45 -68 -84 -79 -156 -13 -89 -30 -116
-120 -190 -20 -16 -31 -58 -31 -116 0 -88 -49 -168 -117 -190 -13 -5 -37 -62
-52 -127 -20 -84 -42 -130 -78 -156 -35 -26 -57 -68 -73 -143 -14 -68 -40
-124 -73 -154 -28 -27 -64 -73 -79 -103 -16 -30 -56 -68 -88 -85 -45 -23 -60
-45 -60 -88 0 -126 -24 -187 -84 -210 -34 -13 -61 -40 -67 -67 -5 -25 -13 -67
-19 -93 -5 -26 -41 -86 -80 -132 -38 -46 -70 -97 -70 -113 0 -16 -27 -44 -60
-63 -45 -26 -70 -64 -102 -159 -24 -74 -58 -134 -81 -147 -22 -11 -49 -47 -60
-79 -11 -31 -50 -74 -86 -96 -56 -33 -67 -53 -79 -141 -11 -81 -25 -111 -72
-145 -32 -24 -67 -68 -78 -99 -10 -30 -46 -69 -78 -86 -47 -24 -65 -52 -84
-132 -17 -69 -40 -112 -73 -134 -27 -17 -62 -62 -77 -99 -15 -37 -50 -77 -78
-90 -27 -12 -60 -48 -73 -81 -14 -32 -50 -71 -80 -87 -57 -29 -65 -45 -89
-164 -8 -41 -39 -85 -82 -118 -37 -28 -68 -64 -68 -78 0 -15 -32 -51 -70 -81
-39 -29 -76 -75 -83 -101 -7 -30 -37 -59 -77 -76 -41 -17 -72 -48 -86 -87 -11
-34 -38 -70 -60 -82 -21 -11 -58 -65 -81 -120 -24 -54 -64 -116 -90 -136 -26
-21 -62 -66 -80 -100 -18 -35 -51 -69 -74 -76 -24 -8 -52 -40 -63 -72 -11 -33
-46 -72 -77 -89 -31 -16 -69 -53 -83 -83 -14 -30 -48 -66 -75 -79 -27 -14 -61
-47 -75 -75 -15 -29 -54 -66 -87 -83 -34 -17 -69 -53 -80 -80 -10 -27 -41 -58
-68 -68 -27 -11 -62 -45 -79 -76 -16 -32 -52 -68 -80 -80 -28 -13 -63 -53 -79
-89 -36 -85 -460 -510 -544 -545 -39 -17 -68 -46 -76 -77 -8 -31 -35 -58 -72
-71 -32 -11 -73 -47 -90 -82 -18 -33 -45 -61 -61 -61 -16 0 -52 -35 -78 -77
-27 -43 -71 -84 -98 -90 -29 -8 -59 -37 -74 -74 -14 -33 -50 -74 -80 -89 -30
-16 -60 -47 -66 -69 -6 -23 -42 -55 -80 -71 -45 -19 -74 -46 -82 -80 -8 -31
-35 -60 -68 -72 -30 -11 -81 -47 -114 -80 -172 -170 -233 -217 -311 -241 -57
-17 -96 -44 -117 -81 -18 -30 -54 -65 -82 -76 -27 -11 -65 -48 -84 -81 -19
-33 -51 -66 -70 -73 -20 -7 -68 -45 -108 -84 -117 -116 -236 -200 -321 -225
-52 -16 -89 -43 -108 -78 -15 -30 -54 -64 -87 -75 -33 -12 -73 -48 -91 -83
-18 -33 -44 -61 -60 -61 -15 0 -65 -31 -111 -70 -45 -38 -118 -80 -161 -93
-54 -16 -91 -44 -118 -90 -22 -37 -51 -67 -65 -67 -14 0 -61 -31 -104 -70 -45
-40 -109 -75 -150 -81 -123 -21 -138 -29 -151 -81 -8 -34 -37 -61 -87 -82 -40
-17 -93 -52 -117 -78 -24 -25 -85 -57 -136 -70 -68 -17 -100 -38 -121 -79 -18
-34 -52 -61 -87 -68 -32 -7 -95 -45 -140 -83 -46 -40 -113 -75 -154 -82 -46
-8 -84 -30 -104 -62 -37 -55 -137 -104 -214 -104 -35 0 -59 -17 -81 -59 -30
-59 -123 -101 -224 -101 -30 0 -56 -21 -76 -60 -31 -59 -51 -68 -200 -88 -45
-6 -89 -25 -100 -45 -40 -68 -91 -107 -140 -107 -29 0 -82 -29 -125 -68 -43
-39 -108 -75 -151 -82 -41 -8 -106 -40 -146 -71 -76 -61 -93 -68 -214 -88 -46
-8 -107 -41 -154 -83 -63 -58 -99 -73 -190 -82 -96 -10 -116 -19 -140 -67 -24
-46 -46 -57 -135 -69 -150 -19 -171 -27 -186 -73 -15 -49 -122 -97 -215 -97
-47 0 -82 -16 -116 -53 -66 -71 -158 -107 -276 -107 -85 0 -108 -9 -156 -60
-45 -48 -83 -65 -185 -81 -89 -15 -150 -38 -199 -78 -81 -63 -195 -101 -309
-101 -54 0 -103 -19 -166 -64 -77 -56 -110 -66 -233 -72 -133 -7 -150 -13
-218 -79 -71 -68 -80 -71 -263 -83 -155 -10 -199 -20 -236 -55 -77 -70 -119
-83 -317 -97 -174 -13 -195 -20 -253 -74 -60 -57 -76 -61 -310 -81 -221 -18
-253 -26 -301 -71 -59 -54 -228 -79 -550 -83 -136 -1 -145 -4 -193 -64 -60
-77 -146 -93 -502 -96 -232 -1 -240 -3 -296 -56 -67 -64 -382 -101 -889 -104
-284 -1 -284 -1 -340 -60 -128 -136 -4759 -138 -4957 -3 -80 55 -89 56 -460
69 -487 18 -588 32 -665 96 -58 49 -75 52 -415 66 -377 15 -431 26 -499 99
-39 42 -67 48 -290 61 -267 16 -333 32 -374 90 -21 30 -62 40 -221 50 -288 19
-321 27 -379 92 -45 50 -67 59 -154 60 -240 1 -399 36 -458 99 -52 55 -67 60
-192 60 -170 0 -243 25 -285 98 -31 55 -38 57 -226 65 -185 9 -196 12 -250 70
-49 52 -79 63 -223 84 -138 19 -177 33 -227 81 -49 46 -90 61 -209 78 -116 17
-164 35 -224 83 -51 41 -108 66 -172 74 -118 15 -160 36 -175 85 -16 48 -109
82 -227 82 -74 0 -102 12 -167 70 -66 60 -91 70 -176 70 -86 0 -110 10 -191
80 -55 47 -113 80 -143 80 -60 0 -128 34 -162 82 -25 34 -76 55 -237 97 -54
14 -89 37 -103 68 -18 39 -41 49 -138 59 -90 9 -125 23 -152 58 -19 25 -43 56
-53 68 -10 12 -64 28 -119 36 -79 10 -111 26 -147 72 -35 44 -72 64 -146 78
-73 14 -114 35 -150 78 -31 37 -84 69 -140 84 -49 13 -117 48 -150 79 -33 31
-87 62 -120 70 -33 8 -97 45 -143 83 -46 37 -104 68 -128 68 -25 0 -73 31
-110 69 -41 44 -97 78 -154 92 -57 14 -113 47 -154 91 -35 37 -77 68 -93 68
-16 0 -47 30 -69 67 -34 58 -54 70 -139 81 -81 11 -108 25 -151 81 -31 42 -77
74 -115 82 -35 8 -94 40 -130 72 -36 31 -95 70 -132 85 -36 15 -86 55 -110 89
-23 33 -59 66 -78 72 -20 6 -51 38 -71 71 -19 33 -55 64 -79 69 -24 5 -69 14
-99 20 -31 7 -79 38 -108 71 -29 33 -71 65 -94 72 -45 15 -273 236 -273 266 0
10 -31 29 -70 42 -38 13 -106 53 -150 90 -45 37 -98 73 -119 80 -20 6 -61 43
-90 81 -29 38 -65 69 -80 69 -14 0 -50 32 -80 70 -29 39 -65 70 -80 70 -15 0
-56 36 -91 80 -35 44 -75 80 -90 80 -14 0 -44 30 -65 66 -27 45 -63 73 -117
89 -85 26 -118 53 -480 400 -130 124 -252 230 -272 236 -20 7 -36 21 -36 33 0
12 -30 50 -67 85 -37 34 -78 83 -91 107 -13 24 -54 57 -92 73 -45 18 -73 46
-82 80 -7 29 -37 65 -67 81 -30 15 -70 51 -89 80 -19 28 -56 60 -84 71 -27 10
-54 34 -61 54 -14 39 -58 87 -272 300 -31 30 -121 126 -200 212 -80 87 -219
232 -310 323 -91 92 -165 180 -165 198 0 17 -26 60 -57 96 -31 36 -70 93 -85
126 -16 33 -53 71 -83 86 -30 14 -65 46 -78 70 -13 24 -89 109 -170 189 -81
79 -147 156 -147 171 0 15 -19 45 -43 66 -23 21 -64 85 -89 142 -31 68 -67
115 -105 135 -32 16 -68 56 -79 89 -12 32 -44 74 -72 93 -29 18 -52 44 -52 57
0 13 -35 58 -78 100 -55 54 -81 99 -90 157 -11 67 -39 105 -155 218 -122 117
-145 151 -160 231 -12 63 -38 115 -82 159 -184 187 -234 258 -235 331 0 38
-21 70 -69 107 -38 29 -75 71 -83 95 -7 23 -42 69 -78 103 -47 45 -68 86 -78
156 -12 77 -25 101 -71 125 -43 22 -62 52 -80 127 -14 57 -45 119 -74 146 -28
26 -67 79 -87 117 -20 39 -54 87 -77 107 -23 21 -51 84 -63 144 -17 83 -37
117 -88 156 -55 42 -69 68 -77 146 -10 89 -51 149 -116 171 -11 3 -25 42 -31
86 -17 118 -48 187 -90 200 -39 13 -78 120 -78 217 0 39 -21 75 -70 118 -53
48 -70 78 -70 129 0 65 -34 113 -110 157 -24 14 -41 58 -52 139 -13 98 -27
128 -77 170 -34 27 -61 64 -61 80 0 75 -47 184 -101 235 -44 41 -64 85 -81
174 -15 83 -40 141 -80 186 -36 41 -59 91 -61 131 -1 35 -4 102 -6 149 -3 70
-16 97 -75 151 -62 57 -74 83 -86 185 -10 81 -34 150 -76 217 -42 66 -67 136
-76 215 -11 90 -28 133 -76 188 -34 39 -62 81 -63 95 -4 157 -41 298 -95 368
-60 76 -78 148 -95 370 -4 55 -21 120 -38 143 -17 24 -46 64 -64 89 -22 31
-36 105 -43 235 -9 180 -12 192 -66 230 -63 45 -75 98 -85 386 -5 167 -9 179
-67 233 -52 49 -64 81 -86 220 -25 160 -32 175 -106 226 -52 36 -76 258 -70
634 6 300 4 313 -47 420 -80 165 -79 161 -88 577 -8 387 -8 387 -66 475 -76
114 -84 224 -92 1261 -3 431 -12 793 -20 805 -36 59 -56 1131 -54 2912 3 2518
4 5392 2 7240 0 242 0 827 0 1300 1 857 1 2133 1 11075 0 2593 1 5806 2 7140
1 1334 -4 2717 -12 3073 -13 637 -13 650 32 780 43 128 45 156 49 1052 4 966
12 1057 96 1210 47 86 50 111 62 530 13 467 26 552 94 640 37 47 44 83 47 257
7 350 26 454 97 529 59 62 63 76 64 220 2 275 25 378 96 434 63 49 63 49 68
284 6 236 6 236 77 297 71 61 71 63 80 250 12 264 23 312 82 367 44 41 53 72
67 218 17 189 32 254 60 254 57 0 99 83 99 195 0 152 27 239 89 288 41 32 51
58 52 133 1 167 30 264 95 324 51 46 64 76 76 180 12 113 20 128 79 163 74 44
88 82 89 236 0 95 8 117 63 174 51 53 67 90 80 191 15 106 27 134 79 177 45
37 66 77 80 148 10 53 44 136 76 184 35 53 67 137 80 212 18 102 35 137 92
191 47 45 70 84 70 122 0 31 27 96 60 144 32 48 65 120 72 158 17 90 53 160
106 208 23 21 56 84 72 139 17 56 52 124 78 152 26 28 53 84 60 125 8 45 35
92 70 121 67 57 102 116 102 175 0 23 27 67 60 97 33 30 72 96 88 148 17 57
52 114 90 146 34 29 62 69 62 89 0 20 31 73 68 118 38 45 79 113 92 152 13 38
49 88 80 110 44 31 61 63 72 136 11 71 30 109 81 155 36 34 76 89 88 122 11
34 42 71 68 83 31 14 58 55 80 120 18 55 51 116 73 136 23 21 53 66 68 101 15
36 54 78 88 96 44 23 64 50 74 103 7 40 47 111 91 161 42 49 77 102 77 118 0
15 18 37 40 49 22 12 63 57 91 101 27 43 63 79 79 79 38 0 82 72 98 159 7 38
40 97 74 130 86 86 238 269 238 287 0 9 27 25 60 38 33 12 65 39 72 59 37 115
62 156 161 261 60 64 126 148 147 188 20 39 69 96 109 126 39 30 71 67 71 82
0 15 25 40 55 54 30 15 66 51 81 81 14 30 52 68 83 84 31 16 62 51 69 78 6 27
43 68 82 90 38 23 70 55 70 72 0 17 36 53 80 81 44 28 80 64 80 80 0 34 68
110 450 500 154 157 312 320 350 361 39 41 102 97 140 126 39 28 98 81 133
117 34 36 77 66 94 66 18 0 45 26 62 57 16 32 55 68 87 82 33 13 69 45 80 71
12 26 46 63 74 82 29 19 65 59 81 91 17 31 52 62 80 69 28 7 64 38 80 70 16
31 50 67 74 80 45 23 93 65 245 218 45 44 91 80 103 80 11 0 62 31 111 68 49
38 122 82 163 99 43 18 81 52 92 81 11 27 40 60 65 73 25 13 73 50 106 82 199
193 226 213 309 227 68 11 93 28 125 82 22 37 53 68 70 68 16 0 56 27 90 61
33 33 85 73 115 89 31 15 97 60 149 99 51 39 105 71 121 71 16 0 53 31 82 69
29 38 83 79 121 92 38 12 94 43 124 68 30 26 88 60 129 78 42 17 85 54 98 82
18 38 52 60 128 82 57 17 119 47 137 67 18 20 67 52 108 70 41 19 89 59 107
91 26 45 56 62 140 80 74 16 123 41 161 82 29 32 72 59 94 59 22 0 81 36 132
80 51 44 109 80 130 80 21 0 79 36 130 80 69 60 110 80 161 80 51 0 85 17 137
70 49 48 96 73 156 83 56 9 106 34 144 72 65 65 130 95 203 95 45 0 73 21 145
109 16 19 57 31 108 31 70 0 93 12 154 77 60 64 89 79 171 88 80 9 109 23 150
74 43 52 72 66 167 79 81 11 131 30 169 66 55 52 134 83 268 105 39 6 98 36
130 66 43 40 87 57 176 67 102 13 127 24 173 80 49 61 65 67 208 80 138 14
163 22 222 80 54 52 91 68 191 81 101 14 134 29 176 76 46 52 69 60 230 78
160 17 185 25 223 74 47 59 150 86 334 88 74 1 106 12 140 48 67 72 121 93
238 93 149 1 245 27 316 87 63 53 143 71 352 81 101 5 138 17 212 70 85 61
103 65 328 79 213 14 249 21 338 74 95 56 115 60 390 70 290 11 290 11 397 85
104 72 113 74 290 76 654 5 624 2 697 70 81 77 178 90 716 95 370 3 370 3 458
63 88 59 88 59 493 70 223 5 410 15 416 20 10 10 1984 2 2453 -11z"/>
<path d="M33341 77323 c-39 -15 -125 -30 -191 -33 -66 -3 -205 -16 -310 -29
-314 -37 -724 -61 -1196 -70 -446 -7 -446 -7 -528 -64 -89 -62 -233 -80 -649
-85 -139 -2 -188 -9 -208 -33 -65 -79 -305 -128 -631 -129 -112 0 -128 -6
-194 -70 -58 -56 -89 -70 -158 -73 -441 -13 -435 -12 -505 -74 -53 -46 -95
-62 -194 -73 -175 -21 -217 -39 -217 -97 0 -66 68 -146 136 -159 37 -8 141
-93 295 -243 132 -127 265 -256 296 -286 196 -188 533 -583 533 -625 0 -23 25
-52 61 -70 33 -18 71 -54 83 -81 12 -27 52 -67 89 -88 37 -22 67 -53 67 -69 0
-17 31 -54 69 -83 38 -29 74 -68 80 -86 6 -18 42 -53 80 -78 49 -31 76 -68 91
-127 13 -45 53 -113 91 -151 38 -37 69 -86 69 -107 0 -23 25 -52 60 -70 32
-17 72 -56 88 -86 16 -31 52 -67 80 -79 29 -14 57 -47 64 -79 8 -31 39 -85 70
-120 30 -36 73 -105 95 -154 22 -49 59 -99 82 -112 24 -12 60 -60 80 -106 20
-46 55 -101 78 -122 24 -21 52 -72 63 -113 13 -46 46 -94 87 -126 42 -31 72
-75 80 -115 7 -35 45 -98 83 -141 39 -42 70 -91 70 -107 0 -16 31 -64 69 -106
41 -46 77 -113 89 -165 13 -59 40 -105 81 -139 34 -27 61 -69 61 -92 0 -107
26 -168 90 -206 45 -26 71 -59 80 -105 8 -37 44 -107 80 -157 36 -49 71 -118
79 -153 7 -35 32 -80 54 -100 52 -47 88 -117 104 -206 8 -38 37 -94 66 -124
31 -32 59 -92 69 -148 12 -63 41 -119 87 -170 41 -46 74 -107 82 -153 20 -120
29 -143 79 -203 31 -37 55 -101 69 -185 16 -105 31 -137 81 -178 47 -39 65
-75 82 -170 12 -66 37 -138 57 -160 62 -69 80 -121 91 -263 10 -118 19 -145
69 -192 63 -59 71 -79 90 -218 8 -56 37 -126 71 -174 46 -63 63 -115 79 -245
19 -154 59 -258 99 -258 31 0 59 -108 69 -270 10 -146 15 -163 70 -210 57 -48
60 -59 67 -227 6 -170 9 -180 68 -230 34 -29 67 -69 74 -88 14 -40 93 -48 95
-10 13 258 36 363 86 400 40 29 53 56 54 112 1 157 51 343 108 402 49 51 86
193 90 353 1 11 27 61 59 110 32 48 64 124 71 168 25 152 32 169 93 226 57 53
63 72 76 230 11 149 20 180 66 228 29 31 64 101 78 156 17 72 46 120 101 172
42 39 77 91 77 113 0 23 22 68 49 101 69 81 91 149 91 278 0 98 8 120 68 186
44 49 73 106 82 162 8 48 40 118 71 157 31 39 67 111 79 161 13 49 49 118 80
153 31 35 62 94 70 131 8 40 41 91 84 128 61 53 73 78 81 168 9 93 18 109 77
144 54 32 68 55 80 130 8 57 34 115 71 156 31 36 71 104 87 150 30 85 93 170
235 320 41 43 75 97 75 121 0 53 31 112 103 195 31 36 57 78 57 93 0 16 27 47
59 71 39 27 68 72 83 126 12 47 57 121 100 169 43 46 78 96 78 110 0 14 27 40
59 58 39 23 65 59 79 111 12 43 53 108 92 146 38 37 70 81 70 97 0 15 30 57
67 92 37 34 78 83 91 108 14 25 47 53 74 64 30 11 63 51 86 104 20 47 55 101
77 121 22 19 55 70 74 112 19 43 57 87 84 100 27 12 62 52 77 90 16 37 42 72
58 79 17 6 53 47 80 90 28 44 69 86 91 93 23 7 55 40 72 72 17 33 52 68 78 78
29 11 52 40 60 77 9 40 32 67 73 84 33 13 73 51 90 83 16 32 52 66 80 77 28
10 59 45 70 77 12 34 44 68 78 82 33 14 62 44 69 73 8 31 34 57 72 70 32 12
70 45 84 74 14 29 50 65 81 79 30 15 69 49 87 76 18 28 58 63 90 79 31 17 62
53 69 82 9 33 37 61 78 78 42 18 70 46 78 80 8 31 36 61 72 76 53 22 160 151
160 192 0 9 -42 31 -92 49 -51 17 -112 52 -137 79 -39 42 -66 48 -254 58 -216
11 -270 27 -357 105 -45 41 -77 46 -320 56 -201 9 -301 22 -390 54 -215 75
-335 96 -652 115 -289 17 -319 22 -408 74 -93 55 -106 56 -418 62 -525 9
-1153 49 -1291 82 -81 19 -165 26 -225 18 -66 -8 -113 -3 -152 17 -82 42
-1259 55 -1363 15z"/>
<path d="M41504 75799 c-26 -10 -76 -50 -112 -89 -37 -38 -81 -70 -99 -70 -18
0 -67 -31 -109 -69 -42 -37 -101 -75 -132 -82 -34 -9 -72 -41 -96 -82 -22 -37
-61 -72 -86 -79 -26 -6 -57 -37 -70 -69 -14 -32 -42 -63 -63 -70 -21 -7 -77
-48 -123 -91 -46 -43 -115 -106 -154 -138 -38 -33 -112 -98 -162 -145 -51 -47
-162 -143 -246 -215 -84 -71 -169 -155 -188 -185 -20 -30 -105 -129 -190 -220
-84 -91 -180 -196 -214 -235 -33 -38 -85 -95 -115 -125 -30 -31 -68 -70 -85
-87 -16 -17 -63 -64 -103 -104 -40 -41 -83 -94 -95 -119 -13 -25 -37 -45 -53
-45 -17 0 -49 -32 -73 -72 -23 -39 -63 -79 -90 -89 -26 -11 -61 -50 -77 -88
-16 -38 -46 -79 -67 -90 -21 -11 -54 -63 -74 -116 -20 -52 -68 -128 -107 -168
-69 -72 -132 -143 -272 -310 -38 -45 -81 -122 -96 -170 -19 -63 -65 -127 -160
-222 -113 -113 -137 -149 -152 -228 -12 -68 -34 -109 -78 -146 -34 -28 -67
-75 -74 -105 -7 -30 -44 -78 -81 -106 -37 -29 -68 -68 -68 -88 0 -62 -43 -162
-69 -162 -45 0 -87 -68 -101 -163 -10 -66 -31 -110 -72 -149 -32 -31 -68 -93
-80 -137 -12 -45 -47 -108 -78 -141 -31 -33 -66 -94 -77 -136 -11 -41 -48
-107 -82 -145 -33 -39 -61 -93 -61 -120 0 -30 -31 -84 -77 -134 -60 -66 -80
-107 -90 -183 -8 -60 -34 -125 -65 -167 -29 -38 -66 -119 -82 -181 -16 -63
-55 -142 -87 -178 -41 -46 -62 -97 -71 -171 -11 -83 -28 -118 -79 -165 -56
-52 -65 -76 -73 -183 -7 -109 -17 -134 -82 -205 -68 -75 -74 -92 -74 -202 0
-122 -18 -157 -107 -210 -21 -12 -35 -47 -36 -90 -6 -165 -41 -290 -99 -351
-53 -55 -60 -81 -76 -249 -16 -174 -21 -191 -78 -239 -57 -48 -61 -61 -74
-246 -13 -184 -18 -201 -82 -277 -71 -85 -71 -86 -79 -378 -4 -138 -23 -198
-91 -283 -35 -44 -46 -92 -58 -271 -14 -220 -32 -280 -105 -360 -32 -35 -44
-88 -57 -241 -21 -242 -66 -484 -105 -559 -21 -42 -33 -173 -43 -506 -15 -489
-28 -576 -103 -675 -51 -68 -88 -1827 -39 -1902 23 -36 51 6 52 78 0 29 36
100 81 160 44 60 86 131 93 159 7 27 42 93 78 145 35 52 71 123 78 157 9 40
37 75 79 100 44 26 72 63 88 115 13 43 50 111 82 152 33 41 65 91 71 111 6 20
34 51 62 70 28 18 64 64 80 102 16 38 51 78 78 88 33 13 55 43 71 102 16 60
64 127 171 240 81 85 148 170 148 187 0 18 30 50 67 72 37 21 77 61 89 88 12
27 49 63 81 79 32 17 68 57 79 89 13 37 39 62 72 71 28 7 65 39 81 71 17 32
49 64 71 71 22 7 54 39 70 71 17 32 50 69 75 82 24 13 109 87 188 165 246 243
492 437 597 472 36 12 74 43 87 71 12 27 47 59 78 71 30 11 83 52 117 89 44
48 81 69 121 69 68 0 147 50 147 92 0 17 29 42 65 57 36 15 91 55 122 88 37
38 87 65 138 74 72 12 101 31 168 115 13 15 70 35 126 42 90 12 109 22 144 83
36 61 51 69 124 69 122 1 160 16 196 79 28 49 50 60 148 72 108 14 131 27 194
114 15 22 68 43 131 53 77 12 124 33 170 77 59 57 77 62 229 68 157 7 169 11
226 71 66 72 164 106 300 106 79 0 100 9 154 70 60 68 66 70 208 71 224 2 331
25 394 86 53 51 71 55 344 72 247 15 292 23 319 56 68 84 107 89 708 103 582
12 582 12 663 67 90 61 808 113 1219 89 99 -6 383 -14 630 -18 450 -7 450 -7
561 -71 111 -63 111 -63 450 -63 593 0 746 -16 835 -86 74 -58 87 -61 370 -78
285 -18 297 -20 384 -82 81 -57 107 -64 260 -71 226 -9 258 -18 283 -73 30
-66 98 -92 239 -92 133 0 182 -19 248 -96 38 -44 65 -52 203 -62 135 -10 169
-20 225 -67 36 -30 89 -60 119 -66 158 -32 206 -54 227 -101 23 -49 36 -54
186 -79 55 -9 99 -34 143 -81 53 -58 76 -68 153 -68 79 0 97 -8 148 -72 45
-56 78 -75 156 -90 63 -12 120 -39 159 -76 34 -31 91 -67 128 -79 37 -12 98
-49 135 -82 38 -33 91 -66 119 -73 28 -7 63 -37 79 -68 21 -40 53 -61 119 -78
59 -15 102 -40 125 -75 18 -28 70 -68 115 -88 86 -38 271 -200 271 -236 0 -12
35 -40 79 -62 43 -22 84 -59 91 -82 8 -24 44 -55 81 -71 36 -15 72 -37 79 -48
7 -11 77 -72 156 -134 271 -214 851 -826 904 -953 17 -40 56 -85 88 -102 32
-16 67 -56 78 -89 11 -32 39 -64 63 -72 23 -7 55 -39 72 -71 16 -32 55 -72 87
-88 31 -16 62 -43 69 -60 6 -17 26 -31 42 -31 54 0 40 139 -21 202 -42 44 -55
84 -68 198 -13 119 -27 157 -82 225 -51 64 -69 110 -80 199 -10 88 -28 132
-73 184 -48 54 -63 93 -74 200 -12 108 -26 146 -80 210 -45 55 -72 115 -88
197 -16 79 -40 134 -73 165 -27 26 -55 79 -61 118 -22 141 -30 159 -96 239
-40 48 -73 112 -80 160 -7 44 -35 106 -62 138 -26 32 -66 103 -87 158 -21 56
-57 120 -81 144 -23 23 -53 83 -65 133 -13 50 -49 123 -81 163 -32 40 -63 110
-71 155 -8 53 -33 101 -71 137 -35 32 -69 93 -84 151 -14 53 -58 139 -98 192
-40 52 -73 113 -73 136 0 22 -30 69 -68 103 -37 35 -73 83 -81 108 -7 25 -45
91 -82 147 -38 56 -69 119 -69 139 0 20 -31 61 -69 90 -50 37 -74 74 -82 126
-21 125 -30 143 -88 172 -30 16 -67 56 -80 89 -14 33 -45 73 -69 89 -25 16
-61 79 -83 143 -28 83 -54 122 -94 142 -30 16 -55 43 -55 61 0 18 -31 62 -69
98 -50 46 -74 90 -84 150 -14 89 -66 159 -118 159 -17 0 -44 30 -59 67 -15 37
-51 82 -79 101 -28 18 -51 45 -51 59 0 15 -36 59 -79 98 -60 53 -83 92 -93
155 -10 60 -30 95 -73 126 -32 24 -72 69 -87 99 -16 30 -54 68 -86 84 -32 16
-63 52 -70 78 -6 27 -69 102 -139 166 -70 64 -141 144 -158 177 -17 33 -51 78
-76 100 -24 22 -60 78 -80 124 -23 52 -60 96 -98 115 -33 18 -61 41 -61 52 0
18 -71 99 -180 208 -73 72 -293 293 -322 323 -18 18 -50 49 -70 68 -21 19 -74
77 -118 128 -44 52 -125 136 -179 188 -55 52 -123 118 -150 148 -92 99 -110
116 -286 287 -96 93 -183 169 -194 169 -11 0 -33 25 -49 56 -16 31 -51 66 -79
79 -27 12 -62 48 -76 78 -15 31 -46 66 -70 77 -24 12 -70 51 -103 86 -33 35
-68 64 -78 64 -10 0 -34 31 -52 69 -22 47 -52 74 -88 83 -31 8 -94 49 -141 91
-46 42 -99 77 -117 77 -18 0 -97 66 -176 147 -79 81 -164 154 -188 162 -24 7
-58 39 -74 71 -17 34 -57 66 -97 79 -37 12 -89 46 -115 74 -26 29 -85 69 -131
90 -45 20 -97 59 -115 87 -18 27 -55 55 -83 62 -28 7 -63 38 -79 68 -20 38
-59 66 -121 87 -51 18 -123 59 -161 92 -38 34 -83 61 -99 61 -17 0 -48 31 -70
68 -24 39 -63 74 -94 81 -29 8 -82 40 -119 71 -36 32 -101 69 -144 82 -43 13
-97 48 -119 78 -26 36 -73 63 -133 78 -57 14 -115 47 -147 81 -29 32 -78 68
-108 79 -31 12 -65 46 -77 76 -26 71 -51 85 -142 86 -53 0 -93 16 -140 58 -36
31 -107 69 -156 83 -50 14 -117 51 -150 82 -34 31 -92 67 -130 80 -39 13 -106
49 -150 80 -44 31 -110 62 -147 70 -50 10 -72 27 -88 71 -23 67 -82 96 -195
96 -65 0 -82 9 -104 55 -21 43 -47 59 -116 71 -50 10 -110 21 -135 26 -24 5
-76 36 -115 70 -38 34 -107 71 -153 81 -45 10 -120 46 -167 79 -58 42 -121 66
-200 76 -96 13 -125 27 -168 80 -41 50 -74 66 -158 80 -72 11 -124 33 -162 70
-80 77 -360 118 -478 71z"/>
<path d="M26070 75785 c-22 -5 -65 -31 -95 -56 -58 -49 -81 -58 -201 -78 -48
-8 -95 -35 -128 -72 -55 -62 -152 -99 -262 -99 -50 0 -83 -17 -130 -67 -47
-50 -88 -71 -156 -81 -64 -9 -109 -31 -148 -72 -38 -39 -90 -65 -160 -80 -70
-15 -122 -41 -159 -79 -40 -42 -83 -62 -155 -72 -85 -11 -106 -23 -139 -79
-39 -66 -97 -90 -219 -90 -43 0 -65 -15 -87 -58 -33 -64 -67 -82 -151 -82 -92
0 -158 -34 -172 -89 -8 -32 -31 -56 -62 -64 -27 -6 -92 -42 -146 -79 -53 -36
-122 -73 -153 -80 -32 -8 -85 -44 -120 -81 -39 -42 -81 -67 -113 -67 -82 0
-153 -36 -173 -87 -10 -25 -48 -59 -84 -74 -37 -14 -101 -55 -143 -91 -42 -35
-108 -70 -146 -77 -49 -9 -75 -28 -89 -62 -10 -27 -43 -60 -74 -74 -30 -13
-89 -52 -131 -87 -42 -35 -108 -70 -147 -77 -49 -9 -80 -31 -104 -72 -18 -33
-49 -64 -69 -71 -19 -6 -75 -45 -123 -87 -49 -42 -119 -82 -159 -89 -45 -9
-85 -33 -105 -64 -18 -28 -59 -64 -91 -80 -32 -16 -68 -53 -81 -81 -13 -29
-56 -64 -100 -81 -42 -17 -85 -48 -96 -68 -11 -21 -54 -55 -95 -76 -41 -21
-99 -61 -128 -89 -30 -27 -82 -66 -116 -86 -33 -20 -65 -52 -72 -73 -6 -20
-35 -47 -65 -59 -55 -24 -283 -242 -283 -272 0 -9 -24 -27 -52 -40 -29 -14
-81 -52 -115 -86 -131 -127 -566 -502 -636 -548 -41 -26 -80 -66 -87 -89 -7
-22 -43 -53 -81 -69 -44 -19 -72 -46 -81 -80 -7 -29 -38 -66 -71 -83 -32 -16
-69 -52 -81 -78 -12 -26 -47 -57 -79 -68 -31 -11 -66 -43 -76 -70 -11 -28 -46
-64 -79 -81 -32 -17 -65 -49 -72 -72 -7 -22 -48 -63 -92 -90 -44 -28 -78 -65
-78 -86 0 -20 -24 -58 -52 -85 -29 -26 -75 -84 -103 -127 -28 -43 -81 -111
-118 -150 -37 -39 -92 -97 -122 -128 -30 -31 -65 -81 -77 -112 -13 -30 -51
-66 -86 -80 -34 -14 -62 -34 -62 -44 0 -10 -36 -54 -80 -97 -44 -43 -80 -92
-80 -109 0 -16 -27 -44 -61 -61 -33 -18 -71 -54 -83 -81 -12 -27 -52 -66 -89
-88 -52 -31 -69 -56 -79 -121 -9 -53 -32 -97 -69 -127 -30 -26 -69 -75 -87
-109 -18 -35 -50 -72 -72 -84 -22 -12 -53 -48 -70 -80 -17 -33 -56 -73 -88
-89 -42 -22 -63 -53 -80 -120 -14 -56 -46 -112 -81 -143 -32 -29 -65 -79 -72
-111 -7 -35 -34 -69 -68 -87 -31 -16 -66 -57 -78 -91 -12 -35 -44 -79 -70
-100 -26 -21 -67 -83 -91 -138 -24 -55 -64 -115 -91 -132 -26 -17 -53 -54 -60
-81 -8 -32 -34 -58 -72 -71 -59 -21 -65 -32 -88 -179 -8 -47 -35 -92 -81 -133
-39 -34 -70 -76 -70 -93 0 -17 -28 -51 -61 -76 -45 -33 -70 -76 -94 -162 -25
-91 -45 -123 -89 -146 -45 -23 -56 -43 -56 -97 0 -102 -31 -165 -99 -200 -47
-25 -63 -49 -74 -113 -7 -44 -34 -109 -59 -144 -26 -35 -63 -95 -82 -134 -19
-38 -60 -99 -90 -135 -30 -35 -60 -97 -68 -137 -9 -51 -30 -83 -70 -105 -63
-36 -98 -113 -98 -215 0 -54 -12 -73 -61 -98 -69 -36 -99 -99 -99 -208 0 -53
-18 -102 -60 -159 -33 -45 -69 -124 -80 -174 -12 -51 -52 -134 -91 -184 -38
-50 -69 -113 -69 -139 0 -60 -30 -120 -93 -188 -33 -35 -52 -85 -61 -160 -10
-89 -25 -119 -81 -171 -62 -57 -69 -76 -82 -210 -11 -116 -26 -163 -68 -219
-38 -49 -60 -110 -73 -202 -18 -132 -38 -183 -104 -276 -20 -27 -50 -115 -66
-195 -19 -93 -49 -171 -85 -217 -46 -61 -56 -97 -67 -250 -13 -172 -16 -182
-87 -254 -40 -42 -73 -84 -73 -95 0 -11 -18 -52 -39 -92 -82 -153 -116 -394
-69 -480 17 -30 174 73 198 129 14 33 51 70 85 85 38 16 65 45 74 81 7 31 43
89 79 129 36 40 82 100 102 134 38 64 118 114 213 134 39 8 60 30 77 80 28 87
153 246 310 397 66 64 227 219 358 345 131 126 261 235 290 242 62 15 122 63
122 98 0 14 32 44 70 67 39 23 76 55 83 72 7 18 46 49 88 71 42 21 82 57 89
80 8 23 51 60 97 81 137 65 300 174 353 236 28 32 73 65 101 71 28 7 90 44
138 82 47 38 104 69 125 69 22 0 75 36 118 80 44 44 91 80 106 80 14 0 65 28
112 63 48 34 117 70 154 81 37 10 96 44 132 75 35 31 100 71 144 90 44 18 104
56 133 83 36 36 86 55 165 66 89 12 128 30 181 81 46 45 98 71 163 83 52 10
136 45 188 78 61 39 135 65 217 77 91 12 138 30 179 68 68 65 144 95 244 95
94 0 175 29 233 83 34 32 84 44 229 56 144 12 192 24 217 53 74 89 102 97 346
108 234 11 240 12 289 69 61 71 151 87 479 90 223 1 223 1 303 68 97 81 180
90 855 99 430 6 443 7 509 54 177 126 1727 123 1904 -3 60 -43 84 -45 475 -50
561 -8 790 -30 847 -82 80 -72 132 -87 300 -84 242 5 435 -29 475 -83 38 -49
156 -75 356 -77 121 -1 131 -5 195 -75 67 -72 71 -74 255 -86 140 -9 202 -22
243 -51 101 -71 140 -88 200 -89 82 0 210 -38 210 -61 0 -46 83 -99 155 -99
73 0 149 -32 250 -105 26 -19 101 -45 166 -57 88 -16 138 -39 194 -90 41 -37
97 -68 123 -68 26 0 91 -30 145 -67 53 -36 123 -73 155 -81 32 -8 95 -45 140
-82 45 -37 107 -73 137 -81 31 -7 73 -38 95 -69 24 -34 66 -60 106 -68 38 -7
95 -42 134 -82 37 -38 96 -79 132 -91 36 -11 79 -43 97 -70 17 -26 58 -62 91
-79 33 -17 60 -43 60 -57 0 -40 62 -87 136 -103 61 -13 192 -106 300 -214 73
-72 82 -81 181 -171 51 -47 130 -121 176 -165 46 -44 93 -80 105 -80 11 0 34
-26 51 -58 16 -32 57 -67 90 -79 34 -11 61 -35 61 -51 0 -17 36 -66 80 -110
44 -43 80 -89 80 -101 0 -13 32 -36 70 -52 39 -16 70 -43 70 -60 0 -17 38 -69
85 -117 94 -96 155 -181 215 -304 22 -46 71 -107 110 -137 38 -29 70 -66 70
-83 0 -16 31 -47 68 -69 37 -23 73 -61 80 -86 6 -26 38 -81 72 -122 33 -42 71
-112 84 -155 15 -52 42 -88 79 -107 31 -17 71 -65 93 -114 21 -47 58 -102 81
-123 24 -21 49 -73 56 -114 12 -77 191 -260 223 -229 42 42 13 383 -43 521
-64 157 -68 201 -87 929 -12 448 -12 448 -63 496 -64 59 -80 189 -82 651 -1
321 -12 379 -82 428 -54 39 -79 184 -79 467 0 264 0 264 -67 326 -74 69 -103
232 -94 528 3 118 -1 130 -62 190 -71 70 -94 179 -96 450 -1 113 -7 132 -68
200 -64 71 -68 85 -81 275 -11 154 -23 212 -53 250 -92 117 -98 136 -111 311
-11 166 -17 183 -71 229 -53 46 -60 66 -78 239 -17 161 -27 197 -71 243 -56
59 -87 161 -88 295 0 74 -11 97 -71 152 -58 54 -74 87 -93 193 -15 83 -39 146
-69 179 -35 38 -52 89 -66 199 -17 135 -25 153 -90 209 -72 61 -73 63 -89 266
-1 14 -28 48 -60 76 -43 38 -60 76 -70 151 -10 73 -31 119 -80 174 -48 53 -74
108 -92 194 -27 132 -61 209 -109 249 -17 14 -31 48 -31 74 0 27 -22 71 -48
97 -79 78 -112 135 -112 191 0 30 -28 85 -67 130 -37 44 -74 109 -82 146 -9
37 -45 100 -81 140 -36 40 -77 114 -90 163 -13 50 -40 108 -59 130 -50 55 -73
107 -89 193 -10 56 -30 84 -83 115 -38 22 -69 54 -69 71 0 17 -31 65 -68 106
-37 41 -78 113 -90 159 -15 54 -44 99 -83 126 -32 24 -59 55 -59 69 0 15 -35
69 -78 121 -48 58 -82 124 -90 171 -9 60 -26 85 -72 109 -33 17 -73 56 -89 87
-16 32 -52 72 -80 90 -28 19 -51 44 -51 56 0 12 -35 61 -79 108 -47 51 -84
114 -92 158 -9 49 -35 89 -81 124 -36 28 -72 67 -78 87 -7 21 -43 55 -81 78
-38 22 -69 52 -69 66 0 25 -22 50 -208 236 -50 50 -103 119 -117 154 -14 35
-86 118 -158 184 -89 82 -136 141 -144 182 -9 46 -30 69 -81 91 -38 15 -75 47
-82 69 -7 22 -38 53 -69 69 -30 16 -67 56 -80 89 -14 34 -45 67 -68 74 -24 7
-76 41 -116 76 -71 61 -226 187 -414 336 -51 41 -104 86 -118 100 -171 178
-283 276 -315 276 -18 0 -42 27 -53 60 -24 68 -70 100 -144 100 -27 0 -87 31
-133 70 -83 69 -143 82 -250 55z"/>
<path d="M44350 65383 c-115 -8 -204 -26 -247 -49 -104 -57 -245 -71 -849 -85
-548 -13 -566 -14 -634 -60 -92 -62 -206 -85 -482 -100 -214 -11 -232 -15
-288 -67 -64 -59 -213 -102 -357 -102 -57 0 -108 -16 -161 -52 -57 -39 -120
-58 -240 -73 -135 -17 -172 -29 -222 -76 -75 -70 -149 -99 -256 -99 -95 -1
-119 -12 -150 -72 -17 -31 -56 -49 -148 -67 -89 -17 -144 -41 -186 -81 -33
-31 -97 -66 -142 -78 -46 -12 -115 -48 -155 -80 -43 -34 -109 -63 -163 -71
-72 -11 -96 -25 -120 -71 -21 -40 -58 -66 -130 -90 -59 -20 -115 -54 -133 -82
-17 -26 -67 -58 -111 -71 -51 -16 -88 -43 -107 -78 -15 -30 -57 -65 -92 -77
-35 -12 -95 -47 -134 -77 -39 -30 -99 -65 -132 -76 -38 -14 -72 -46 -90 -85
-15 -35 -41 -64 -56 -64 -33 0 -285 -246 -285 -277 0 -12 -23 -28 -51 -35 -28
-7 -64 -38 -80 -70 -16 -32 -56 -71 -88 -87 -32 -17 -64 -49 -71 -72 -8 -23
-41 -58 -74 -79 -33 -20 -71 -57 -84 -83 -13 -26 -48 -59 -77 -73 -30 -14 -60
-48 -67 -76 -7 -27 -39 -63 -71 -80 -32 -16 -69 -52 -81 -79 -12 -27 -52 -67
-89 -88 -37 -22 -67 -53 -67 -70 0 -17 -31 -64 -69 -104 -38 -40 -75 -100 -82
-133 -13 -57 -61 -117 -234 -292 -41 -42 -75 -94 -75 -116 0 -76 -42 -160
-101 -203 -32 -25 -59 -62 -59 -83 0 -21 -30 -69 -67 -105 -45 -46 -71 -94
-80 -152 -11 -68 -27 -93 -81 -125 -71 -41 -91 -85 -92 -193 0 -48 -14 -73
-55 -99 -75 -48 -79 -54 -94 -193 -11 -98 -26 -135 -79 -194 -49 -53 -70 -99
-79 -173 -9 -65 -35 -131 -74 -185 -45 -61 -65 -116 -76 -210 -12 -103 -27
-138 -76 -187 -54 -54 -63 -80 -75 -212 -16 -177 -42 -262 -102 -335 -37 -45
-46 -86 -56 -278 -10 -187 -19 -235 -53 -278 -23 -28 -54 -69 -69 -91 -24 -34
-31 -427 -44 -2460 -8 -1331 -16 -2600 -18 -2820 -1 -220 -10 -454 -19 -520
-8 -66 -19 -219 -23 -340 -12 -400 -19 -480 -45 -526 -26 -47 -36 -5786 -10
-5829 21 -34 174 -3 255 52 43 29 114 63 159 75 45 12 111 47 146 78 65 57 96
67 277 90 73 10 114 28 151 69 34 36 89 64 160 81 70 16 127 44 160 80 33 34
91 64 160 80 60 15 141 51 179 82 44 35 107 60 170 69 73 11 120 33 174 81 55
49 101 70 177 80 74 10 124 32 182 81 68 56 97 67 181 67 88 0 108 8 163 67
46 49 93 75 173 93 64 15 137 49 176 83 36 32 100 62 145 69 44 8 112 39 152
70 71 57 178 97 257 98 22 0 80 32 128 70 76 60 102 70 195 70 97 0 116 7 177
69 50 50 94 72 161 82 58 9 124 38 177 79 47 35 120 71 163 79 44 8 124 44
179 80 74 50 131 70 220 80 103 10 129 22 184 82 53 58 78 69 148 69 69 0 94
12 148 68 51 54 89 74 182 91 80 15 132 37 163 71 25 27 66 54 91 60 24 5 89
19 144 31 55 11 136 46 181 78 45 32 122 63 175 71 72 11 106 29 142 75 38 49
69 64 165 79 88 13 132 33 179 78 43 42 91 64 163 75 71 12 124 36 174 80 40
35 79 63 87 63 137 4 279 44 315 89 29 37 73 57 160 73 92 18 133 38 181 89
51 53 84 68 172 79 83 10 122 27 161 68 34 36 90 63 164 80 61 14 137 47 168
73 75 63 147 89 244 89 62 0 95 15 156 70 57 51 104 74 173 83 69 10 112 30
159 77 48 48 88 67 165 77 68 9 126 33 175 72 43 35 119 68 183 81 61 13 135
45 170 75 42 35 108 61 205 79 103 19 153 40 183 74 43 51 144 92 227 92 32 0
73 25 114 70 50 55 80 70 135 70 92 0 171 31 234 90 28 26 94 58 148 70 56 12
127 47 165 80 51 45 94 61 190 72 104 12 135 25 189 79 49 49 90 68 165 79 76
10 117 30 171 82 49 48 88 68 132 68 76 0 137 31 186 93 22 28 58 47 90 47 93
0 203 40 270 97 44 39 104 63 194 79 103 18 140 35 180 82 40 47 72 61 163 71
76 9 125 27 150 54 50 55 134 97 196 97 30 0 83 29 131 72 71 65 96 74 235 90
135 15 161 24 205 75 36 41 82 64 162 81 83 17 122 38 153 80 33 44 69 61 168
81 79 15 157 47 206 83 43 32 104 58 134 58 77 0 153 33 228 98 49 43 93 60
186 70 102 12 128 23 161 69 30 42 68 62 156 82 66 14 137 45 166 72 28 26
103 61 168 78 65 17 133 43 150 58 62 54 153 88 271 99 106 11 126 20 180 84
52 60 77 73 168 84 86 10 114 23 148 69 33 44 64 59 140 70 68 9 121 32 175
77 43 36 119 75 170 88 51 13 140 50 198 83 58 32 125 59 150 59 55 0 114 30
194 100 48 41 94 58 189 68 305 35 298 0 300 1621 1 1429 1 1429 -53 1535 -62
122 -91 324 -95 667 -3 210 -6 224 -58 287 -30 36 -59 85 -64 109 -26 128 -38
237 -41 358 -3 119 -10 143 -59 194 -50 53 -59 83 -80 270 -21 183 -31 219
-76 266 -70 73 -95 146 -95 274 0 86 -10 119 -58 178 -41 52 -65 113 -81 208
-18 101 -38 150 -80 195 -40 41 -65 97 -81 180 -13 66 -46 153 -73 192 -27 40
-58 108 -70 150 -11 43 -41 101 -66 128 -58 63 -91 127 -91 176 0 21 -31 77
-68 125 -38 47 -75 118 -82 156 -7 39 -44 106 -81 150 -37 43 -78 111 -91 151
-13 40 -49 96 -80 126 -32 30 -58 67 -58 83 0 16 -26 51 -57 78 -68 57 -103
116 -103 174 0 24 -36 80 -80 127 -194 204 -380 424 -380 450 0 12 -35 62 -77
111 -43 49 -83 112 -90 140 -7 28 -31 56 -53 63 -22 7 -63 43 -92 81 -28 37
-69 73 -90 80 -21 6 -52 38 -69 70 -16 32 -55 72 -87 88 -32 16 -63 51 -69 78
-7 28 -37 58 -72 72 -32 14 -74 47 -92 75 -17 27 -65 63 -106 80 -40 17 -107
61 -148 98 -41 38 -84 68 -96 68 -11 0 -56 34 -99 75 -44 41 -95 89 -115 107
-19 17 -44 47 -55 66 -12 21 -61 43 -120 54 -75 14 -116 36 -164 88 -38 42
-83 70 -111 70 -27 0 -73 26 -104 59 -32 33 -100 74 -153 92 -52 17 -109 52
-125 78 -20 30 -66 55 -132 71 -72 17 -115 42 -149 85 -42 54 -66 64 -184 78
-102 12 -148 28 -187 65 -64 62 -142 92 -236 92 -56 0 -90 16 -144 69 -65 63
-85 70 -247 87 -132 15 -194 32 -252 70 -42 28 -120 56 -174 63 -179 24 -297
57 -368 103 -55 35 -109 47 -250 56 -307 18 -495 50 -600 101 -94 45 -131 49
-640 68 -515 19 -547 22 -680 74 -153 59 -553 81 -960 52z"/>
<path d="M22798 64491 c-7 -7 -227 -17 -490 -24 -417 -9 -483 -15 -528 -47
-93 -66 -315 -103 -651 -107 -165 -3 -187 -8 -244 -56 -70 -59 -241 -97 -434
-97 -101 0 -128 -9 -211 -70 -81 -60 -114 -71 -231 -78 -97 -6 -150 -20 -187
-50 -97 -78 -164 -104 -267 -105 -127 -1 -188 -23 -204 -74 -14 -45 -85 -76
-206 -89 -53 -7 -113 -32 -161 -71 -53 -42 -109 -65 -181 -75 -83 -10 -118
-27 -167 -79 -35 -37 -90 -71 -128 -78 -36 -7 -102 -43 -147 -80 -45 -37 -107
-73 -138 -80 -32 -7 -82 -39 -113 -71 -34 -35 -93 -66 -154 -81 -71 -17 -105
-37 -120 -70 -12 -25 -49 -58 -84 -71 -34 -14 -95 -54 -135 -90 -40 -35 -102
-70 -139 -78 -45 -10 -112 -62 -211 -162 -80 -82 -158 -148 -173 -148 -15 0
-68 -29 -116 -65 -48 -35 -115 -74 -148 -85 -38 -12 -70 -44 -88 -83 -15 -35
-49 -73 -75 -85 -26 -12 -58 -45 -71 -73 -13 -29 -49 -65 -81 -81 -31 -17 -67
-53 -80 -80 -12 -28 -48 -64 -79 -80 -31 -16 -56 -37 -56 -47 0 -26 -233 -261
-259 -261 -12 0 -39 -28 -59 -62 -21 -34 -65 -78 -98 -99 -33 -20 -66 -55 -74
-78 -7 -23 -38 -55 -69 -71 -39 -20 -60 -50 -69 -97 -8 -43 -43 -98 -92 -146
-44 -42 -80 -89 -80 -104 0 -15 -29 -54 -64 -87 -35 -33 -74 -79 -86 -103 -11
-24 -45 -54 -74 -68 -31 -15 -62 -54 -75 -92 -12 -36 -47 -85 -79 -108 -36
-27 -64 -73 -78 -129 -15 -57 -47 -109 -93 -150 -39 -34 -71 -76 -71 -93 0
-16 -31 -70 -68 -119 -37 -49 -74 -108 -81 -131 -8 -24 -45 -67 -82 -95 -49
-38 -69 -69 -69 -107 0 -85 -38 -175 -88 -208 -27 -17 -57 -68 -71 -120 -14
-49 -51 -114 -83 -145 -32 -30 -63 -85 -70 -122 -7 -38 -42 -103 -78 -147 -46
-54 -70 -108 -80 -176 -10 -76 -29 -113 -83 -166 -131 -125 -208 -262 -209
-370 -1 -182 -33 -294 -95 -329 -60 -34 -82 -107 -83 -263 0 -57 -16 -93 -70
-152 -60 -66 -70 -92 -70 -175 -1 -152 -32 -253 -94 -306 -52 -45 -57 -62 -67
-237 -10 -181 -13 -191 -73 -242 -79 -68 -155 -20275 -76 -20402 30 -49 192
-13 249 56 37 45 75 66 139 75 55 9 113 36 157 75 54 47 96 64 190 75 75 9
140 30 173 56 113 91 143 105 251 116 98 10 117 19 142 67 27 52 150 99 260
99 17 0 74 30 128 68 54 37 132 73 174 81 42 8 105 40 140 71 43 38 98 62 161
71 65 9 115 32 156 70 74 69 148 99 250 99 63 0 86 12 127 63 43 55 66 66 173
79 99 11 137 26 187 74 40 37 103 68 172 85 60 13 149 50 197 81 49 31 117 62
151 69 35 8 113 43 173 80 68 40 151 71 215 79 84 11 114 26 151 72 35 45 74
65 165 84 73 15 153 50 207 89 48 36 102 65 119 65 17 0 90 31 162 68 73 38
166 75 207 83 41 7 107 40 147 72 78 62 103 70 251 83 76 7 107 22 162 81 54
57 84 73 138 73 43 0 97 19 138 50 97 70 135 86 245 100 70 10 116 31 171 80
58 53 102 72 198 88 92 15 135 33 169 71 31 35 79 57 155 71 61 11 119 33 130
48 11 16 29 43 40 60 12 18 71 39 143 50 92 14 147 37 216 91 52 39 106 71
120 71 14 0 88 31 163 68 76 38 172 78 215 89 42 11 109 46 149 76 57 44 104
59 207 69 120 11 141 19 200 82 55 58 87 74 177 86 76 10 131 33 179 73 39 31
84 57 101 57 73 0 186 47 249 102 51 44 95 63 175 71 83 9 121 26 176 77 52
48 96 68 169 78 54 7 120 28 147 47 119 85 156 103 232 116 45 7 114 38 152
68 86 67 146 88 246 84 63 -2 88 10 151 74 58 59 96 79 168 89 55 8 128 38
181 76 71 50 116 64 221 73 121 10 137 16 184 78 36 48 67 67 107 67 90 0 175
38 198 89 21 47 44 55 217 81 54 8 101 33 138 71 39 40 82 61 147 70 55 8 136
42 201 84 88 57 133 72 240 80 109 8 141 19 191 66 33 31 103 67 155 80 52 13
95 29 95 36 2 53 81 105 190 124 84 16 138 39 180 78 44 41 97 63 200 82 105
19 153 39 195 81 41 41 83 59 167 69 61 8 122 27 135 43 71 88 96 103 196 115
86 12 117 27 159 76 42 49 73 64 167 77 84 11 131 30 171 68 30 28 109 69 177
89 68 21 149 60 182 87 39 33 104 57 193 73 104 18 146 36 187 80 42 44 79 60
166 71 81 10 125 28 158 63 25 26 95 63 156 80 61 18 135 53 165 77 29 25 117
59 194 77 89 20 178 57 240 99 54 38 137 75 185 82 59 10 104 33 141 73 45 49
69 59 146 59 80 0 101 10 167 77 61 62 95 79 176 90 61 8 130 35 178 70 44 31
128 67 189 80 68 15 132 46 170 81 44 40 95 62 190 78 101 18 140 35 173 77
34 42 69 57 160 69 94 13 126 27 167 76 38 45 80 67 174 88 70 16 149 50 183
78 33 28 91 57 130 64 102 19 119 53 136 278 36 454 60 3998 28 4064 -12 24
-22 474 -26 1130 -3 600 -11 1653 -18 2340 -7 688 -13 2051 -15 3030 -2 1651
-5 1785 -37 1855 -25 51 -32 99 -23 151 7 48 0 112 -19 169 -19 54 -41 237
-54 448 -22 345 -44 467 -82 467 -33 0 -77 135 -78 234 -1 160 -30 265 -90
327 -45 47 -59 86 -72 194 -14 113 -26 144 -77 191 -64 60 -71 81 -89 264 -10
101 -21 128 -71 170 -47 40 -63 74 -77 167 -14 96 -29 127 -78 165 -43 34 -68
77 -85 149 -16 66 -41 112 -71 132 -26 16 -58 63 -70 104 -13 40 -43 94 -66
119 -24 26 -65 90 -93 144 -149 290 -202 377 -246 405 -26 18 -59 58 -72 91
-14 32 -46 70 -72 84 -26 14 -63 62 -81 107 -17 45 -63 116 -101 157 -37 42
-68 89 -68 106 0 16 -26 42 -58 59 -32 16 -67 57 -79 90 -11 34 -45 72 -73 85
-29 13 -66 49 -82 81 -17 31 -51 66 -77 78 -26 12 -56 42 -68 68 -12 26 -49
61 -82 78 -33 18 -74 58 -91 91 -17 32 -48 68 -70 80 -22 12 -53 48 -70 80
-17 33 -53 65 -81 72 -28 7 -64 38 -80 70 -16 32 -56 71 -88 87 -32 17 -64 49
-71 72 -7 22 -47 54 -89 71 -41 16 -87 52 -102 80 -18 34 -59 58 -133 80 -61
18 -115 47 -127 69 -11 21 -48 53 -81 70 -34 17 -101 62 -149 99 -48 36 -115
73 -150 80 -37 8 -70 32 -84 62 -14 32 -48 55 -103 69 -45 12 -98 26 -116 31
-19 6 -54 37 -76 69 -34 46 -62 61 -144 71 -69 10 -121 31 -164 69 -35 31 -99
62 -143 69 -132 23 -148 31 -180 91 -24 47 -43 59 -97 59 -87 0 -223 48 -315
112 -57 40 -107 53 -227 62 -135 11 -163 20 -231 77 -69 58 -96 66 -243 78
-232 18 -375 48 -450 94 -49 30 -126 44 -320 59 -271 20 -349 38 -464 106 -67
39 -105 42 -512 47 -242 2 -764 10 -1160 17 -396 6 -726 6 -732 -1z"/>
<path d="M54467 52176 c-9 -14 -26 -44 -37 -65 -23 -44 -85 -66 -194 -69 -57
-2 -82 -15 -115 -61 -36 -51 -60 -61 -163 -73 -99 -11 -131 -24 -177 -73 -57
-61 -159 -92 -307 -94 -63 -1 -82 -11 -110 -61 -37 -64 -113 -100 -212 -100
-46 0 -77 -18 -122 -70 -49 -57 -78 -73 -160 -83 -74 -10 -119 -30 -175 -80
-63 -56 -90 -67 -172 -67 -78 0 -105 -10 -145 -52 -73 -79 -145 -108 -267
-108 -98 0 -114 -6 -145 -55 -47 -74 -59 -80 -169 -95 -76 -11 -105 -27 -145
-79 -43 -56 -65 -67 -162 -77 -85 -9 -128 -25 -179 -71 -48 -42 -98 -63 -174
-73 -122 -17 -166 -36 -238 -103 -39 -35 -87 -52 -189 -64 -76 -9 -141 -27
-146 -40 -21 -64 -80 -104 -173 -116 -76 -11 -114 -29 -160 -77 -46 -48 -85
-67 -160 -77 -67 -9 -117 -30 -153 -65 -56 -53 -160 -87 -274 -88 -50 0 -84
-19 -144 -80 -72 -73 -87 -80 -183 -80 -93 0 -111 -7 -167 -69 -51 -55 -84
-71 -167 -83 -81 -10 -112 -25 -142 -67 -29 -40 -69 -61 -155 -80 -68 -14
-137 -45 -168 -73 -56 -53 -154 -88 -247 -88 -41 0 -82 -22 -132 -71 -62 -61
-91 -73 -191 -83 -100 -10 -127 -22 -178 -76 -48 -51 -83 -68 -169 -80 -86
-12 -121 -28 -170 -80 -46 -50 -86 -70 -158 -81 -56 -8 -120 -34 -154 -63 -70
-59 -158 -86 -283 -86 -82 0 -100 -8 -129 -55 -54 -87 -88 -105 -200 -105 -97
0 -109 -5 -137 -59 -31 -61 -123 -101 -235 -101 -35 0 -65 -17 -86 -49 -32
-48 -178 -111 -259 -111 -23 0 -78 -26 -122 -59 -59 -43 -112 -62 -206 -72
-115 -13 -130 -21 -165 -80 -41 -70 -84 -88 -202 -89 -71 0 -155 -53 -155 -97
0 -10 -47 -31 -105 -47 -261 -73 -156 -86 735 -91 1038 -6 1324 -24 1414 -88
53 -38 93 -46 255 -50 505 -14 649 -33 741 -97 83 -57 95 -60 382 -72 227 -10
308 -20 342 -45 25 -18 66 -47 91 -65 28 -20 117 -40 230 -52 156 -15 193 -26
238 -69 40 -38 85 -54 190 -67 171 -22 203 -33 270 -95 41 -37 93 -55 224 -74
132 -19 184 -37 233 -78 62 -52 79 -58 219 -82 43 -7 88 -35 120 -74 41 -49
75 -65 162 -79 87 -14 119 -30 161 -81 45 -54 68 -65 166 -73 97 -8 121 -18
156 -65 28 -38 72 -64 136 -79 58 -14 117 -46 151 -81 30 -32 98 -72 150 -89
52 -18 111 -50 132 -73 20 -23 69 -58 109 -78 40 -20 87 -59 105 -87 20 -31
66 -59 118 -73 47 -12 108 -43 135 -68 28 -26 77 -60 110 -77 33 -16 81 -58
106 -92 25 -34 62 -62 83 -62 20 0 75 -32 122 -71 47 -39 104 -80 127 -92 40
-21 96 -70 273 -242 43 -41 91 -75 108 -75 16 0 44 -27 61 -60 17 -32 57 -73
89 -89 32 -17 64 -49 71 -71 7 -22 43 -53 79 -68 43 -18 73 -49 87 -90 12 -34
32 -62 44 -62 42 0 420 -377 420 -419 0 -11 27 -34 60 -51 32 -17 73 -57 89
-89 17 -32 49 -64 72 -71 23 -8 56 -44 74 -82 18 -37 49 -73 69 -79 21 -7 60
-45 87 -86 27 -40 76 -108 109 -151 33 -43 60 -98 60 -124 0 -47 47 -108 85
-108 12 0 39 -15 59 -34 89 -80 86 -211 91 4232 6 4976 24 4550 -188 4558
-117 4 -168 -2 -180 -20z"/>
<path d="M45090 45917 c-392 -42 -693 -60 -1140 -69 -480 -9 -480 -9 -526 -61
-63 -70 -233 -105 -514 -106 -220 -1 -220 -1 -271 -62 -48 -59 -58 -62 -247
-73 -185 -11 -200 -16 -248 -69 -58 -65 -152 -97 -288 -97 -81 0 -100 -8 -143
-64 -48 -61 -62 -66 -235 -85 -176 -20 -186 -24 -218 -81 -28 -52 -49 -63
-157 -80 -98 -16 -133 -32 -168 -76 -31 -38 -70 -59 -125 -66 -150 -20 -165
-27 -178 -79 -15 -59 -81 -89 -193 -89 -67 0 -82 -9 -110 -62 -17 -33 -57 -72
-89 -85 -32 -13 -76 -49 -100 -78 -24 -32 -77 -63 -126 -76 -51 -13 -109 -49
-148 -90 -35 -38 -78 -69 -96 -69 -17 0 -50 -32 -73 -70 -25 -42 -62 -75 -94
-82 -29 -7 -84 -37 -123 -67 -38 -30 -99 -70 -135 -88 -35 -19 -78 -60 -94
-92 -17 -32 -49 -64 -71 -71 -23 -7 -56 -36 -75 -64 -18 -28 -63 -64 -100 -79
-36 -16 -76 -49 -88 -75 -12 -26 -42 -57 -68 -69 -26 -12 -61 -48 -78 -81 -17
-32 -48 -65 -69 -71 -22 -7 -57 -44 -80 -82 -22 -38 -63 -79 -89 -91 -27 -12
-61 -45 -75 -72 -15 -27 -52 -62 -82 -78 -30 -16 -61 -51 -68 -78 -6 -26 -43
-66 -80 -89 -37 -22 -68 -53 -68 -70 0 -16 -31 -61 -69 -98 -38 -38 -78 -106
-90 -151 -14 -52 -45 -98 -84 -127 -33 -25 -73 -69 -89 -99 -15 -29 -45 -59
-67 -66 -21 -6 -49 -42 -61 -79 -12 -37 -53 -91 -91 -120 -53 -40 -69 -68 -69
-115 0 -47 -20 -80 -79 -135 -43 -39 -85 -99 -93 -132 -8 -32 -44 -99 -81
-147 -37 -48 -67 -99 -67 -113 0 -14 -32 -51 -71 -82 -60 -49 -72 -73 -83
-164 -11 -94 -20 -113 -76 -146 -56 -33 -66 -52 -77 -142 -11 -99 -49 -157
-116 -179 -12 -4 -30 -61 -39 -127 -13 -96 -27 -128 -75 -169 -46 -39 -63 -73
-73 -151 -15 -116 -21 -128 -95 -175 -44 -28 -55 -50 -55 -112 0 -160 -38
-289 -98 -337 -49 -38 -60 -65 -72 -170 -16 -136 -31 -175 -103 -262 -36 -43
-47 -80 -47 -160 0 -133 -28 -227 -84 -287 -37 -39 -49 -88 -69 -261 -22 -201
-27 -216 -85 -264 -61 -50 -62 -54 -62 -232 0 -252 -31 -403 -99 -480 -67 -77
-90 -451 -88 -1409 0 -313 7 -4368 14 -9010 13 -8495 15 -8762 65 -8890 15
-38 28 -115 28 -170 1 -55 5 -194 8 -310 4 -115 12 -504 18 -864 14 -783 -5
-725 256 -784 28 -6 61 -33 74 -60 16 -36 43 -53 98 -62 150 -24 166 -31 195
-88 33 -64 79 -81 211 -82 70 0 111 -15 185 -68 57 -40 132 -73 186 -81 57 -9
115 -35 155 -70 36 -31 105 -68 154 -81 49 -13 125 -49 169 -80 55 -39 118
-61 198 -70 105 -12 120 -20 157 -82 22 -37 46 -68 53 -68 97 -1 265 -50 343
-100 54 -35 142 -69 199 -78 73 -12 122 -34 167 -77 35 -34 93 -67 127 -74 35
-8 106 -41 157 -75 62 -41 127 -65 193 -72 83 -8 107 -20 150 -76 35 -46 73
-70 119 -77 37 -6 99 -16 136 -22 37 -5 100 -36 139 -67 40 -31 107 -62 151
-69 43 -7 104 -34 135 -60 79 -66 124 -86 224 -103 53 -9 113 -38 156 -75 51
-46 95 -64 169 -71 81 -7 109 -20 142 -66 47 -63 129 -98 228 -98 65 0 83 -11
136 -88 19 -27 62 -43 146 -53 90 -10 145 -32 223 -85 73 -50 135 -75 212 -85
83 -10 120 -26 158 -69 34 -38 84 -63 156 -79 74 -16 123 -41 160 -81 40 -44
78 -61 156 -72 76 -10 126 -32 184 -81 63 -52 99 -67 164 -67 118 0 211 -31
274 -91 29 -28 101 -64 160 -79 67 -18 121 -47 148 -80 32 -41 67 -56 159 -68
99 -14 127 -27 171 -81 45 -55 70 -66 177 -79 81 -10 139 -29 169 -56 64 -58
112 -79 219 -95 65 -9 120 -35 174 -80 53 -44 111 -71 171 -80 64 -9 108 -31
147 -73 43 -46 78 -61 164 -71 94 -11 121 -24 182 -90 61 -65 85 -77 154 -77
104 0 180 -29 249 -95 44 -42 80 -54 176 -61 105 -8 127 -17 163 -66 32 -43
69 -62 154 -79 83 -16 125 -37 162 -81 39 -46 75 -63 170 -78 66 -11 123 -28
126 -39 24 -71 81 -105 200 -119 103 -12 136 -26 191 -79 54 -52 92 -69 190
-83 86 -12 142 -33 185 -68 33 -29 109 -66 168 -83 59 -17 118 -44 132 -61 37
-45 86 -67 199 -88 75 -15 118 -37 167 -90 60 -63 78 -70 172 -70 92 0 115 -9
181 -68 51 -47 109 -75 182 -91 59 -12 145 -48 191 -79 46 -31 123 -63 170
-70 55 -9 108 -35 147 -73 44 -43 93 -65 180 -80 93 -17 130 -35 169 -81 38
-45 75 -63 156 -76 62 -9 124 -34 151 -59 25 -24 58 -43 74 -43 30 0 319 291
319 321 0 9 36 46 80 81 43 35 85 81 91 101 7 21 37 51 69 67 35 18 62 51 69
87 16 70 170 263 404 507 35 36 69 86 76 111 8 25 40 59 72 75 39 21 64 54 78
107 12 42 40 94 64 115 23 21 60 76 81 123 22 51 62 97 97 115 34 18 64 53 72
85 7 30 48 93 90 140 42 46 77 96 77 111 0 15 23 49 52 76 28 26 66 75 82 108
17 33 61 88 99 123 49 46 67 79 67 127 0 48 18 82 69 130 38 36 75 88 81 115
8 29 40 62 81 81 57 28 71 47 82 116 7 48 37 110 69 147 30 35 61 87 69 116 7
30 44 97 81 149 38 53 78 128 91 166 12 39 48 99 79 135 31 35 62 96 69 135
10 51 30 80 72 102 64 33 97 98 97 190 0 40 19 78 57 114 38 36 64 90 80 164
17 80 40 124 83 160 41 34 68 84 86 158 18 71 46 123 79 150 41 33 56 69 69
162 14 104 24 123 72 146 65 31 94 94 94 203 0 54 17 97 60 151 33 42 60 95
60 120 0 83 58 236 110 290 38 40 57 87 68 171 11 78 28 124 54 141 78 54 88
72 89 154 2 160 32 259 95 313 54 46 62 66 74 206 10 116 25 170 61 220 72 97
82 131 98 300 13 142 20 159 77 203 54 43 63 63 67 156 10 229 27 294 89 337
55 40 58 49 58 195 1 205 30 321 99 394 54 56 58 74 70 279 15 270 24 308 84
372 44 47 48 73 56 290 11 314 33 430 101 532 55 84 55 84 61 1275 21 4024 38
4899 99 5102 44 147 48 485 61 5440 14 5552 20 5985 89 6130 49 104 57 191 66
744 4 194 2 206 -49 260 -62 66 -89 150 -105 323 -9 102 -23 141 -69 192 -37
43 -65 106 -80 183 -15 71 -47 149 -82 195 -41 53 -63 111 -73 189 -11 88 -27
126 -75 173 -42 43 -65 90 -76 158 -11 69 -35 118 -86 175 -42 46 -71 99 -71
129 0 63 -51 189 -77 189 -11 0 -42 39 -71 88 -28 48 -64 92 -80 98 -16 7 -49
67 -73 134 -25 67 -62 131 -82 142 -21 11 -57 60 -80 110 -23 49 -60 99 -81
110 -22 12 -56 59 -77 105 -20 45 -60 110 -89 143 -152 174 -211 259 -233 332
-16 54 -43 90 -79 109 -30 16 -61 47 -68 69 -7 22 -39 54 -71 70 -32 17 -68
51 -81 75 -13 25 -51 74 -86 109 -34 36 -80 84 -102 107 -22 23 -86 84 -142
136 -56 51 -112 113 -125 138 -13 24 -49 57 -79 73 -31 16 -67 51 -82 78 -14
27 -48 59 -74 71 -27 13 -59 46 -72 74 -13 29 -49 65 -81 81 -31 17 -67 53
-80 80 -12 28 -48 64 -80 80 -31 17 -65 52 -75 78 -11 30 -40 54 -74 61 -124
26 -215 84 -363 231 -40 40 -95 80 -123 88 -27 8 -81 40 -120 70 -38 30 -101
70 -139 90 -38 19 -86 56 -106 81 -20 26 -83 60 -141 77 -58 17 -127 53 -153
81 -26 28 -76 56 -110 62 -35 7 -102 42 -148 79 -51 40 -126 76 -187 89 -56
12 -138 49 -183 81 -44 33 -97 60 -118 60 -58 0 -175 56 -212 101 -25 31 -70
46 -182 60 -116 15 -160 30 -201 69 -65 62 -156 90 -295 90 -91 0 -115 9 -180
67 -72 65 -83 68 -275 78 -178 10 -211 17 -300 72 -93 57 -117 62 -350 73
-309 14 -338 21 -401 96 -52 61 -52 61 -600 66 -302 3 -657 15 -789 28 -323
30 -695 60 -720 57 -11 -1 -92 -10 -180 -20z"/>
<path d="M36900 44377 c-49 -54 -75 -65 -174 -73 -96 -8 -129 -21 -189 -75
-73 -65 -86 -69 -345 -95 -22 -2 -54 -31 -72 -64 -29 -52 -48 -62 -150 -75
-97 -12 -127 -26 -178 -82 -50 -53 -83 -69 -167 -81 -80 -10 -112 -25 -137
-62 -34 -52 -136 -90 -243 -90 -46 0 -87 -20 -140 -68 -60 -54 -99 -71 -192
-82 -64 -8 -127 -28 -140 -44 -77 -96 -95 -106 -184 -106 -79 0 -100 -10 -167
-78 -61 -62 -98 -82 -175 -93 -63 -10 -119 -34 -162 -71 -45 -39 -97 -61 -169
-70 -68 -9 -118 -29 -145 -58 -62 -67 -117 -89 -252 -103 -70 -8 -133 -26
-146 -42 -86 -109 -113 -125 -199 -125 -73 0 -100 -12 -157 -67 -52 -51 -93
-70 -169 -80 -76 -10 -115 -29 -158 -73 -62 -64 -157 -100 -269 -100 -50 0
-87 -17 -132 -61 -51 -49 -86 -64 -179 -73 -103 -11 -119 -19 -153 -77 -41
-70 -84 -88 -203 -89 -61 0 -90 -14 -141 -68 -50 -53 -87 -71 -164 -82 -54 -8
-117 -31 -139 -50 -64 -56 -152 -94 -258 -109 -63 -9 -114 -31 -147 -64 -62
-63 -126 -87 -227 -87 -69 0 -85 -9 -119 -68 -43 -72 -85 -91 -203 -92 -56 0
-87 -14 -130 -60 -61 -65 -197 -100 -392 -100 -103 0 -169 -26 -208 -80 -14
-19 -50 -45 -80 -58 -31 -12 -71 -50 -90 -82 -25 -44 -49 -60 -90 -60 -114 0
-205 -39 -218 -92 -15 -59 -78 -88 -189 -88 -62 0 -90 -13 -131 -59 -38 -43
-85 -66 -166 -83 -69 -15 -135 -45 -172 -78 -33 -30 -104 -65 -159 -78 -54
-14 -124 -46 -155 -72 -63 -54 -172 -90 -270 -90 -65 0 -73 -6 -148 -105 -36
-49 -54 -55 -156 -55 -100 0 -121 -7 -170 -58 -42 -44 -89 -65 -185 -84 -122
-24 -152 -38 -272 -124 -27 -19 -96 -41 -153 -48 -75 -8 -114 -25 -140 -58
-45 -57 -121 -88 -214 -88 -57 0 -76 -11 -104 -60 -35 -62 -121 -100 -228
-100 -33 0 -78 -23 -114 -58 -59 -58 -198 -102 -322 -102 -56 0 -120 -44 -120
-82 0 -28 -127 -78 -198 -78 -40 0 -78 -19 -116 -59 -43 -46 -83 -64 -172 -77
-85 -13 -125 -30 -148 -63 -37 -53 -142 -101 -219 -101 -32 0 -78 -22 -108
-51 -54 -52 -223 -108 -323 -109 -30 0 -64 -11 -75 -25 -157 -192 -171 -177
173 -187 152 -4 312 -10 356 -14 44 -4 122 -8 174 -10 73 -3 110 -18 161 -62
66 -58 66 -58 477 -68 425 -10 454 -15 561 -104 44 -37 87 -46 267 -57 192
-12 227 -20 327 -77 61 -35 143 -65 182 -67 217 -11 290 -32 355 -101 57 -61
75 -68 170 -68 140 0 231 -28 296 -90 40 -39 85 -55 187 -67 113 -13 145 -26
201 -81 58 -56 86 -67 195 -77 107 -9 139 -21 200 -76 50 -45 103 -70 165 -80
63 -9 110 -33 157 -78 44 -43 95 -69 152 -78 57 -9 104 -33 140 -71 29 -32 82
-64 118 -71 38 -9 81 -38 106 -73 29 -40 72 -67 134 -84 69 -18 102 -40 130
-88 31 -52 57 -68 146 -86 83 -17 118 -37 150 -81 23 -33 64 -64 91 -71 27 -7
62 -38 78 -69 31 -58 48 -67 175 -88 50 -9 87 -30 109 -65 19 -28 64 -64 101
-79 36 -16 77 -51 90 -79 12 -28 47 -64 77 -79 31 -16 61 -47 68 -69 7 -22 51
-60 96 -83 46 -23 117 -70 157 -105 133 -114 244 -202 299 -236 30 -18 60 -52
68 -75 7 -23 37 -54 66 -69 127 -66 712 -713 734 -811 9 -40 34 -72 71 -92 32
-16 69 -49 82 -74 22 -42 47 -70 219 -250 40 -41 84 -97 98 -125 15 -27 42
-61 62 -75 19 -14 50 -65 69 -115 20 -51 63 -111 102 -141 37 -28 67 -65 67
-82 0 -17 27 -56 60 -87 44 -41 66 -86 80 -163 12 -63 34 -115 54 -127 92 -55
241 -254 267 -357 18 -69 39 -102 78 -123 43 -21 59 -51 79 -139 14 -61 37
-122 53 -136 15 -14 41 -36 56 -49 16 -13 35 -60 43 -105 15 -93 181 -258 220
-219 53 53 21 1101 -44 1408 -39 186 -45 370 -55 1686 -5 691 -14 983 -31
1025 -18 43 -19 74 -2 121 12 35 22 111 22 168 0 86 11 118 60 180 59 74 60
79 60 318 1 391 28 582 94 669 47 62 56 93 59 213 6 233 28 334 87 403 57 65
91 182 71 245 -20 62 41 301 90 353 37 39 51 89 70 253 24 193 28 206 91 257
62 52 66 62 77 225 10 150 18 178 64 228 37 38 61 94 75 176 12 66 40 143 62
170 22 28 76 101 120 164 44 62 89 119 100 126 11 7 21 55 21 106 2 180 30
283 94 350 42 45 64 93 74 158 9 65 34 120 80 174 43 53 71 111 80 170 10 67
28 101 69 130 39 28 64 74 88 158 22 81 48 129 82 151 27 17 55 59 62 92 7 34
43 97 79 140 36 43 72 111 80 150 8 45 34 87 71 114 40 30 64 72 81 141 16 68
41 111 80 140 31 23 67 68 81 100 13 32 48 71 78 86 40 21 59 50 69 104 9 47
47 112 98 170 136 153 233 277 233 298 0 10 23 28 51 38 32 12 64 52 87 106
21 48 62 114 92 146 30 32 67 82 82 112 16 30 45 64 66 75 45 24 146 198 131
223 -23 37 -93 16 -149 -45z"/>
<path d="M22650 36841 c-228 -10 -297 -20 -370 -55 -98 -47 -446 -84 -920 -99
-203 -6 -259 -14 -300 -44 -121 -89 -173 -103 -386 -103 -198 0 -209 -2 -256
-53 -76 -82 -159 -107 -357 -107 -172 0 -182 -2 -250 -62 -59 -52 -97 -65
-226 -82 -119 -16 -165 -31 -197 -66 -59 -63 -103 -84 -215 -101 -65 -9 -112
-30 -139 -62 -50 -57 -148 -87 -290 -87 -101 0 -107 -3 -134 -67 -30 -73 -72
-92 -194 -93 -59 0 -84 -12 -118 -59 -24 -32 -68 -69 -98 -81 -30 -12 -74 -49
-98 -81 -29 -40 -73 -66 -135 -82 -55 -14 -112 -46 -143 -80 -28 -31 -63 -57
-77 -57 -15 0 -63 -32 -107 -72 -43 -40 -118 -83 -165 -97 -59 -17 -93 -42
-112 -79 -14 -30 -47 -62 -72 -72 -26 -9 -66 -44 -89 -77 -24 -34 -63 -67 -87
-75 -50 -15 -151 -92 -303 -231 -56 -51 -120 -96 -142 -100 -22 -4 -52 -32
-66 -62 -15 -31 -57 -68 -94 -84 -45 -18 -73 -46 -81 -80 -8 -28 -37 -62 -66
-76 -28 -14 -63 -47 -76 -74 -14 -27 -48 -61 -77 -76 -29 -15 -70 -65 -91
-111 -41 -88 -134 -214 -247 -335 -37 -39 -73 -91 -80 -114 -8 -24 -32 -49
-53 -55 -22 -7 -53 -39 -70 -71 -16 -32 -55 -72 -87 -88 -42 -22 -63 -53 -80
-122 -14 -56 -47 -114 -81 -146 -32 -29 -68 -78 -79 -108 -12 -31 -44 -66 -72
-78 -45 -21 -90 -115 -90 -191 0 -14 -27 -56 -60 -93 -34 -38 -70 -96 -82
-130 -11 -33 -43 -75 -69 -92 -31 -20 -59 -71 -80 -141 -22 -75 -49 -122 -88
-150 -45 -31 -60 -62 -71 -141 -11 -79 -25 -108 -67 -134 -29 -18 -57 -36 -62
-39 -4 -4 -15 -66 -24 -138 -13 -105 -28 -145 -76 -200 -34 -38 -61 -90 -61
-116 0 -75 -42 -177 -102 -246 -40 -46 -59 -96 -69 -179 -12 -91 -28 -128 -79
-181 -59 -60 -66 -83 -79 -229 -13 -153 -18 -165 -90 -234 -55 -52 -83 -101
-100 -173 -13 -55 -43 -120 -66 -145 -38 -41 -43 -72 -48 -325 -6 -320 -24
-406 -96 -463 -44 -34 -51 -55 -51 -153 0 -307 -40 -571 -101 -670 -59 -97
-59 -97 -59 -1123 0 -1151 -13 -1062 159 -1089 56 -9 104 -20 106 -24 3 -4 15
-26 27 -47 16 -29 64 -48 180 -71 165 -33 224 -57 267 -108 13 -17 79 -41 145
-54 89 -18 134 -39 175 -84 45 -47 78 -61 161 -69 92 -9 109 -18 143 -76 41
-68 84 -88 195 -89 43 0 94 -20 138 -53 86 -66 191 -105 283 -106 49 -1 87
-19 131 -61 42 -41 95 -66 170 -80 77 -15 128 -39 173 -83 43 -41 95 -67 160
-79 54 -10 106 -33 117 -51 52 -87 90 -107 199 -107 97 0 113 -6 150 -58 42
-59 66 -68 250 -92 72 -10 112 -29 152 -71 39 -41 91 -67 179 -88 74 -17 147
-49 178 -78 37 -34 86 -52 166 -62 102 -12 118 -20 154 -82 32 -54 54 -69 100
-69 86 0 166 -34 213 -91 27 -33 69 -54 120 -61 187 -24 213 -33 277 -89 42
-37 111 -69 190 -87 78 -18 147 -50 190 -87 48 -43 95 -62 172 -71 86 -10 116
-25 158 -75 39 -46 74 -65 142 -74 49 -6 134 -38 189 -70 55 -32 162 -72 239
-88 96 -20 159 -46 203 -85 35 -31 99 -63 142 -71 47 -8 104 -40 147 -81 57
-55 88 -69 170 -74 82 -5 103 -14 124 -56 37 -74 84 -100 182 -100 73 0 98
-11 146 -63 50 -53 78 -64 185 -75 107 -11 140 -25 213 -87 64 -55 112 -78
182 -87 52 -7 124 -32 160 -55 122 -81 148 -92 205 -93 40 0 77 -22 122 -71
47 -50 88 -74 143 -81 115 -16 185 -48 198 -88 14 -44 109 -80 211 -80 56 0
96 -17 157 -68 60 -50 109 -72 187 -82 113 -16 193 -49 233 -98 14 -16 66 -36
115 -44 50 -7 98 -23 109 -36 10 -12 34 -44 55 -70 27 -36 64 -52 152 -63 83
-12 131 -31 170 -68 29 -28 72 -51 94 -51 82 0 229 -58 296 -117 47 -41 100
-65 165 -74 113 -17 148 -33 214 -99 33 -33 82 -53 154 -62 79 -11 119 -28
157 -69 34 -37 80 -59 141 -68 140 -22 158 -30 189 -90 26 -49 43 -57 152 -66
98 -9 139 -24 201 -74 53 -43 121 -72 209 -91 72 -15 155 -43 183 -63 97 -70
136 -86 199 -87 48 0 77 -17 122 -73 52 -65 70 -74 171 -82 127 -11 248 -95
293 -203 32 -76 55 -85 272 -101 163 -12 189 -19 260 -76 50 -40 125 -73 205
-91 81 -19 147 -48 181 -81 32 -31 96 -61 160 -74 72 -16 122 -41 156 -79 36
-40 75 -59 147 -68 69 -9 121 -33 178 -80 65 -55 103 -70 209 -81 106 -11 138
-24 184 -72 41 -43 88 -65 177 -82 89 -17 136 -39 175 -81 37 -39 86 -62 160
-76 70 -14 126 -40 166 -78 44 -41 90 -61 161 -69 80 -10 111 -26 152 -76 42
-52 72 -66 165 -78 85 -12 132 -31 184 -77 39 -34 86 -62 106 -62 75 0 245
-64 296 -111 30 -28 75 -54 100 -59 26 -6 70 -15 98 -21 28 -5 78 -36 111 -68
47 -44 89 -62 173 -73 86 -10 124 -26 164 -69 37 -39 85 -62 171 -79 70 -13
155 -48 203 -81 46 -32 128 -68 184 -80 56 -12 140 -50 187 -84 53 -38 125
-69 186 -78 77 -12 112 -30 150 -78 42 -50 71 -64 169 -77 91 -13 128 -28 160
-67 29 -36 75 -58 156 -74 96 -20 121 -34 146 -82 32 -64 53 -71 253 -89 210
-20 199 -70 186 893 -11 797 -26 4348 -37 8387 -5 2142 -7 2208 -82 2328 -6
10 -15 84 -20 165 -6 81 -19 273 -30 427 -12 154 -21 308 -21 343 0 42 -22 90
-67 143 -58 70 -69 100 -80 227 -13 133 -20 153 -80 208 -54 50 -69 81 -79
170 -11 89 -24 118 -74 159 -48 39 -65 73 -78 156 -11 72 -33 124 -70 162 -30
31 -67 104 -82 163 -20 74 -47 121 -87 152 -47 38 -61 67 -72 158 -11 84 -28
125 -72 170 -32 33 -64 84 -70 114 -22 102 -47 143 -106 174 -39 19 -64 52
-73 91 -7 33 -44 97 -82 142 -37 45 -68 95 -68 111 0 16 -36 64 -80 107 -44
43 -80 91 -80 106 0 15 -23 48 -51 75 -27 26 -64 96 -82 155 -25 88 -41 111
-90 128 -32 11 -72 48 -90 82 -18 35 -53 79 -79 99 -25 20 -51 54 -58 76 -7
22 -38 53 -69 69 -32 16 -76 67 -98 114 -23 48 -133 180 -244 295 -111 115
-215 234 -230 264 -16 30 -49 60 -74 68 -25 8 -114 78 -198 156 -206 193 -350
318 -394 342 -72 41 -242 197 -254 233 -6 21 -43 46 -86 57 -41 11 -112 52
-157 91 -45 38 -93 70 -105 70 -12 0 -58 36 -101 80 -43 44 -91 80 -106 80
-15 0 -48 23 -74 50 -26 28 -96 66 -155 84 -71 23 -122 54 -148 90 -28 40 -64
60 -122 69 -53 9 -109 38 -158 82 -53 48 -101 72 -161 79 -66 8 -100 27 -146
79 -51 58 -78 72 -177 85 -88 12 -128 29 -165 69 -27 29 -56 53 -64 53 -115 1
-285 51 -348 101 -40 32 -85 59 -98 59 -109 0 -286 51 -348 100 -62 50 -93 57
-273 70 -196 14 -206 17 -265 80 -62 65 -64 65 -302 78 -290 16 -379 35 -441
93 -41 39 -74 46 -253 53 -625 23 -849 51 -948 115 -57 38 -976 57 -1538 32z"/>
<path d="M13725 34207 c-25 -6 -58 -35 -74 -66 -32 -61 -79 -80 -195 -81 -57
0 -91 -16 -142 -65 -37 -36 -85 -80 -108 -97 -44 -36 -69 -892 -27 -957 26
-41 75 4 92 85 8 35 40 93 71 129 31 35 62 96 69 135 9 48 32 81 70 104 59 34
99 102 99 166 0 21 32 70 70 109 39 38 70 84 70 101 0 48 61 156 105 187 170
120 101 292 -100 250z"/>
<path d="M13171 24222 c-12 -35 -8 -346 19 -1772 10 -540 10 -540 71 -661 61
-120 61 -120 72 -610 12 -489 12 -489 79 -553 38 -35 68 -77 68 -94 0 -61 186
-86 740 -98 175 -4 225 -13 297 -51 50 -27 106 -42 130 -35 23 6 154 0 292
-12 325 -30 465 -32 841 -15 196 9 327 7 360 -6 27 -11 253 -23 500 -28 248
-4 491 -17 541 -28 63 -15 108 -15 146 0 84 32 372 26 478 -11 68 -23 137 -28
259 -20 583 38 565 38 668 -6 207 -89 3475 -48 3281 40 -29 14 -53 30 -53 37
0 42 -88 101 -151 101 -91 0 -187 42 -247 106 -26 29 -75 58 -110 65 -34 8
-113 39 -174 71 -62 31 -169 69 -238 85 -91 21 -137 44 -169 83 -32 41 -69 59
-150 72 -78 12 -125 33 -170 77 -43 42 -83 61 -126 61 -95 0 -159 32 -189 94
-24 51 -39 57 -158 67 -101 9 -147 24 -203 67 -40 30 -118 67 -174 82 -55 14
-136 54 -179 88 -52 42 -118 70 -195 84 -88 16 -129 36 -167 79 -40 46 -74 61
-168 73 -104 14 -123 24 -152 76 -30 53 -47 62 -156 74 -87 9 -143 29 -191 65
-37 29 -120 65 -183 82 -64 16 -148 55 -188 86 -40 31 -122 67 -184 80 -85 19
-122 39 -155 84 -30 40 -62 59 -99 59 -141 1 -209 25 -247 91 -35 59 -48 65
-158 73 -104 7 -128 17 -179 72 -34 38 -77 64 -105 64 -88 0 -247 59 -294 109
-28 30 -88 59 -153 73 -72 16 -123 42 -156 80 -36 40 -76 59 -146 68 -160 20
-175 27 -209 87 -28 50 -46 59 -143 67 -94 8 -125 21 -193 83 -61 55 -98 73
-152 73 -81 0 -201 46 -259 99 -22 20 -92 48 -156 61 -88 18 -125 36 -157 80
-33 45 -64 60 -145 71 -124 16 -148 29 -179 91 -20 40 -46 51 -154 65 -102 14
-146 31 -212 85 -51 42 -106 68 -140 68 -95 0 -198 37 -246 89 -30 32 -86 57
-159 72 -78 16 -128 40 -164 79 -35 38 -88 64 -167 81 -80 18 -124 40 -145 73
-37 56 -79 60 -95 8z"/>
<path d="M13990 18540 c-153 -11 -191 -167 -89 -366 22 -41 39 -88 39 -103 0
-15 33 -54 74 -86 72 -58 74 -64 89 -237 12 -132 26 -190 57 -228 66 -81 97
-163 111 -288 9 -88 25 -128 62 -163 53 -49 87 -143 87 -239 0 -107 37 -202
88 -225 41 -19 50 -41 62 -164 12 -116 23 -148 62 -179 68 -53 108 -162 108
-291 0 -102 4 -112 60 -141 33 -17 63 -51 68 -75 5 -25 16 -85 25 -134 12 -63
30 -97 62 -112 65 -33 64 -32 85 -158 13 -81 36 -134 79 -183 42 -48 61 -90
61 -138 0 -134 -34 -130 1150 -130 1022 0 1063 1 1135 40 115 62 4717 62 4845
0 63 -31 123 -39 290 -39 167 0 227 8 290 39 126 61 2091 61 2205 0 90 -49
8509 -65 8615 -17 123 57 80 179 -76 214 -72 16 -126 44 -163 82 -41 42 -83
62 -156 72 -73 10 -119 31 -173 80 -57 51 -100 70 -183 81 -83 11 -122 28
-162 71 -29 31 -70 57 -90 57 -95 0 -188 44 -217 101 -27 50 -43 59 -111 59
-94 0 -200 41 -279 107 -35 29 -96 53 -159 61 -78 10 -121 30 -179 83 -52 46
-97 69 -136 69 -90 0 -180 37 -213 89 -23 34 -57 49 -135 59 -85 12 -117 28
-170 85 -55 61 -82 73 -183 85 -92 11 -136 29 -196 78 -43 35 -101 64 -129 64
-92 0 -189 39 -234 93 -35 44 -66 57 -169 69 -105 12 -134 24 -176 74 -39 46
-75 63 -150 74 -78 11 -112 28 -164 84 -56 62 -78 72 -168 76 -69 3 -120 19
-156 48 -70 56 -151 92 -273 121 -63 15 -119 44 -151 79 -41 45 -75 59 -174
70 -105 12 -130 23 -164 70 -31 44 -66 62 -160 80 -94 19 -128 36 -160 81 -33
46 -62 60 -146 72 -133 18 -193 41 -251 95 -27 25 -99 54 -170 68 -97 20 -135
39 -174 86 -41 50 -65 60 -134 60 -116 0 -183 30 -197 88 -15 58 -27 64 -177
83 -94 11 -118 22 -132 60 -24 61 -45 72 -162 78 -67 3 -118 19 -154 48 -141
112 221 103 -5204 134 -690 4 -1076 14 -1170 30 -77 13 -182 23 -234 21 -52
-2 -129 11 -170 29 -110 46 -5267 90 -5836 49z"/>
<path d="M16460 13121 c-16 -11 -58 -21 -93 -21 -39 0 -67 -12 -75 -32 -16
-43 -20 -35 58 -128 39 -46 70 -96 70 -112 0 -15 32 -63 71 -107 43 -48 81
-116 95 -174 17 -66 39 -103 71 -119 26 -13 63 -51 84 -84 20 -34 56 -72 80
-84 23 -13 56 -56 73 -97 17 -40 56 -102 86 -137 31 -34 62 -91 70 -125 8 -36
41 -83 82 -114 37 -28 68 -65 68 -80 0 -16 27 -44 60 -63 32 -19 70 -60 83
-91 13 -31 54 -94 91 -138 38 -45 80 -111 95 -147 15 -35 47 -75 71 -88 24
-13 56 -54 72 -92 16 -39 45 -76 64 -83 55 -21 223 -203 253 -276 15 -36 51
-86 78 -110 28 -25 64 -78 81 -120 17 -42 49 -82 71 -89 23 -7 55 -40 73 -73
17 -33 57 -69 88 -80 40 -14 65 -41 81 -89 14 -44 38 -72 69 -80 26 -6 57 -37
71 -71 14 -32 49 -72 79 -87 31 -16 61 -50 67 -75 7 -27 41 -61 81 -80 38 -18
74 -51 82 -74 7 -23 39 -55 71 -72 32 -16 71 -55 87 -85 16 -31 52 -67 80 -79
27 -13 64 -51 82 -84 17 -34 45 -61 61 -61 17 0 49 -32 72 -71 23 -39 67 -84
98 -100 31 -15 62 -47 69 -69 7 -22 39 -54 71 -70 32 -17 68 -51 81 -75 26
-49 218 -235 243 -235 8 0 36 -35 63 -77 72 -115 73 -115 1412 -99 666 7 1647
5 2180 -5 534 -10 1543 -19 2242 -19 907 0 1303 -7 1380 -24 131 -29 158 -29
798 -8 488 16 515 15 630 -25 116 -40 155 -42 1260 -40 627 0 4884 -3 9460 -8
8320 -10 8320 -10 8440 113 156 159 195 229 142 260 -20 12 -71 50 -114 85
-54 44 -112 69 -201 84 -90 16 -141 38 -186 80 -39 37 -100 65 -173 81 -70 14
-130 42 -157 71 -24 26 -77 53 -118 60 -96 17 -183 51 -183 73 0 46 -84 98
-159 98 -95 0 -176 29 -234 83 -23 22 -103 52 -178 68 -101 21 -153 44 -199
89 -44 42 -89 63 -159 73 -63 9 -118 32 -159 68 -39 34 -106 63 -177 78 -95
20 -121 34 -145 82 -30 58 -39 61 -236 87 -45 6 -104 34 -143 68 -42 37 -99
64 -156 72 -59 9 -106 31 -137 65 -62 68 -157 107 -257 107 -60 0 -96 15 -147
59 -39 34 -109 69 -166 81 -60 14 -122 45 -159 81 -46 44 -94 65 -185 81 -103
19 -128 31 -149 75 -22 46 -42 55 -153 67 -102 11 -145 27 -208 79 -51 40
-125 74 -202 92 -73 16 -143 47 -174 77 -34 33 -90 55 -170 68 -93 15 -129 32
-168 78 -38 45 -74 63 -150 74 -78 11 -114 29 -163 82 -53 59 -79 70 -180 80
-94 10 -131 24 -189 76 -51 45 -101 69 -170 79 -110 17 -152 36 -235 104 -38
32 -81 47 -137 47 -66 0 -92 12 -143 68 -51 55 -83 70 -173 82 -76 10 -141 35
-211 83 -56 37 -137 74 -180 81 -49 7 -108 37 -154 79 -47 42 -96 67 -130 67
-90 0 -189 36 -244 89 -33 32 -93 58 -162 71 -81 15 -122 35 -159 79 -41 47
-72 61 -165 72 -87 10 -137 30 -204 81 -68 52 -119 72 -214 85 -104 15 -134
28 -176 78 -39 47 -74 65 -151 76 -77 12 -114 30 -161 82 -53 58 -79 69 -186
80 -111 11 -128 19 -155 70 -23 45 -43 57 -94 57 -35 0 -4888 4 -10784 8
-5896 5 -10787 14 -10870 21 -90 7 -162 4 -180 -8z"/>
<path d="M22724 6605 c-28 -10 -32 -65 -5 -65 10 0 61 -36 112 -81 52 -44 121
-86 154 -93 39 -8 73 -34 98 -77 38 -64 85 -88 171 -89 25 0 76 -28 115 -61
38 -34 102 -71 141 -81 39 -11 100 -45 136 -76 35 -31 96 -67 136 -80 39 -12
90 -48 113 -80 33 -44 64 -59 145 -70 88 -12 108 -23 142 -80 34 -58 53 -69
143 -81 83 -11 117 -27 165 -79 47 -52 82 -69 161 -79 81 -11 111 -25 145 -72
35 -47 69 -64 165 -83 99 -19 126 -33 149 -78 32 -61 79 -79 205 -80 68 0 100
-13 161 -68 58 -53 104 -74 205 -92 87 -16 146 -39 181 -72 34 -33 90 -55 168
-68 93 -15 128 -32 178 -86 54 -59 78 -69 191 -81 71 -7 150 -29 176 -48 104
-75 178 -105 262 -105 83 0 203 -50 203 -85 0 -28 133 -75 210 -75 73 0 190
-48 190 -77 0 -33 106 -63 226 -63 175 -1 290 -32 368 -101 56 -49 85 -59 172
-60 168 -1 274 -29 327 -87 32 -34 70 -52 113 -53 278 -6 400 -33 456 -101 55
-68 55 -68 372 -79 325 -11 343 -15 423 -87 41 -37 73 -42 270 -45 328 -5 501
-33 593 -97 75 -52 85 -53 433 -61 519 -10 726 -38 884 -120 116 -59 3675 -54
3751 6 88 69 384 105 966 116 360 8 364 8 460 66 115 69 248 90 556 84 221 -4
221 -4 309 66 87 69 89 69 355 84 255 13 270 17 351 75 73 53 111 64 295 83
181 19 222 31 284 78 64 48 98 57 286 72 200 16 218 21 277 77 50 49 87 63
183 74 193 20 228 30 294 86 52 44 91 56 223 67 149 13 164 18 223 83 61 66
73 71 236 84 134 11 180 23 208 54 52 58 94 76 221 97 77 12 136 37 189 80 58
46 110 67 200 80 93 13 137 31 184 75 45 43 90 62 162 71 83 11 110 25 157 83
39 48 74 70 110 70 86 0 194 37 233 80 20 22 81 53 134 69 54 16 133 57 175
90 43 34 121 70 180 83 63 13 131 45 171 81 37 33 99 64 138 71 41 6 90 34
121 68 30 34 87 66 139 80 52 13 110 45 139 78 33 38 83 63 153 78 75 16 121
41 169 92 39 42 85 70 113 70 89 1 140 25 168 81 18 35 52 61 89 69 33 7 77
34 97 59 20 26 81 69 135 97 119 60 199 140 182 183 -10 28 -222 31 -1987 33
-1866 1 -14113 19 -18387 27 -1085 2 -1982 0 -1995 -4z"/>
</g>
</svg>
