<?xml version="1.0" standalone="no"?>
<!DOCTYPE svg PUBLIC "-//W3C//DTD SVG 20010904//EN"
 "http://www.w3.org/TR/2001/REC-SVG-20010904/DTD/svg10.dtd">
<svg version="1.0" xmlns="http://www.w3.org/2000/svg"
 width="3375.000000pt" height="4219.000000pt" viewBox="0 0 3375.000000 4219.000000"
 preserveAspectRatio="xMidYMid meet">
<metadata>
Created by potrace 1.16, written by Peter Selinger 2001-2019
</metadata>
<g transform="translate(0.000000,4219.000000) scale(0.050000,-0.050000)"
fill="#000000" stroke="none">
<path d="M0 42190 c0 -42190 0 -42190 33750 -42190 33750 0 33750 0 33750
42190 0 42190 0 42190 -33750 42190 -33750 0 -33750 0 -33750 -42190z m35800
39593 c474 -15 495 -18 630 -73 117 -48 174 -58 360 -63 511 -16 694 -37 800
-91 91 -47 130 -53 430 -66 369 -15 458 -31 561 -101 64 -44 103 -51 407 -69
329 -20 338 -22 402 -77 58 -51 85 -59 253 -72 158 -12 205 -24 307 -80 98
-54 152 -69 290 -80 172 -15 233 -34 272 -88 16 -20 97 -38 269 -56 230 -25
251 -31 309 -87 55 -53 81 -62 237 -78 152 -15 184 -25 234 -73 47 -45 89 -60
231 -81 136 -20 185 -36 226 -75 49 -47 132 -75 304 -102 40 -7 88 -29 107
-50 39 -43 110 -73 216 -90 42 -7 107 -40 146 -74 54 -48 96 -65 191 -76 71
-8 130 -26 140 -43 9 -15 25 -41 35 -56 11 -15 76 -36 146 -45 88 -12 151 -35
207 -75 44 -31 112 -64 150 -72 79 -17 169 -59 235 -111 24 -19 87 -41 139
-49 71 -10 109 -30 156 -82 38 -40 82 -68 111 -69 77 -1 200 -52 230 -95 15
-21 71 -50 123 -63 53 -13 123 -49 156 -81 33 -32 111 -76 172 -99 62 -23 129
-59 148 -81 20 -22 66 -45 103 -52 42 -8 83 -34 108 -70 28 -39 75 -67 147
-88 76 -22 112 -45 128 -80 13 -28 46 -54 78 -61 170 -39 209 -55 237 -98 17
-26 79 -67 138 -91 60 -24 123 -60 142 -81 19 -21 62 -47 96 -58 35 -12 78
-48 97 -80 20 -36 56 -64 90 -72 85 -18 186 -66 186 -88 0 -11 36 -38 79 -61
44 -22 89 -58 101 -80 12 -22 59 -59 106 -83 46 -23 111 -63 144 -87 33 -24
90 -55 126 -70 36 -14 79 -50 94 -80 15 -30 54 -65 86 -79 32 -13 71 -46 85
-73 14 -27 49 -55 78 -61 83 -20 195 -83 208 -117 7 -18 40 -41 73 -53 34 -12
74 -46 90 -76 15 -31 56 -67 89 -81 34 -13 61 -33 61 -43 0 -37 99 -117 146
-117 26 0 69 -23 96 -52 26 -29 82 -69 124 -91 41 -21 85 -60 97 -85 11 -26
51 -61 87 -78 37 -17 72 -50 80 -73 7 -23 39 -55 71 -72 32 -16 72 -56 88 -88
19 -36 52 -62 88 -70 43 -10 62 -29 76 -77 14 -48 34 -68 88 -84 66 -19 209
-119 359 -250 85 -75 104 -94 268 -265 72 -74 138 -135 148 -135 10 0 28 -22
40 -49 12 -27 50 -63 83 -80 33 -18 74 -58 91 -91 17 -33 52 -65 79 -71 26 -7
58 -37 71 -68 12 -31 44 -67 71 -82 27 -14 54 -42 60 -63 7 -21 47 -59 89 -86
42 -27 83 -67 90 -89 7 -23 39 -55 71 -72 33 -16 59 -40 59 -51 0 -12 74 -97
165 -190 204 -207 314 -331 340 -380 11 -21 45 -65 75 -98 30 -33 61 -85 68
-116 9 -39 34 -65 81 -85 44 -18 74 -49 88 -88 11 -34 42 -69 67 -79 26 -10
60 -42 76 -71 16 -30 53 -67 83 -82 30 -16 61 -49 68 -74 8 -25 44 -79 79
-121 39 -45 70 -108 78 -156 11 -66 23 -84 73 -101 33 -12 74 -47 90 -79 16
-31 57 -71 89 -88 33 -17 60 -45 60 -63 0 -17 30 -60 66 -94 37 -35 82 -104
101 -154 19 -52 60 -111 93 -136 33 -24 60 -57 60 -73 0 -15 32 -52 70 -82 39
-29 76 -77 83 -106 7 -28 42 -79 77 -112 44 -41 69 -87 79 -144 11 -67 28 -92
83 -124 37 -22 68 -54 68 -71 0 -16 36 -65 80 -109 55 -55 80 -96 80 -135 1
-63 14 -89 90 -177 168 -193 210 -256 210 -311 0 -57 36 -107 107 -149 21 -12
41 -61 51 -124 17 -110 49 -166 95 -166 15 0 38 -25 51 -55 13 -30 49 -82 80
-116 34 -38 63 -97 74 -158 14 -74 35 -113 88 -159 54 -48 73 -83 83 -152 9
-67 28 -103 72 -140 47 -39 64 -74 77 -159 14 -85 30 -119 80 -160 46 -38 67
-76 80 -149 13 -70 36 -115 80 -156 52 -48 62 -73 62 -148 0 -89 49 -168 119
-191 15 -5 33 -59 43 -128 13 -97 27 -127 77 -169 52 -43 101 -175 101 -272 0
-4 27 -38 61 -76 41 -47 66 -102 77 -169 10 -64 38 -127 79 -179 46 -58 63
-101 63 -157 0 -106 36 -227 72 -240 47 -19 72 -85 89 -233 13 -118 24 -146
74 -193 46 -42 64 -82 82 -182 13 -71 39 -151 60 -179 69 -94 88 -148 103
-283 11 -101 31 -161 76 -232 49 -76 64 -126 76 -251 12 -134 23 -168 81 -244
64 -84 67 -95 67 -261 0 -174 0 -174 72 -240 73 -66 73 -66 90 -312 14 -201
24 -255 58 -296 69 -87 84 -143 98 -385 12 -201 20 -242 57 -280 75 -81 85
-145 85 -562 0 -394 2 -407 53 -514 77 -164 89 -224 104 -520 13 -261 15 -273
76 -360 78 -111 87 -200 91 -960 3 -460 8 -543 40 -626 25 -66 32 -121 24
-175 -8 -48 -3 -103 14 -144 29 -70 40 -1905 37 -6155 -1 -1686 3 -1727 165
-1753 49 -8 102 -33 127 -60 24 -26 76 -60 116 -77 47 -20 77 -48 85 -80 12
-49 31 -58 209 -97 55 -13 191 -125 302 -250 26 -30 61 -43 117 -43 77 0 143
-40 163 -99 5 -14 57 -37 118 -53 73 -19 125 -47 159 -86 28 -32 70 -64 94
-71 25 -8 63 -39 86 -71 30 -42 67 -63 144 -79 76 -16 121 -41 166 -90 36 -39
96 -76 142 -89 44 -12 101 -44 127 -71 25 -27 73 -55 105 -62 41 -9 66 -30 79
-70 20 -58 33 -65 150 -89 35 -7 80 -31 100 -53 20 -23 80 -63 132 -89 52 -27
95 -61 95 -76 0 -45 56 -77 166 -94 60 -10 112 -30 124 -49 48 -78 65 -90 156
-107 73 -13 113 -35 163 -90 37 -39 76 -72 88 -72 11 0 47 -28 79 -62 41 -44
86 -67 156 -80 71 -13 112 -35 148 -78 28 -32 86 -74 130 -91 44 -18 103 -53
130 -79 28 -25 80 -52 118 -60 49 -10 73 -30 89 -72 22 -58 97 -98 185 -98 45
0 107 -48 266 -205 58 -57 101 -80 184 -95 97 -18 158 -58 158 -104 0 -8 31
-28 69 -44 46 -19 74 -47 83 -81 7 -29 37 -65 67 -81 39 -20 63 -55 81 -120
14 -50 50 -123 81 -161 122 -154 121 -505 -2 -660 -31 -39 -62 -98 -69 -130
-9 -38 -35 -71 -73 -91 -33 -17 -69 -57 -80 -88 -13 -39 -41 -65 -84 -79 -34
-12 -78 -47 -95 -78 -71 -124 -766 -123 -836 1 -32 57 -45 63 -188 86 -59 9
-86 28 -116 79 -23 39 -62 73 -94 80 -30 8 -81 39 -114 71 -33 31 -98 67 -145
79 -61 16 -93 39 -115 80 -24 47 -50 62 -139 81 -75 15 -122 38 -149 72 -21
27 -66 58 -99 70 -34 12 -79 51 -101 90 -33 55 -53 68 -106 68 -109 1 -153 21
-193 90 -27 45 -60 71 -106 81 -37 8 -95 39 -130 69 -35 31 -95 66 -134 79
-48 16 -76 41 -90 81 -18 50 -35 60 -142 81 -95 19 -131 37 -161 79 -22 31
-62 61 -90 68 -32 8 -60 37 -79 82 -26 63 -37 70 -109 70 -106 0 -176 29 -192
79 -9 30 -46 51 -134 75 -82 23 -130 49 -152 83 -18 26 -61 61 -97 75 -35 15
-76 52 -91 83 -19 39 -43 57 -86 60 -167 15 -192 26 -221 95 -20 47 -45 70
-86 79 -31 7 -106 44 -165 82 -58 38 -119 69 -133 69 -14 0 -45 31 -67 69 -27
45 -60 72 -99 80 -33 6 -87 16 -120 23 -38 7 -70 30 -83 59 -54 119 -124 73
-132 -87 -5 -99 -32 -13631 -29 -14844 9 -4231 7 -8664 -4 -8698 -8 -24 -4
-104 9 -178 18 -102 18 -194 0 -384 -13 -137 -26 -304 -28 -370 -3 -66 -18
-142 -33 -170 -22 -39 -31 -194 -41 -700 -12 -681 -17 -716 -109 -824 -46 -55
-49 -74 -49 -293 -1 -189 -8 -250 -40 -320 -22 -48 -40 -124 -40 -169 0 -49
-14 -96 -35 -120 -37 -41 -36 -24 -42 -650 -3 -286 -3 -286 -67 -344 -63 -58
-63 -61 -79 -314 -16 -255 -16 -256 -79 -308 -63 -51 -63 -52 -79 -309 -15
-250 -17 -259 -72 -307 -54 -46 -58 -61 -79 -299 -22 -243 -25 -251 -85 -301
-56 -48 -63 -65 -75 -212 -15 -176 -25 -205 -98 -279 -39 -38 -50 -70 -50
-141 0 -97 -40 -215 -94 -275 -18 -20 -45 -109 -59 -199 -21 -130 -39 -179
-89 -241 -48 -60 -66 -107 -77 -200 -12 -104 -23 -128 -80 -174 -61 -50 -66
-64 -76 -202 -8 -128 -18 -160 -71 -227 -39 -51 -67 -114 -77 -180 -12 -78
-30 -114 -77 -152 -50 -41 -64 -72 -81 -180 -12 -77 -33 -138 -51 -150 -17
-11 -44 -29 -60 -40 -16 -11 -37 -69 -46 -129 -10 -60 -27 -113 -39 -117 -72
-24 -109 -81 -118 -185 -9 -91 -21 -119 -78 -172 -55 -51 -67 -77 -67 -144 0
-50 -12 -91 -32 -107 -111 -90 -128 -116 -128 -195 0 -80 -28 -125 -109 -171
-23 -14 -38 -54 -45 -120 -9 -84 -23 -112 -88 -173 -66 -61 -78 -85 -78 -155
0 -64 -12 -92 -53 -127 -29 -25 -65 -75 -80 -111 -16 -36 -50 -74 -76 -83 -63
-25 -78 -53 -91 -169 -8 -84 -19 -104 -70 -132 -58 -32 -75 -65 -100 -185 -6
-31 -37 -79 -69 -107 -32 -28 -63 -73 -70 -99 -6 -27 -38 -62 -70 -78 -60 -31
-69 -48 -90 -176 -9 -51 -32 -89 -72 -119 -32 -23 -67 -71 -79 -105 -13 -41
-41 -70 -79 -84 -47 -18 -61 -38 -71 -100 -24 -147 -29 -160 -81 -184 -28 -13
-61 -50 -72 -84 -12 -33 -47 -73 -78 -89 -35 -19 -61 -52 -69 -90 -7 -34 -49
-102 -92 -152 -43 -50 -83 -111 -89 -137 -7 -25 -35 -58 -62 -73 -28 -15 -63
-52 -79 -82 -16 -30 -55 -69 -86 -85 -45 -23 -63 -52 -82 -130 -17 -71 -41
-113 -79 -141 -31 -21 -66 -65 -80 -97 -13 -31 -50 -77 -82 -101 -33 -24 -59
-57 -59 -73 0 -17 -30 -48 -67 -70 -37 -21 -77 -61 -89 -88 -12 -27 -49 -63
-81 -79 -32 -17 -64 -53 -71 -81 -8 -33 -37 -61 -80 -79 -52 -21 -71 -44 -82
-95 -8 -37 -49 -104 -90 -149 -42 -45 -82 -102 -89 -125 -8 -24 -40 -57 -71
-73 -31 -16 -63 -47 -69 -68 -7 -21 -44 -62 -82 -91 -38 -29 -69 -66 -69 -83
0 -16 -31 -48 -70 -71 -38 -22 -70 -50 -70 -60 0 -11 -72 -90 -160 -176 -88
-86 -160 -167 -160 -179 0 -13 -31 -42 -69 -64 -38 -23 -75 -59 -82 -81 -7
-22 -43 -53 -81 -69 -43 -18 -72 -46 -80 -79 -7 -28 -38 -63 -69 -79 -31 -16
-62 -47 -68 -68 -7 -22 -44 -57 -82 -80 -38 -22 -79 -63 -91 -89 -12 -27 -43
-58 -69 -70 -26 -12 -61 -48 -77 -80 -17 -32 -52 -64 -79 -71 -27 -6 -68 -43
-90 -82 -23 -39 -64 -79 -91 -89 -27 -11 -60 -38 -72 -62 -13 -23 -52 -54 -87
-69 -35 -15 -82 -47 -103 -71 -22 -25 -87 -66 -143 -91 -61 -27 -109 -63 -117
-87 -7 -23 -38 -54 -69 -70 -30 -16 -66 -56 -80 -89 -15 -36 -48 -67 -83 -80
-32 -11 -68 -43 -81 -71 -13 -27 -39 -55 -60 -62 -20 -6 -65 -42 -99 -79 -35
-37 -102 -81 -149 -99 -47 -18 -100 -54 -117 -80 -17 -26 -58 -54 -93 -61 -44
-10 -71 -33 -94 -82 -18 -37 -45 -68 -61 -68 -16 0 -61 -35 -101 -77 -45 -46
-106 -86 -158 -100 -46 -14 -94 -42 -105 -64 -12 -21 -57 -57 -101 -80 -45
-22 -90 -62 -102 -88 -12 -27 -47 -59 -78 -71 -30 -13 -75 -45 -100 -71 -25
-26 -92 -62 -150 -78 -85 -25 -109 -42 -125 -89 -14 -41 -38 -62 -79 -71 -33
-7 -85 -39 -115 -72 -33 -33 -100 -71 -160 -88 -74 -22 -110 -44 -126 -80 -12
-27 -56 -64 -98 -81 -41 -17 -90 -45 -108 -62 -18 -17 -77 -47 -131 -67 -63
-24 -108 -57 -129 -94 -27 -49 -48 -59 -156 -74 -113 -15 -127 -23 -145 -74
-12 -34 -42 -64 -76 -76 -30 -10 -96 -50 -146 -88 -50 -39 -123 -76 -163 -83
-39 -8 -84 -32 -99 -54 -31 -44 -153 -96 -227 -97 -29 -1 -56 -22 -76 -60 -30
-59 -123 -101 -223 -101 -24 0 -60 -23 -81 -51 -36 -49 -159 -106 -232 -108
-20 -1 -65 -31 -100 -68 -46 -48 -89 -71 -154 -81 -60 -9 -111 -34 -151 -74
-47 -45 -88 -62 -170 -72 -83 -10 -119 -25 -159 -70 -39 -42 -86 -64 -189 -85
-90 -19 -154 -45 -189 -79 -65 -62 -143 -92 -238 -92 -85 -1 -109 -13 -140
-72 -22 -42 -180 -88 -301 -88 -30 0 -78 -26 -117 -64 -56 -54 -84 -65 -187
-72 -105 -8 -127 -17 -163 -66 -55 -73 -130 -98 -298 -98 -131 0 -138 -3 -167
-58 -38 -73 -66 -84 -267 -97 -147 -9 -171 -17 -198 -58 -34 -53 -115 -78
-314 -98 -91 -9 -149 -26 -173 -50 -68 -68 -127 -84 -344 -94 -211 -10 -220
-13 -260 -67 -58 -79 -130 -98 -367 -98 -203 0 -206 -1 -252 -58 -55 -70 -165
-94 -455 -101 -171 -4 -196 -9 -272 -61 -92 -64 -270 -89 -701 -98 -101 -2
-137 -13 -219 -67 -98 -65 -98 -65 -618 -72 -520 -7 -520 -7 -584 -63 -100
-88 -152 -90 -2307 -89 -2126 0 -2123 0 -2223 85 -65 54 -65 54 -650 64 -585
10 -585 10 -651 73 -66 63 -66 63 -386 73 -349 11 -406 24 -457 102 -32 48
-45 52 -188 53 -265 0 -530 33 -549 67 -44 78 -75 88 -321 103 -245 15 -245
15 -306 82 -55 60 -73 67 -170 68 -219 1 -375 32 -440 87 -43 36 -85 52 -138
52 -158 0 -289 38 -341 98 -45 52 -66 60 -210 72 -219 18 -238 24 -277 90 -31
53 -45 58 -196 72 -146 12 -171 21 -235 78 -57 51 -97 68 -191 79 -86 11 -137
30 -190 73 -57 46 -104 62 -221 77 -132 16 -155 26 -200 81 -43 53 -68 64
-168 74 -105 11 -121 19 -155 77 -39 65 -102 88 -248 89 -41 0 -89 23 -144 70
-65 56 -106 73 -206 87 -100 14 -133 27 -163 68 -25 35 -64 56 -121 66 -104
17 -154 42 -199 100 -21 26 -77 55 -133 68 -61 15 -120 46 -154 82 -41 43 -82
62 -156 72 -79 10 -114 28 -162 79 -40 43 -91 73 -148 85 -48 11 -112 43 -142
72 -30 29 -87 61 -125 72 -39 11 -106 47 -148 81 -42 33 -103 66 -135 72 -37
8 -72 35 -96 77 -31 52 -56 68 -123 79 -135 21 -153 30 -184 90 -18 35 -51 62
-88 70 -33 7 -94 37 -136 67 -42 30 -105 67 -142 82 -36 14 -83 51 -104 82
-28 38 -70 62 -137 78 -69 17 -116 44 -159 92 -33 38 -79 69 -102 69 -28 0
-50 22 -69 67 -23 54 -45 71 -124 93 -52 15 -113 47 -135 72 -22 26 -66 52
-98 59 -38 8 -75 39 -107 91 -28 43 -65 78 -85 78 -20 0 -70 31 -111 69 -41
37 -102 74 -134 81 -34 8 -82 43 -112 82 -29 38 -74 74 -100 81 -27 6 -62 37
-78 69 -16 32 -56 71 -88 87 -32 17 -64 49 -71 71 -15 48 -54 70 -155 88 -52
10 -90 34 -127 83 -29 38 -75 75 -102 82 -27 7 -57 34 -67 61 -10 26 -49 61
-87 76 -44 19 -72 47 -80 81 -9 34 -37 61 -81 80 -38 16 -74 47 -81 70 -8 24
-42 55 -77 69 -35 15 -85 51 -113 80 -27 30 -81 70 -120 90 -38 20 -96 64
-129 98 -32 34 -67 62 -77 62 -10 0 -89 70 -174 155 -86 85 -206 200 -267 255
-61 55 -117 116 -124 135 -6 20 -39 49 -71 66 -33 17 -68 53 -78 79 -10 26
-42 63 -70 82 -45 29 -155 126 -220 193 -11 11 -52 53 -92 93 -40 39 -83 93
-96 118 -14 25 -47 54 -74 65 -27 10 -57 41 -67 68 -11 27 -47 63 -80 80 -33
18 -66 54 -73 82 -7 28 -38 64 -70 80 -31 16 -68 50 -81 74 -24 46 -110 154
-241 303 -40 46 -79 108 -87 138 -8 32 -38 68 -71 85 -32 16 -71 57 -89 90
-17 33 -53 69 -80 80 -27 10 -58 41 -69 69 -11 28 -41 60 -67 72 -27 13 -59
46 -72 74 -23 49 -45 79 -222 289 -40 47 -83 123 -96 170 -19 64 -37 88 -76
98 -33 8 -61 36 -80 80 -15 38 -50 78 -76 90 -27 12 -59 49 -73 82 -13 32 -54
94 -90 137 -35 43 -71 105 -78 138 -10 44 -32 69 -79 88 -42 18 -70 46 -78 79
-7 27 -39 69 -72 92 -44 32 -64 69 -83 153 -20 88 -36 116 -81 140 -35 18 -57
45 -57 71 0 23 -32 73 -71 109 -49 46 -75 92 -83 143 -16 103 -40 144 -98 166
-27 10 -57 39 -66 64 -10 25 -45 71 -79 103 -34 32 -67 86 -74 120 -23 116
-32 132 -90 163 -42 21 -59 45 -59 81 0 64 -42 145 -108 206 -29 27 -52 71
-52 98 0 30 -27 75 -69 115 -45 42 -77 95 -89 150 -10 46 -46 112 -78 146 -41
43 -67 99 -83 175 -17 85 -36 122 -80 154 -40 29 -64 72 -81 143 -17 71 -41
113 -80 141 -49 35 -56 55 -63 168 -8 114 -17 137 -83 210 -46 51 -74 102 -74
134 0 35 -24 75 -71 117 -56 52 -74 87 -87 173 -11 65 -31 115 -51 128 -86 51
-98 69 -112 177 -12 85 -31 132 -77 184 -47 54 -62 89 -62 151 0 95 -26 152
-97 210 -43 36 -53 65 -64 186 -11 115 -23 155 -64 198 -70 76 -95 130 -95
210 0 46 -23 103 -69 170 -48 70 -73 132 -82 207 -7 59 -29 130 -48 157 -69
99 -84 146 -100 303 -12 115 -27 171 -56 203 -66 73 -90 135 -105 277 -13 112
-26 149 -77 207 -74 84 -79 104 -88 343 -7 172 -11 187 -71 256 -35 40 -64 79
-64 87 0 152 -48 463 -77 504 -59 83 -67 120 -83 381 -15 255 -30 311 -107
396 -39 42 -44 75 -53 383 -9 308 -14 341 -53 383 -76 84 -87 130 -104 441
-13 218 -27 323 -51 366 -23 43 -29 85 -20 147 8 55 2 129 -18 200 -67 246
-74 336 -74 1010 -1 672 -1 685 -50 839 -74 230 -71 -243 -77 12339 -4 8548
-11 11621 -28 11638 -42 42 -199 2 -246 -64 -24 -34 -60 -59 -85 -59 -103 0
-194 -41 -207 -93 -8 -32 -36 -61 -77 -78 -35 -15 -79 -50 -97 -77 -21 -33
-58 -54 -108 -62 -116 -19 -159 -43 -188 -103 -18 -36 -51 -61 -95 -72 -37
-10 -100 -43 -140 -75 -40 -32 -96 -63 -126 -71 -30 -7 -77 -43 -105 -80 -37
-48 -73 -71 -126 -79 -145 -24 -158 -29 -182 -81 -13 -28 -56 -65 -96 -82 -40
-16 -106 -55 -145 -86 -40 -31 -104 -67 -144 -79 -42 -14 -81 -43 -93 -70 -21
-46 -93 -72 -198 -72 -34 0 -61 -21 -90 -70 -22 -39 -63 -76 -90 -83 -27 -6
-72 -42 -100 -79 -42 -55 -69 -70 -149 -80 -81 -11 -105 -24 -133 -72 -24 -41
-61 -66 -119 -81 -47 -13 -118 -53 -159 -89 -40 -36 -92 -71 -114 -78 -22 -7
-69 -43 -104 -81 -53 -55 -78 -67 -147 -67 -74 0 -88 -8 -125 -70 -24 -40 -63
-76 -93 -83 -29 -7 -91 -43 -138 -79 -48 -37 -119 -72 -157 -80 -49 -9 -79
-29 -99 -68 -33 -64 -54 -74 -189 -92 -73 -9 -108 -25 -130 -60 -70 -107 -375
-108 -490 -1 -28 26 -78 57 -111 67 -33 11 -72 43 -86 73 -14 29 -52 66 -83
82 -31 16 -62 51 -69 78 -6 27 -42 67 -79 88 -59 35 -68 53 -80 148 -7 59 -31
178 -53 265 -39 155 -39 158 -2 220 21 34 45 123 53 199 13 128 19 140 80 176
42 25 71 61 79 97 16 73 145 191 228 210 40 8 73 33 92 70 19 36 57 66 105 81
41 14 107 49 145 79 39 30 97 68 130 85 33 17 81 54 108 82 30 32 88 60 156
76 80 18 119 39 148 80 23 32 58 57 78 57 21 0 61 31 90 68 36 48 78 74 143
91 59 14 114 47 156 92 52 54 81 69 139 69 59 0 89 15 152 80 43 44 87 80 99
80 11 0 50 31 88 68 51 51 93 73 163 83 82 12 98 23 121 79 21 51 43 68 98 78
38 8 96 36 129 63 32 27 90 63 129 79 38 16 89 56 112 88 33 46 63 63 137 74
71 11 109 30 155 81 34 37 73 67 88 67 14 0 55 33 92 72 50 55 90 77 163 90
69 13 110 35 146 78 36 43 77 65 145 77 103 19 147 47 165 104 7 20 31 43 54
50 23 8 71 43 108 79 50 50 89 69 167 80 85 12 107 23 131 71 16 31 49 62 72
70 23 7 75 43 115 79 40 36 112 77 159 91 52 16 102 48 126 81 29 41 67 61
149 78 79 17 119 37 142 72 17 26 69 65 114 86 231 104 269 259 242 992 -20
532 -10 6753 11 6900 9 66 35 182 57 258 35 123 39 200 40 750 2 865 24 1096
121 1267 32 55 39 123 48 455 10 402 23 475 100 556 40 42 45 75 54 333 10
285 10 285 85 368 75 83 75 83 75 338 0 237 4 261 48 326 64 94 92 202 92 359
1 129 14 167 121 360 28 51 39 109 39 214 0 164 21 233 94 310 45 47 54 79 66
229 13 166 17 175 82 229 67 54 68 58 75 237 6 159 12 185 52 216 66 52 91
111 91 212 0 114 26 181 101 267 43 49 59 88 59 142 0 72 32 148 106 250 20
27 40 84 46 127 6 42 14 105 19 139 6 35 40 94 79 134 61 63 70 85 70 171 0
88 7 104 67 149 60 46 68 65 78 174 9 100 24 139 81 212 38 49 76 122 83 162
8 40 45 109 83 153 37 44 68 92 68 107 0 15 36 63 80 106 79 77 80 81 80 221
0 133 4 147 61 200 35 32 73 98 90 155 16 54 56 126 89 161 33 34 60 80 60
102 0 22 26 69 57 105 73 84 103 142 103 198 0 26 33 75 80 118 62 57 80 89
80 138 0 49 20 84 80 144 45 45 80 99 80 124 0 24 31 82 68 129 37 47 73 107
80 133 6 26 42 70 79 98 56 43 70 69 81 153 11 80 25 108 68 136 69 44 83 64
84 121 0 33 17 52 60 67 68 24 100 70 100 144 0 62 126 225 265 343 22 19 35
58 35 108 0 106 16 142 74 163 26 10 61 49 76 87 19 44 47 72 81 80 33 9 61
37 79 78 14 35 50 86 79 113 28 27 62 83 74 124 13 42 53 104 90 137 37 34 67
74 67 90 0 16 35 52 79 79 46 29 81 68 85 94 4 29 24 50 56 57 54 13 99 83
100 155 0 41 126 198 264 328 31 29 56 67 56 85 0 17 26 45 59 61 32 17 64 49
71 71 7 22 38 54 69 69 31 16 75 61 98 100 23 39 55 71 72 71 17 0 48 34 69
76 21 41 107 147 190 235 84 87 220 231 303 319 291 310 688 702 997 985 51
47 110 85 132 85 21 0 55 25 74 55 20 30 85 102 146 159 60 57 130 125 155
150 164 166 235 228 290 252 31 13 66 46 79 74 12 27 30 50 40 50 10 0 61 41
114 90 59 55 115 90 145 90 59 0 137 52 137 91 0 16 34 50 75 76 41 26 130
103 197 170 94 93 143 126 210 141 49 11 97 35 108 55 11 19 40 53 66 76 25
22 74 69 110 104 35 34 83 68 106 75 23 7 66 40 95 72 35 40 80 64 135 73 64
10 109 39 205 131 68 65 177 144 244 176 74 36 131 78 144 107 14 31 45 52 88
61 37 7 107 44 155 82 48 39 108 70 133 70 26 0 67 26 96 59 27 33 98 81 156
108 59 26 125 67 147 92 21 24 69 57 106 72 37 16 93 50 124 76 31 26 92 53
136 60 64 10 88 27 121 83 38 64 49 70 135 70 80 0 102 10 156 66 34 37 92 77
127 89 36 13 99 51 141 84 56 45 107 66 185 75 88 10 121 25 169 77 47 50 81
66 158 74 81 9 110 23 160 81 48 55 82 73 154 83 65 9 108 30 148 71 43 45 81
61 166 72 88 11 124 27 176 79 42 42 94 70 146 79 44 7 113 39 153 71 80 63
97 70 232 88 61 8 123 36 180 79 67 52 114 70 207 80 98 11 129 24 174 73 29
32 57 59 61 59 72 0 266 55 335 95 49 29 155 64 235 78 100 17 167 42 217 80
63 48 97 57 265 68 195 13 263 29 263 61 0 43 110 82 271 97 149 14 180 23
220 67 51 54 76 62 315 93 85 12 189 38 232 60 102 52 320 101 450 101 80 0
135 15 222 61 120 65 317 98 582 99 107 0 130 7 182 57 70 67 119 75 576 94
280 12 305 16 377 65 82 56 251 75 775 91 176 5 224 14 282 50 92 56 337 82
806 84 198 1 375 8 394 15 44 18 1896 8 2536 -13z"/>
<path d="M33320 80006 c-27 -5 -75 -33 -106 -62 -65 -62 -229 -76 -1151 -94
-507 -10 -507 -10 -576 -70 -38 -33 -79 -61 -93 -62 -13 -1 -215 -8 -448 -15
-423 -13 -423 -13 -480 -67 -85 -81 -147 -96 -400 -96 -226 0 -232 -1 -297
-58 -80 -70 -196 -97 -439 -101 -158 -3 -186 -9 -230 -50 -81 -75 -121 -87
-331 -102 -166 -12 -208 -22 -255 -61 -68 -57 -173 -88 -303 -88 -88 0 -108
-9 -176 -75 -77 -75 -77 -75 -288 -82 -209 -7 -211 -7 -244 -65 -36 -64 -122
-98 -250 -98 -56 0 -99 -17 -156 -62 -79 -63 -178 -97 -286 -98 -35 0 -80 -20
-113 -52 -60 -57 -161 -87 -302 -88 -52 0 -104 -11 -115 -25 -12 -14 -37 -46
-56 -71 -27 -35 -62 -49 -151 -58 -102 -10 -120 -19 -145 -69 -17 -31 -32 -57
-35 -57 -300 -8 -382 -155 -186 -338 28 -27 57 -79 64 -115 7 -39 37 -88 71
-117 36 -29 70 -87 88 -146 17 -57 53 -119 89 -151 33 -29 60 -66 60 -82 0
-16 31 -53 69 -82 50 -38 73 -74 82 -126 23 -146 30 -160 99 -200 38 -23 70
-55 70 -71 0 -17 32 -54 70 -83 60 -46 70 -65 70 -137 0 -97 42 -167 105 -176
30 -4 50 -27 63 -72 11 -41 40 -77 75 -96 34 -17 61 -51 68 -83 30 -148 43
-176 92 -200 32 -15 64 -58 85 -112 18 -48 55 -108 83 -134 27 -25 59 -81 70
-123 14 -51 39 -85 77 -105 40 -21 61 -50 70 -97 7 -37 40 -93 73 -125 33 -31
70 -92 83 -134 13 -43 47 -95 79 -117 37 -27 59 -64 68 -114 18 -115 44 -163
99 -184 28 -11 60 -43 71 -73 11 -29 47 -84 80 -121 32 -37 59 -90 59 -118 0
-71 34 -127 91 -148 26 -10 61 -50 77 -88 16 -38 47 -79 70 -91 37 -20 59 -73
91 -221 22 -100 187 -173 275 -122 41 23 106 42 146 42 55 0 89 16 145 71 78
76 92 81 284 98 85 7 143 24 170 49 70 64 128 84 274 96 120 10 152 21 219 78
69 58 97 67 239 79 131 12 177 25 253 76 87 57 108 62 328 72 205 10 243 17
292 56 96 78 147 89 446 104 254 13 305 22 409 69 136 61 193 68 737 90 250
10 405 25 419 39 13 13 62 23 110 23 48 0 107 11 131 24 24 14 118 25 208 25
283 2 251 -313 263 2555 5 1356 11 2506 11 2555 3 126 -92 165 -308 127z"/>
<path d="M35510 79864 c-109 -19 -110 -23 -111 -1124 -2 -1254 -10 -1664 -38
-1830 -13 -78 -23 -299 -21 -500 2 -286 -4 -375 -29 -434 -36 -86 -39 -213
-11 -389 18 -106 15 -134 -19 -210 -31 -67 -40 -131 -40 -277 -1 -312 -48
-288 610 -300 560 -11 560 -11 669 -69 103 -54 127 -58 380 -65 650 -16 787
-32 881 -97 83 -57 95 -59 387 -72 166 -8 317 -14 336 -15 19 -1 67 -30 106
-65 64 -56 90 -64 251 -79 138 -13 201 -29 269 -69 61 -36 140 -59 245 -72
126 -15 169 -30 231 -80 69 -55 195 -89 358 -96 8 -1 40 -29 71 -62 43 -46 81
-64 146 -71 49 -6 122 -20 163 -32 131 -39 256 45 256 171 0 41 21 78 69 123
38 36 75 88 82 116 7 30 36 60 69 74 58 24 100 104 100 191 0 26 30 74 70 112
39 36 70 82 70 101 0 20 30 70 68 111 37 41 79 113 93 160 18 59 44 96 89 122
41 25 68 59 76 97 6 33 44 98 83 145 39 46 71 102 71 122 0 21 25 54 55 73 71
46 78 57 93 150 9 52 36 102 82 148 39 38 70 88 70 111 0 24 36 82 80 129 44
48 80 106 80 129 0 22 32 70 71 106 49 45 78 94 91 154 11 49 46 116 77 149
31 33 63 80 70 105 8 25 40 59 71 75 57 30 66 46 90 163 7 35 43 95 81 134 38
39 69 85 69 101 0 17 27 45 59 62 73 37 101 86 101 175 0 52 16 82 70 130 39
34 70 78 70 99 0 20 26 68 57 106 184 225 144 342 -124 362 -147 10 -165 16
-212 72 -41 49 -71 63 -161 73 -95 10 -118 22 -167 82 -52 65 -66 71 -164 71
-125 0 -200 25 -269 89 -35 32 -86 51 -169 61 -99 12 -129 25 -180 80 -56 60
-75 66 -220 80 -147 13 -164 19 -222 82 -59 65 -68 68 -204 68 -175 0 -234 21
-273 96 -30 58 -33 59 -238 68 -199 9 -211 12 -290 75 -78 63 -94 67 -296 80
-217 14 -219 15 -278 110 -16 25 -68 34 -249 41 -275 12 -297 17 -361 90 -50
56 -50 56 -400 67 -192 6 -353 12 -356 12 -3 1 -35 31 -72 68 -67 66 -67 66
-435 79 -430 15 -473 22 -547 86 -52 45 -73 48 -298 50 -245 2 -525 9 -962 26
-132 5 -276 3 -320 -4z"/>
<path d="M23840 77206 c-16 -5 -52 -36 -80 -69 -40 -46 -72 -60 -157 -71 -95
-11 -113 -20 -148 -79 -21 -37 -59 -72 -84 -79 -25 -6 -65 -37 -88 -68 -31
-43 -69 -63 -151 -80 -93 -19 -116 -33 -150 -91 -22 -38 -54 -69 -71 -69 -17
0 -67 -32 -110 -72 -55 -49 -106 -75 -163 -83 -70 -9 -87 -21 -111 -78 -15
-37 -41 -67 -57 -67 -17 0 -65 -31 -107 -70 -43 -38 -108 -76 -145 -83 -98
-18 -137 -43 -159 -99 -10 -28 -44 -59 -76 -70 -31 -11 -76 -46 -100 -78 -26
-36 -74 -67 -123 -80 -49 -13 -97 -44 -123 -80 -24 -32 -68 -64 -99 -70 -35
-8 -71 -38 -96 -81 -22 -38 -50 -69 -62 -69 -12 0 -86 -63 -165 -141 -79 -77
-181 -158 -227 -178 -47 -20 -94 -55 -106 -77 -12 -22 -61 -56 -110 -74 -60
-23 -92 -49 -100 -80 -7 -28 -36 -54 -73 -67 -40 -14 -70 -45 -89 -90 -19 -45
-49 -76 -87 -89 -33 -11 -65 -40 -73 -64 -8 -24 -40 -55 -73 -68 -32 -14 -74
-56 -93 -94 -21 -42 -51 -70 -79 -74 -25 -4 -58 -32 -75 -63 -16 -31 -52 -62
-80 -69 -32 -8 -64 -39 -84 -83 -18 -38 -41 -69 -50 -69 -25 0 -276 -253 -276
-277 0 -12 -26 -36 -59 -52 -32 -17 -64 -49 -71 -71 -7 -22 -44 -54 -82 -69
-38 -17 -77 -51 -87 -79 -11 -27 -41 -64 -67 -81 -26 -17 -58 -54 -70 -80 -12
-27 -49 -63 -81 -79 -32 -17 -68 -58 -80 -91 -11 -34 -31 -61 -43 -61 -26 0
-280 -250 -280 -276 0 -10 -23 -28 -50 -40 -28 -13 -61 -47 -74 -75 -13 -28
-52 -64 -87 -78 -42 -18 -68 -46 -78 -83 -7 -30 -49 -100 -92 -154 -44 -55
-79 -109 -79 -121 0 -12 -36 -58 -80 -103 -44 -44 -112 -112 -150 -150 -39
-39 -70 -82 -70 -96 0 -14 -32 -44 -71 -67 -128 -76 -97 -216 56 -253 86 -21
126 -43 157 -86 22 -32 55 -58 72 -58 17 0 60 -33 97 -72 50 -55 90 -77 163
-90 69 -13 110 -35 146 -77 36 -43 75 -64 140 -74 66 -10 106 -31 152 -81 34
-37 95 -77 135 -88 39 -11 98 -42 131 -69 32 -28 89 -60 126 -73 36 -12 94
-47 129 -77 35 -30 98 -66 140 -80 42 -13 105 -55 140 -92 44 -48 80 -67 123
-67 85 0 164 -33 164 -68 0 -38 77 -92 130 -92 23 0 90 -31 150 -70 59 -38
138 -75 175 -82 37 -7 103 -43 146 -79 43 -36 108 -72 144 -79 36 -8 98 -40
138 -71 40 -31 97 -63 127 -71 32 -8 71 -41 94 -80 32 -54 55 -68 128 -79 59
-9 118 -37 171 -81 44 -38 102 -68 128 -68 68 0 144 -39 178 -91 16 -25 56
-51 89 -59 33 -7 100 -44 150 -82 50 -38 119 -74 154 -81 43 -9 75 -34 102
-80 34 -57 54 -68 140 -79 75 -10 114 -28 151 -70 28 -31 93 -71 145 -88 53
-17 111 -49 130 -70 104 -115 407 -148 440 -48 11 35 50 90 85 124 36 33 65
77 65 97 0 21 36 81 80 135 44 53 86 119 93 145 6 27 37 62 68 78 37 19 64 54
77 100 11 39 51 107 91 150 39 44 71 92 71 108 0 16 36 70 80 121 44 51 80 99
80 108 0 9 23 26 50 38 28 13 61 48 74 79 14 30 88 127 167 215 78 88 160 187
181 220 21 33 62 81 92 106 30 25 59 62 66 83 6 20 37 47 68 60 31 13 67 45
78 71 12 26 46 63 75 82 29 19 61 56 71 82 10 26 44 63 77 82 32 18 68 54 80
79 11 25 43 55 72 65 28 11 66 47 85 80 19 33 42 60 51 60 9 0 55 38 103 85
113 112 261 217 390 275 17 8 42 38 57 69 15 30 56 67 91 82 35 14 75 49 88
78 13 28 35 51 50 51 15 0 56 36 92 80 35 44 76 80 91 80 15 0 69 35 121 78
52 43 125 84 161 91 47 9 77 32 107 82 22 38 55 69 73 69 168 0 274 283 149
398 -44 40 -80 82 -80 94 0 12 -23 43 -52 70 -63 58 -108 141 -108 198 0 23
-36 77 -80 120 -44 43 -80 89 -80 102 0 13 -31 58 -70 101 -42 46 -70 98 -70
128 0 76 -32 122 -100 146 -34 12 -60 35 -60 54 0 19 -36 88 -80 154 -44 66
-80 135 -80 154 0 19 -31 63 -70 98 -38 35 -75 88 -81 118 -21 100 -48 145
-99 169 -28 12 -50 39 -50 61 0 21 -27 65 -60 98 -74 74 -91 106 -108 202 -10
56 -29 83 -74 106 -34 18 -73 60 -88 96 -15 35 -45 80 -67 100 -41 37 -71 102
-92 199 -7 32 -33 65 -61 77 -26 13 -57 49 -69 82 -11 32 -47 89 -80 127 -33
37 -69 101 -80 143 -12 47 -47 96 -91 131 -38 31 -70 67 -70 80 0 13 -31 63
-69 110 -38 48 -79 118 -91 155 -13 38 -49 87 -81 110 -45 32 -59 57 -59 109
0 98 -32 167 -89 193 -28 13 -56 40 -62 61 -7 20 -57 82 -111 137 -96 95 -140
113 -218 85z"/>
<path d="M44625 77102 c-47 -42 -85 -96 -85 -118 0 -27 -20 -47 -60 -61 -65
-23 -100 -88 -100 -184 0 -40 -19 -76 -60 -112 -32 -29 -65 -72 -72 -95 -8
-23 -42 -76 -78 -117 -35 -41 -74 -110 -87 -154 -14 -47 -48 -96 -83 -121 -37
-27 -67 -72 -81 -123 -12 -45 -47 -106 -78 -134 -31 -29 -67 -87 -80 -128 -13
-41 -37 -75 -52 -75 -38 0 -82 -74 -97 -164 -8 -44 -34 -90 -62 -112 -27 -21
-60 -64 -73 -96 -14 -32 -54 -91 -89 -131 -38 -43 -69 -105 -77 -154 -11 -64
-29 -89 -82 -121 -55 -32 -71 -57 -81 -123 -8 -50 -40 -113 -81 -162 -37 -45
-67 -94 -67 -110 0 -15 -31 -46 -68 -68 -53 -31 -73 -61 -91 -134 -14 -54 -53
-125 -92 -169 -38 -42 -69 -89 -69 -106 0 -16 -31 -42 -69 -58 -65 -27 -69
-36 -83 -151 -12 -108 -20 -126 -70 -152 -42 -22 -64 -53 -80 -117 -21 -86
-118 -227 -235 -343 -59 -57 -73 -96 -66 -173 3 -35 159 -150 309 -229 45 -23
97 -62 117 -85 19 -24 61 -53 95 -64 33 -12 77 -51 99 -87 29 -49 58 -69 115
-80 49 -9 109 -44 162 -93 47 -43 99 -78 115 -78 17 0 44 -26 60 -59 17 -32
56 -71 86 -85 30 -15 66 -51 81 -81 14 -30 48 -60 76 -67 27 -7 63 -39 80 -72
17 -32 61 -72 98 -87 37 -16 73 -46 79 -67 7 -22 51 -62 97 -89 46 -27 147
-114 224 -192 77 -79 200 -204 273 -277 84 -86 137 -157 146 -198 9 -43 35
-76 82 -104 38 -22 69 -54 69 -71 0 -17 35 -53 77 -79 43 -27 83 -71 90 -97 7
-27 34 -58 62 -71 27 -12 63 -49 80 -83 17 -33 50 -70 73 -82 22 -12 58 -63
80 -113 22 -51 65 -122 97 -158 32 -36 63 -84 71 -107 7 -23 38 -55 70 -71 37
-19 62 -51 71 -93 7 -34 44 -93 80 -130 37 -37 77 -102 89 -146 13 -49 43 -95
81 -121 41 -30 59 -59 59 -98 0 -101 39 -178 101 -200 41 -14 59 -33 59 -64 0
-116 211 -235 267 -150 17 27 58 54 91 61 32 8 98 43 145 80 48 36 121 72 163
80 45 8 108 41 153 82 45 41 97 69 127 69 74 0 156 35 216 92 29 28 100 63
158 78 58 15 129 51 159 79 29 28 98 64 153 81 55 16 122 52 148 80 28 30 80
56 125 63 45 7 111 40 156 78 44 36 105 71 136 78 32 7 79 35 105 63 25 27 86
59 134 71 48 13 122 52 165 88 46 38 112 71 160 79 47 8 111 39 147 71 36 32
109 67 162 79 60 13 125 47 170 88 46 41 104 71 153 79 44 7 97 31 119 55 48
53 118 89 208 105 42 8 90 37 120 73 38 45 77 65 160 80 78 15 121 35 151 73
30 38 69 56 150 69 90 14 119 29 166 87 48 60 69 71 137 71 66 0 92 12 143 68
48 52 90 73 176 91 82 17 123 37 145 71 17 26 56 59 87 74 93 45 81 192 -21
246 -42 22 -80 60 -87 86 -6 25 -37 58 -68 74 -31 16 -62 50 -70 75 -8 25 -49
83 -92 130 -42 46 -77 98 -77 114 0 17 -30 65 -66 106 -36 41 -76 100 -89 129
-13 31 -46 60 -73 67 -34 9 -57 35 -72 79 -14 43 -42 74 -80 90 -32 13 -64 41
-71 62 -6 21 -42 61 -80 90 -37 28 -73 70 -80 91 -7 22 -39 50 -72 61 -38 13
-68 44 -88 91 -17 40 -143 183 -295 333 -146 144 -294 304 -329 355 -36 51
-98 114 -140 140 -41 25 -144 114 -228 197 -84 82 -188 180 -230 216 -42 36
-96 84 -119 107 -96 94 -113 110 -188 180 -43 41 -95 79 -116 86 -21 6 -48 34
-60 60 -12 27 -46 64 -74 83 -29 19 -65 59 -81 91 -17 31 -52 62 -80 69 -28 7
-64 39 -81 72 -18 34 -62 72 -104 90 -41 17 -100 52 -131 79 -32 27 -88 61
-124 76 -36 15 -76 46 -88 69 -12 23 -49 55 -81 72 -33 17 -73 56 -89 88 -16
32 -52 63 -80 70 -32 8 -61 37 -79 79 -22 55 -44 71 -118 90 -50 12 -116 44
-147 70 -31 26 -82 60 -113 76 -31 16 -67 51 -81 78 -13 27 -54 59 -90 70 -37
13 -81 48 -103 84 -31 50 -55 65 -131 76 -77 12 -100 25 -132 80 -22 36 -66
75 -98 86 -32 12 -59 30 -59 42 0 48 -82 101 -155 101 -87 1 -103 10 -151 85
-23 37 -63 62 -124 77 -49 12 -113 45 -143 73 -30 28 -84 63 -120 78 -37 15
-80 54 -97 86 -26 51 -46 62 -134 73 -71 10 -117 29 -147 61 -59 64 -85 60
-184 -31z"/>
<path d="M34180 73025 c-16 -5 -62 -31 -102 -58 -87 -58 -375 -83 -1166 -100
-511 -10 -542 -15 -638 -92 -53 -42 -79 -45 -405 -52 -349 -7 -349 -7 -389
-63 -53 -74 -174 -100 -469 -100 -227 0 -227 0 -267 -67 -43 -73 -115 -93
-339 -93 -93 0 -120 -9 -176 -58 -69 -60 -210 -102 -347 -102 -57 0 -92 -15
-138 -59 -65 -62 -89 -71 -253 -90 -72 -8 -116 -27 -160 -69 -49 -47 -86 -61
-190 -72 -106 -12 -140 -25 -189 -75 -68 -68 -143 -95 -265 -95 -74 0 -88 -8
-124 -70 -35 -59 -53 -70 -111 -70 -101 0 -165 -30 -195 -92 -15 -30 -54 -65
-88 -76 -33 -12 -92 -46 -130 -75 -38 -30 -102 -60 -143 -67 -56 -11 -84 -31
-115 -82 -33 -57 -51 -68 -109 -68 -104 0 -165 -30 -180 -90 -9 -34 -36 -62
-79 -80 -35 -15 -77 -50 -92 -78 -15 -29 -51 -55 -84 -61 -31 -6 -84 -16 -117
-23 -37 -7 -71 -31 -87 -63 -15 -28 -58 -66 -95 -83 -44 -21 -70 -49 -75 -79
-4 -30 -27 -53 -65 -67 -33 -11 -72 -46 -88 -77 -16 -31 -50 -62 -75 -70 -25
-8 -77 -47 -115 -87 -39 -39 -115 -103 -168 -142 -53 -38 -176 -146 -273 -238
-97 -93 -190 -177 -208 -186 -17 -10 -50 -56 -74 -102 -23 -46 -103 -142 -178
-214 -75 -71 -150 -159 -167 -194 -17 -35 -50 -69 -74 -77 -23 -7 -54 -43 -70
-80 -15 -37 -47 -78 -70 -90 -23 -12 -54 -52 -69 -89 -16 -37 -64 -108 -109
-159 -44 -52 -80 -110 -80 -131 0 -22 -24 -49 -55 -64 -34 -16 -64 -53 -77
-96 -16 -48 -42 -77 -85 -94 -54 -22 -63 -38 -75 -124 -10 -75 -28 -112 -78
-159 -35 -34 -70 -90 -77 -125 -7 -35 -43 -101 -80 -146 -37 -45 -74 -102 -82
-127 -7 -25 -40 -59 -71 -75 -47 -24 -60 -47 -70 -125 -7 -52 -14 -108 -17
-125 -2 -16 -29 -42 -59 -56 -63 -30 -94 -94 -94 -190 0 -48 -16 -77 -62 -116
-53 -43 -65 -68 -73 -160 -8 -88 -22 -121 -76 -178 -49 -52 -71 -99 -87 -187
-14 -78 -42 -142 -83 -195 -51 -64 -64 -101 -70 -198 -8 -124 -44 -218 -114
-294 -29 -32 -44 -85 -53 -183 -10 -102 -27 -159 -68 -221 -50 -75 -91 -253
-93 -406 -1 -19 -28 -66 -61 -103 -55 -63 -62 -88 -80 -276 -17 -181 -27 -217
-80 -290 -56 -78 -60 -96 -60 -260 0 -230 -41 -438 -105 -538 -47 -73 -52
-103 -64 -379 -13 -287 -17 -305 -76 -410 -62 -110 -62 -110 -67 -560 -7 -579
-30 -792 -102 -960 -56 -130 -56 -130 -52 -1152 4 -1116 5 -1123 127 -1189 54
-29 65 -25 145 48 46 43 103 72 153 80 59 10 93 31 132 83 46 59 66 70 133 70
66 0 92 13 158 80 44 44 88 80 98 80 10 0 46 27 79 59 33 33 98 69 143 81 45
13 113 53 151 91 46 47 87 69 126 69 89 0 159 34 184 88 12 27 47 59 77 72 30
12 73 48 97 80 31 42 71 63 154 82 83 19 121 39 151 81 23 32 49 57 60 57 10
0 64 31 118 68 55 38 131 79 169 92 43 14 83 48 109 91 34 58 52 69 110 69 97
0 166 30 182 79 7 23 46 56 86 72 41 17 97 52 124 78 28 25 86 57 130 71 44
13 108 54 141 89 46 48 87 69 155 79 75 12 104 28 146 83 29 38 65 69 80 69
15 0 62 30 103 67 42 38 108 73 150 81 51 10 90 34 126 81 28 37 72 72 98 79
26 6 84 43 130 81 46 38 114 75 151 82 45 9 86 36 120 81 43 56 65 68 127 68
83 0 119 22 170 105 19 30 51 55 72 55 21 0 64 22 97 50 32 27 103 68 156 91
54 23 118 67 143 98 33 42 69 60 140 71 106 15 141 37 167 104 10 27 34 46 56
46 22 0 64 31 93 69 41 55 74 73 161 91 87 18 114 34 137 79 22 41 53 62 120
79 49 12 119 48 155 79 37 32 95 72 130 90 36 19 74 51 86 72 14 27 58 47 140
63 103 20 124 32 159 91 22 37 53 67 70 67 16 0 61 27 99 61 38 33 111 75 161
92 54 18 111 55 135 88 32 43 70 63 149 80 81 16 116 36 148 80 23 33 58 59
79 59 20 0 64 35 98 77 51 65 76 79 155 88 70 8 107 26 151 73 32 34 65 62 74
62 8 0 67 41 131 90 64 50 128 90 143 90 15 0 63 32 105 70 60 54 95 70 153
70 63 0 89 14 150 80 41 44 88 80 106 80 18 0 63 27 101 60 38 33 102 74 143
91 42 18 104 63 140 100 54 58 79 69 150 69 71 0 95 11 149 70 35 39 74 70 86
70 13 0 47 31 76 69 41 54 75 74 162 93 79 18 120 40 148 79 24 34 65 59 111
68 42 8 106 45 155 90 46 42 111 82 146 90 35 7 79 31 98 53 20 21 83 53 140
69 83 24 110 43 129 89 13 32 41 64 62 71 20 6 73 41 117 78 43 36 111 72 150
79 47 9 87 36 121 80 32 42 80 75 135 91 47 13 112 50 145 80 107 100 455 95
540 -7 22 -27 90 -71 150 -97 61 -27 123 -64 138 -83 16 -19 60 -47 97 -63 38
-16 94 -56 125 -89 34 -37 76 -60 108 -60 33 0 92 -35 167 -100 63 -55 131
-114 151 -131 46 -40 106 -64 199 -79 51 -8 89 -30 118 -70 25 -33 81 -71 132
-89 48 -16 119 -57 157 -90 38 -34 83 -61 99 -61 17 0 49 -31 71 -70 36 -60
54 -71 144 -83 67 -9 118 -29 149 -60 26 -26 76 -62 111 -80 35 -18 96 -58
134 -89 39 -31 106 -69 150 -84 50 -17 90 -47 105 -79 20 -41 49 -57 136 -75
80 -17 119 -37 142 -72 18 -28 63 -63 100 -78 37 -15 67 -37 67 -49 0 -50 82
-101 163 -101 67 0 94 -12 145 -66 34 -36 103 -81 154 -100 50 -19 117 -62
148 -94 32 -33 71 -60 87 -60 16 0 62 -35 101 -77 54 -58 94 -80 157 -90 55
-9 101 -32 129 -63 24 -28 55 -50 68 -50 14 0 67 -36 119 -81 53 -45 132 -91
183 -104 62 -17 98 -40 117 -76 20 -40 52 -58 137 -77 83 -18 121 -39 151 -81
22 -31 63 -62 90 -69 28 -7 64 -39 81 -72 30 -58 47 -66 193 -89 51 -9 88 -32
124 -79 28 -37 75 -73 104 -80 29 -8 98 -45 153 -83 55 -38 117 -69 136 -69
20 0 54 -30 75 -66 33 -55 58 -71 152 -92 92 -20 119 -36 144 -83 17 -34 52
-64 84 -72 30 -7 84 -38 120 -69 35 -31 101 -67 146 -81 46 -14 98 -47 120
-78 25 -36 70 -62 134 -78 52 -13 122 -49 155 -80 33 -31 80 -63 105 -70 25
-8 59 -41 76 -73 33 -64 98 -98 187 -98 34 0 75 -22 111 -59 32 -33 100 -74
151 -91 52 -17 116 -54 142 -82 26 -29 78 -64 115 -79 37 -16 71 -47 77 -69 7
-26 38 -47 93 -61 46 -12 99 -26 117 -31 19 -6 53 -36 75 -67 22 -31 65 -63
95 -70 29 -8 83 -40 120 -71 36 -32 102 -69 147 -83 46 -14 98 -47 120 -78 24
-35 70 -62 126 -76 49 -12 126 -54 173 -93 46 -38 95 -70 108 -70 14 0 39 -31
57 -68 30 -62 43 -70 141 -82 123 -16 139 -24 171 -83 12 -24 57 -54 98 -68
41 -13 109 -50 150 -82 42 -33 103 -69 136 -80 33 -12 73 -47 89 -78 24 -46
48 -59 123 -71 73 -10 111 -31 170 -91 41 -42 87 -77 101 -77 14 0 70 -31 123
-69 53 -38 123 -74 155 -81 36 -8 70 -35 87 -69 22 -41 56 -63 141 -87 62 -17
143 -59 182 -93 38 -33 82 -61 98 -61 16 0 42 -31 58 -69 24 -57 42 -71 105
-81 43 -7 110 -24 151 -39 130 -47 124 -109 129 1346 4 1369 3 1388 -85 1575
-45 95 -49 134 -64 583 -10 311 -24 490 -38 508 -48 58 -88 321 -103 673 -12
289 -22 370 -48 398 -77 87 -115 247 -115 492 0 236 -11 285 -80 364 -38 43
-80 210 -80 318 0 37 -21 98 -49 139 -86 126 -95 155 -111 340 -12 144 -22
187 -54 212 -66 54 -86 112 -86 250 0 128 -3 135 -80 211 -69 68 -80 90 -80
166 0 62 -15 108 -50 156 -80 110 -110 190 -110 298 0 103 -11 121 -128 216
-20 16 -32 57 -32 107 0 68 -12 93 -70 146 -54 49 -70 80 -70 132 -1 113 -21
155 -92 198 -55 32 -68 52 -68 105 -1 109 -21 153 -90 193 -43 26 -71 61 -79
100 -8 34 -40 94 -71 133 -32 40 -68 104 -81 142 -13 41 -45 80 -78 97 -41 22
-59 49 -68 106 -8 51 -36 99 -83 145 -38 37 -70 80 -70 95 0 16 -36 64 -80
107 -44 44 -80 92 -80 107 0 16 -25 48 -55 71 -69 54 -103 115 -104 182 -1 53
-55 118 -99 118 -13 0 -33 26 -44 57 -12 34 -47 69 -89 89 -38 19 -69 44 -69
56 0 18 -151 181 -345 373 -20 19 -56 55 -80 80 -25 24 -61 60 -81 80 -20 19
-70 69 -111 110 -40 41 -85 75 -98 75 -13 0 -38 27 -55 60 -17 32 -58 74 -92
91 -33 17 -70 57 -81 89 -12 36 -42 65 -78 78 -33 11 -59 32 -59 48 0 44 -64
88 -148 101 -53 8 -103 35 -151 82 -40 39 -83 71 -96 71 -13 0 -46 31 -75 68
-28 37 -74 74 -101 80 -26 7 -79 39 -116 72 -38 33 -99 73 -136 88 -37 16 -88
51 -115 79 -30 33 -86 59 -154 73 -80 17 -117 37 -147 79 -27 37 -71 64 -130
79 -50 12 -121 49 -158 82 -40 35 -111 69 -172 83 -75 18 -115 40 -144 81 -30
43 -56 56 -109 56 -86 0 -205 48 -220 89 -14 35 -127 71 -223 71 -46 0 -87 20
-142 70 -68 61 -94 71 -222 83 -139 13 -148 17 -185 80 -40 67 -40 67 -203 68
-236 1 -326 23 -390 95 -52 60 -57 61 -273 69 -228 8 -292 27 -354 105 -32 41
-55 44 -394 56 -359 11 -410 21 -492 95 -35 31 -97 37 -530 46 -709 15 -964
40 -1073 104 -83 48 -1198 94 -1327 54z"/>
<path d="M16640 70226 c-76 -15 -139 -85 -163 -181 -16 -63 -38 -95 -79 -116
-50 -26 -97 -122 -98 -200 0 -12 -26 -47 -58 -77 -32 -31 -68 -94 -80 -142
-12 -47 -53 -123 -92 -170 -38 -46 -70 -101 -70 -122 0 -24 -25 -48 -68 -66
-62 -26 -69 -38 -82 -135 -12 -86 -28 -119 -82 -170 -56 -51 -68 -77 -68 -145
0 -81 -28 -125 -108 -172 -23 -13 -40 -60 -50 -138 -13 -98 -27 -127 -79 -170
-52 -43 -64 -71 -75 -166 -12 -103 -19 -116 -71 -134 -69 -24 -97 -89 -97
-227 0 -87 -9 -113 -60 -165 -39 -40 -66 -95 -77 -155 -10 -52 -32 -114 -50
-139 -18 -25 -46 -64 -63 -87 -16 -22 -39 -90 -50 -150 -16 -84 -35 -121 -83
-161 -55 -46 -64 -67 -71 -170 -12 -172 -19 -195 -82 -261 -51 -53 -59 -80
-72 -228 -12 -150 -20 -176 -73 -230 -49 -50 -62 -86 -77 -206 -10 -79 -33
-165 -50 -189 -17 -24 -47 -65 -65 -90 -21 -30 -39 -110 -48 -227 -14 -165
-21 -187 -76 -244 -55 -57 -62 -79 -73 -233 -16 -237 -26 -274 -90 -346 -51
-59 -57 -83 -77 -322 -21 -249 -24 -261 -83 -322 -61 -63 -62 -68 -77 -336
-12 -219 -22 -280 -51 -312 -64 -71 -90 -185 -93 -412 -1 -121 -10 -274 -20
-340 -34 -227 -41 -360 -21 -390 33 -48 1465 -43 1557 6 46 25 87 31 144 22
44 -7 105 -3 136 9 84 33 1965 68 3778 71 1795 2 1667 -10 1667 161 0 66 12
95 58 139 57 55 57 55 72 477 17 469 25 517 105 600 55 58 55 58 61 391 7 334
7 334 75 398 69 64 69 64 69 250 1 230 25 340 101 454 51 76 59 108 59 224 0
160 24 233 94 289 48 39 53 58 64 244 11 188 17 208 80 298 56 79 71 122 81
231 10 111 22 145 68 193 47 49 59 85 75 216 17 141 25 163 83 212 149 128 93
435 -80 435 -87 1 -103 10 -151 85 -25 39 -52 55 -92 55 -118 0 -183 25 -212
79 -18 35 -55 62 -106 77 -43 13 -112 50 -152 83 -41 32 -100 64 -132 71 -37
8 -72 37 -98 81 -28 48 -55 69 -89 69 -115 0 -178 26 -216 90 -34 58 -50 66
-158 79 -107 12 -123 19 -141 67 -25 64 -52 83 -120 84 -86 0 -171 39 -194 88
-14 32 -50 54 -116 70 -57 15 -127 53 -172 93 -42 38 -90 69 -107 69 -17 0
-49 32 -72 70 -34 59 -53 70 -114 72 -118 3 -168 25 -203 89 -18 32 -46 61
-62 63 -15 2 -71 9 -123 16 -78 10 -101 23 -125 69 -23 45 -52 62 -134 82 -75
17 -124 44 -169 92 -34 37 -81 67 -103 67 -22 0 -77 30 -121 68 -45 37 -113
73 -152 81 -56 10 -77 27 -99 79 -27 66 -84 92 -198 92 -23 0 -70 32 -105 70
-52 56 -79 70 -139 70 -60 0 -89 14 -142 70 -48 52 -92 76 -162 89 -69 13
-110 35 -146 77 -29 35 -84 69 -131 82 -44 12 -106 48 -137 80 -30 31 -84 63
-119 70 -35 7 -85 39 -113 72 -51 61 -128 84 -220 66z"/>
<path d="M51978 69989 c-38 -38 -83 -56 -169 -67 -64 -9 -121 -27 -125 -40
-16 -49 -69 -80 -174 -102 -90 -19 -116 -34 -140 -80 -27 -53 -149 -100 -260
-100 -15 0 -47 -27 -70 -60 -30 -43 -59 -60 -100 -60 -91 0 -156 -33 -189 -98
-27 -52 -44 -61 -146 -73 -95 -11 -126 -25 -177 -79 -47 -50 -85 -69 -160 -79
-81 -12 -105 -26 -138 -78 -35 -54 -56 -65 -150 -76 -90 -11 -117 -25 -161
-78 -46 -57 -68 -66 -168 -75 -107 -9 -117 -14 -142 -74 -29 -69 -72 -89 -189
-90 -55 0 -83 -15 -130 -71 -50 -59 -77 -72 -165 -82 -90 -11 -109 -21 -142
-77 -38 -63 -101 -90 -215 -90 -32 0 -57 -19 -77 -58 -32 -62 -67 -82 -141
-82 -27 0 -89 -35 -140 -80 -75 -65 -108 -80 -173 -80 -63 0 -93 -13 -134 -57
-61 -65 -125 -103 -174 -103 -18 0 -67 -27 -109 -60 -42 -33 -115 -74 -163
-91 -47 -17 -105 -48 -129 -71 -23 -22 -90 -58 -149 -80 -58 -22 -132 -63
-164 -89 -32 -27 -95 -55 -139 -62 -230 -37 -326 -294 -162 -435 43 -37 51
-65 61 -210 10 -150 18 -175 72 -237 54 -62 62 -86 73 -245 12 -161 18 -183
76 -249 76 -86 81 -106 88 -356 6 -182 10 -198 59 -244 62 -57 97 -192 97
-377 0 -72 13 -145 30 -174 108 -185 117 -222 129 -532 11 -294 13 -304 71
-388 60 -86 60 -86 70 -471 10 -372 12 -388 58 -437 64 -68 101 -304 102 -653
0 -202 7 -281 28 -310 28 -38 73 -39 1925 -42 1279 -2 1936 -10 2016 -25 65
-12 159 -22 210 -22 60 0 115 -15 161 -45 70 -45 70 -45 1210 -50 627 -3 1245
-10 1373 -17 319 -16 379 75 233 354 -64 121 -64 126 -75 479 -11 326 -15 360
-54 403 -86 94 -105 161 -112 411 -8 238 -8 242 -71 314 -35 40 -65 79 -66 87
0 8 -8 121 -16 252 -13 226 -17 239 -68 281 -71 56 -94 143 -94 358 0 177 0
178 -70 242 -68 62 -70 68 -70 216 0 184 -20 243 -94 279 -46 21 -57 41 -61
106 -12 190 -29 253 -85 317 -42 48 -64 100 -78 190 -14 90 -38 147 -82 203
-53 67 -65 103 -79 242 -15 144 -23 168 -72 207 -46 37 -58 66 -70 170 -13
107 -26 136 -87 199 -58 59 -72 89 -72 153 -1 121 -20 168 -81 200 -46 23 -59
46 -69 124 -16 125 -41 182 -100 228 -33 26 -52 68 -62 132 -10 68 -31 110
-75 151 -47 44 -63 81 -75 168 -13 92 -27 122 -87 176 -57 52 -71 80 -71 139
0 71 -55 153 -118 174 -15 5 -34 58 -44 118 -10 67 -30 117 -51 129 -81 48
-107 91 -107 176 0 94 -20 128 -105 181 -30 19 -55 52 -55 73 0 22 -26 63 -59
92 -38 34 -63 80 -72 133 -8 50 -34 100 -66 130 -29 26 -71 65 -94 86 -51 49
-50 49 -111 -12z"/>
<path d="M34387 63862 c-24 -7 -63 -36 -86 -65 -28 -37 -68 -58 -126 -67 -132
-20 -147 -27 -172 -81 -13 -29 -59 -66 -108 -87 -47 -20 -102 -56 -122 -79
-21 -23 -70 -52 -110 -65 -40 -13 -100 -52 -133 -88 -45 -48 -84 -68 -157 -78
-79 -12 -103 -26 -130 -74 -18 -33 -55 -64 -83 -71 -27 -6 -77 -43 -110 -80
-43 -49 -83 -72 -140 -80 -58 -9 -100 -33 -153 -89 -40 -43 -89 -78 -110 -79
-20 0 -72 -27 -115 -59 -42 -32 -108 -69 -145 -81 -41 -13 -80 -45 -97 -80
-30 -57 -124 -99 -224 -99 -30 0 -56 -21 -76 -59 -21 -41 -54 -66 -106 -80
-42 -11 -101 -47 -132 -79 -31 -32 -86 -64 -123 -71 -37 -7 -84 -34 -105 -61
-44 -55 -100 -82 -209 -100 -57 -9 -82 -26 -106 -72 -17 -33 -55 -70 -85 -83
-30 -13 -82 -47 -116 -76 -35 -29 -100 -59 -146 -66 -69 -11 -88 -25 -115 -82
-32 -67 -74 -90 -161 -91 -43 0 -161 -86 -306 -223 -60 -56 -100 -76 -179 -87
-84 -11 -107 -24 -131 -70 -16 -32 -52 -61 -84 -69 -31 -7 -83 -45 -116 -83
-43 -50 -82 -73 -140 -82 -55 -8 -99 -32 -141 -77 -46 -49 -85 -69 -157 -80
-81 -12 -103 -25 -136 -82 -22 -37 -54 -67 -70 -67 -17 0 -60 -32 -96 -71 -51
-56 -86 -75 -162 -86 -82 -11 -102 -23 -126 -73 -36 -77 -56 -89 -148 -90 -58
0 -89 -14 -130 -58 -30 -32 -87 -72 -127 -88 -40 -17 -79 -49 -86 -72 -17 -53
-57 -75 -176 -92 -76 -12 -100 -25 -120 -67 -15 -31 -53 -62 -91 -74 -37 -12
-88 -46 -116 -75 -27 -30 -90 -64 -140 -76 -65 -17 -97 -38 -118 -78 -33 -63
-49 -71 -178 -91 -76 -11 -99 -25 -124 -73 -17 -32 -56 -70 -88 -83 -32 -13
-76 -48 -100 -78 -26 -34 -69 -58 -116 -65 -141 -23 -154 -29 -186 -86 -21
-37 -55 -62 -94 -70 -33 -7 -92 -40 -130 -73 -38 -34 -102 -75 -141 -91 -39
-16 -82 -50 -95 -75 -32 -61 -50 -70 -163 -86 -75 -10 -104 -25 -130 -66 -43
-67 -65 -82 -117 -83 -23 0 -65 -27 -94 -59 -29 -32 -90 -70 -135 -84 -49 -14
-96 -46 -116 -76 -45 -71 -58 -77 -181 -93 -94 -12 -110 -20 -129 -70 -14 -37
-47 -67 -96 -87 -41 -16 -80 -48 -87 -71 -15 -49 -84 -80 -176 -80 -80 -1
-106 -17 -131 -83 -15 -38 -39 -56 -94 -66 -44 -8 -103 -42 -146 -84 -40 -38
-97 -75 -128 -81 -35 -7 -68 -33 -86 -67 -30 -58 -48 -68 -175 -90 -53 -10
-91 -34 -127 -81 -32 -42 -80 -75 -126 -88 -40 -11 -95 -42 -121 -69 -25 -28
-77 -56 -115 -63 -50 -10 -80 -32 -108 -78 -40 -69 -84 -89 -193 -90 -53 0
-73 -13 -105 -68 -23 -37 -62 -73 -88 -80 -27 -7 -67 -38 -90 -71 -32 -45 -67
-64 -151 -81 -87 -18 -116 -35 -143 -80 -19 -32 -57 -63 -86 -70 -28 -7 -78
-43 -111 -79 -42 -46 -87 -70 -144 -80 -62 -10 -97 -31 -134 -81 -42 -54 -69
-69 -152 -80 -83 -11 -110 -26 -152 -81 -28 -37 -69 -73 -90 -80 -21 -6 -84
-43 -140 -80 -56 -38 -124 -69 -151 -69 -34 0 -60 -20 -88 -68 -42 -71 -85
-91 -195 -92 -53 0 -73 -13 -107 -70 -22 -38 -53 -70 -68 -70 -15 0 -67 -35
-117 -78 -58 -50 -119 -83 -171 -92 -48 -8 -90 -29 -101 -50 -37 -70 -83 -100
-152 -100 -55 0 -86 -17 -148 -80 -43 -44 -92 -80 -109 -80 -16 0 -46 -25 -65
-55 -47 -73 -59 -80 -166 -95 -107 -15 -119 -22 -165 -93 -19 -30 -54 -60 -79
-68 -26 -8 -75 -39 -109 -70 -36 -31 -101 -61 -147 -69 -66 -11 -92 -28 -123
-80 -40 -69 -84 -89 -193 -90 -53 0 -73 -13 -107 -70 -22 -38 -55 -70 -72 -70
-16 0 -60 -31 -96 -70 -48 -50 -94 -76 -167 -92 -78 -16 -109 -34 -135 -78
-25 -42 -55 -61 -112 -71 -48 -8 -111 -42 -167 -91 -50 -43 -103 -78 -119 -78
-70 0 -93 -90 -92 -355 1 -140 -3 -1002 -8 -1915 -17 -3013 -55 -2782 447
-2775 364 5 3478 7 6294 3 765 -1 1424 0 1465 1 41 1 210 -7 375 -18 394 -27
361 -73 375 523 12 464 24 547 93 655 24 36 37 141 52 397 20 339 22 349 73
393 84 72 97 117 97 328 0 226 16 284 95 352 50 43 56 63 66 224 10 166 15
181 75 240 59 59 64 74 64 194 0 157 22 220 100 293 48 45 60 73 60 139 0 95
28 161 70 161 50 0 90 85 90 191 0 90 8 109 70 169 48 46 75 94 83 146 9 53
29 87 65 110 72 46 81 63 82 151 0 63 13 90 71 142 39 36 80 98 91 139 11 40
46 103 78 139 31 36 63 90 71 120 8 32 38 67 73 85 32 17 68 56 79 87 11 33
44 67 77 81 38 16 66 47 80 91 25 73 120 203 266 357 120 128 110 118 264 269
72 70 130 134 130 142 0 9 25 27 56 39 31 13 72 50 91 83 26 43 63 67 144 90
84 25 117 46 140 90 16 32 55 72 86 88 32 16 72 52 90 80 19 28 48 51 65 51
17 0 66 36 109 79 52 52 104 84 154 93 48 8 98 38 138 81 48 52 79 67 133 67
98 0 131 16 165 82 22 42 49 59 104 68 145 24 164 31 212 83 35 37 80 57 154
69 82 13 118 31 167 84 59 64 72 68 232 80 152 12 175 19 212 66 46 57 143 83
363 98 100 7 140 20 200 67 88 69 217 89 595 92 229 1 244 4 340 61 157 94
1794 94 1929 1 85 -59 91 -60 443 -76 371 -17 410 -24 504 -100 47 -37 90 -47
248 -56 182 -10 192 -13 243 -73 49 -57 65 -63 213 -72 195 -13 223 -23 261
-96 26 -50 42 -58 115 -58 126 -1 173 -19 205 -81 23 -46 47 -59 124 -70 113
-17 165 -41 165 -77 0 -41 68 -92 124 -92 85 0 169 -40 193 -91 15 -34 49 -55
114 -71 50 -13 128 -54 172 -91 45 -37 90 -67 101 -67 11 0 80 -61 153 -136
73 -74 157 -150 186 -169 30 -19 59 -51 66 -73 7 -21 46 -52 87 -68 43 -18
137 -97 224 -189 224 -238 267 -289 300 -355 17 -33 55 -71 85 -86 30 -14 69
-52 85 -84 16 -31 48 -63 72 -71 23 -7 54 -43 70 -80 15 -36 44 -78 65 -93 47
-33 74 -87 91 -179 10 -56 30 -84 83 -115 38 -22 69 -55 69 -74 0 -18 31 -61
70 -97 52 -47 74 -89 88 -162 13 -69 35 -111 73 -141 41 -33 58 -70 71 -151
12 -75 31 -118 62 -142 25 -19 57 -44 71 -56 14 -11 25 -61 25 -110 0 -86 49
-169 98 -169 22 0 54 -95 72 -214 8 -48 39 -117 72 -159 62 -78 68 -97 87
-257 8 -69 26 -113 60 -144 59 -55 65 -74 81 -289 11 -138 22 -181 54 -210 74
-68 93 -136 105 -376 10 -218 15 -244 75 -348 64 -112 64 -112 76 -493 12
-366 14 -384 68 -483 61 -114 96 -421 92 -809 -3 -264 -34 -249 508 -243 409
5 6351 8 7212 4 209 -1 414 -1 455 -1 41 1 183 -3 315 -9 273 -11 343 8 336
92 -2 27 -6 1147 -11 2489 -8 2800 4 2650 -210 2650 -49 0 -84 18 -135 68 -37
38 -84 74 -104 80 -20 7 -51 38 -69 69 -26 47 -51 60 -130 72 -109 16 -187 58
-187 101 0 37 -62 70 -131 70 -35 0 -75 23 -116 68 -35 37 -91 73 -125 81 -34
7 -80 38 -103 68 -29 40 -71 62 -149 80 -85 19 -115 37 -142 82 -19 32 -55 65
-79 72 -25 7 -73 43 -108 79 -46 50 -86 70 -156 81 -81 12 -98 23 -115 72 -13
38 -38 61 -73 69 -165 37 -201 53 -231 98 -18 27 -55 55 -81 62 -27 6 -67 42
-89 79 -30 51 -57 70 -116 79 -150 24 -166 31 -196 90 -24 47 -49 62 -115 73
-60 9 -103 33 -145 79 -33 35 -85 71 -116 79 -32 8 -68 38 -85 70 -22 43 -48
60 -104 69 -149 24 -165 31 -194 89 -20 37 -52 62 -91 71 -34 7 -101 44 -150
81 -49 38 -113 74 -142 81 -29 8 -69 42 -91 78 -30 52 -55 67 -119 76 -50 6
-115 38 -172 82 -51 40 -105 72 -120 72 -15 0 -45 31 -67 68 -34 56 -56 70
-132 81 -128 20 -145 28 -177 92 -22 42 -49 59 -112 69 -50 9 -112 40 -155 78
-40 35 -97 74 -126 87 -30 12 -59 41 -66 63 -13 39 -43 51 -216 90 -32 8 -66
36 -84 70 -17 33 -53 63 -84 71 -30 8 -84 40 -121 71 -36 32 -103 69 -149 83
-58 18 -95 45 -121 89 -39 67 -84 87 -192 88 -52 0 -73 13 -100 60 -19 32 -59
70 -90 82 -31 13 -69 49 -85 80 -22 42 -49 59 -104 68 -149 24 -165 31 -194
89 -25 47 -51 62 -140 81 -84 17 -120 36 -151 80 -22 31 -68 63 -101 70 -43
10 -68 32 -88 80 -25 59 -39 69 -124 80 -141 19 -155 25 -177 74 -11 24 -47
52 -80 62 -33 10 -99 49 -147 86 -48 36 -116 76 -150 87 -35 12 -78 48 -96 80
-25 43 -53 62 -110 71 -145 23 -157 29 -191 89 -18 33 -54 65 -80 71 -25 7
-61 38 -80 70 -33 58 -51 66 -201 90 -56 9 -82 26 -105 69 -24 47 -50 62 -140
81 -83 17 -122 37 -153 79 -23 32 -66 62 -95 68 -36 7 -64 33 -86 79 -31 64
-41 69 -154 82 -107 12 -126 21 -151 71 -17 31 -56 66 -88 77 -31 11 -100 52
-152 92 -52 40 -108 72 -125 72 -17 0 -59 31 -95 70 -47 52 -89 75 -161 88
-71 13 -112 35 -149 78 -28 33 -71 66 -96 74 -25 7 -58 37 -73 66 -24 46 -48
57 -154 74 -108 17 -129 28 -158 80 -22 40 -63 70 -127 93 -51 18 -125 61
-164 95 -39 34 -83 62 -99 62 -16 0 -45 25 -64 55 -47 74 -56 78 -168 93 -76
11 -107 26 -141 71 -23 32 -65 64 -94 71 -28 7 -84 43 -125 79 -40 37 -102 73
-136 81 -37 8 -84 41 -115 82 -32 42 -69 68 -97 68 -106 0 -176 27 -207 81
-17 31 -59 68 -92 82 -34 15 -73 52 -87 82 -19 41 -41 55 -82 55 -95 0 -182
41 -213 102 -23 45 -49 61 -113 71 -52 8 -109 37 -154 77 -40 36 -92 71 -116
78 -23 8 -61 44 -82 80 -35 59 -51 68 -146 77 -87 8 -116 21 -157 70 -28 33
-73 71 -101 85 -27 15 -81 51 -120 81 -38 31 -99 61 -135 69 -41 8 -85 39
-116 80 -38 49 -73 71 -131 80 -56 10 -104 38 -158 92 -42 43 -92 78 -111 78
-19 0 -68 31 -110 69 -42 38 -113 79 -157 90 -50 14 -84 37 -92 61 -15 47 -54
69 -148 87 -38 8 -105 48 -154 93 -48 44 -100 80 -116 80 -17 0 -42 24 -56 54
-27 57 -82 81 -192 84 -53 2 -73 16 -107 72 -28 48 -55 70 -88 70 -64 0 -151
35 -201 82 -51 48 -143 75 -201 60z m366 -1940 c76 -10 114 -28 150 -70 43
-49 68 -58 228 -75 168 -18 183 -24 243 -88 35 -38 78 -69 96 -69 17 0 50 -31
72 -69 23 -38 59 -75 81 -82 22 -7 55 -38 75 -70 19 -32 58 -76 87 -99 29 -22
58 -58 65 -79 6 -21 43 -56 81 -79 38 -22 69 -54 69 -69 0 -16 31 -67 70 -113
38 -45 79 -120 91 -166 12 -46 50 -112 83 -147 51 -53 63 -86 76 -205 8 -79
30 -163 48 -187 18 -25 46 -63 62 -86 84 -117 55 -980 -37 -1090 -39 -45 -53
-85 -53 -146 -1 -143 -33 -239 -99 -293 -34 -27 -61 -69 -61 -93 0 -23 -31
-88 -69 -143 -38 -55 -82 -132 -99 -172 -18 -43 -51 -80 -81 -92 -29 -11 -60
-42 -70 -69 -11 -27 -46 -63 -78 -79 -32 -17 -64 -54 -71 -82 -8 -29 -36 -61
-68 -75 -29 -13 -81 -52 -114 -87 -43 -44 -87 -67 -150 -77 -64 -11 -107 -33
-151 -80 -49 -51 -84 -68 -168 -79 -67 -9 -132 -33 -174 -66 -96 -73 -184 -84
-700 -87 -485 -4 -525 2 -647 100 -28 22 -106 48 -177 59 -101 16 -142 34
-205 91 -43 39 -91 71 -106 71 -15 0 -46 31 -69 69 -30 51 -59 72 -113 82 -75
14 -330 212 -330 257 0 12 -37 67 -81 121 -45 54 -87 124 -93 156 -7 35 -33
68 -66 85 -62 32 -80 66 -80 151 0 76 -38 156 -81 169 -47 15 -58 50 -81 245
-11 100 -36 198 -63 250 -66 125 -64 536 3 685 31 67 51 165 63 300 9 110 18
203 18 206 1 3 28 31 61 61 43 40 65 84 80 164 15 81 35 122 79 159 37 31 64
78 72 124 9 49 38 97 91 145 43 40 78 81 78 92 0 29 208 239 237 239 14 0 68
40 121 90 53 50 124 95 159 102 36 8 81 36 102 67 30 41 65 58 159 76 73 13
149 44 191 75 105 81 873 125 1244 72z"/>
<path d="M34056 60084 c-36 -30 -91 -66 -122 -80 -31 -13 -71 -52 -90 -87 -19
-35 -61 -94 -94 -133 -83 -98 -80 -205 9 -292 35 -34 80 -90 100 -124 27 -46
60 -68 125 -84 48 -13 109 -45 135 -73 62 -66 111 -64 221 9 50 33 107 60 127
60 289 1 302 636 14 737 -32 11 -73 43 -92 71 -51 78 -239 76 -333 -4z"/>
<path d="M47939 60259 c-13 -26 -32 -164 -42 -308 -9 -143 -22 -279 -28 -301
-57 -201 -93 -1789 -43 -1858 17 -23 68 -43 135 -54 72 -11 119 -31 140 -59
17 -23 69 -59 115 -79 46 -21 118 -65 159 -97 41 -32 95 -65 120 -72 25 -8 58
-39 74 -70 25 -47 45 -57 132 -66 90 -8 113 -20 179 -92 41 -46 93 -83 114
-83 21 0 76 -32 121 -70 45 -39 110 -76 144 -83 41 -8 73 -32 92 -68 29 -57
46 -66 169 -89 39 -8 97 -40 130 -72 33 -31 83 -78 110 -104 28 -25 59 -62 70
-81 13 -24 58 -40 135 -51 63 -8 118 -19 121 -24 3 -4 21 -32 39 -60 22 -36
62 -60 129 -77 53 -13 123 -49 156 -80 33 -31 80 -63 105 -70 25 -8 59 -39 75
-71 19 -37 50 -61 90 -68 33 -7 87 -17 121 -24 34 -6 75 -34 94 -62 18 -29 65
-65 104 -81 39 -16 101 -56 138 -88 36 -32 93 -64 125 -70 33 -7 79 -38 104
-69 29 -38 77 -65 146 -82 66 -17 127 -51 173 -96 40 -39 89 -84 109 -102 20
-17 45 -47 56 -67 14 -23 54 -38 120 -45 82 -8 111 -22 160 -78 44 -50 85 -72
154 -85 66 -12 113 -37 153 -80 33 -35 73 -63 90 -63 17 0 54 -30 82 -67 42
-56 73 -72 167 -91 96 -18 122 -33 151 -83 22 -37 58 -65 93 -72 32 -6 84 -41
117 -77 36 -39 87 -70 130 -78 46 -9 86 -34 112 -71 29 -41 70 -64 142 -81 71
-17 114 -42 143 -81 23 -31 68 -67 99 -80 32 -14 76 -50 99 -82 31 -43 57 -57
108 -57 101 0 165 -31 199 -98 23 -45 50 -64 106 -74 92 -16 147 -44 179 -88
14 -19 52 -46 86 -60 34 -14 75 -51 91 -81 19 -37 50 -60 94 -69 112 -22 168
-51 211 -109 48 -64 169 -98 216 -60 39 33 43 6512 3 6565 -22 29 -87 34 -495
43 -744 16 -980 35 -1051 87 -59 44 -59 44 -2149 55 -2535 14 -2445 10 -2610
95 -134 69 -875 79 -911 13z"/>
<path d="M14687 60141 c-1534 -14 -1316 573 -1323 -3551 -7 -3856 -22 -3543
160 -3418 41 29 105 59 141 66 45 9 80 36 113 88 40 60 61 74 114 74 96 0 166
33 187 88 10 27 37 54 60 62 23 7 64 43 93 80 40 54 74 72 160 90 76 16 118
37 140 70 16 25 59 57 94 71 35 14 88 51 117 82 31 32 93 66 147 79 64 16 100
38 114 69 22 47 60 67 210 107 53 15 88 37 96 63 7 22 45 53 84 69 39 17 100
56 137 88 38 33 101 64 149 72 69 12 87 24 104 73 23 65 83 97 182 97 44 0 83
19 124 59 33 32 96 94 140 137 62 61 105 85 192 102 85 18 118 35 138 72 18
33 59 59 129 79 70 20 117 49 147 90 25 34 64 61 86 61 23 0 70 29 105 64 43
43 98 72 173 89 60 14 113 37 118 50 22 67 277 257 344 257 56 0 92 26 174
128 14 18 50 32 80 32 96 1 145 24 175 82 16 32 52 63 78 70 27 6 72 42 100
79 41 53 71 70 145 81 68 10 113 32 163 81 38 37 81 67 95 67 14 0 66 35 116
78 50 43 116 84 148 91 32 7 84 40 115 72 31 32 71 59 88 59 88 0 183 45 211
100 16 31 50 63 75 71 25 7 77 43 115 79 43 40 101 71 150 79 54 10 100 37
143 83 40 43 81 68 113 68 84 0 149 34 177 93 17 35 51 61 93 72 40 10 74 36
88 66 13 28 46 55 74 61 129 28 186 55 216 101 18 27 64 66 104 87 220 115
208 35 192 1338 -8 645 -21 1179 -29 1188 -18 19 -4509 30 -6174 15z"/>
<path d="M33416 55019 c-60 -7 -113 -28 -144 -57 -61 -58 -160 -79 -431 -92
-204 -10 -210 -12 -261 -74 -51 -60 -61 -63 -229 -72 -173 -9 -176 -10 -214
-74 -40 -69 -84 -89 -191 -90 -49 0 -76 -15 -109 -60 -35 -47 -69 -64 -163
-83 -65 -13 -128 -36 -141 -51 -69 -85 -98 -106 -152 -106 -91 0 -155 -33
-168 -87 -8 -31 -35 -57 -73 -70 -33 -11 -70 -44 -83 -72 -13 -28 -53 -69 -90
-90 -37 -22 -67 -54 -67 -71 0 -17 -25 -41 -55 -54 -30 -13 -86 -53 -125 -88
-199 -185 -258 -246 -286 -300 -16 -32 -58 -79 -92 -104 -34 -25 -62 -59 -62
-75 0 -17 -31 -49 -68 -71 -38 -22 -78 -64 -88 -94 -11 -30 -52 -88 -92 -129
-40 -41 -72 -93 -72 -114 0 -22 -36 -75 -80 -119 -62 -61 -80 -94 -80 -146 0
-50 -19 -87 -70 -142 -38 -41 -70 -91 -70 -112 0 -21 -31 -76 -70 -122 -38
-46 -70 -85 -70 -87 -5 -119 -48 -250 -103 -306 -52 -54 -65 -86 -73 -175 -5
-65 -23 -125 -43 -146 -85 -91 -103 -142 -109 -311 -7 -173 -26 -231 -98 -311
-35 -37 -44 -83 -57 -270 -8 -123 -15 -230 -16 -238 0 -8 -30 -48 -66 -89 -65
-74 -65 -74 -78 -565 -7 -271 -24 -681 -36 -912 -13 -231 -24 -694 -24 -1029
0 -554 -4 -620 -39 -723 -37 -106 -39 -161 -34 -801 3 -378 -1 -2709 -8 -5179
-12 -3720 -10 -4499 12 -4529 21 -29 66 -39 215 -49 156 -10 206 -22 288 -68
88 -51 122 -58 299 -62 404 -11 505 -28 557 -93 46 -59 46 -59 402 -77 398
-21 420 -25 491 -92 48 -44 67 -47 330 -51 325 -4 375 -15 460 -97 62 -60 62
-60 393 -77 323 -16 332 -17 407 -74 77 -59 161 -70 654 -87 31 -1 87 -30 128
-66 73 -64 74 -65 359 -79 287 -14 340 -27 425 -104 42 -38 78 -43 410 -55
200 -7 366 -14 368 -15 3 -2 37 -31 76 -66 72 -63 72 -63 266 -51 263 16 465
-20 545 -97 59 -56 66 -58 363 -72 354 -18 407 -27 442 -78 42 -60 123 -79
340 -80 329 -2 458 -22 553 -89 83 -57 86 -57 422 -63 353 -6 379 -12 501
-109 46 -37 79 -42 272 -41 369 0 554 -23 641 -83 99 -68 357 -97 432 -48 51
33 89 749 52 989 -8 57 -3 130 13 194 15 56 26 188 25 292 -2 190 15 725 29
949 5 66 22 156 39 200 44 119 48 12964 4 13059 -16 33 -48 90 -71 126 -34 53
-44 111 -56 325 -12 225 -20 267 -58 315 -69 86 -87 142 -103 330 -11 134 -25
187 -55 220 -68 74 -86 127 -86 245 0 114 -9 129 -128 226 -21 17 -32 57 -32
116 0 76 -11 101 -70 162 -46 48 -75 100 -83 151 -7 45 -40 111 -77 155 -36
43 -75 118 -87 167 -13 52 -43 106 -71 128 -27 21 -62 69 -78 107 -15 39 -52
85 -81 104 -35 23 -60 65 -75 124 -16 62 -43 104 -90 140 -37 29 -68 65 -68
81 0 16 -35 51 -78 78 -44 27 -85 68 -92 90 -7 23 -39 55 -70 71 -31 16 -63
48 -71 72 -7 23 -43 54 -81 70 -43 18 -72 46 -80 79 -7 28 -38 64 -69 80 -31
16 -69 54 -83 84 -20 42 -50 61 -122 79 -60 14 -117 46 -153 85 -31 33 -76 61
-99 61 -23 0 -56 24 -76 55 -46 72 -51 75 -179 104 -83 18 -115 36 -131 72
-24 53 -40 59 -181 79 -74 10 -103 25 -129 66 -19 30 -37 58 -41 64 -4 5 -90
15 -190 22 -172 13 -185 17 -234 75 -48 58 -60 62 -191 65 -227 4 -352 35
-410 102 -48 55 -2010 100 -2404 55z"/>
<path d="M52322 52824 c-30 -57 -31 -18089 -1 -18145 28 -53 47 -49 115 23 51
54 76 64 216 79 140 16 164 25 208 77 38 45 74 63 150 74 77 11 114 29 161 80
43 47 85 70 146 80 53 8 116 38 164 79 55 46 108 69 179 79 84 12 106 23 131
72 18 35 51 62 84 69 152 31 203 52 215 90 7 22 38 53 69 68 31 16 75 61 98
100 23 39 55 71 72 71 16 0 60 26 97 59 36 32 109 69 161 82 78 20 99 36 122
89 17 42 48 72 89 86 34 12 62 32 62 44 0 18 43 67 196 223 15 15 49 47 76 71
111 102 57 14720 -55 14833 -52 51 -108 93 -126 93 -18 0 -68 36 -111 80 -59
60 -94 80 -142 80 -46 0 -79 18 -126 69 -46 51 -93 76 -170 94 -74 17 -116 40
-138 74 -18 26 -62 61 -98 76 -36 15 -66 40 -66 56 0 52 -57 86 -168 100 -96
12 -114 22 -148 79 -27 45 -60 70 -102 79 -35 7 -97 39 -138 71 -41 33 -98 65
-128 73 -32 7 -71 41 -93 79 -33 56 -57 70 -152 90 -83 17 -121 36 -146 74
-18 28 -63 64 -99 79 -42 17 -70 46 -78 79 -14 55 -76 88 -168 88 -39 0 -77
20 -115 61 -76 81 -210 105 -243 43z"/>
<path d="M16245 52718 c-40 -12 -76 -41 -95 -78 -38 -73 -86 -100 -180 -100
-59 0 -78 -11 -106 -60 -19 -34 -62 -69 -98 -81 -34 -12 -102 -52 -150 -90
-47 -37 -111 -73 -141 -80 -34 -7 -68 -35 -85 -69 -24 -47 -47 -60 -125 -70
-145 -20 -159 -27 -185 -89 -14 -34 -44 -63 -74 -70 -28 -7 -79 -43 -113 -79
-44 -46 -89 -70 -149 -79 -67 -11 -94 -27 -120 -73 -33 -58 -112 -100 -189
-100 -21 0 -66 -31 -100 -70 -34 -38 -79 -70 -99 -70 -21 0 -55 -30 -77 -68
-43 -73 -85 -91 -205 -92 -65 0 -81 -10 -116 -69 -23 -38 -61 -75 -84 -82 -24
-8 -71 -39 -104 -69 -33 -31 -105 -68 -160 -84 -85 -23 -102 -36 -113 -87 -32
-150 -18 -16505 14 -16538 41 -41 47 -40 108 16 28 26 89 62 136 80 47 18 121
59 166 91 44 32 116 65 159 72 56 9 92 32 129 81 37 48 73 71 126 79 145 23
158 29 181 78 18 40 46 54 146 74 91 18 136 39 173 80 35 39 84 64 163 81 68
14 138 46 178 81 50 43 86 56 152 56 155 0 214 21 255 90 34 59 49 65 160 76
103 9 131 20 177 71 35 38 83 65 128 72 39 6 103 16 141 22 39 6 95 32 126 58
31 26 86 59 122 74 59 24 111 16923 52 17019 -13 21 -37 21 -124 -4z"/>
<path d="M18227 46960 c-24 -9 -50 -28 -58 -41 -27 -44 -15 -3238 12 -3270 33
-40 8842 -44 8875 -4 33 41 41 3266 8 3299 -31 31 -8762 47 -8837 16z"/>
<path d="M41799 46953 c-59 -29 -60 -83 -53 -2063 2 -306 -27 -740 -56 -854
-15 -59 17 -181 57 -213 39 -33 8766 -38 8798 -6 19 19 26 334 28 1359 1 921
9 1351 24 1390 17 41 16 78 -1 144 -21 76 -19 93 10 126 47 52 42 102 -12 123
-78 29 -8736 24 -8795 -6z"/>
<path d="M41732 41907 c-62 -66 -81 -127 -64 -196 7 -28 -4 -89 -25 -145 -36
-91 -38 -165 -36 -1313 3 -1416 -20 -1285 231 -1265 81 7 2068 12 4416 12
4267 0 4267 0 4289 55 14 37 24 506 30 1426 10 1584 19 1500 -171 1467 -85
-15 -1083 -31 -1852 -29 -2720 4 -6601 23 -6672 33 -84 11 -97 7 -146 -45z"/>
<path d="M18284 41684 c-133 -10 -129 34 -135 -1384 -6 -1493 -6 -1493 135
-1482 37 3 280 4 541 4 261 -1 682 -2 935 -2 5141 4 6853 2 6960 -8 262 -26
250 -78 267 1162 7 554 18 818 34 848 14 27 19 80 11 138 -10 71 -3 115 27
182 44 96 58 440 21 498 -17 27 -8443 69 -8796 44z"/>
<path d="M50140 37059 c-170 -8 -2146 -15 -4389 -16 -3659 -2 -4082 -5 -4110
-33 -50 -50 -58 -2771 -9 -2812 27 -22 134 -28 516 -30 544 -1 600 -9 676 -90
54 -58 54 -58 420 -62 1383 -13 1459 -18 1596 -102 135 -82 3596 -77 3768 6
120 58 943 128 1017 86 56 -31 342 23 430 82 85 56 113 63 288 72 107 6 202
18 211 27 26 26 25 2829 -2 2850 -40 33 -99 36 -412 22z"/>
<path d="M18830 36898 c-36 -12 -168 -16 -330 -10 -335 13 -409 -92 -343 -484
18 -102 518 -87 601 19 40 50 52 53 307 67 264 15 265 15 317 76 59 71 272
120 398 91 172 -39 346 -21 451 47 79 51 128 67 243 77 445 39 -83 145 -584
117 -106 -6 -334 -3 -700 10 -181 6 -324 2 -360 -10z"/>
<path d="M20722 36872 c-27 -32 24 -51 133 -52 78 0 84 25 14 57 -68 31 -119
29 -147 -5z"/>
<path d="M26565 36885 c-176 -15 -49 -65 165 -64 91 0 173 25 149 45 -16 14
-225 27 -314 19z"/>
<path d="M22886 35158 c-31 -6 -77 -22 -102 -36 -101 -54 -492 -88 -1302 -113
-311 -9 -380 -17 -444 -50 -125 -64 -341 -99 -606 -99 -246 0 -246 0 -343 -74
-96 -73 -96 -73 -378 -81 -274 -8 -282 -10 -325 -61 -38 -45 -67 -55 -200 -68
-430 -44 -438 -45 -501 -99 -52 -43 -98 -57 -269 -78 -177 -22 -215 -33 -272
-82 -36 -31 -85 -58 -110 -58 -264 -9 -391 -34 -476 -95 -67 -49 -118 -67
-215 -77 -90 -9 -143 -27 -182 -60 -70 -58 -124 -78 -261 -97 -76 -10 -129
-31 -172 -69 -47 -41 -100 -60 -220 -80 -133 -22 -166 -35 -208 -85 -40 -46
-74 -61 -160 -73 -85 -12 -124 -30 -172 -77 -44 -45 -89 -67 -157 -77 -62 -9
-118 -34 -160 -71 -75 -66 -151 -98 -231 -98 -34 0 -93 -27 -147 -69 -50 -38
-125 -74 -167 -81 -146 -24 -159 -29 -181 -78 -14 -29 -52 -58 -99 -73 -42
-13 -108 -50 -147 -80 -39 -31 -98 -63 -130 -71 -33 -7 -92 -44 -133 -80 -42
-37 -106 -72 -150 -80 -49 -8 -98 -37 -139 -81 -39 -42 -81 -67 -113 -67 -82
0 -153 -35 -177 -89 -13 -28 -40 -56 -61 -62 -21 -7 -70 -40 -108 -73 -43 -38
-105 -68 -162 -79 -51 -9 -97 -22 -103 -27 -87 -87 -54 -6895 34 -7133 33 -88
47 -200 66 -526 31 -526 -14 -478 449 -476 1245 7 1507 20 1616 82 127 71 240
88 636 92 311 4 314 4 398 62 80 55 100 59 396 79 312 20 312 20 373 83 60 61
65 62 310 77 227 13 254 18 302 64 64 60 163 85 347 86 179 1 219 12 251 72
30 56 126 88 269 88 60 0 128 15 170 38 146 80 194 96 319 107 117 11 134 18
190 84 60 71 65 73 230 82 159 9 171 13 220 71 48 58 63 63 228 76 179 14 186
17 244 113 13 23 61 40 137 50 86 12 132 31 174 71 42 40 88 59 170 70 77 10
129 31 165 64 77 71 130 94 220 94 110 0 180 30 202 87 21 56 58 73 159 73 85
0 133 29 168 100 19 39 43 51 104 55 135 9 168 23 200 85 21 41 46 60 78 60
115 0 177 27 216 93 28 47 55 67 89 67 63 0 144 43 205 108 27 29 62 52 78 52
16 0 59 32 96 70 50 53 91 75 170 90 110 21 158 49 158 90 0 32 45 50 120 50
94 0 154 33 177 99 12 35 35 61 55 61 18 0 63 32 100 70 48 52 92 76 160 88
70 13 111 37 160 90 36 40 80 72 96 72 17 0 63 28 102 63 39 34 105 73 146 87
40 14 83 44 95 66 34 67 72 104 105 104 17 0 60 32 95 70 50 55 80 70 135 70
72 0 288 178 319 262 6 18 37 39 68 47 30 8 89 45 131 82 42 38 97 69 122 69
62 0 134 54 134 100 0 21 20 49 45 61 42 22 90 63 220 194 59 58 76 75 186
181 37 36 105 78 151 95 46 16 118 61 161 99 42 39 86 70 97 70 10 0 33 27 50
60 17 32 57 73 89 89 32 17 64 49 71 71 7 22 38 54 69 70 31 16 84 56 117 89
36 36 82 61 111 61 86 0 147 35 169 96 13 38 39 63 72 72 29 7 65 39 83 74 17
33 57 70 87 80 31 11 75 45 98 77 29 40 72 64 144 81 77 19 108 37 130 79 18
35 50 60 87 67 38 8 72 36 100 83 26 45 57 71 83 71 57 0 140 45 198 108 27
29 61 52 76 52 15 0 63 36 106 80 43 44 92 80 108 80 16 0 68 30 116 67 49 37
112 73 141 80 29 7 76 44 105 81 42 55 69 69 149 80 78 10 108 25 140 71 23
32 72 68 108 80 37 12 92 49 124 82 31 33 91 69 132 80 45 12 92 44 117 80 32
44 59 59 106 59 107 1 151 21 191 89 33 57 51 66 146 77 87 10 117 24 159 74
40 47 76 65 156 78 83 13 117 31 171 89 52 58 81 73 137 73 98 0 131 16 165
81 25 50 44 59 149 71 107 12 123 20 157 77 34 58 50 66 154 77 96 10 127 23
174 73 31 34 59 61 62 61 84 0 260 57 328 106 63 45 118 65 209 76 120 14 145
29 195 117 12 20 69 31 198 37 178 9 183 10 232 74 44 58 64 67 181 79 92 10
147 28 185 60 91 75 128 87 325 101 177 13 193 18 240 72 47 55 62 59 265 75
203 16 220 21 299 84 80 64 92 67 298 78 198 10 220 15 272 64 31 29 85 59
121 66 174 37 101 83 -169 107 -194 18 -240 29 -333 82 -99 57 -123 62 -295
63 -324 2 -488 27 -565 85 -62 47 -96 54 -373 77 -279 23 -313 30 -390 81 -72
48 -109 57 -272 66 -395 21 -486 36 -556 95 -62 53 -74 55 -289 55 -276 0
-471 38 -555 108 -54 46 -80 52 -235 56 -327 7 -353 8 -449 24 -55 10 -123 39
-156 67 -48 40 -85 51 -194 56 -428 18 -523 33 -598 92 -72 57 -87 61 -326 69
-401 13 -479 28 -580 107 -44 34 -94 40 -407 50 -363 12 -405 20 -493 102 -48
45 -65 47 -480 57 -507 12 -425 0 -507 72 -75 66 -47 64 -1003 89 -366 9 -723
51 -840 98 -82 32 -1785 60 -1924 31z"/>
<path d="M54991 33936 c-21 -12 -60 -47 -85 -77 -30 -35 -83 -65 -148 -81 -75
-20 -108 -40 -129 -80 -27 -52 -79 -77 -162 -78 -24 0 -71 -27 -103 -59 -33
-33 -105 -77 -161 -98 -56 -21 -129 -62 -162 -89 -33 -28 -90 -57 -126 -65
-36 -8 -99 -41 -140 -73 -54 -43 -111 -64 -210 -80 -109 -17 -145 -32 -185
-78 -38 -44 -80 -64 -170 -81 -76 -14 -139 -41 -173 -71 -58 -54 -162 -85
-291 -86 -70 0 -95 -12 -151 -72 -65 -68 -74 -72 -236 -82 -134 -8 -184 -20
-241 -59 -97 -65 -174 -84 -394 -100 -166 -12 -190 -18 -218 -60 -41 -63 -127
-82 -436 -98 -237 -12 -265 -18 -312 -62 -67 -63 -198 -81 -618 -85 -327 -3
-330 -4 -384 -56 -73 -70 -196 -81 -1051 -95 -596 -9 -677 -15 -785 -51 -169
-57 -1639 -65 -1769 -10 -90 38 -161 42 -1331 58 -423 6 -843 17 -933 23 -210
16 -336 -54 -185 -102 21 -6 52 -38 68 -70 21 -40 54 -64 109 -79 43 -11 116
-52 161 -90 46 -39 96 -70 111 -70 15 0 51 -31 80 -69 29 -38 81 -79 117 -90
36 -12 91 -49 122 -81 31 -32 86 -69 123 -81 39 -13 77 -44 92 -75 14 -30 50
-65 80 -80 30 -14 69 -52 85 -84 16 -31 47 -63 68 -69 21 -7 62 -44 91 -82 29
-38 70 -69 92 -69 25 0 48 -24 67 -67 17 -43 46 -72 77 -80 31 -8 60 -37 76
-75 16 -38 48 -70 83 -82 31 -11 70 -46 86 -77 16 -31 48 -62 70 -69 22 -7 54
-44 69 -82 17 -38 51 -77 79 -87 28 -11 64 -47 81 -80 18 -33 54 -66 82 -73
28 -7 64 -39 81 -71 16 -32 51 -68 76 -80 26 -11 61 -51 78 -87 17 -37 50 -72
73 -80 23 -7 55 -39 72 -71 16 -32 52 -64 80 -71 32 -8 61 -37 79 -80 15 -38
38 -68 49 -68 12 0 98 -76 190 -170 93 -93 177 -170 187 -170 10 0 28 -23 40
-50 13 -28 48 -61 79 -74 30 -14 93 -58 140 -100 46 -42 97 -76 114 -76 16 0
59 -25 95 -56 36 -31 91 -72 122 -91 31 -19 66 -57 78 -85 13 -27 42 -53 64
-57 23 -5 68 -14 99 -21 31 -6 81 -37 110 -69 29 -31 82 -63 117 -70 35 -8 72
-25 84 -38 11 -14 74 -51 141 -82 66 -32 126 -75 132 -95 17 -53 85 -90 193
-105 73 -10 106 -27 142 -74 37 -46 67 -62 136 -69 185 -21 218 -31 299 -99
65 -54 101 -69 166 -69 139 -1 236 -33 284 -93 41 -51 57 -56 202 -62 214 -9
242 -17 309 -91 59 -64 59 -64 457 -74 398 -10 398 -10 460 -69 62 -59 62 -59
871 -67 871 -9 833 -13 1114 99 75 30 150 37 380 39 410 2 492 16 569 94 63
64 65 64 264 64 228 0 285 16 354 98 46 55 59 58 228 65 153 6 185 13 227 53
27 26 89 58 137 73 55 16 96 42 112 73 32 63 37 5859 4 5919 -23 44 -106 51
-168 15z"/>
<path d="M36707 31740 c-184 -8 -231 -17 -266 -49 -55 -50 -179 -66 -631 -81
-360 -12 -360 -12 -410 -68 -66 -73 -188 -102 -435 -102 -179 0 -203 -5 -266
-50 -98 -73 -201 -96 -483 -108 -19 -1 -65 -29 -103 -62 -58 -51 -98 -65 -247
-87 -122 -18 -198 -41 -239 -71 -69 -51 -179 -81 -301 -82 -65 0 -100 -14
-152 -59 -69 -61 -191 -100 -314 -100 -53 -1 -82 -15 -120 -60 -39 -48 -78
-66 -184 -88 -84 -17 -157 -47 -194 -79 -55 -45 -208 -94 -299 -94 -19 0 -57
-26 -85 -58 -41 -47 -74 -61 -167 -73 -102 -12 -120 -22 -154 -79 -34 -58 -50
-66 -152 -76 -95 -10 -123 -22 -165 -72 -35 -43 -79 -67 -150 -82 -64 -14
-123 -44 -163 -83 -42 -41 -96 -68 -160 -80 -71 -13 -109 -33 -143 -77 -36
-46 -68 -62 -148 -72 -83 -11 -107 -24 -134 -71 -17 -31 -59 -67 -92 -80 -33
-13 -82 -43 -110 -67 -27 -24 -95 -60 -150 -80 -54 -20 -126 -66 -160 -101
-41 -43 -87 -68 -145 -78 -60 -10 -96 -31 -125 -71 -22 -30 -64 -62 -95 -69
-30 -8 -83 -45 -118 -83 -41 -45 -81 -68 -116 -68 -51 0 -151 -78 -151 -118 0
-10 -30 -29 -67 -41 -36 -12 -92 -49 -124 -82 -33 -35 -95 -70 -144 -82 -60
-15 -96 -39 -120 -79 -18 -32 -46 -58 -61 -58 -15 0 -63 -36 -106 -80 -44 -44
-93 -80 -109 -80 -16 0 -64 -31 -106 -70 -43 -38 -110 -83 -149 -100 -39 -16
-77 -48 -84 -70 -7 -22 -41 -55 -76 -73 -35 -18 -98 -63 -139 -100 -41 -37
-84 -67 -94 -67 -10 0 -60 -36 -111 -80 -51 -44 -106 -80 -122 -80 -16 0 -48
-32 -71 -70 -22 -39 -62 -76 -88 -82 -26 -7 -61 -34 -79 -61 -18 -27 -55 -59
-83 -72 -27 -12 -63 -48 -79 -79 -16 -30 -57 -70 -93 -88 -35 -19 -80 -55
-101 -80 -20 -26 -79 -60 -130 -74 -75 -22 -100 -41 -123 -92 -20 -44 -47 -68
-86 -76 -35 -7 -68 -33 -86 -69 -17 -31 -40 -57 -51 -57 -12 0 -60 -38 -108
-85 -99 -98 -295 -226 -376 -246 -32 -8 -68 -37 -85 -71 -16 -32 -54 -70 -84
-86 -30 -15 -77 -52 -104 -81 -27 -29 -89 -63 -138 -75 -66 -16 -97 -38 -126
-87 -21 -36 -60 -70 -86 -77 -27 -7 -67 -38 -90 -71 -25 -34 -68 -63 -106 -72
-36 -7 -92 -39 -125 -70 -33 -31 -92 -70 -132 -87 -40 -17 -87 -52 -105 -80
-23 -35 -62 -55 -141 -72 -91 -19 -116 -33 -148 -88 -24 -40 -62 -72 -96 -81
-31 -7 -76 -36 -101 -62 -24 -27 -87 -60 -139 -74 -63 -17 -109 -45 -141 -88
-40 -52 -67 -65 -156 -76 -92 -12 -116 -24 -161 -82 -28 -38 -64 -69 -79 -69
-15 0 -65 -31 -110 -69 -46 -39 -115 -78 -153 -89 -38 -11 -100 -46 -137 -79
-42 -36 -101 -64 -154 -73 -61 -10 -105 -33 -148 -79 -47 -50 -85 -69 -160
-79 -75 -11 -111 -29 -149 -73 -37 -44 -78 -64 -160 -79 -83 -16 -120 -35
-155 -79 -35 -44 -74 -64 -160 -82 -73 -15 -139 -44 -180 -81 -45 -39 -96 -61
-168 -70 -71 -10 -122 -31 -168 -72 -75 -65 -162 -96 -273 -96 -61 0 -83 -12
-126 -68 -46 -60 -66 -70 -175 -83 -90 -10 -143 -29 -194 -69 -71 -55 -211
-100 -313 -100 -37 0 -72 -21 -108 -64 -52 -61 -60 -64 -238 -72 -168 -8 -187
-13 -216 -57 -47 -72 -92 -89 -262 -99 -141 -9 -158 -15 -208 -72 -56 -65
-152 -92 -328 -95 -60 -1 -103 -17 -155 -59 -81 -64 -245 -102 -438 -102 -97
0 -118 -7 -154 -53 -48 -61 -131 -82 -391 -99 -156 -9 -187 -18 -233 -61 -68
-64 -221 -85 -629 -86 -280 -1 -304 -4 -340 -43 -67 -74 -112 -84 -438 -99
-310 -13 -323 -16 -415 -74 -125 -79 -252 -90 -1056 -93 -632 -3 -632 -3 -696
-57 -58 -48 -79 -53 -209 -51 -219 4 -311 -88 -192 -196 69 -62 82 -105 98
-313 19 -240 15 -235 236 -266 121 -16 198 -38 236 -66 107 -79 3617 -70 3766
9 128 67 322 85 1032 93 393 5 424 8 480 48 101 72 202 86 680 99 391 10 467
17 510 47 125 87 145 91 503 101 325 9 358 13 400 53 95 86 139 96 452 107
304 10 304 10 361 72 62 69 161 92 414 96 126 2 148 8 220 66 72 58 97 66 250
76 291 20 337 30 402 85 56 47 85 54 292 68 171 11 243 24 281 51 129 92 160
106 245 107 165 2 260 30 321 97 57 62 57 62 303 63 316 1 440 46 619 225 68
68 150 94 293 94 121 0 155 14 241 100 51 51 75 60 161 60 84 0 112 10 170 61
79 69 164 99 284 99 63 0 96 13 143 59 44 41 90 62 158 71 246 32 247 32 278
92 16 32 37 58 45 58 110 1 256 47 316 99 48 42 90 61 137 61 92 0 164 30 245
101 54 47 86 59 162 59 136 1 182 18 215 82 25 47 46 59 132 70 98 13 143 41
187 115 13 21 64 41 136 53 88 14 129 32 170 76 41 43 80 61 158 71 83 11 113
26 151 74 36 47 73 65 169 85 68 14 139 39 159 57 67 58 135 85 254 99 99 12
126 25 182 86 56 61 80 72 150 72 71 0 94 11 146 69 53 60 78 72 180 83 93 11
135 27 198 81 45 37 91 68 104 69 13 1 77 5 143 10 98 6 128 17 165 59 54 61
139 89 271 89 94 0 173 47 196 117 5 14 74 31 164 41 120 14 174 31 237 74 63
44 114 60 230 71 131 12 158 22 225 82 73 66 83 69 284 82 201 13 210 16 262
76 50 58 64 63 231 75 120 8 193 23 226 47 27 19 67 48 90 64 25 19 127 38
269 50 212 19 231 24 271 74 41 52 52 55 321 71 250 16 283 22 328 64 84 79
123 89 406 104 263 13 274 16 321 68 57 64 167 82 529 88 226 3 226 3 275 66
60 76 153 91 600 94 296 2 302 3 365 56 79 66 129 73 630 84 397 10 397 10
490 69 124 78 215 87 952 91 602 4 602 4 682 56 127 83 539 102 2170 100 1484
-2 1937 -22 2039 -93 86 -60 86 -60 736 -65 739 -6 939 -24 1044 -92 114 -75
301 -93 301 -30 0 38 -148 194 -197 206 -28 7 -78 36 -112 64 -33 28 -99 68
-145 88 -52 22 -96 59 -115 97 -18 33 -54 66 -80 73 -27 6 -63 33 -80 59 -17
27 -59 62 -92 80 -33 17 -69 53 -79 79 -10 27 -48 62 -84 77 -36 16 -116 77
-177 136 -62 59 -152 138 -200 176 -49 38 -143 131 -209 208 -66 76 -182 199
-258 272 -80 78 -147 163 -160 202 -12 37 -44 79 -70 92 -27 13 -59 50 -73 82
-14 33 -51 69 -85 83 -38 16 -69 48 -82 84 -11 32 -29 58 -41 58 -17 0 -163
128 -231 203 -11 12 -52 55 -92 95 -40 39 -82 91 -95 115 -12 23 -47 49 -77
56 -31 8 -87 44 -126 81 -38 38 -102 82 -142 98 -40 17 -87 53 -106 81 -18 28
-46 51 -61 51 -16 0 -53 31 -82 69 -29 38 -72 75 -96 83 -24 7 -75 42 -115 78
-40 35 -105 71 -146 78 -56 11 -85 31 -114 81 -26 44 -59 70 -101 79 -33 6
-89 36 -124 65 -34 29 -101 69 -148 89 -51 22 -93 56 -104 85 -15 39 -37 50
-121 61 -80 11 -120 29 -172 80 -54 52 -91 69 -173 79 -76 9 -115 24 -140 57
-19 26 -43 56 -53 69 -11 12 -68 28 -128 36 -69 8 -145 35 -203 72 -51 33
-108 59 -128 59 -84 0 -241 62 -253 100 -15 47 -100 71 -310 89 -121 11 -166
25 -232 71 -72 51 -101 58 -240 61 -206 5 -302 29 -392 101 -62 49 -92 58
-189 58 -330 0 -676 43 -765 94 -89 52 -1493 80 -2255 46z"/>
<path d="M55037 25952 c-55 -49 -266 -92 -447 -92 -71 0 -99 -11 -144 -58 -63
-65 -279 -102 -599 -102 -125 0 -169 -9 -217 -41 -109 -75 -157 -83 -540 -91
-514 -10 -630 -24 -630 -78 0 -47 136 -146 244 -177 58 -17 137 -54 175 -82
40 -30 109 -56 170 -64 79 -10 114 -27 161 -79 40 -43 91 -73 149 -86 48 -10
111 -38 139 -61 29 -23 89 -59 134 -79 45 -21 88 -52 94 -70 13 -34 108 -82
199 -101 33 -7 66 -35 85 -70 24 -48 47 -61 123 -73 73 -10 111 -31 170 -91
41 -42 89 -77 106 -77 16 0 46 -24 65 -53 19 -29 63 -65 98 -79 36 -15 105
-62 155 -105 210 -182 285 -139 302 173 17 309 64 614 107 692 29 53 34 128
36 502 3 511 -10 552 -135 442z"/>
<path d="M41730 25263 c-6 -5 -426 -13 -934 -15 -867 -5 -926 -8 -974 -43 -29
-21 -70 -45 -92 -54 -63 -25 -731 -70 -1048 -70 -274 -1 -293 -4 -377 -53
-100 -58 -413 -107 -687 -108 -139 0 -159 -5 -228 -60 -42 -33 -97 -61 -123
-62 -26 -2 -72 -6 -102 -9 -30 -3 -172 -12 -315 -20 -220 -11 -271 -20 -330
-58 -102 -65 -233 -91 -453 -91 -188 0 -197 -2 -256 -58 -76 -73 -187 -96
-466 -100 -209 -3 -217 -5 -269 -60 -59 -63 -218 -102 -411 -102 -81 0 -115
-11 -165 -53 -69 -58 -240 -106 -382 -107 -71 0 -101 -11 -138 -50 -58 -62
-154 -90 -308 -90 -97 0 -131 -10 -187 -53 -84 -63 -221 -107 -337 -107 -67 0
-102 -13 -154 -59 -52 -46 -101 -65 -213 -84 -110 -18 -161 -37 -207 -79 -33
-31 -93 -60 -132 -66 -40 -6 -115 -17 -168 -24 -70 -9 -111 -29 -150 -70 -45
-48 -76 -60 -181 -71 -103 -11 -141 -25 -205 -79 -61 -50 -104 -68 -193 -78
-160 -18 -181 -26 -196 -73 -15 -47 -121 -97 -208 -97 -42 0 -77 -18 -112 -58
-40 -45 -82 -64 -179 -82 -78 -15 -141 -39 -164 -64 -49 -55 -120 -89 -219
-105 -46 -8 -100 -32 -120 -55 -61 -66 -139 -96 -255 -96 -96 0 -119 -8 -172
-60 -34 -33 -101 -70 -152 -83 -53 -13 -102 -41 -120 -67 -39 -60 -109 -89
-252 -104 -102 -10 -130 -22 -186 -80 -56 -58 -84 -70 -183 -80 -98 -10 -125
-22 -168 -71 -42 -50 -70 -62 -160 -70 -85 -7 -123 -22 -170 -68 -69 -65 -161
-97 -277 -97 -65 0 -91 -13 -143 -70 -45 -49 -82 -70 -122 -70 -93 0 -190 -36
-249 -92 -44 -42 -88 -57 -217 -76 -138 -19 -169 -31 -207 -78 -40 -50 -59
-55 -229 -67 -181 -13 -185 -14 -222 -77 -43 -72 -99 -90 -285 -90 -114 0
-130 -7 -184 -86 -31 -44 -146 -73 -298 -74 -101 0 -120 -7 -172 -62 -52 -55
-76 -64 -251 -86 -154 -20 -203 -34 -243 -72 -57 -53 -176 -76 -406 -79 -140
-1 -147 -3 -180 -61 -44 -77 -58 -81 -284 -94 -166 -9 -202 -18 -285 -70 -93
-59 -322 -107 -388 -82 -48 18 -215 -35 -268 -85 -56 -54 -237 -87 -478 -88
-117 -1 -134 -6 -173 -56 -48 -60 -182 -79 -573 -83 -160 -2 -177 -6 -205 -49
-56 -86 -119 -100 -516 -112 -366 -11 -377 -12 -412 -58 -50 -66 -147 -81
-622 -94 -362 -10 -414 -15 -441 -47 -74 -86 -421 -124 -1108 -120 -317 1
-329 0 -433 -53 -145 -74 -455 -84 -2459 -83 -1758 2 -1668 13 -1509 -195 58
-76 70 -108 70 -191 0 -86 10 -111 72 -179 56 -63 74 -103 86 -191 11 -77 31
-128 66 -165 61 -67 96 -164 96 -270 0 -65 12 -89 70 -140 60 -53 70 -75 70
-149 0 -70 13 -100 70 -164 47 -52 76 -108 88 -172 12 -65 36 -111 79 -150 47
-43 64 -80 75 -159 11 -85 25 -112 80 -154 55 -42 70 -69 80 -151 11 -77 29
-116 81 -168 52 -51 67 -84 67 -140 0 -59 15 -86 80 -146 46 -42 80 -91 80
-116 0 -71 94 -164 193 -189 65 -16 96 -37 118 -79 23 -45 49 -61 113 -71 52
-8 110 -37 154 -77 40 -35 98 -70 130 -78 32 -8 95 -39 140 -70 45 -31 111
-66 147 -78 35 -12 98 -48 140 -80 41 -32 114 -69 161 -82 58 -16 93 -40 108
-73 24 -52 39 -59 173 -80 68 -10 95 -26 120 -71 36 -63 122 -98 245 -98 50 0
96 -18 147 -59 42 -33 108 -66 148 -73 87 -16 173 -57 246 -118 29 -24 90 -50
135 -57 47 -8 109 -38 149 -73 38 -33 90 -60 116 -60 130 -1 194 -25 217 -81
29 -70 107 -99 265 -99 107 0 125 -6 177 -62 51 -55 77 -65 212 -80 126 -14
166 -28 229 -78 50 -40 107 -65 171 -73 115 -15 163 -38 212 -100 32 -41 54
-47 172 -47 173 0 255 -29 293 -102 28 -54 39 -58 145 -59 253 -2 316 -18 442
-110 51 -37 94 -49 170 -49 156 -1 253 -31 302 -92 41 -52 56 -56 268 -70 152
-10 237 -24 268 -46 24 -17 66 -47 93 -67 38 -27 105 -37 323 -45 274 -10 274
-10 361 -80 87 -70 87 -70 347 -74 395 -7 455 -16 549 -78 82 -54 90 -55 427
-61 577 -9 771 -31 897 -101 162 -90 2265 -85 2425 5 113 64 398 92 928 90
282 -1 287 0 338 51 75 75 141 88 442 88 267 0 267 0 346 80 80 80 80 80 274
80 228 0 307 19 369 88 38 43 71 53 222 69 159 17 183 25 242 82 58 56 83 65
227 79 142 15 172 25 234 79 75 66 88 70 277 72 110 1 120 5 177 76 48 60 73
75 129 75 81 0 186 41 225 87 15 18 74 47 131 64 61 17 128 55 161 89 33 35
87 64 129 71 115 20 134 28 212 90 44 35 98 59 133 59 43 0 78 21 130 79 57
63 90 82 164 92 61 9 112 32 152 70 33 32 100 66 150 77 60 13 105 40 140 81
39 49 73 66 156 79 76 12 124 34 170 77 47 44 91 63 164 72 79 10 111 26 151
75 43 52 70 64 172 76 68 8 146 31 177 53 132 93 162 106 273 119 102 12 122
22 147 69 28 55 100 80 232 81 29 0 89 27 134 59 45 33 114 73 153 89 39 17
79 51 89 76 10 25 46 67 80 92 34 25 62 59 62 75 0 17 31 49 68 71 38 22 78
67 89 99 12 32 43 80 69 107 27 27 70 79 96 115 26 37 79 99 118 138 38 40 97
105 130 146 56 68 85 99 191 203 148 145 339 354 339 370 0 12 32 36 71 54 41
20 75 53 82 81 7 28 38 58 79 74 43 19 71 47 80 80 7 29 38 66 71 83 32 16 67
52 78 79 10 28 34 56 54 63 19 7 103 79 185 159 83 81 224 219 313 307 90 88
173 160 183 160 11 0 38 30 59 67 23 38 86 92 148 127 60 34 120 76 135 94 15
17 44 32 65 32 23 0 56 29 81 72 23 39 63 79 90 89 26 10 63 46 82 79 19 33
42 60 51 60 9 0 59 40 110 90 51 49 127 119 168 155 41 36 90 82 110 103 127
138 275 248 368 273 57 15 91 40 120 89 22 38 57 74 77 80 20 6 55 43 78 81
22 38 54 69 71 69 16 0 50 28 75 62 25 34 73 76 106 93 33 17 81 52 107 77 26
26 89 59 140 73 68 19 100 41 120 82 14 30 47 63 72 73 26 9 65 44 88 76 28
39 71 66 128 81 56 14 108 46 149 92 34 39 80 71 101 71 41 0 91 47 111 105 7
19 27 35 44 35 17 0 66 35 108 78 55 56 100 81 161 92 65 11 93 28 118 72 19
33 57 62 89 69 30 7 75 39 99 71 30 41 77 69 151 90 76 23 113 45 129 80 12
27 45 54 73 60 130 29 184 55 222 108 22 31 67 63 100 70 33 7 77 38 99 69 30
42 63 60 132 70 88 13 136 45 179 119 13 23 59 40 135 50 63 8 118 19 121 24
3 4 22 33 41 63 28 45 48 55 115 55 101 0 149 25 187 98 21 42 50 61 104 71
41 8 109 44 152 81 71 60 90 66 236 73 158 7 158 7 304 152 141 140 149 145
274 162 103 14 137 28 171 70 48 61 140 93 267 93 75 0 97 10 154 72 60 66 77
73 201 83 106 9 153 24 217 68 63 45 116 62 234 75 118 13 169 29 223 70 91
70 167 90 372 101 150 8 174 15 226 65 63 60 195 80 562 84 145 2 160 6 210
60 86 92 159 97 1414 100 1441 5 1718 -11 1823 -103 74 -65 74 -65 347 -75
260 -10 277 -13 361 -68 70 -47 113 -60 209 -63 66 -2 158 -10 205 -18 69 -12
85 -9 85 16 0 33 -25 43 -150 64 -57 10 -98 34 -140 83 -54 62 -74 70 -210 87
-133 17 -156 26 -201 81 -47 57 -66 64 -204 78 -123 12 -165 25 -215 67 -68
57 -84 63 -278 92 -73 11 -159 40 -200 67 -51 33 -128 55 -262 73 -163 23
-199 35 -252 84 -57 55 -237 89 -502 96 -14 1 -54 27 -90 58 -55 48 -90 60
-216 71 -324 28 -362 36 -422 86 -47 40 -85 51 -193 57 -370 19 -441 31 -538
93 -102 64 -99 64 -637 84 -210 7 -262 20 -330 82 -47 43 -74 47 -390 59 -696
27 -783 37 -848 99 -57 55 -57 55 -935 64 -1581 17 -2946 22 -2957 11z"/>
<path d="M48030 22121 c-128 -11 -176 -24 -238 -67 -66 -46 -99 -54 -220 -55
-333 -4 -445 -24 -519 -97 -67 -64 -76 -67 -279 -79 -195 -12 -214 -17 -260
-67 -55 -59 -81 -67 -264 -85 -97 -10 -131 -24 -182 -73 -54 -52 -82 -62 -222
-76 -180 -18 -201 -27 -226 -91 -17 -47 -88 -71 -206 -71 -44 0 -79 -19 -123
-67 -50 -55 -83 -71 -171 -83 -73 -10 -131 -33 -179 -71 -39 -32 -115 -67
-168 -79 -54 -11 -137 -52 -188 -91 -72 -55 -109 -69 -179 -69 -85 0 -186 -63
-186 -117 0 -10 -42 -25 -94 -33 -71 -10 -111 -31 -159 -82 -36 -38 -93 -74
-127 -81 -35 -7 -76 -33 -92 -58 -31 -47 -94 -78 -204 -100 -47 -9 -72 -28
-86 -65 -26 -68 -45 -78 -162 -95 -74 -10 -105 -26 -136 -69 -23 -32 -71 -67
-109 -80 -37 -12 -82 -44 -99 -70 -21 -32 -71 -60 -142 -81 -86 -25 -113 -42
-122 -80 -8 -31 -35 -55 -81 -70 -37 -12 -97 -49 -132 -81 -35 -32 -95 -68
-134 -80 -39 -13 -98 -49 -131 -80 -33 -32 -94 -90 -136 -130 -53 -51 -107
-80 -180 -96 -82 -18 -109 -35 -130 -78 -14 -30 -51 -67 -81 -83 -30 -15 -66
-51 -78 -79 -13 -28 -54 -63 -90 -79 -37 -15 -82 -51 -101 -79 -24 -38 -57
-55 -126 -65 -76 -12 -99 -26 -131 -80 -22 -36 -65 -75 -97 -86 -31 -11 -72
-48 -89 -82 -18 -33 -41 -61 -52 -61 -12 0 -54 -32 -95 -70 -196 -185 -253
-228 -336 -248 -65 -17 -95 -38 -118 -82 -17 -33 -53 -65 -83 -72 -33 -9 -61
-37 -78 -78 -18 -42 -46 -70 -80 -78 -34 -9 -62 -37 -81 -83 -16 -38 -39 -69
-52 -69 -14 0 -62 -38 -108 -85 -47 -47 -126 -121 -177 -165 -51 -44 -112
-101 -137 -128 -24 -26 -70 -63 -102 -83 -85 -53 -492 -458 -492 -490 0 -93
320 -94 417 -2 78 75 327 95 1253 99 680 4 680 4 750 54 70 50 70 50 710 50
640 0 640 0 707 -50 66 -50 66 -50 770 -54 702 -4 1161 -25 1215 -56 15 -9 47
-33 69 -53 37 -33 90 -38 467 -47 493 -11 515 -15 582 -93 50 -59 50 -59 377
-66 323 -6 329 -7 450 -70 112 -58 148 -66 393 -83 270 -19 270 -19 334 -89
63 -68 67 -69 230 -70 235 -1 336 -24 387 -89 41 -51 53 -54 263 -61 240 -8
311 -27 366 -94 32 -39 66 -48 275 -66 212 -19 246 -28 311 -77 57 -44 106
-60 219 -73 182 -20 215 -32 267 -93 35 -41 70 -53 194 -67 154 -17 246 -51
293 -108 16 -19 58 -31 108 -31 140 -1 259 -39 324 -102 48 -46 87 -62 170
-71 89 -9 119 -23 161 -72 43 -50 69 -62 160 -69 165 -13 187 -20 278 -96 137
-114 228 -99 294 50 22 50 59 107 82 127 24 21 52 68 65 105 12 37 47 85 78
107 36 26 64 71 78 127 13 51 50 116 92 159 39 40 71 89 71 109 0 20 27 51 59
70 59 33 67 51 91 201 9 55 26 82 68 104 62 32 82 67 82 144 0 63 24 108 100
184 42 42 60 79 60 124 0 47 18 80 71 128 56 52 74 87 87 169 13 83 31 117 89
171 47 43 73 84 73 117 0 28 21 76 47 107 66 79 86 124 102 222 9 52 40 116
80 164 45 54 69 107 78 174 10 70 31 113 78 162 50 52 66 88 75 170 8 85 19
108 60 129 80 40 100 85 100 228 0 124 5 141 70 218 57 69 70 100 70 174 0 78
10 99 72 156 55 51 73 85 81 153 20 185 31 220 93 291 124 142 108 356 -39
495 -64 61 -142 135 -173 165 -32 30 -82 70 -114 89 -31 19 -62 53 -70 76 -7
23 -44 55 -81 70 -38 16 -69 43 -69 60 0 48 -74 111 -130 111 -27 0 -89 30
-138 67 -48 37 -109 73 -135 80 -28 6 -57 35 -69 68 -18 48 -39 61 -132 82
-70 16 -128 43 -158 76 -27 28 -75 62 -108 77 -33 14 -89 53 -124 86 -36 33
-94 67 -130 74 -37 7 -89 40 -117 73 -42 51 -71 62 -183 76 -103 13 -150 30
-210 78 -55 44 -111 67 -204 81 -106 17 -137 31 -181 84 -50 60 -61 63 -236
76 -178 12 -186 15 -240 80 -56 67 -56 67 -326 81 -263 14 -327 29 -406 99
-40 34 -1854 53 -2223 23z"/>
<path d="M41273 15166 c-4 -4 -311 -11 -683 -16 -536 -8 -683 -16 -708 -38
-105 -91 -157 -101 -592 -108 -420 -7 -420 -7 -471 -67 -66 -78 -153 -95 -493
-96 -263 -1 -263 -1 -304 -59 -50 -70 -146 -95 -382 -101 -164 -4 -172 -6
-230 -70 -58 -63 -70 -67 -250 -81 -157 -12 -200 -23 -246 -62 -69 -58 -173
-88 -311 -88 -93 0 -114 -8 -164 -61 -65 -70 -148 -99 -283 -99 -92 0 -110
-10 -162 -86 -18 -25 -71 -43 -175 -59 -115 -17 -168 -37 -233 -86 -64 -48
-114 -67 -205 -77 -106 -12 -125 -21 -150 -70 -29 -56 -94 -82 -202 -82 -28 0
-67 -27 -103 -73 -51 -63 -72 -73 -167 -82 -90 -8 -119 -21 -169 -75 -45 -47
-84 -68 -155 -78 -72 -11 -106 -28 -137 -71 -33 -44 -69 -62 -160 -80 -99 -19
-123 -33 -148 -81 -25 -49 -49 -62 -151 -82 -93 -18 -129 -36 -159 -78 -31
-43 -60 -57 -144 -66 -88 -11 -116 -24 -166 -82 -49 -56 -79 -71 -166 -82 -79
-10 -113 -26 -136 -60 -32 -49 -94 -79 -208 -101 -38 -7 -97 -39 -130 -70 -64
-60 -186 -98 -324 -99 -69 0 -90 -10 -125 -58 -36 -51 -58 -61 -171 -73 -105
-11 -146 -27 -217 -82 -80 -63 -104 -70 -262 -81 -160 -11 -181 -18 -255 -79
-70 -59 -94 -67 -193 -67 -186 -1 -264 -20 -288 -72 -29 -66 -115 -90 -361
-103 -199 -10 -219 -15 -247 -58 -46 -68 -144 -87 -467 -87 -290 0 -290 0
-350 -70 -71 -84 -108 -88 -722 -89 -381 -1 -381 -1 -470 -59 -202 -132 -3059
-130 -3251 3 -79 55 -79 55 -518 56 -621 2 -719 14 -786 95 -53 64 -53 64
-253 65 -341 2 -510 26 -600 83 -70 45 -110 53 -312 64 -276 16 -348 33 -399
99 -34 43 -61 51 -194 62 -349 28 -368 31 -423 91 -49 53 -65 57 -278 70 -218
14 -228 17 -307 82 -71 59 -95 68 -194 68 -159 1 -259 28 -321 88 -42 41 -74
52 -147 52 -167 0 -292 37 -323 97 -25 47 -45 55 -202 76 -148 19 -183 31
-237 82 -53 50 -84 62 -198 72 -146 12 -202 34 -268 105 -30 31 -77 51 -149
60 -71 10 -121 30 -152 61 -73 72 -114 87 -244 87 -135 0 -160 -18 -100 -72
23 -20 54 -67 69 -103 15 -36 36 -65 48 -65 11 0 44 -38 74 -84 29 -46 68 -98
87 -115 85 -78 239 -279 251 -329 10 -37 34 -63 72 -76 32 -11 72 -46 88 -78
16 -31 56 -71 88 -87 32 -17 64 -49 71 -71 7 -22 43 -53 81 -69 44 -19 72 -46
81 -81 7 -30 34 -61 62 -71 26 -11 61 -50 77 -89 19 -45 47 -74 80 -82 32 -8
61 -37 78 -78 20 -48 44 -70 90 -80 35 -7 74 -32 87 -53 13 -22 56 -57 95 -77
39 -20 133 -100 209 -178 75 -78 156 -147 179 -155 22 -7 106 -78 185 -158 79
-80 160 -151 180 -157 20 -7 51 -39 70 -72 19 -33 56 -69 83 -79 27 -10 58
-45 70 -80 13 -39 34 -61 59 -61 77 0 166 -46 194 -101 17 -33 57 -65 97 -78
37 -12 78 -44 93 -70 14 -27 52 -59 84 -72 32 -14 71 -50 87 -80 16 -32 56
-65 94 -77 36 -12 105 -54 153 -92 48 -39 99 -70 114 -70 14 0 49 -31 78 -68
28 -37 74 -74 101 -80 26 -7 62 -39 79 -72 21 -40 54 -65 106 -79 42 -11 112
-52 155 -91 43 -38 91 -70 105 -70 14 0 61 -36 104 -80 51 -52 96 -80 130 -80
32 0 84 -30 138 -80 47 -44 94 -80 103 -80 9 0 44 -30 78 -67 46 -51 84 -70
157 -81 69 -11 110 -31 146 -71 28 -31 90 -67 138 -81 47 -13 111 -50 141 -81
30 -31 81 -63 114 -70 37 -8 73 -37 97 -79 35 -59 50 -66 152 -74 108 -9 122
-18 176 -105 11 -18 69 -45 129 -61 69 -18 123 -47 150 -80 30 -38 70 -56 150
-68 87 -14 118 -30 161 -82 45 -55 70 -67 158 -75 85 -9 110 -20 137 -63 50
-81 86 -102 178 -102 73 0 92 -9 137 -69 46 -59 68 -70 166 -82 95 -12 125
-26 177 -81 52 -57 76 -68 150 -68 123 0 215 -30 280 -93 41 -39 87 -58 171
-69 63 -9 119 -27 124 -41 26 -78 100 -117 222 -117 134 0 184 -19 249 -95 36
-41 68 -52 196 -64 122 -12 171 -28 247 -78 64 -43 119 -63 170 -63 97 0 175
-30 241 -93 43 -41 81 -53 220 -66 177 -17 236 -36 317 -101 38 -31 93 -43
238 -53 179 -13 189 -16 220 -70 63 -112 343 -121 452 -15 189 184 402 378
415 378 8 0 93 71 190 157 96 87 195 164 220 172 25 7 59 40 76 72 16 32 57
72 90 90 33 17 71 53 83 80 12 26 38 53 57 59 20 7 59 43 88 81 29 38 66 69
81 69 15 0 69 36 119 79 50 44 122 85 160 92 51 10 80 32 110 81 22 37 53 68
69 68 17 0 55 31 86 70 31 38 68 70 83 70 14 0 61 36 104 79 43 43 112 88 153
100 42 11 103 47 136 80 200 198 231 221 303 221 57 0 86 15 144 78 40 42 96
89 123 103 28 14 62 42 76 62 14 20 72 50 129 67 57 17 131 56 164 88 34 31
86 63 117 70 30 7 90 44 132 83 42 38 93 69 112 69 19 0 63 30 97 68 47 50 91
73 170 90 75 16 124 41 163 82 36 38 83 63 136 72 57 9 100 33 143 80 47 52
78 68 130 68 99 0 168 32 194 89 25 55 40 61 182 81 78 10 101 23 125 70 27
51 44 60 151 72 97 11 138 27 202 80 44 37 117 77 163 89 46 12 120 46 164 75
58 38 118 56 216 65 123 12 142 20 203 86 69 76 99 84 286 74 73 -4 94 5 143
57 75 80 137 102 294 102 124 0 133 3 196 72 65 71 72 73 247 86 168 12 184
16 238 75 58 61 64 63 298 77 236 15 240 15 299 79 60 65 60 65 355 75 283 10
298 12 376 67 107 74 226 90 692 95 327 3 388 9 420 38 99 90 370 112 1347
112 872 1 1108 -15 1250 -85 117 -57 128 -59 460 -62 538 -5 661 -21 711 -91
39 -54 51 -58 175 -59 350 -2 524 -31 595 -100 64 -62 77 -66 263 -77 170 -11
210 -20 306 -75 87 -49 141 -64 254 -72 98 -6 162 -22 197 -47 109 -78 182
-108 265 -108 97 0 213 -43 277 -103 29 -27 86 -46 169 -56 77 -9 129 -25 135
-42 27 -81 100 -119 229 -119 112 0 138 -8 222 -68 53 -37 130 -73 172 -80 44
-7 110 -40 157 -79 48 -41 112 -73 162 -81 51 -8 98 -32 125 -62 57 -66 104
-63 155 9 23 32 59 64 79 70 21 7 49 39 62 71 13 32 41 64 62 71 20 6 74 42
119 80 46 38 91 69 101 69 11 0 57 35 104 79 47 43 110 84 140 92 31 8 68 38
84 69 16 30 60 74 99 97 39 23 71 55 71 72 0 16 20 40 45 53 25 12 77 53 115
91 179 175 241 227 268 227 16 0 46 21 66 46 80 101 440 408 492 421 38 10 66
36 84 80 15 36 51 76 79 89 28 13 61 45 73 71 12 26 50 60 85 75 34 16 72 47
84 71 11 24 50 70 85 103 35 33 64 70 64 82 0 12 32 35 71 51 46 19 78 50 91
88 11 31 42 67 68 80 27 12 61 52 77 88 15 37 51 82 80 101 29 19 70 69 91
111 22 41 54 88 73 104 19 16 55 62 81 102 26 41 65 80 87 87 23 7 55 39 71
71 37 70 183 223 245 256 24 13 50 47 57 74 7 28 38 64 70 80 135 70 118 249
-25 249 -34 0 -84 25 -129 64 -63 56 -94 67 -220 79 -119 11 -160 25 -222 73
-60 47 -109 63 -233 80 -124 16 -176 34 -244 82 -54 40 -110 62 -152 62 -163
0 -304 38 -357 96 -47 53 -67 59 -233 70 -219 16 -228 19 -271 94 -34 60 -35
60 -220 60 -218 0 -303 20 -376 90 -48 46 -75 52 -311 70 -250 18 -261 21
-309 77 -48 56 -58 58 -290 70 -273 15 -370 36 -470 103 -65 43 -96 47 -400
55 -340 8 -376 16 -483 105 -49 41 -78 44 -528 57 -373 10 -485 20 -518 43
-22 16 -62 45 -88 64 -42 30 -130 35 -760 42 -1102 12 -2323 18 -2330 10z"/>
<path d="M39886 9558 c-31 -6 -101 -35 -156 -63 -100 -51 -291 -77 -620 -84
-592 -12 -544 -7 -598 -64 -61 -66 -164 -84 -516 -86 -255 -1 -255 -1 -285
-60 -45 -85 -57 -89 -331 -101 -247 -10 -250 -11 -275 -63 -29 -61 -151 -97
-332 -97 -92 0 -111 -7 -147 -56 -46 -62 -182 -104 -337 -104 -77 0 -92 -7
-118 -57 -31 -61 -93 -83 -230 -83 -54 0 -87 -14 -123 -53 -66 -72 -158 -107
-278 -107 -95 0 -102 -4 -134 -69 -30 -65 -41 -71 -149 -83 -94 -11 -129 -25
-183 -78 -51 -50 -92 -69 -172 -80 -82 -11 -109 -24 -126 -60 -23 -52 -79 -82
-189 -101 -42 -8 -104 -39 -137 -69 -34 -31 -95 -61 -140 -69 -123 -20 -150
-31 -150 -61 0 -49 -101 -110 -184 -110 -65 0 -83 -9 -112 -59 -36 -64 -99
-101 -171 -101 -26 0 -68 -24 -95 -52 -26 -29 -86 -69 -132 -89 -46 -20 -93
-54 -104 -76 -23 -42 -119 -83 -196 -83 -33 0 -60 -21 -89 -70 -24 -42 -63
-76 -94 -83 -29 -7 -85 -42 -125 -77 -40 -36 -104 -70 -143 -78 -53 -10 -82
-31 -113 -83 -22 -38 -55 -69 -72 -69 -17 0 -62 -31 -100 -69 -50 -50 -93 -72
-161 -82 -81 -12 -97 -23 -120 -79 -18 -42 -49 -73 -87 -86 -32 -12 -69 -39
-81 -62 -12 -23 -47 -54 -77 -70 -30 -15 -76 -48 -104 -73 -27 -24 -98 -66
-156 -92 -58 -26 -111 -63 -118 -82 -6 -19 -29 -54 -50 -78 -61 -67 -25 -74
454 -89 462 -14 476 -17 593 -93 125 -82 3312 -81 3430 0 49 34 105 55 148 55
38 0 100 9 138 20 37 10 298 25 579 31 502 12 511 13 568 61 79 66 187 83 630
95 216 7 228 9 284 63 72 69 170 87 474 89 224 1 225 1 298 65 71 63 80 65
316 79 133 7 243 14 245 15 2 1 22 34 44 72 39 66 48 70 147 71 169 3 320 30
344 63 44 59 125 83 329 96 205 13 209 14 262 79 52 63 60 66 239 79 179 13
187 15 240 79 47 58 70 68 177 81 99 12 131 25 164 66 44 56 169 96 299 96 62
0 94 13 140 58 41 40 96 66 173 82 62 13 151 50 197 83 59 41 122 64 213 77
104 15 137 29 172 72 34 42 68 58 158 70 93 12 125 27 176 83 51 55 83 71 168
83 84 11 117 27 166 80 44 48 84 70 143 78 56 7 98 29 135 70 56 61 80 72 203
93 43 7 92 34 123 69 33 37 86 66 150 81 70 17 112 41 143 82 34 47 59 59 118
59 115 1 159 19 183 79 13 30 52 67 87 83 150 66 92 207 -93 227 -119 13 -151
26 -281 118 -37 27 -107 42 -244 52 -184 14 -194 17 -241 78 -49 62 -54 63
-213 63 -204 0 -298 26 -375 101 -55 54 -72 59 -205 60 -261 1 -428 30 -515
87 -76 51 -94 53 -404 61 -593 16 -851 44 -919 101 -33 28 -83 51 -113 53
-155 9 -1189 5 -1237 -5z"/>
</g>
</svg>
